<svg id="Layer_1" xmlns="http://www.w3.org/2000/svg" viewBox="0 0 500 500"><style>.st1{fill:#d4ecff}.st2{fill:#bfddf5}.st3{fill:#fff}.st4{fill:#edf7ff}.st5{fill:#0064d9}.st6{fill:#a2d0f5}.st7{fill:#ffd8b5}.st8{fill:#00adef}.st9{fill:#9ec9ff}.st10{fill:#8cbfff}.st11{fill:#00c4ff}.st12{fill:#0076ff}.st13{fill:#ffe4cc}.st14{fill:#f5c59d}</style><path fill="none" d="M318.5 427.7l52.1 36.8-52.1-36.8z"/><path class="st1" d="M178.9 385.3l53.5 16.5zM0 314.3V330l141.2 43.6z"/><path class="st2" d="M141.2 373.6l37.7 11.7-37.7-11.7zM0 296.4v17.9l141.2 59.3 37.7 11.7 53.5 16.5z"/><path class="st1" d="M0 175.6V198l117.8 76c1.1 5 2.6 9.9 4 14.7L0 202.4l318.5 225.3-96.9-68.5L0 175.6z"/><path class="st3" d="M308.9 421.7l9.5 6.7-86-26.6 138.2 62.7-52.1-36.8z"/><path class="st3" d="M308.9 421.7L127.6 308.2c1.8 6.8 3 13.5 3 20 0 1.1 0 2.1-.1 3.2L0 264.5v24.7l258.5 120.7-26.1-8.1 86 26.6-9.5-6.7z"/><path class="st3" d="M232.4 401.8l26.1 8.1L0 289.2v7.2zM0 203.2l308.9 218.5 9.6 6L0 202.4z"/><path class="st3" d="M0 221l126.2 81.9c.5 1.8 1 3.5 1.5 5.3l181.2 113.5L0 203.2V221zM68.1 150.7l56 74.4c-4.5 5.9-8 13.3-8.7 22.2L0 159.1v14.3l318.5 254.2 52.1 36.9L79.8 140.6s-40-12.8-79.8-20.2v13c24.1 4.6 52.4 10.8 68.1 17.3zM221.6 359.2l96.9 68.5L0 173.5v2.1z"/><path class="st4" d="M124.1 225.1l-56-74.4c-15.7-6.5-44-12.7-68.1-17.3v25.7l115.3 88.2c.8-8.9 4.2-16.3 8.8-22.2zM0 264.5l130.5 66.9c0-1 .1-2.1.1-3.2.1-6.5-1.2-13.2-3-20L0 228.2v36.3zM0 221v7.2l127.6 79.9c-.5-1.8-.9-3.5-1.5-5.3L0 221z"/><path class="st2" d="M117.8 273.9L0 197.9v4.5l121.8 86.1c-1.5-4.7-2.9-9.6-4-14.6z"/><path class="st5" d="M470.1 230.4s9.1 3 13.5-13.9c4.3-16.5-5.9-19.5-5.9-19.5s-8.5 7.2-11.9 13.2c-6.2 10.9 4.3 20.2 4.3 20.2z"/><path class="st4" d="M175.1 293l-25-33.3-.4 13.9zM149.9 341.3l168.6 86.4-168.3-109.2.3 7.1z"/><path class="st2" d="M221.6 359.2l-72.4-65 .6 14.2zM151.4 205s-16.7 6.1-27.4 20.1l26 34.6 1.4-54.7zM130.5 331.4c-1 22-10.6 28.2-10.6 28.2l29.8-12.1.2-6.1-19.4-10z"/><path class="st2" d="M149.8 308.4l-28-19.8c1.5 4.9 3 9.6 4.4 14.3l24 15.6-.4-10.1zM149.7 273.6l-34.4-26.3c-.7 9.2.4 18 2.4 26.5l31.4 20.3.6-20.5z"/><path class="st6" d="M150.1 259.7l-26-34.6c-4.5 5.9-8 13.3-8.7 22.2l34.4 26.3.3-13.9zM150.5 325.6l-.3-7.1-24-15.6c2.5 8.7 4.5 17.1 4.4 25.3 0 1.1 0 2.1-.1 3.2l19.4 9.9.6-15.7zM149.2 294.2l-31.4-20.3c1.1 5 2.6 9.9 4 14.7l28 19.8-.6-14.2z"/><path class="st5" d="M143.8 421.8s-1.5 4.9 12.9 8.9 22.5.8 22.5.8 1.8-13.4-8.8-15.1-26.6 5.4-26.6 5.4zM341.1 164.3s-1.7.5-2.6 2.6-.2 4.7-.2 4.7l131.1 56.8s8.5 2.8 12.8-9.5c5.1-14.7-4.4-19.8-4.4-19.8l-136.7-34.8zM274.7 149.9c-.2 3.3-2.7 6.2-2.4 9.4.2 1.7 1.2 3.2 2.6 4.1.4.3.9.5 1.5.5.7 0 1.3-.5 1.6-1.1.4-.6.5-1.2.7-1.9.6-2.5 1.2-4.9 1.9-7.4 0-.2.1-.3 0-.5-.1-.3-.3-.4-.5-.6-1.1-.8-2.1-1.6-3.2-2.4-1.3-1-2.6-2.2-2.4-3.8"/><path class="st7" d="M397.8 196.5s7.6-14.7-1.6-12.4c-9.2 2.3-7.8 19.9-7.8 19.9-5.1 9.1-36.9 30.4-36.9 30.4s-4.9 30.8 7.7 25.9c12.5-5 38.1-44.8 38.1-44.8 9.7.3 19.8-9.7 19.8-9.7l-19.3-9.3z"/><path class="st8" d="M352.7 249.7c-1.6-8.6-1.2-15.3-1.2-15.3s-2.2 1.8-5 2.9c-.1-1-.4-2-1.1-2.8-.8-.9-2.3-1.2-3.1-.3-.7.8-.8 2.3-1.9 2.3-.6 0-1-.6-1.1-1.1-.1-.6 0-1.2.1-1.8.1-.9-.2-1.9-.8-2.5-.7-.6-1.8-.7-2.4 0-.2.3-.4.6-.6.8-9.1-12.9-27.8-44.2-43.7-44.4-14.3-.1-5.6 30.4-5.6 30.4s24.5 35.4 43 47.9 36-9.7 36-9.7-9.9 7.7-12.6-6.4z"/><path class="st7" d="M398.5 178.1s2 6.4 12.6 12.4 17.4-4.2 17.4-4.2-14.6-11.3-30-8.2z"/><path class="st9" d="M151.7 421.3l-12.8 17.8s3.9 7 10.1 8.8c6.2 1.8 10-5.3 10-5.3l15.3-23.8-22.6 2.5z"/><path class="st10" d="M161.6 421.6l-5.5-.9-4.4.5-12.8 17.8s.5.8 1.3 1.9l8.4 3.1c3.6-8.1 13-22.4 13-22.4z"/><path class="st5" d="M138.9 439.1s-11.7 6-12.7 12.8c0 0 5.7 7.3 36.8 8.4s37.8-5.7 34.7-12.4c-3.1-6.7-21.7-5.9-38.7-5.2s-20.1-3.6-20.1-3.6z"/><path class="st11" d="M171.4 447.4c-14-.8-45.1 4.5-45.1 4.5s5.7 7.3 36.8 8.4c24.3.8 33.7-3.1 35.2-8.1-.5-.1-13.1-4-26.9-4.8z"/><path class="st12" d="M180.3 385.7l-36.5 36.2s23.3-5.4 35.4 9.7l48-31.4-46.9-14.5zM45 388.4s-3.5-8.4-15-5.5c-11.6 2.9-11.2 14.2-8.6 22.7s2.6 23.5 3.1 31.9C25.6 456.3 42 460 45.6 452c3.6-8.1 2.4-46.5 2.4-46.5l-3-17.1z"/><path class="st5" d="M45 388.4s-3.5-8.4-15-5.5c-11.6 2.9-11.2 14.2-8.6 22.7 2.6 8.5 2.6 23.5 3.1 31.9.4 6 2.3 10.5 4.9 13.5l7.4 4.7s-10.4-9.5-9.2-27.1c1.2-17.5-1.6-20 1.2-32.6 2.6-12.5 16.2-7.6 16.2-7.6z"/><path class="st9" d="M60.4 384.3l-23.7 3.3s-3.9 7.8-.8 15.2c3 7.3 7.9 6.6 7.9 6.6l26.8-6.8-10.2-18.3z"/><path class="st10" d="M34.7 396.3s12.5 2.1 24.6-2.8c2.1-.8 3.6-1.8 4.6-2.8l-3.5-6.3-23.7 3.3s-1.9.5-2 8.6z"/><path class="st12" d="M185.6 279.5c3.3-2.7 27 11.5 46.8 31 16.5 16.4 32.1 35.8 32.1 35.8s-3.7-49.9-16.6-70.6L235 255s-73.3-13.7-97-42.4c0 0-22.9 18.7-14.1 55.2 5.7 23.7 11.9 46.5 13.5 63.1-1.4 1.7-2.2 3.9-2.2 6.1 0 2.6 1.1 5.6-.6 7.6-.6.8-1.6 1.3-2.2 2.1-1.2 1.7-.4 4.6-2 5.9-1.8 1.4-4.8-.5-6.8.8s-1.5 5.1-3.7 6c-.8.3-1.7 0-2.6 0-1.8 0-3.5 1.4-4 3.2-24.1 7.7-53.3 12.5-53.3 12.5s-5.9 6.7-2 21.8 11 15.2 11 15.2 79.8 8.1 107.2-48.5 3.3-79 9.4-84.1z"/><path class="st5" d="M138 212.7s-22.9 18.7-14.1 55.2c5.7 23.7 11.9 46.5 13.5 63.1-1.4 1.7-2.2 3.9-2.2 6.1 0 2.6 1.1 5.6-.6 7.6-.6.8-1.6 1.3-2.2 2.1-1.2 1.7-.4 4.6-2 5.9-1.8 1.4-4.8-.5-6.8.8s-1.5 5.1-3.7 6c-.8.3-1.7 0-2.6 0-1.8 0-3.5 1.4-4 3.2-24.1 7.7-53.3 12.5-53.3 12.5s-3.7 4.2-3.3 13.5c18.1 4.3 37.9 1 53.6-9.1 1.4-.9 2.9-1.9 4.5-2.3 3.8-.9 8.8 1 11.1-2.2 1.1-1.6.9-3.9 2.3-5.3 1.6-1.7 4.8-1.1 6.3-2.9 1.8-2.1.4-6.3 2.9-7.5.8-.4 1.7-.3 2.5-.3 5.5-.4 8.6-6.5 10-11.8 3-11.2 3.8-23.1 2.2-34.6-2.4-17-9.7-33.1-11.4-50.3-.8-8.9.8-19.4 8.7-23.7 1.7-.9 3.8-1.7 4.3-3.6.2-.9 0-1.8-.3-2.6-.9-3.2-2.1-6.3-3.5-9.3-4.8-3.1-8.8-6.7-11.9-10.5z"/><path class="st11" d="M264.3 171.7s-41.8-10.4-73.6 3.4-52.7 37.6-52.7 37.6 1.6 24 39.8 44.6c7.4 4 57.2-2.3 57.2-2.3s37.2-25.1 46.4-28.5c29.4-10.8 22.9-32.8 22.9-32.8s-18.9-18.8-40-22z"/><path class="st8" d="M264.3 171.7s-41.8-10.4-73.6 3.4c-31.8 13.8-52.7 37.6-52.7 37.6s.8 12.1 15 26.6c9.6-14.6 23.9-25.5 37.9-35.9 7.7-5.7 15.6-11.6 24.7-14.5 7.2-2.3 14.9-2.7 22.5-3.1 9.3-.5 18.6-.9 27.9-1.4-.8-3.9.6-8.2.9-12.1-.8-.3-1.7-.5-2.6-.6z"/><path class="st7" d="M277.5 158.1s-1.4 8-5.1 11-8.1 2.6-8.1 2.6-8.5 28.8 11.7 30.3c20.1 1.6 15.9-14.4 15.9-14.4s-16.2-24.7-14.4-29.5z"/><path class="st13" d="M316.2 121.5c-10.3-1.3-20.4 5.6-28.5 13.3-.3-3.2-1.7-6.8-7.1-4.3-8.5 3.9-10 19.3-2.7 22.3-2.8 10.4-3.9 24.6 6.7 33.1 18.1 14.6 44.7-7.6 50-32.4 5.4-24.8-5.8-30.5-18.4-32z"/><path class="st14" d="M279.1 202.1c11.8-.2 13.2-7.5 13.1-11.7l-19.8-21.3s-5.1 26.6 6.7 33z"/><path class="st7" d="M327.8 130.6c-4.7-2.7-9.6-5.3-14.8-6.8-2.3-.6-4.6-1-7-1.1-6.7 2.2-13 7-18.3 12.1 0-.3-.1-.6-.1-.9-.2.8-.4 1.5-.5 2.3l4.1 6.8c4.9-4.4 12.6-3.3 18.6-.7 6 2.6 11.7 6.5 18.3 7.2 2.6.3 5.6-.2 7.6-1.8.5-4.5.5-8.2-.2-11.3-2-2.4-5-4.3-7.7-5.8z"/><path class="st12" d="M276.9 153.8c-.9 1.4-1.4 3-1.9 4.6-1.9 6.3-3.9 13-2 19.3 2.7 8.8 12.2 13.9 21.4 14.9 4.8.5 9.7.2 14.1-1.8s17.1-14.2 18.5-18.7c.4-1.3-8.3 5.8-8.9 4.6-1.2-2.5-4.5-2.7-7-3.8-2.4-1-4.3-3-5.2-5.5-.4-1.2-.6-2.6-1.2-3.7-2.9-5.4-13-3.6-15.1-9.4-1.5-4.1 2.2-6.8 3.3-10.4 2-6.3 1.1-6.7-1.7-6-2.6.7 0 0-6.7 8.7-2.1 2.9-5.7 4.4-7.6 7.2z"/><path class="st5" d="M234.6 289.8c-4.7-8.7-12.4-16.1-21.9-18.9-4.1-1.2-8.5-1.6-12.8-1.9-4.2-.3-9-.2-11.6 3.1-1.6 2-1.9 4.7-1.5 7.2 6.7.7 33.9 23.5 55 41.1.4-10-2.5-21.9-7.2-30.6z"/><path d="M324.3 150.4s-3.1 24.1-7.1 27.9-9.5-1.9-8-5.7c1.5-3.9 15.1-22.2 15.1-22.2z" fill="#ffd2a5"/><path class="st13" d="M236.3 345.4l-7-61.3s-16.6-6-22.5 9.6c0 0 2.7 39 13.3 51.9 0 0-2 16-1.7 22.4.2 3.4 2.6 8.2 6.3 11.3 4.8 4.9 12.8 10.2 24 7.5 4.6-2-1.2-11.4-5.2-17.1-2.6-4.2-1.7-9.1-1.7-9.1s9.5 9.3 10.8 7.3c1.5-1.9-16.3-22.5-16.3-22.5z"/><path class="st7" d="M244.2 387.5c-13.5-5.6-19.4-18.7-20.1-24.3-.7-6 3.4-11.8 2.5-17.8-.3-2-1.2-3.8-1.9-5.7-2.2-5.4-3.7-11-4.6-16.8-.8-5.1-.7-10.3-1.3-15.4-.7-6.9.8-16.2-2.5-18.4-3.8-2.5-6.5 7.4-8.8 11.1 1.3 11.7 4.8 35.7 12.7 45.3 0 0-2 16-1.7 22.4.2 3.4 2.6 8.2 6.3 11.3 4 4.3 10.5 8.8 19.4 8.3z"/><path class="st12" d="M356 125.3c-2.9-7.4-11.3-11.7-19.2-11.3-2.5.1-5 .7-7.6 1.1-.8-.3-1.5-.6-2.3-1-2.4-1.3-4.4-3.1-6.6-4.7-5.6-4-12.4-6.2-19.3-6.3-4.1 0-8.6 1-10.9 4.3-.9 1.3-1.4 2.8-2.7 3.8-1.5 1.1-3.5 1.4-5.3 1.9-5.4 1.7-7.1 4.4-7 6.9-.4 1.9-.3 3.9-.1 5.9.3 3.1.5 6.1.8 9.2-.1-1.7 6.8-4.4 8.2-3.9 3.5 1.3 3.3 6.6 4 9.7.1.6.3 1.3.7 1.8 1.3 1.6 4 .3 4.9-1.5.8-1.9.7-4 1.4-6 1.4-3.9 6-5.7 10.1-5.3 4.1.4 7.8 2.5 11.4 4.3 5.9 3.1 12 5.7 18.2 8 4 1.5 8.3 2.8 12.5 1.8 7.6-1.5 11.7-11.3 8.8-18.7z"/><path class="st5" d="M180.3 385.7l-36.5 36.2s8.5-2 17.9-.2c3.2-2.6 6.1-6.9 9.2-9.3 8.5-6.6 19.4-13.8 27.6-21l-18.2-5.7z"/><path class="st8" d="M232 257.9c-1.2-1.8 1.1-3.8 1.9-5.8.8-2-.1-4.2-.4-6.3-.1-.7-.2-1.4-.2-2.1 8.4-20.4 40.6-72.3 9.1-69.8-16.1 1.3-35.3 26.8-38.4 62.2-3.1 34.8-5.1 56.4 3.6 65.2 0 0 7.7-5.9 13.7-6.5 6-.6 9.8 2.1 9.8 2.1s-1.3-8.2-1.9-18.5c.8-2.8 1.5-5.6 1.4-8.4-.1-1.5-.3-3.1.3-4.4.5-1.1 1.5-1.8 2.2-2.7.7-.9 1.2-2.3.5-3.2-.5-.9-1.2-1.2-1.6-1.8z"/><path class="st8" d="M181.4 252.5c3.1.8 6.3.9 9.5 1 6 .1 11.9.3 17.9.4-.4-2.2-2.3-3.9-4.5-4.6-2.1-.7-4.4-.6-6.7-.5-7.2.3-14.8.4-21.2-2.8-7.6-3.8-13-13.4-21.3-15.4 1.2 3.9 8.6 9.2 11.7 12.3 4.4 4.2 8.9 8.1 14.6 9.6z"/><path class="st8" d="M182.9 244.5c2.6 3.2 6.5 5.3 10.6 5.6-3.1-2.2-6.3-4.5-8.2-7.7-1.1-1.8-1.7-3.9-2.7-5.8-1.6-3-4.6-6.1-7.9-6.9 0 3.7 5.8 11.9 8.2 14.8zM267.7 204.7c4.7 2 9.9 1.8 14.9 1.6-1.5 1.9-4.1 2.4-6.5 2.7-2.4.3-4.9.4-7.2-.1-4.3-.9-10.3-5.8-10.2-10.7.1-4.2 1.1-.7 2.5.7 2.1 2.3 3.4 4.5 6.5 5.8z"/><path class="st5" d="M322.6 117c-2.5-1.3-4.7-3.3-7.1-4.8-1.6-1-3.2-1.9-5-2.7-3.6-1.5-7.7-2.3-11.5-1.3s-7.1 4.2-7.4 8.1c.8-1.4 2.3-2.5 3.9-3s3.4-.3 4.8.5c1.9 1 3.1 2.7 4.8 4 1.3.9 2.7 1.6 4.2 2.2 3 1.2 6.2 2.3 9.4 2.7s6.6.1 9.6-1.3c.6-.3 1.3-.7 1.7-1.2.4-.5.9-1.3.7-1.9-3 .4-5.5.1-8.1-1.3zM279.5 119c-1.5 1.1-2 3.2-1.7 5.1s1 3.6 1.4 5.4c.7-1.9-.4-4.6 1.2-6 .8-.7 2-.7 3-1.1 2-.7 3.8-2.9 3-4.9-2.1.3-5.1.2-6.9 1.5zM305.3 191.4c.1-1.9-2.2-2.8-4-3.1-4.3-.8-8.8-1.2-12.7-3.2-3.9-2-7.3-5.9-7-10.3.1-1.5.6-3 .3-4.5-.4-2.2-2.4-3.7-3.3-5.7-1.8-3.9.8-8.3 3.5-11.5 2.6-3.1 5.7-6.6 5.6-10.6-.7 1.1-1.7 2.5-3.2 4.4-2.1 2.7-5.7 4.2-7.6 7-.9 1.4-1.4 3-1.9 4.6-1.9 6.3-3.9 13-2 19.3 2.7 8.8 12.2 13.9 21.4 14.9 3.6.4 7.2.3 10.7-.6.1-.2.2-.4.2-.7zM299.1 120c1.5.6 2.7 1.8 4 2.8s2.7 2 4.3 2.1c.9.1 1.7-.1 2.5.1-2.9 2-7.1 1.6-9.6-.8-.8-.8-1.5-1.8-2.4-2.6-.8-.7-1.9-1-2.9-1.3 1.2-1 2.9-.8 4.1-.3zM160.5 359.9c-.5 3-3.5 5.3-6.5 5.1-1.1-.1-2.5-.4-3.3.4-1.2 1.3.5 3.3 2.1 4.1 1.6.8 3.5 2.5 2.5 4-1 1.6-3.9.3-5.4 1.6-1.3 1.1-.4 3.4 1.1 4.3 2.5 1.4 5.8.3 7.7-1.9 1.8-2.2 2.4-5.1 2.6-8 .1-2.8-.2-5.7 0-8.5"/><path class="st11" d="M216 251.9c3.8-1.5 8-2.9 11.8-1.5.6.2 1.3.5 1.9.6.7.1 1.4-.2 1.8-.8.1-.3.2-.6.2-.8.1-.7.1-1.4-.2-1.9-.4-.7-1.3-1-2.1-1.2-4.4-1-9.2-.2-13.1 2.1-1.6.9-3.5 2.6-3 4.5.9-.3 1.8-.6 2.7-1z"/><ellipse transform="rotate(-74.835 472.63 213.372)" class="st11" cx="472.6" cy="213.4" rx="14.4" ry="7"/><path class="st11" d="M215.7 255.6c3.1-.1 5.8 2.3 8.9 2.3.8 0 1.6-.1 2.3.1.8.2 1.4 1 1.1 1.8-.2.6-.9.8-1.5.9-2.7.4-5.3-.8-7.8-1.8-1.7-.7-3.5-1.3-5.4-1.3-1.4.1-2.8.8-4 .6 1.4-1.4 4.4-2.5 6.4-2.6z"/><path class="st12" d="M445.2 189.4s-4.6 3.4-7.1 11.6c-2.4 7.7-.5 14.5-.5 14.5l32.5 14.9s-4.8-6.8-.5-20.7c2.7-8.7 8.1-12.7 8.1-12.7l-32.5-7.6z"/><path class="st4" d="M474.6 203s1.6 3.1 1.1 8.5-2.5 9.3-2.5 9.3 5-4.4 5.3-11.4c.3-4.9-3.9-6.4-3.9-6.4z"/><path class="st14" d="M397.8 196.5s-2.3 7.5 2.4 11 16.9-1.8 16.9-1.8l-19.3-9.2z"/></svg>