<svg id="Layer_1" xmlns="http://www.w3.org/2000/svg" viewBox="0 0 327 210"><style>.st0{fill:#c6e6fe}.st1{fill:#5395fc}.st2{fill:#0846fb}.st3{fill:#fff}</style><path class="st0" d="M81.7 58.7H5.3c-2.8 0-5-2.2-5-5v-48c0-2.8 2.2-5 5-5h76.4c2.8 0 5 2.2 5 5v48c0 2.8-2.3 5-5 5z"/><path class="st1" d="M41.3 16.6H11.1c-1.7 0-3-1.3-3-3s1.3-3 3-3h30.1c1.7 0 3 1.3 3 3s-1.3 3-2.9 3zM41.3 37.3H11.1c-.8 0-1.5-.7-1.5-1.5s.7-1.5 1.5-1.5h30.1c.8 0 1.5.7 1.5 1.5s-.6 1.5-1.4 1.5zM30.4 27.3H11.7c-.8 0-1.5-.7-1.5-1.5s.7-1.5 1.5-1.5h18.7c.8 0 1.5.7 1.5 1.5s-.7 1.5-1.5 1.5z"/><path class="st0" d="M81.7 130.8H5.3c-2.8 0-5-2.2-5-5v-48c0-2.8 2.2-5 5-5h76.4c2.8 0 5 2.2 5 5v48c0 2.8-2.3 5-5 5z"/><path class="st1" d="M33.2 88.8h-22c-1.7 0-3-1.3-3-3s1.3-3 3-3h22c1.7 0 3 1.3 3 3s-1.4 3-3 3zM67.7 88.8h-22c-1.7 0-3-1.3-3-3s1.3-3 3-3h22c1.7 0 3 1.3 3 3s-1.4 3-3 3zM30.4 109.5H11.1c-.8 0-1.5-.7-1.5-1.5s.7-1.5 1.5-1.5h19.3c.8 0 1.5.7 1.5 1.5s-.7 1.5-1.5 1.5zM30.4 99.5H11.7c-.8 0-1.5-.7-1.5-1.5s.7-1.5 1.5-1.5h18.7c.8 0 1.5.7 1.5 1.5s-.7 1.5-1.5 1.5zM56.7 99.5H38c-.8 0-1.5-.7-1.5-1.5s.7-1.5 1.5-1.5h18.7c.8 0 1.5.7 1.5 1.5s-.7 1.5-1.5 1.5z"/><path class="st0" d="M81.7 201.4H5.3c-2.8 0-5-2.2-5-5v-48c0-2.8 2.2-5 5-5h76.4c2.8 0 5 2.2 5 5v48c0 2.8-2.3 5-5 5z"/><path class="st1" d="M54.5 159.3H11.1c-1.7 0-3-1.3-3-3s1.3-3 3-3h43.4c1.7 0 3 1.3 3 3s-1.3 3-3 3zM41.3 180H11.1c-.8 0-1.5-.7-1.5-1.5s.7-1.5 1.5-1.5h30.1c.8 0 1.5.7 1.5 1.5s-.6 1.5-1.4 1.5zM77.5 180H47.3c-.8 0-1.5-.7-1.5-1.5s.7-1.5 1.5-1.5h30.1c.8 0 1.5.7 1.5 1.5s-.6 1.5-1.4 1.5zM30.4 170.1H11.7c-.8 0-1.5-.7-1.5-1.5s.7-1.5 1.5-1.5h18.7c.8 0 1.5.7 1.5 1.5s-.7 1.5-1.5 1.5z"/><path class="st0" d="M196.1 58.7h-76.4c-2.8 0-5-2.2-5-5v-48c0-2.8 2.2-5 5-5h76.4c2.8 0 5 2.2 5 5v48c0 2.8-2.3 5-5 5z"/><path class="st1" d="M147.6 16.6h-22c-1.7 0-3-1.3-3-3s1.3-3 3-3h22c1.7 0 3 1.3 3 3s-1.4 3-3 3zM182.1 16.6h-22c-1.7 0-3-1.3-3-3s1.3-3 3-3h22c1.7 0 3 1.3 3 3s-1.4 3-3 3zM144.8 37.3h-19.3c-.8 0-1.5-.7-1.5-1.5s.7-1.5 1.5-1.5h19.3c.8 0 1.5.7 1.5 1.5s-.7 1.5-1.5 1.5zM144.8 27.3h-18.7c-.8 0-1.5-.7-1.5-1.5s.7-1.5 1.5-1.5h18.7c.8 0 1.5.7 1.5 1.5s-.7 1.5-1.5 1.5zM171.1 27.3h-18.7c-.8 0-1.5-.7-1.5-1.5s.7-1.5 1.5-1.5h18.7c.8 0 1.5.7 1.5 1.5s-.7 1.5-1.5 1.5z"/><path class="st0" d="M196.1 129.3h-76.4c-2.8 0-5-2.3-5-5v-48c0-2.8 2.2-5 5-5h76.4c2.8 0 5 2.2 5 5v48c0 2.7-2.3 5-5 5z"/><path class="st1" d="M168.9 87.2h-43.4c-1.7 0-3-1.3-3-3s1.3-3 3-3h43.4c1.7 0 3 1.3 3 3s-1.3 3-3 3zM155.7 107.9h-30.1c-.8 0-1.5-.7-1.5-1.5s.7-1.5 1.5-1.5h30.1c.8 0 1.5.7 1.5 1.5s-.7 1.5-1.5 1.5zM191.9 107.9h-30.1c-.8 0-1.5-.7-1.5-1.5s.7-1.5 1.5-1.5h30.1c.8 0 1.5.7 1.5 1.5s-.7 1.5-1.5 1.5zM144.8 97.9h-18.7c-.8 0-1.5-.7-1.5-1.5s.7-1.5 1.5-1.5h18.7c.8 0 1.5.7 1.5 1.5s-.7 1.5-1.5 1.5z"/><path class="st0" d="M307.8 58.7h-76.4c-2.8 0-5-2.2-5-5v-48c0-2.8 2.2-5 5-5h76.4c2.8 0 5 2.2 5 5v48c0 2.8-2.2 5-5 5z"/><path class="st1" d="M259.3 16.6h-22c-1.7 0-3-1.3-3-3s1.3-3 3-3h22c1.7 0 3 1.3 3 3s-1.3 3-3 3zM293.9 16.6h-22c-1.7 0-3-1.3-3-3s1.3-3 3-3h22c1.7 0 3 1.3 3 3s-1.4 3-3 3zM256.6 37.3h-19.3c-.8 0-1.5-.7-1.5-1.5s.7-1.5 1.5-1.5h19.3c.8 0 1.5.7 1.5 1.5s-.7 1.5-1.5 1.5zM256.6 27.3h-18.7c-.8 0-1.5-.7-1.5-1.5s.7-1.5 1.5-1.5h18.7c.8 0 1.5.7 1.5 1.5s-.7 1.5-1.5 1.5zM282.8 27.3h-18.7c-.8 0-1.5-.7-1.5-1.5s.7-1.5 1.5-1.5h18.7c.8 0 1.5.7 1.5 1.5s-.6 1.5-1.5 1.5z"/><path class="st0" d="M307.8 129.3h-76.4c-2.8 0-5-2.3-5-5v-48c0-2.8 2.2-5 5-5h76.4c2.8 0 5 2.2 5 5v48c0 2.7-2.2 5-5 5z"/><path class="st1" d="M280.7 87.2h-43.4c-1.7 0-3-1.3-3-3s1.3-3 3-3h43.4c1.7 0 3 1.3 3 3s-1.4 3-3 3zM256.6 107.9h-19.3c-.8 0-1.5-.7-1.5-1.5s.7-1.5 1.5-1.5h19.3c.8 0 1.5.7 1.5 1.5s-.7 1.5-1.5 1.5zM277.1 97.9h-19.3c-.8 0-1.5-.7-1.5-1.5s.7-1.5 1.5-1.5h19.3c.8 0 1.5.7 1.5 1.5s-.7 1.5-1.5 1.5zM295.7 107.9h-30.1c-.8 0-1.5-.7-1.5-1.5s.7-1.5 1.5-1.5h30.1c.8 0 1.5.7 1.5 1.5s-.6 1.5-1.5 1.5zM250.2 97.9h-12.3c-.8 0-1.5-.7-1.5-1.5s.7-1.5 1.5-1.5h12.3c.8 0 1.5.7 1.5 1.5s-.7 1.5-1.5 1.5z"/><path class="st0" d="M307.8 199.9h-76.4c-2.8 0-5-2.2-5-5v-48c0-2.8 2.2-5 5-5h76.4c2.8 0 5 2.2 5 5v48c0 2.7-2.2 5-5 5z"/><path class="st1" d="M280.7 157.8h-43.4c-1.7 0-3-1.3-3-3s1.3-3 3-3h43.4c1.7 0 3 1.3 3 3s-1.4 3-3 3zM254.1 178.5h-16.8c-.8 0-1.5-.7-1.5-1.5s.7-1.5 1.5-1.5h16.8c.8 0 1.5.7 1.5 1.5s-.6 1.5-1.5 1.5zM291.1 178.5H261c-.8 0-1.5-.7-1.5-1.5s.7-1.5 1.5-1.5h30.1c.8 0 1.5.7 1.5 1.5s-.7 1.5-1.5 1.5zM256.6 168.5h-18.7c-.8 0-1.5-.7-1.5-1.5s.7-1.5 1.5-1.5h18.7c.8 0 1.5.7 1.5 1.5s-.7 1.5-1.5 1.5z"/><circle class="st2" cx="307.8" cy="47.3" r="17.6"/><path class="st3" d="M306.1 56.1c-.5 0-.9-.2-1.3-.5l-7.9-6.8c-.8-.7-.9-2-.2-2.8.7-.8 2-.9 2.8-.2l6.3 5.4 9.4-12.4c.7-.9 1.9-1 2.8-.4.9.7 1 1.9.4 2.8l-10.7 14.1c-.3.4-.8.7-1.4.8h-.2z"/><circle class="st2" cx="309.1" cy="120.9" r="17.6"/><path class="st3" d="M307.4 129.8c-.5 0-.9-.2-1.3-.5l-7.9-6.8c-.8-.7-.9-2-.2-2.8s2-.9 2.8-.2l6.3 5.4 9.4-12.4c.7-.9 1.9-1.1 2.8-.4.9.7 1 1.9.4 2.8L309 129c-.3.4-.8.7-1.4.8 0-.1-.1 0-.2 0z"/><circle class="st2" cx="309.1" cy="192.4" r="17.6"/><path class="st3" d="M307.4 201.2c-.5 0-.9-.2-1.3-.5l-7.9-6.8c-.8-.7-.9-2-.2-2.8.7-.8 2-.9 2.8-.2l6.3 5.4 9.4-12.4c.7-.9 1.9-1.1 2.8-.4.9.7 1 1.9.4 2.8L309 200.4c-.3.4-.8.7-1.4.8h-.2z"/></svg>