<svg id="Layer_1" xmlns="http://www.w3.org/2000/svg" viewBox="0 0 453 245"><style>.st0{fill:#bad9ff}.st4{fill:#fff}.st5{fill:#76acf0}</style><path class="st0" d="M330.1 245c2.2-7.4 3.9-15.5 5.1-24.1 8.8-63.7-49.4-98.2-49.4-98.2-20.9-13.8-91.1-23.4-128.5 16.5-35.3 37.7-44.1 79.9-38.5 105.8h211.3z"/><path d="M148.4 245c-2.8-6.8-4.6-14-5.1-21.8-2.7-43 19.6-79.9 36.9-101-8.4 4.2-16.2 9.8-22.9 17-35.3 37.7-44.1 79.9-38.5 105.8h29.6z" fill="#9ec9ff"/><path d="M286.9 73.9s7.7-2.4 16 0c8.4 2.4 9.8 9.1 20.1 10 10.3.9 18 0 18 0l-7.2 26.7s-11.2 2.8-22.5 0-20.3-14.7-32.1-10l7.7-26.7z" fill="#00c4ff"/><path d="M272.6 126.1c-.2 0-.4 0-.5-.1-1.1-.3-1.7-1.4-1.4-2.5l16-56.4c.3-1.1 1.4-1.7 2.5-1.4 1.1.3 1.7 1.4 1.4 2.5l-16 56.4c-.3.9-1.1 1.5-2 1.5z" fill="#0064d9"/><path class="st0" d="M7.4 135.1c-.4 0-.8-.1-1.1-.4l-5.5-5.5c-.6-.6-.6-1.5 0-2.1s1.5-.6 2.1 0l5.5 5.5c.6.6.6 1.5 0 2.1-.3.3-.7.4-1 .4z"/><path class="st0" d="M1.9 135.1c-.4 0-.8-.1-1.1-.4-.6-.6-.6-1.5 0-2.1l5.5-5.5c.6-.6 1.5-.6 2.1 0s.6 1.5 0 2.1L3 134.7c-.3.3-.7.4-1.1.4zM163.4 32.3c-.4 0-.8-.1-1.1-.4l-5.5-5.5c-.6-.6-.6-1.5 0-2.1.6-.6 1.5-.6 2.1 0l5.5 5.5c.6.6.6 1.5 0 2.1-.2.2-.6.4-1 .4z"/><path class="st0" d="M158 32.3c-.4 0-.8-.1-1.1-.4-.6-.6-.6-1.5 0-2.1l5.5-5.5c.6-.6 1.5-.6 2.1 0 .6.6.6 1.5 0 2.1l-5.5 5.5c-.3.2-.6.4-1 .4zM35.2 230.2c-.4 0-.8-.1-1.1-.4l-5.5-5.5c-.6-.6-.6-1.5 0-2.1s1.5-.6 2.1 0l5.5 5.5c.6.6.6 1.5 0 2.1-.3.2-.7.4-1 .4z"/><path class="st0" d="M29.7 230.2c-.4 0-.8-.1-1.1-.4-.6-.6-.6-1.5 0-2.1l5.5-5.5c.6-.6 1.5-.6 2.1 0s.6 1.5 0 2.1l-5.5 5.5c-.2.2-.6.4-1 .4zM99 125.6c-.4 0-.8-.1-1.1-.4l-5.5-5.5c-.6-.6-.6-1.5 0-2.1s1.5-.6 2.1 0l5.5 5.5c.6.6.6 1.5 0 2.1-.2.3-.6.4-1 .4z"/><path class="st0" d="M93.5 125.6c-.4 0-.8-.1-1.1-.4-.6-.6-.6-1.5 0-2.1l5.5-5.5c.6-.6 1.5-.6 2.1 0s.6 1.5 0 2.1l-5.5 5.5c-.2.3-.6.4-1 .4zM121.4 75.5c-.4 0-.8-.1-1.1-.4l-8.3-8.3c-.6-.6-.6-1.5 0-2.1s1.5-.6 2.1 0l8.3 8.3c.6.6.6 1.5 0 2.1-.2.3-.6.4-1 .4z"/><path class="st0" d="M113.1 75.5c-.4 0-.8-.1-1.1-.4-.6-.6-.6-1.5 0-2.1l8.3-8.3c.6-.6 1.5-.6 2.1 0s.6 1.5 0 2.1l-8.3 8.3c-.2.3-.6.4-1 .4zM451.1 96.7c-.4 0-.8-.1-1.1-.4l-5.5-5.5c-.6-.6-.6-1.5 0-2.1s1.5-.6 2.1 0l5.5 5.5c.6.6.6 1.5 0 2.1-.2.2-.6.4-1 .4z"/><path class="st0" d="M445.6 96.7c-.4 0-.8-.1-1.1-.4-.6-.6-.6-1.5 0-2.1l5.5-5.5c.6-.6 1.5-.6 2.1 0s.6 1.5 0 2.1l-5.5 5.5c-.2.2-.6.4-1 .4zM437.1 142.1c-.4 0-.8-.1-1.1-.4l-5.5-5.5c-.6-.6-.6-1.5 0-2.1s1.5-.6 2.1 0l5.5 5.5c.6.6.6 1.5 0 2.1-.2.3-.6.4-1 .4z"/><path class="st0" d="M431.6 142.1c-.4 0-.8-.1-1.1-.4-.6-.6-.6-1.5 0-2.1l5.5-5.5c.6-.6 1.5-.6 2.1 0s.6 1.5 0 2.1l-5.5 5.5c-.2.3-.6.4-1 .4zM395.1 137.9c-.4 0-.8-.1-1.1-.4l-5.5-5.5c-.6-.6-.6-1.5 0-2.1s1.5-.6 2.1 0l5.5 5.5c.6.6.6 1.5 0 2.1-.2.2-.6.4-1 .4z"/><path class="st0" d="M389.6 137.9c-.4 0-.8-.1-1.1-.4-.6-.6-.6-1.5 0-2.1l5.5-5.5c.6-.6 1.5-.6 2.1 0s.6 1.5 0 2.1l-5.5 5.5c-.2.2-.6.4-1 .4zM367.1 12.3c-.4 0-.8-.1-1.1-.4l-8.3-8.3c-.6-.6-.6-1.5 0-2.1.6-.6 1.5-.6 2.1 0l8.3 8.3c.6.6.6 1.5 0 2.1-.2.2-.6.4-1 .4z"/><path class="st0" d="M358.8 12.3c-.4 0-.8-.1-1.1-.4-.6-.6-.6-1.5 0-2.1l8.3-8.3c.6-.6 1.5-.6 2.1 0 .6.6.6 1.5 0 2.1l-8.3 8.3c-.2.2-.6.4-1 .4z"/><path class="st4" d="M295.7 82.9c-1.3 3.6-2.7 7.2-4 10.9-.6 1.5 1.9 2.2 2.4.7 1.3-3.6 2.7-7.2 4-10.9.6-1.6-1.8-2.2-2.4-.7z"/><path class="st4" d="M294.4 90.9c2.2.1 4.4.6 6.5 1.3 1.5.5 2.2-1.9.7-2.4-2.3-.8-4.7-1.3-7.2-1.4-1.6-.1-1.6 2.4 0 2.5z"/><path class="st4" d="M304 83.8c-2.1 4.1-3.7 8.4-4.8 12.8-.4 1.6 2 2.2 2.4.7 1-4.3 2.5-8.3 4.5-12.2.8-1.4-1.4-2.7-2.1-1.3zM307.9 90.8c-1.3 2.6-2.2 5.2-2.7 8-.3 1.6 2.1 2.2 2.4.7.5-2.6 1.3-5.1 2.5-7.4.7-1.5-1.5-2.8-2.2-1.3z"/><g><path class="st4" d="M311.6 88.8c1.6 0 1.6-2.5 0-2.5s-1.6 2.5 0 2.5z"/></g><path class="st4" d="M320.6 103.4v-.3c0-1.6-2.5-1.6-2.5 0v.3c0 1.6 2.5 1.6 2.5 0v-.3c0-1.6-2.5-1.6-2.5 0v.3c0 1.6 2.5 1.6 2.5 0zM322.3 97c0-2.8.5-5.4 1.5-7.9.6-1.5-1.8-2.1-2.4-.7-1.1 2.8-1.6 5.6-1.6 8.6 0 1.6 2.5 1.6 2.5 0z"/><g><path class="st5" d="M266.3 168c3.2 2.5 6.7 5 8.6 8.6 2.4 4.6 2.1 10.7 6 14 3 2.6 7.5 2.5 11.5 2 2.4-.3 4.9-.8 6.7-2.4 1.7-1.5 2.5-3.8 3-6 3-13.2-2.9-28-14.1-35.6-16-10.8-41.3 3.8-21.7 19.4zM260 177.2c4.1 3.5 6.9 8.3 8 13.5.4 1.7.5 3.6-.2 5.3-.7 1.7-2.3 3-4.1 2.8-1.4-.2-2.6-1.2-3.5-2.3-3.6-4.2-5.8-9.6-5.9-15.2 0-1.5.1-3.1 1-4.3.9-1.2 2.9-1.6 3.9-.5M311.7 198.1c-3.5 3.7-5.5 8.9-5.3 14.1.1 1.8.4 3.7 1.5 5.2 2.6 3.7 8.9 3.3 11.9-.2s3.1-8.7 1.7-13c-.7-2.1-1.8-4.1-3.5-5.4s-4.4-1.8-6.3-.7M157.3 139.2c-7.8 8.3-14.2 16.8-19.5 25.3 1.4 1.9 3.5 3.2 5.8 3.1 6.4-.1 10.3-9.7 16.6-8.5 2.6.5 4.5 2.8 6.7 4.1 4.2 2.5 9.9 1.6 13.8-1.3s6.3-7.6 7.4-12.3c.7-3.1 1.1-6.5 3.2-8.9 1.3-1.5 3.1-2.4 4.8-3.4 4.9-2.7 9.7-6.4 11.5-11.7 2.3-6.7-3-9.4-9.2-10.5-15.2 4.3-29.7 11.9-41.1 24.1zM215.3 137.2c-3.4 2.3-7 5.3-7 9.4.1 3.7 3.7 6.8 7.4 6.7 3.7-.1 7-2.9 8.3-6.4.9-2.5.7-5.4-.8-7.5s-5.6-3.4-7.9-2.2M197.2 172.4c-6.2 3-4.1 13.9-1 19.7s9.3 9.7 15.8 10c3.4.2 7.1-.7 9.5-3.1 2.1-2.1 3.1-5.1 3.3-8.1.5-6.7-2.9-13.5-8.4-17.2-5.6-3.8-13.2-4.3-19.2-1.3M231.6 203.3c-3.4 1.3-4.6 6-3 9.3 1.6 3.3 5.4 5.1 9 5.4 2.6.2 5.6-.3 7.2-2.4 2.3-2.9 1-7.5-1.9-9.9-2.7-2.5-7.3-3.5-11.3-2.4M149.6 245c-1.9-2.6-2.8-5.8-4.5-8.6-1.8-2.9-5.2-5.3-8.4-4.2-5.7 2-5.9 7.7-4.3 12.8h17.2zM163.9 245h7.6c1.1-.9 1.9-2.2 1.8-3.6 0-1.4-.7-2.7-1.5-3.8-1.2-1.9-3-3.6-5.2-3.9-2.2-.3-4.4 1.1-5.2 3.1l-.7 1.2c0 2.6 1.2 5.4 3.2 7z"/></g></svg>