<svg id="Layer_1" xmlns="http://www.w3.org/2000/svg" viewBox="0 0 223 219"><style>.st0{fill:#8dbef3}.st3{fill:#24b2ff}.st4{fill:#e0f1fe}.st5{fill:#fff}.st7{fill:#6ad6fc}</style><path class="st0" d="M220.4 80L148.6 3.1c-2.1-2.3-5.3-3.2-8.3-2.5L37.8 24.2c-3 .7-5.5 3-6.4 5.9L.7 130.8c-.9 3-.2 6.2 2 8.5l71.8 76.9c1.1 1.1 2.4 2 3.8 2.4s3 .5 4.5.2l102.5-23.7c3-.7 5.5-3 6.4-5.9l30.8-100.6c.8-3 0-6.3-2.1-8.6z"/><path d="M207.1 83.7l-63-67.5c-1.9-2-4.7-2.9-7.3-2.2l-90 20.8c-2.7.6-4.8 2.6-5.6 5.2l-27 88.3c-.8 2.6-.1 5.5 1.7 7.5l63 67.5c.9 1 2.1 1.7 3.4 2.1 1.3.4 2.6.4 4 .1l90-20.8c2.7-.6 4.8-2.6 5.6-5.2l27-88.3c.7-2.7 0-5.5-1.8-7.5z" fill="#0846fb"/><path d="M79.9 212.6c-.1 0-.2 0-.3-.1-1.4-.5-2.6-1.3-3.6-2.4l-2.8-3c-.4-.4-.4-1 0-1.4.4-.4 1-.4 1.4 0l2.8 3c.8.8 1.7 1.5 2.8 1.9.5.2.8.8.6 1.3-.1.5-.5.7-.9.7zm10.7-1.1c-.5 0-.9-.3-1-.8-.1-.5.2-1.1.7-1.2l7.8-1.8c.5-.1 1.1.2 1.2.8.1.5-.2 1.1-.7 1.2l-7.8 1.8h-.2zm18.5-4.3c-.5 0-.9-.3-1-.8-.1-.5.2-1.1.7-1.2l7.8-1.8c.5-.1 1.1.2 1.2.8.1.5-.2 1.1-.8 1.2l-7.8 1.8h-.1zm18.4-4.2c-.5 0-.9-.3-1-.8-.1-.5.2-1.1.8-1.2l7.8-1.8c.5-.1 1.1.2 1.2.8.1.5-.2 1.1-.8 1.2l-7.8 1.8h-.2zm-61-3.5c-.3 0-.5-.1-.7-.3l-5.4-5.8c-.4-.4-.4-1 0-1.4s1-.4 1.4 0l5.4 5.8c.4.4.4 1 0 1.4-.2.3-.5.3-.7.3zm79.4-.8c-.5 0-.9-.3-1-.8-.1-.5.2-1.1.8-1.2l7.8-1.8c.5-.1 1.1.2 1.2.8.1.5-.2 1.1-.8 1.2l-7.8 1.8h-.2zm18.4-4.2c-.5 0-.9-.3-1-.8-.1-.5.2-1.1.8-1.2l7.8-1.8c.5-.1 1.1.2 1.2.8.1.5-.2 1.1-.8 1.2l-7.8 1.8h-.2zm18.4-4.6c-.4 0-.7-.2-.9-.5-.3-.5-.1-1.1.4-1.4 1.7-.9 2.9-2.4 3.4-4.2l.5-1.6c.2-.5.7-.8 1.2-.7.5.2.8.7.7 1.2l-.5 1.6c-.7 2.3-2.3 4.2-4.4 5.4-.1.2-.3.2-.4.2zm-129.1-4.2c-.3 0-.5-.1-.7-.3l-5.4-5.8c-.4-.4-.4-1 0-1.4.4-.4 1-.4 1.4 0l5.4 5.8c.4.4.4 1 0 1.4-.2.2-.5.3-.7.3zm136.6-12.6h-.3c-.5-.2-.8-.7-.7-1.2l2.3-7.6c.2-.5.7-.8 1.2-.7.5.2.8.7.7 1.2l-2.3 7.6c0 .5-.4.7-.9.7zm-149.5-1.2c-.3 0-.5-.1-.7-.3l-5.4-5.8c-.4-.4-.4-1 0-1.4.4-.4 1-.4 1.4 0l5.4 5.8c.4.4.4 1 0 1.4-.2.2-.5.3-.7.3zm-12.9-13.8c-.3 0-.5-.1-.7-.3l-5.4-5.8c-.4-.4-.4-1 0-1.4.4-.4 1-.4 1.4 0l5.4 5.8c.4.4.4 1 0 1.4-.2.2-.5.3-.7.3zm168-3h-.3c-.5-.2-.8-.7-.7-1.2l2.3-7.6c.2-.5.7-.8 1.2-.7.5.2.8.7.7 1.2l-2.3 7.6c-.1.4-.5.7-.9.7zM14.9 144.2c-.3 0-.5-.1-.7-.3l-5.4-5.8 1.5-1.4 5.4 5.8c.4.4.4 1 0 1.4-.3.2-.6.3-.8.3zm186.4-7.2h-.3c-.5-.2-.8-.7-.7-1.2l2.3-7.6c.2-.5.7-.8 1.2-.7.5.2.8.7.7 1.2l-2.3 7.6c-.1.4-.5.7-.9.7zm-193-8.8H8c-.5-.2-.8-.7-.7-1.2l2.3-7.6c.2-.5.7-.8 1.2-.7.5.2.8.7.7 1.2l-2.3 7.6c0 .4-.4.7-.9.7zm198.5-9.3h-.3c-.5-.2-.8-.7-.7-1.2l2.3-7.6c.2-.5.7-.8 1.2-.7.5.2.8.7.7 1.2l-2.3 7.6c-.1.4-.5.7-.9.7zm-192.9-8.8h-.3c-.5-.2-.8-.7-.7-1.2l2.3-7.6c.2-.5.7-.8 1.2-.7.5.2.8.7.7 1.2l-2.3 7.6c-.1.4-.5.7-.9.7zm198.4-9.3h-.3c-.5-.2-.8-.7-.7-1.2l2.3-7.6c.2-.5.7-.8 1.2-.7.5.2.8.7.7 1.2l-2.3 7.6c0 .4-.4.7-.9.7zM19.4 92h-.3c-.5-.2-.8-.7-.7-1.2l2.3-7.6c.2-.5.7-.8 1.2-.7.5.2.8.7.7 1.2l-2.3 7.6c-.1.4-.5.7-.9.7zm193.4-9.4l-5.4-5.8c-.4-.4-.4-1 0-1.4.4-.4 1-.4 1.4 0l5.4 5.8-.7.7-.7.7zM24.9 73.9h-.3c-.5-.2-.8-.7-.7-1.2l2.3-7.6c.2-.5.7-.8 1.2-.7.5.2.8.7.7 1.2l-2.3 7.6c-.1.4-.5.7-.9.7zm175.7-4.8c-.3 0-.5-.1-.7-.3l-5.4-5.8c-.4-.4-.4-1 0-1.4.4-.4 1-.4 1.4 0l5.4 5.8c.4.4.4 1 0 1.4-.2.2-.4.3-.7.3zM30.4 55.8h-.3c-.5-.2-.8-.7-.7-1.2l2.3-7.6c.2-.5.7-.8 1.2-.7.5.2.8.7.7 1.2l-2.3 7.6c0 .5-.4.7-.9.7zm157.3-.5c-.3 0-.5-.1-.7-.3l-5.4-5.8c-.4-.4-.4-1 0-1.4.4-.4 1-.4 1.4 0l5.4 5.8c.4.4.4 1 0 1.4-.2.2-.4.3-.7.3zm-12.9-13.9c-.3 0-.5-.1-.7-.3l-5.4-5.8c-.4-.4-.4-1 0-1.4.4-.4 1-.4 1.4 0l5.4 5.8c.4.4.4 1 0 1.4-.2.2-.4.3-.7.3zM36 37.8h-.3c-.5-.2-.8-.7-.7-1.2l.5-1.6c.7-2.3 2.3-4.2 4.4-5.4.5-.3 1.1-.1 1.4.4.3.5.1 1.1-.4 1.4-1.7.9-2.9 2.4-3.4 4.2l-.6 1.4c-.1.5-.5.8-.9.8zm14.9-9.1c-.5 0-.9-.3-1-.8-.1-.5.2-1.1.7-1.2l7.8-1.8c.5-.1 1.1.2 1.2.7.1.5-.2 1.1-.7 1.2l-7.8 1.8c-.1 0-.1.1-.2.1zM162 27.6c-.3 0-.5-.1-.7-.3l-5.4-5.8c-.4-.4-.4-1 0-1.4.4-.4 1-.4 1.4 0l5.4 5.8c.4.4.4 1 0 1.4-.3.2-.5.3-.7.3zm-92.7-3.2c-.5 0-.9-.3-1-.8-.1-.5.2-1.1.7-1.2l7.8-1.8c.5-.1 1.1.2 1.2.7.1.5-.2 1.1-.7 1.2l-7.8 1.8c0 .1-.1.1-.2.1zm18.4-4.3c-.5 0-.9-.3-1-.8-.1-.5.2-1.1.7-1.2l7.8-1.8c.5-.1 1.1.2 1.2.7.1.5-.2 1.1-.7 1.2L88 20.1h-.3zm18.5-4.2c-.5 0-.9-.3-1-.8-.1-.5.2-1.1.7-1.2l7.8-1.8c.5-.1 1.1.2 1.2.7.1.5-.2 1.1-.8 1.2l-7.8 1.8c0 .1-.1.1-.1.1zm42.9-2.1c-.3 0-.5-.1-.7-.3l-2.8-3c-.8-.8-1.8-1.5-2.8-1.9-.5-.2-.8-.8-.6-1.3.2-.5.8-.8 1.3-.6 1.4.5 2.6 1.3 3.6 2.4l2.8 3c.4.4.4 1 0 1.4-.4.2-.6.3-.8.3zm-24.5-2.2c-.5 0-.9-.3-1-.8-.1-.5.2-1.1.8-1.2l7.8-1.8c.5-.1 1.1.2 1.2.7.1.5-.2 1.1-.8 1.2l-7.8 1.8c-.1.1-.1.1-.2.1z" fill="#2e80d9"/><path class="st3" d="M108.3 54.6S87.6 58 83.7 70.7l12.1 3.7 12.5-19.8zM144.9 65.8s15.2 14.4 11.3 27.1l-12.1-3.7.8-23.4z"/><path class="st0" d="M135 32.5c-12.8-3.9-36.3 31.2-41.4 47.9l24.5 7.5 24.5 7.5c5.1-16.7 5.2-59-7.6-62.9z"/><path class="st4" d="M176.2 184.6c2.7-.6 4.8-2.6 5.6-5.2l8.1-26.6c-6.6-1.3-13.2 2.6-15.2 9.2-.3 1-.5 2.1-.5 3.1-2-.1-4 .4-5.8 1.2-.7-3.9-3.6-7.3-7.6-8.5-4.9-1.5-10.1.6-12.7 4.8-.9-.6-1.9-1.1-3.1-1.5-2.1-.6-4.2-.6-6.2-.1 0-5.7-3.6-11.1-9.4-12.8-2.2-.7-4.4-.7-6.4-.3 1.2-5.6-2-11.2-7.6-12.9-.5-.2-1-.3-1.5-.3 1.5-.6 2.7-1.9 3.2-3.5.9-2.8-.6-5.7-3.3-6.8l7.2-28.9-10-3.1-7.8 20.8c-1.9.4-3.6 1.8-4.2 3.8-.4 1.2-.3 2.4.1 3.4-2 .4-3.7 1.8-4.3 3.8-.5 1.6-.2 3.3.6 4.6-.2-.1-.4-.2-.7-.2-5.6-1.7-11.4 1.2-13.5 6.5-1.5-1.5-3.4-2.7-5.5-3.3-5.8-1.8-11.8.6-15 5.4-1.3-1.6-3.1-2.8-5.2-3.4-1.1-.3-2.3-.5-3.4-.5.2-4.9-2.9-9.5-7.8-11.1-4.1-1.2-8.3 0-11.1 2.8-1-1.7-2.5-3.2-4.2-4.2.5-.9 1-1.8 1.3-2.9 2-6.7-1.5-13.8-7.9-16.3l-8.1 26.6c-.8 2.6-.1 5.5 1.7 7.5l63 67.5c.9 1 2.1 1.7 3.4 2.1s2.6.4 4 .1l89.8-20.8z"/><ellipse transform="rotate(-73.004 125.514 63.66)" class="st5" cx="125.5" cy="63.7" rx="12.9" ry="12.9"/><ellipse transform="rotate(-73.004 125.514 63.66)" cx="125.5" cy="63.7" rx="9.1" ry="9.1" fill="#087bfb"/><path class="st3" d="M106.9 84.5l-4.9 6.6s5.3 3.8 13.5 6.4 14.3 1.6 14.3 1.6l-.7-7.8-22.2-6.8z"/><path class="st7" d="M53 85.6c-.1-4.9-4.6-8.6-4.6-8.6s6-.5 8.6-4.6c-.3 4.6 4.7 8.6 4.7 8.6s-5.7.2-8.7 4.6zM161.8 115.1c-.1-4.9-4.6-8.6-4.6-8.6s6-.5 8.6-4.6c-.4 4.7 4.6 8.6 4.6 8.6s-5.7.3-8.6 4.6z"/><path class="st4" d="M73.5 60.7c-.1-3.9-3.6-6.8-3.6-6.8s4.7-.4 6.8-3.6c-.3 3.7 3.6 6.8 3.6 6.8s-4.5.2-6.8 3.6zM191.7 106.8c-.1-3.9-3.6-6.8-3.6-6.8s4.7-.4 6.8-3.6c-.3 3.7 3.6 6.8 3.6 6.8s-4.5.2-6.8 3.6z"/><path class="st7" d="M176.7 85c-.1-3.9-3.6-6.8-3.6-6.8s4.7-.4 6.8-3.6c-.3 3.7 3.6 6.8 3.6 6.8s-4.5.2-6.8 3.6z"/><path class="st5" d="M175.9 176.9c-6-1.8-12.4 1.2-14.8 6.9-1.5-2-3.6-3.6-6.2-4.4-3.9-1.2-7.8-.3-10.9 1.9-1.5-2.6-3.9-4.7-7-5.6-2.5-.8-5.1-.7-7.4.1-.6-4.3-3.4-8.1-7.6-9.7l.6-1.5c2-6.5-1.7-13.3-8.1-15.3-.4-.1-.7-.2-1.1-.3v-.1c2-6.5-1.7-13.3-8.1-15.3-6.5-2-13.3 1.7-15.3 8.1-.2.5-.3 1-.4 1.6h-.1c-2.1-.7-4.3-.7-6.4-.2-1.5-2.6-3.9-4.6-7-5.5-6.1-1.9-12.5 1.2-14.9 7-1.5-2.1-3.7-3.7-6.3-4.6-4.1-1.2-8.3-.3-11.4 2.3-.6-.3-1.2-.6-1.9-.8-3.8-1.2-7.7-.4-10.7 1.7.7-5.8-2.8-11.4-8.6-13.2-.8-.2-1.5-.4-2.3-.5.3-.6.5-1.2.7-1.8 1.3-4.4.1-9-2.9-12.1l-3.9 12.6c-.8 2.6-.1 5.5 1.7 7.5l63 67.5c.9 1 2.1 1.7 3.4 2.1s2.6.4 4 .1l90-20.8c2.3-.5 4.2-2.1 5.2-4.3-1.2-1.5-3.1-2.8-5.3-3.4z"/></svg>