<svg id="Layer_1" xmlns="http://www.w3.org/2000/svg" viewBox="0 0 1748 509"><style>.st0{fill:#ffd8b5}.st1{fill:#0058bf}.st2{fill:#0064d9}.st3{fill:#0076ff}.st4{fill:#00c4ff}.st5{fill:#00b6ed}.st6{fill:#fff}.st7{fill:#bfddf5}.st8{fill:#edf7ff}.st9{fill:#d3e6f5}.st10{fill:#58aaed}.st11{fill:#7bc1fa}.st12{fill:#f5c59d}.st13{fill:#ffe4cc}.st14{fill:#ffd2a5}.st15{fill:#8fbef7}</style><path class="st0" d="M1394.3 249s23.2 10.1 46 5.9c22.8-4.2 26.5-9.3 26.5-9.3l9.7 24.9s-56.2 18.9-84.4 1.9l2.2-23.4z"/><path class="st1" d="M1459 248.6c-.2-1.1-.3-2.2 0-3.2s1.3-2 2.3-2c.9 0 1.7.6 2.5.5 1.4-.2 1.8-1.9 1.8-3.3s0-3.1 1.3-3.7c1-.5 2.2 0 3.3.3s2.6.3 3-.7c.3-.6.1-1.3.1-1.9.1-1.9 2.3-3.1 4.2-2.7 1.9.3 3.4 1.7 4.7 3 2.1 2.1 4.3 4.4 4.9 7.3.6 2.6-.2 5.3-1.1 7.9-2.2 6.2-7.5 17.4-15.2 18.1-8.9.9-10.7-13.2-11.8-19.6z"/><path class="st2" d="M1477.6 231.9s34.1-52.1 52.7-61-43 71.3-43 71.3l-9.7-10.3z"/><path class="st0" d="M1404.8 289.4s-6.6-8.2-16.9-7.5c-10.3.7-10.2 12.6-3.3 12.3s20.2-4.8 20.2-4.8z"/><path class="st3" d="M161.7 61.4c-1.2-3.6-2.4-7.3-4.7-10.4-2.6-3.5-6.3-6.1-10.1-8.3-6.1-3.6-12.8-6.4-19.9-7.3-7-.9-14.5.4-20.4 4.4-1.6 1.1-3.2 2.5-5 3.1-2.1.8-4.4.6-6.6.7-12.5.3-24.6 7.4-30.8 18.2-2 3.6-3.4 7.4-4.4 11.3-1.9 5.1-2.2 11-5.3 15.6-3 4.9-8.5 7.3-13.4 10.2s-9.8 7.2-10.2 12.8c-.4 6.8 6 13.3 3.7 19.8-.8 2.3-2.7 4.1-3.9 6.2-.3.5-.5 1.1-.7 1.7-.7.7-1.3 1.5-1.8 2.3-4.4 6.8-2.5 16.4 3 22.3 5.5 5.9 13.8 8.6 21.9 9 5 .3 10.2-.2 15 1.2 6.8 1.9 12 7.2 18.3 10.4 10.6 5.4 23.8 4.5 34.2-1.1 10.5-5.6 18.3-15.4 22.9-26.4l2.5-20.8c19.7-.5 18.8-20.6 20.7-34.2 1.9-13.6-.8-27.5-5-40.7z"/><path class="st2" d="M148.6 309.9s-40.5 60.6-53.9 79.9C81.3 409.2 0 509 0 509h64.1s90.3-63.1 126.9-119.2c22.1-2.5 42.7 14.2 42.7 14.2s22.3-77.8 20.5-92.2c-1.9-14.3-105.6-1.9-105.6-1.9z"/><path class="st1" d="M140.5 394.7c-25.6 28.9-53 56.2-80.4 83.5-8.3 8.3-41.9 30.7-41.9 30.9h46s83.3-58.4 122.3-112.4c.2-.8.5-1.6.7-2.4 5-17.1 8-70.5 8.8-88.3-19.5 30-38.5 69.4-55.5 88.7z"/><path class="st2" d="M67.6 126.2c-2.6 3.4-6.6 5.4-10.2 7.6s-7.2 5.5-7.7 9.7c-.6 4.5 2.6 8.7 6.1 11.7 2.5 2.1 5.4 3.8 8.6 4.5 2.6.5 5.2.4 7.8.9 10.4 2.2 15.4 15.1 25.4 18.7 7.2 2.5 15.1-.3 21.8-3.8 15-7.8 28.9-20.1 32.6-36.6.7-3.1 1-6.3 1.5-9.4 1.5-8.7 4.6-17 6.8-25.5s3.5-17.5 1.4-26.1-8.3-16.5-16.9-18.6c-4.6-1.1-9.5-.5-14.3-1.2-5.5-.8-10.8-3.4-16.3-2.6-6.1 1-10.7 6.1-14.6 10.9-2.9 3.5-5.8 7.1-9.5 9.8-4 2.9-8.7 4.9-11.6 9.2-2.5 3.7-3.6 8.6-4.5 13-1.8 8.6-1 20.6-6.4 27.8z"/><path class="st4" d="M120.3 329.9s23.4-36.6 9.8-61.1-47.5-59.2-47.5-59.2-10.4-45.7 60.8-77.4 139.3-54.4 139.3-54.4l14.1 31.9s-83.4 40.2-85.3 55.7 31.9 74.4 34.9 91.1 7.8 55.4 7.8 55.4-28.5-3.1-71.9 12.1c-28.4 9.9-62 5.9-62 5.9z"/><path class="st5" d="M183.1 323.7c5-1.7 9.9-3.2 14.4-4.5 2.5-5.1 3.2-10.8 3.9-16.4 4.7-40.4 9.5-81.3 4.5-121.6-2.8-22.8-8.8-45.3-8.8-68.2h-7.9c-2.9 1.2-5.7 2.3-8.7 3.5 5.9 68.8 6.8 138.1 2.6 207.2z"/><path class="st0" d="M198.3 209.8c-.3 4.4-.5 8.9-.8 13.3-.1.8-.1 1.7-.3 2.5-.6 2.2-2.5 3.7-4 5.4-1.9 2.1-3.2 4.6-4.6 7 .9-14.1 5-22.1 9.7-28.2z"/><path class="st5" d="M125 184.4c2.6 1.1 5.5 1.4 8.3 1.5 16.2.5 32.4-8.3 40.7-22.2-2.4 6-4.9 12.3-9.8 16.5-3.7 3.2-8.4 4.9-13.1 6.4-6.6 2-13.5 3.6-20.3 2.7-5.3-.7-11.5-3.3-14.3-8 3.3-.9 5.4 1.8 8.5 3.1zM120.6 199.6s8.8 24.7 12.7 36.3M137.1 247.5s-2.5-35.5-13.5-47.9M133.3 235.9l-9.7-36.3M188.1 152.7c.4-12.8-.4-25.7-2.5-38.4-13.6 5.5-27.8 11.6-42.2 17.9-28.5 12.7-43.9 27.6-52.2 40.9.5 3.1 3.4 4.4 10.4 1.9 4-1.4 7.2-4.3 10.5-7 10.1-8.3 21.2-15.4 33-21.1 7.3-3.6 15.2-6.6 23.3-6.4 8.2.3 16.7 4.7 19.7 12.2z"/><path class="st6" d="M173.1 509l27.6-226.6S179.5 62.9 192.3 22L461 75.7s47.5 211.5 52 274.2c4.5 62.7-31.6 159.1-31.6 159.1H173.1z"/><path class="st6" d="M471.5 82s185.9-47.9 238.3-58S827.4.6 827.4.6s7.4 252.3 6.5 309 4.1 199.3 4.1 199.3H481.9L471.5 82z"/><path class="st6" d="M1092.9 509H838.1L827.4.6s232.4 57.8 278.9 74.4l-13.4 434zM1409.9 508.1l-317 .9 13.4-433.9 318.8-73.6s-33.3 238.9-33.6 283.7c-.6 68.4.9 128.7 18.4 222.9z"/><path class="st7" d="M1106.3 75.1L1092.9 509 1122 72.7zM471.5 82l302.9-70.6L475.1 72z"/><path class="st7" d="M192.2 22l279.3 60 3.6-10zM1425.1 1.5s-32.8 274.4-34.2 334.5l-.6-60.1 25.9-272.4 8.9-2zM200.6 282.4L173.1 509h-10zM985 40.9l127.3 48 270-77.5-276 63.7z"/><path class="st7" d="M461 75.7L481.4 509l-6.3-437z"/><path class="st8" d="M776.5 22l50.9 487V12.8zM173.1 509l52.6-203.1 250 77.6 5.7 125.5zM833.8 282.6L1098 451.4l-5.1 57.6H838.1z"/><path class="st8" d="M1060.2 98.9l33.7 390.7 11.2-373.9zM478 458.5L405.6 82l55.4 9.1zM1366.4 287.3l-16-23.2-16.1 6.2zM1381.4 293.3l-39.9 9.9-26.2-8.5zM1375.3 308l-38.2 21.9-7.3 24zM481.9 509h345.5l5.3-24.1zM1409.9 509h-317l317-10.9z"/><path class="st7" d="M838.1 509L827.4.6V509z"/><path class="st8" d="M220.8 267.6l20.5 22.7 14.9-4zM208.1 257.7l34.1-3.1 14.8-18.1zM212.9 241.3l34.1-17.1 6.9-23.5z"/><path class="st9" d="M292.5 99.6c-17.7 9-19.3 31-12.8 47.7 3.2 8.2 7.9 16.5 15.1 21.9 7.4 5.5 16.9 6.2 25.8 5.4 16.7-1.6 30.3-13.4 34.9-29.5 4.5-15.9-2.1-32.5-14.9-42.6-17.7-13.9-41.1-10.5-58.6 1.9-1.3.9-.1 3.1 1.3 2.2 13.9-9.8 32.3-14.6 48.3-6.8 13.3 6.5 23.2 20.5 22.9 35.5-.3 15-10.3 29.8-24.5 34.9-7.8 2.8-18 3.3-25.9 1-8.2-2.4-14.1-9.1-18.1-16.4-9.3-16.7-12.2-42.6 7.9-52.9 1.3-.9.1-3-1.4-2.3z"/><path class="st9" d="M307.7 111.9c-8 3.9-12.4 13.9-8.7 22.2 3.6 8.1 14.2 12.2 22.3 8.5 8-3.7 11.8-14.6 7.7-22.5-4.2-8.2-14.9-10.7-22.8-6.5-1.4.8-.2 2.9 1.3 2.2 6.7-3.6 15.8-1.3 19.4 5.6 3.6 6.9-.3 16.9-7.7 19.4-7.1 2.4-15.9-1.6-18.3-8.8-2.3-7.1 1.7-14.8 8.2-17.9 1.3-.8 0-2.9-1.4-2.2z"/><path class="st9" d="M302.1 138.2c-4.2 9.7-5.2 19.9-2.8 30.2.4 1.6 2.8.9 2.4-.7-2.2-9.6-1.4-19.2 2.5-28.3.7-1.4-1.5-2.7-2.1-1.2zM321.9 142.8c5 8 7.4 16.7 7.4 26.1 0 1.6 2.5 1.6 2.5 0 0-9.8-2.6-19.1-7.7-27.4-.9-1.4-3.1-.1-2.2 1.3zM287.9 124.9c.5 5.9 1.7 11.5 3.8 17.1.6 1.5 2.7.9 2.4-.7-1.6-9.7-4.6-19-8.9-27.9-.7-1.4-2.5-.3-2.3 1 1.4 8.1 2.9 16.3 4.3 24.4.3 1.6 2.6.9 2.4-.7-1.1-7.3-2.8-14.3-5.2-21.3-.5-1.3-2.4-1.1-2.5.3-.3 6.4.1 12.7 1.2 19 .3 1.4 2.4 1 2.5-.3.2-5.2-.9-10-3.3-14.6-.6-1.2-2.2-.5-2.3.6-.6 6.1-.4 12.1.8 18.1.2 1.2 2.2 1.2 2.4 0 .8-4.8.4-9.2-1.2-13.8-.5-1.4-2.3-1.1-2.5.3-.7 6.7.6 13 3.8 19 .7 1.4 2.9.2 2.2-1.3-3-5.6-4-11.5-3.4-17.8-.8.1-1.6.2-2.5.3 1.5 4.1 1.9 8.1 1.2 12.4h2.4c-1.1-5.8-1.3-11.6-.7-17.4-.8.2-1.6.4-2.3.6 2.2 4.3 3.1 8.5 2.9 13.4.8-.1 1.6-.2 2.5-.3-1.1-6.1-1.4-12.1-1.1-18.3-.8.1-1.6.2-2.5.3 2.4 6.9 4.1 14 5.2 21.3.8-.2 1.6-.4 2.4-.7-1.4-8.1-2.9-16.3-4.3-24.4-.8.3-1.5.6-2.3 1 4.2 8.7 7 17.8 8.6 27.3.8-.2 1.6-.4 2.4-.7-2-5.3-3.3-10.7-3.7-16.4-.1-1.4-2.6-1.4-2.4.2z"/><path class="st9" d="M279.6 128.5c-1.1 7.5.4 14.6 4.7 20.9.8 1.1 2.6.5 2.3-1-1.8-7.7-4.3-15.1-7.4-22.3-.5-1.2-2.4-.5-2.3.6.5 10.8 4.4 20.6 11.3 28.8.8 1 2.5-.1 2.1-1.2-1.7-5-4.4-9.3-8.3-12.9-.9-.8-2.5 0-2.1 1.2 2.7 7.8 6.4 15 11.4 21.6.7.9 2.4.7 2.3-.6-.2-2.7-1.1-4.6-3.2-6.4-1-.9-2.8.2-2 1.5 1.5 2.5 3.1 4.9 4.6 7.4.8 1.2 2.5.4 2.3-1-.9-4.8-2.8-8.8-5.8-12.6l-1.8 1.8c1.8 1.8 3.3 3.7 4.7 5.8.9 1.4 2.8.2 2.2-1.3-1.7-3.8-3.4-7.7-5-11.5-.7.4-1.4.8-2.2 1.3 3.5 6 6.1 12.3 8 19 .4 1.3 2.6 1.1 2.5-.3-.4-5-.9-10.1-1.3-15.1-.8.1-1.6.2-2.5.3 1 4.2 2.1 8.4 3.1 12.6.3 1.4 2.4 1.1 2.5-.3 0-4.4-.4-8.6-1.1-12.9-.3-1.4-2.6-1.1-2.5.3.4 4.1.7 8.2 1.1 12.4h2.5c-.9-9.1-1.3-18.1-.9-27.2-.8.2-1.6.4-2.3.6 1.4 1.7 1.8 3.7 1.3 5.9.8.1 1.6.2 2.5.3.2-5.5-1.7-10.3-3.4-15.5-2.1-6.3-3.1-12.8-3.2-19.5h-2.5c.5 10.5 3.3 20.5 8.2 29.8.7-.5 1.3-1 2-1.5-5.2-6.2-7.8-13.6-7.5-21.7 0-1.6-2.5-1.6-2.5 0-.3 8.8 2.6 16.8 8.2 23.5.9 1.1 2.6-.3 2-1.5-4.7-8.9-7.4-18.4-7.9-28.6-.1-1.6-2.5-1.6-2.5 0 0 5.7.7 11.3 2.2 16.8 1.7 6.1 4.6 11.7 4.4 18.1-.1 1.4 2.2 1.7 2.5.3.5-3 .1-5.3-1.6-7.8-.7-1-2.3-.6-2.3.6-.3 9.1 0 18.1.9 27.2.2 1.6 2.6 1.6 2.5 0-.4-4.1-.7-8.2-1.1-12.4-.8.1-1.6.2-2.5.3.7 4.1 1.1 8.1 1.1 12.3.8-.1 1.6-.2 2.5-.3-1-4.2-2.1-8.4-3.1-12.6-.3-1.3-2.6-1.1-2.5.3.4 5 .9 10.1 1.3 15.1.8-.1 1.6-.2 2.5-.3-1.9-6.9-4.6-13.4-8.2-19.6-.8-1.4-2.8-.2-2.2 1.3 1.7 3.8 3.4 7.7 5 11.5.7-.4 1.4-.8 2.2-1.3-1.5-2.3-3.1-4.3-5.1-6.3-1.2-1.2-2.7.5-1.8 1.8 2.7 3.5 4.4 7.2 5.2 11.5.8-.3 1.5-.6 2.3-1-1.5-2.5-3.1-4.9-4.6-7.4-.7.5-1.3 1-2 1.5 1.5 1 2.3 2.6 2.4 4.6.8-.2 1.6-.4 2.3-.6-4.8-6.4-8.5-13.4-11.1-21l-2.1 1.2c3.6 3.3 6.1 7.1 7.6 11.8l2.1-1.2c-6.5-7.7-10.1-17-10.6-27.1-.8.2-1.6.4-2.3.6 3 7 5.4 14.2 7.1 21.7.8-.3 1.5-.6 2.3-1-3.9-5.7-5.5-12.1-4.5-18.9.2-1.4-2.2-2-2.4-.4z"/><path class="st9" d="M290.2 109.3c-2 2.9-3 6.1-3.1 9.6 0 1 1.5 1.8 2.1.9 2.1-2.7 2.7-5.7 1.6-9-.3-1-1.7-1.3-2.3-.3-1 1.7-2 3.4-3.1 5.1-.8 1.4 1.3 2.6 2.2 1.3 1.5-2.4 2.4-4.7 2.9-7.4.2-1.4-1.4-2.1-2.3-1-1.3 1.8-2.6 3.6-4 5.4.8.3 1.5.6 2.3 1l1.8-5.4c.4-1.2-1.2-2-2.1-1.2-1.5 1.5-2.8 3-4 4.8.8.3 1.5.6 2.3 1 .6-1.5 1.2-3.1 1.8-4.6.5-1.4-1.5-2.1-2.3-1-2.2 3.1-3.7 6.4-4.8 10-.4 1.4 1.5 2.1 2.3 1 1.4-2.1 2.2-4.3 2.4-6.9.1-1.5-2-1.5-2.5-.3-2.1 5.3-2.9 10.7-2.6 16.4.1 1.1 1.3 1.6 2.1.9 1.7-1.5 2.7-3.1 3.4-5.2.5-1.5-1.9-2.2-2.4-.7-.6 1.8-1.4 2.9-2.8 4.1l2.1.9c-.3-5.5.5-10.6 2.5-15.7-.8-.1-1.6-.2-2.5-.3-.2 2.2-.8 3.8-2 5.6.8.3 1.5.6 2.3 1 1.1-3.4 2.6-6.5 4.6-9.4-.8-.3-1.5-.6-2.3-1-.6 1.5-1.2 3.1-1.8 4.6-.5 1.4 1.5 2.1 2.3 1 1-1.6 2.2-3 3.6-4.3l-2.1-1.2-1.8 5.4c-.5 1.4 1.5 2 2.3 1 1.3-1.8 2.6-3.6 4-5.4-.8-.3-1.5-.6-2.3-1-.4 2.5-1.2 4.7-2.6 6.8.7.4 1.4.8 2.2 1.3 1-1.7 2-3.4 3.1-5.1-.8-.1-1.5-.2-2.3-.3.8 2.4.7 4.5-.9 6.5l2.1.9c.1-3.1 1-5.8 2.8-8.4.9-1.5-1.3-2.8-2.2-1.4z"/><path class="st9" d="M284.3 111.4c-1.3 7.4-2.5 14.9-3.6 22.4.8.1 1.6.2 2.5.3.6-4.7.6-9.3.2-14-.1-1.3-2.2-1.8-2.5-.3-1.4 7.2-1.2 14.2.7 21.3.4 1.5 2.3 1 2.5-.3.4-4.1.1-8-1-12-.4-1.4-2.4-1-2.5.3-.6 7.6 1.4 14.6 5.8 20.9.6.8 2 .8 2.3-.3 1.5-6.4.5-12.6-3.2-18.1-.7-1-2.3-.6-2.3.6-.2 5.1.8 9.6 3.1 14.2.6 1.1 2.4.6 2.3-.6-.1-4.7-1.3-9-3.6-13.1-.6-1.1-2.3-.6-2.3.6 0 5.1 1.2 9.6 3.8 14 .5.9 2.1.8 2.3-.3 1.1-5.9.6-11.5-1.4-17.2-.5-1.5-2.7-.9-2.4.7.4 2 .8 3.9 1.2 5.9.3 1.6 2.7.9 2.4-.7-.4-2-.8-3.9-1.2-5.9-.8.2-1.6.4-2.4.7 1.9 5.2 2.4 10.4 1.4 15.9.8-.1 1.5-.2 2.3-.3-2.4-4-3.5-8.1-3.5-12.7-.8.2-1.6.4-2.3.6 2.1 3.8 3.2 7.5 3.2 11.9.8-.2 1.6-.4 2.3-.6-2.1-4.1-2.9-8.3-2.7-12.9-.8.2-1.6.4-2.3.6 3.2 4.9 4.3 10.4 2.9 16.2.8-.1 1.5-.2 2.3-.3-4.2-5.9-6-12.4-5.5-19.6-.8.1-1.6.2-2.5.3 1 3.8 1.3 7.4.9 11.3.8-.1 1.6-.2 2.5-.3-1.7-6.6-1.9-13.2-.7-20-.8-.1-1.6-.2-2.5-.3.4 4.7.4 9.3-.2 14-.2 1.4 2.2 1.7 2.5.3 1.2-7.5 2.4-14.9 3.6-22.4.2-1.7-2.2-2.4-2.4-.8z"/><path class="st9" d="M285.8 132.3c1.9 6.5 4.3 12.7 7.4 18.7.7-.4 1.4-.8 2.2-1.3-2.7-5.1-5.4-10.3-8.1-15.4-.7-1.3-2.7-.4-2.3 1 1.9 6.4 4.6 12.3 8.2 17.9.7 1.1 2.7.4 2.3-1-2-6.2-4.1-12.5-6.1-18.7-.5-1.5-2.9-.9-2.4.7 1.6 5.4 3.5 10.7 5.9 15.8.6 1.4 2.5.3 2.3-1-1.1-7.1-3.3-13.8-6.5-20.3-.7-1.5-2.8-.2-2.2 1.3 2.4 5.5 4.7 11 7.1 16.5.6 1.4 2.6.4 2.3-1-1.8-8-4.3-15.7-7.7-23.1-.6-1.3-2.7-.4-2.3 1 2.1 6.8 4.8 13.3 8.2 19.6.7 1.2 2.7.4 2.3-1-2.3-7-4.6-14.1-6.9-21.1-.8.2-1.6.4-2.4.7 2.1 5.7 4.2 11.3 6.4 17 .6 1.5 2.8.9 2.4-.7-1.5-6.1-2.9-12.2-4.4-18.3-.4-1.6-2.7-.9-2.4.7 1.2 5.7 3.3 10.9 6.5 15.9.9 1.3 3 .1 2.2-1.3-3-4.7-5.1-9.8-6.2-15.3-.8.2-1.6.4-2.4.7 1.5 6.1 2.9 12.2 4.4 18.3.8-.2 1.6-.4 2.4-.7-2.1-5.7-4.2-11.3-6.4-17-.6-1.5-2.9-.9-2.4.7 2.3 7 4.6 14.1 6.9 21.1.8-.3 1.5-.6 2.3-1-3.2-6.1-5.8-12.4-7.9-19-.8.3-1.5.6-2.3 1 3.2 7.3 5.7 14.8 7.4 22.5.8-.3 1.5-.6 2.3-1-2.4-5.5-4.7-11-7.1-16.5-.7.4-1.4.8-2.2 1.3 3.1 6.3 5.2 12.8 6.3 19.7.8-.3 1.5-.6 2.3-1-2.3-4.9-4.2-10-5.7-15.2-.8.2-1.6.4-2.4.7 2 6.2 4.1 12.5 6.1 18.7.8-.3 1.5-.6 2.3-1-3.5-5.4-6.2-11.1-8-17.3-.8.3-1.5.6-2.3 1 2.7 5.1 5.4 10.3 8.1 15.4.7 1.4 2.9.2 2.2-1.3-3-5.8-5.3-11.8-7.1-18.1-.6-1.5-3-.9-2.6.7z"/><path class="st9" d="M288.8 113.9c1.1 9 3.1 17.7 6.1 26.2.4 1.2 2.6 1.2 2.5-.3-.4-4.1-1.2-8-2.5-11.9-.5-1.6-2.7-.9-2.4.7.9 5.1 1.8 10.2 2.7 15.4.2 1.2 2.1 1.1 2.4 0 .5-1.9.5-3.2-.1-5.1-.4-1.3-2.5-1.1-2.5.3v10.6c0 1.6 2.5 1.6 2.5 0v-6.6c0-1.6-2.5-1.6-2.5 0 0 2.2-.4 4.2-1 6.3.8.1 1.6.2 2.5.3-.3-6.8-.7-13.6-1-20.4-.1-1.6-2.5-1.6-2.5 0 0 4.1-.1 8.2-.1 12.3.8-.1 1.6-.2 2.5-.3-2.2-7.5-4.4-15-6.6-22.6-.4-1.4-2.4-1.1-2.5.3-.4 6.9.3 13.5 2.2 20.2.4 1.4 2.4 1.1 2.5-.3.4-7.8-1.1-15.1-4.4-22.2-.4-.9-2.1-.8-2.3.3-1.3 9.4-.3 18.5 3.2 27.2.6 1.5 3 .8 2.4-.7-3.3-8.3-4.5-17-3.2-25.9-.8.1-1.5.2-2.3.3 3.1 6.6 4.4 13.6 4.1 20.9.8-.1 1.6-.2 2.5-.3-1.8-6.4-2.5-12.9-2.1-19.5-.8.1-1.6.2-2.5.3 2.2 7.5 4.4 15 6.6 22.6.4 1.3 2.4 1.1 2.5-.3 0-4.1.1-8.2.1-12.3h-2.5c.3 6.8.7 13.6 1 20.4.1 1.4 2 1.7 2.5.3.8-2.3 1.1-4.5 1.1-6.9h-2.5v6.6h2.5v-10.6c-.8.1-1.6.2-2.5.3 0 1.3.1 2.5.1 3.8h2.4c-.9-5.1-1.8-10.2-2.7-15.4-.8.2-1.6.4-2.4.7 1.2 3.7 2 7.4 2.4 11.2.8-.1 1.6-.2 2.5-.3-3-8.3-5-16.8-6-25.6-.4-1.6-2.9-1.6-2.7 0z"/><path class="st9" d="M281.6 121.4c-2.1 8.7-.9 17.3 3.5 25.1.5.9 2 .7 2.3-.3 2.5-8.4 1.2-17.1-3.8-24.4-.6-.9-1.9-.8-2.3.3-3.3 9.9-.8 20.6 6.4 28.1.5.5 1.6.5 2-.3.9-2.1 1.9-4.2 2.8-6.4.6-1.5-1.5-2.7-2.2-1.3-.9 2.1-1.9 4.2-2.8 6.4.7-.1 1.3-.2 2-.3-6.6-6.9-8.8-16.6-5.8-25.7-.8.1-1.5.2-2.3.3 4.6 6.8 5.8 14.6 3.5 22.5.8-.1 1.5-.2 2.3-.3-4.1-7.2-5.3-15.1-3.3-23.2.5-1.4-1.9-2-2.3-.5z"/><path class="st9" d="M287 123.5c-1.9 9.5.4 18.7 6.3 26.3 1 1.3 2.7-.5 1.8-1.8-5.3-6.9-7.3-15.4-5.7-23.9.3-1.5-2.1-2.1-2.4-.6z"/><path class="st9" d="M294.1 134.9c0 3.9 0 7.9-.1 11.8 0 1.4 2 1.7 2.5.3.6-2 1.2-4 1.9-6-.8-.1-1.6-.2-2.5-.3.1 2.3.2 4.7.3 7 .1 1.6 2.5 1.6 2.5 0-.1-2.5.2-4.8.9-7.2-.8-.1-1.6-.2-2.5-.3.1 3.5-.2 6.8-1 10.2.8.1 1.6.2 2.5.3.3-3.2.9-6.2 1.9-9.2-.8-.1-1.6-.2-2.5-.3 0 3.5-.5 6.9-1.6 10.2.8.2 1.6.4 2.4.7.6-3.2 1.3-6.3 1.9-9.5.3-1.6-2-2.2-2.4-.7-2.5 8.5-3.3 17.1-2.4 26 .2 1.6 2.7 1.6 2.5 0-.8-8.6-.1-17 2.3-25.3-.8-.2-1.6-.4-2.4-.7-.6 3.2-1.3 6.3-1.9 9.5-.3 1.6 1.9 2.2 2.4.7 1.2-3.6 1.7-7.1 1.7-10.9 0-1.4-2-1.7-2.5-.3-1.1 3.3-1.7 6.5-2 9.9-.1 1.4 2.1 1.7 2.5.3.9-3.6 1.3-7.1 1.1-10.9-.1-1.4-2-1.7-2.5-.3-.8 2.6-1.1 5.1-1 7.8h2.5c-.1-2.3-.2-4.7-.3-7-.1-1.4-2-1.7-2.5-.3-.6 2-1.2 4-1.9 6 .8.1 1.6.2 2.5.3 0-3.9 0-7.9.1-11.8.1-1.6-2.4-1.6-2.4 0zM342.1 128.9c.3 4.8 1.5 9.3 3.7 13.6.5 1.1 2.5.6 2.3-.6-1-7.9-3.2-15.3-6.9-22.4-.6-1.1-2.3-.6-2.3.6.1 6.3 1.4 12.3 3.9 18.1.6 1.4 2.5.3 2.3-1-1.1-6.8-3.6-12.9-7.5-18.5-.8-1.1-2.8-.5-2.3 1 1.1 3.2 2.2 6.5 3.3 9.7.5 1.6 2.6.9 2.4-.7-1.2-8.5-6.3-15.5-13.9-19.3-1.3-.7-2.4.9-1.5 2 6.8 8.6 12.7 23.9.3 30.9l1.7 1.7c.6-.8 1.1-1.6 1.7-2.4.8-1.2-1-2.4-2-1.5-.8.8-1.6 1.5-2.4 2.3l1.8 1.8c4.2-4.2 5.8-9.6 4.7-15.4-.3-1.6-2.7-.9-2.4.7 0 .3.1.6.1.9.3 1.6 2.7.9 2.4-.7 0-.3-.1-.6-.1-.9-.8.2-1.6.4-2.4.7.9 5-.5 9.4-4.1 13-1.1 1.1.6 2.9 1.8 1.8.8-.8 1.6-1.5 2.4-2.3-.7-.5-1.3-1-2-1.5-.6.8-1.1 1.6-1.7 2.4-.7 1.1.7 2.3 1.7 1.7 13.9-7.8 8-24.9.2-34.8-.5.7-1 1.3-1.5 2 7.1 3.5 11.7 9.9 12.8 17.8.8-.2 1.6-.4 2.4-.7-1.1-3.2-2.2-6.5-3.3-9.7-.8.3-1.5.6-2.3 1 3.8 5.5 6.2 11.4 7.3 17.9.8-.3 1.5-.6 2.3-1-2.3-5.4-3.5-10.9-3.6-16.8-.8.2-1.6.4-2.3.6 3.4 6.7 5.6 13.7 6.5 21.1.8-.2 1.6-.4 2.3-.6-2-4-3.1-7.9-3.4-12.3 0-1.8-2.5-1.8-2.4-.2z"/><path class="st9" d="M324.2 143.6c4.6 6 7.4 12.8 8 20.3.1 1.6 2.6 1.6 2.5 0-.7-7.9-3.5-15.3-8.4-21.6-.9-1.3-3.1 0-2.1 1.3z"/><path class="st9" d="M334.1 143.9c-.2 3.4.1 6.4 1.1 9.7.4 1.4 2.4 1.1 2.5-.3.2-3.5 0-6.7-.7-10.2-.2-1.2-2.1-1.2-2.4 0-.9 3.8-.4 7.3 1.7 10.6.5.8 2.1.8 2.3-.3.6-3.5.5-6.8-.2-10.2-.2-.9-1.5-1.2-2.1-.6-1 1-2.5 4.3-1.9 5.6-.4-.9-2.1-.8-2.3.3-.4 2.7.1 8.6 4.3 7.4 5.1-1.4 5.4-12.7 5.6-16.8.1-1.6-2.4-1.6-2.5 0-.1 3.1-.3 6.2-.4 9.3-.1 1.2 1.8 1.7 2.3.6 1.7-3.4 2.5-6.7 2.3-10.5-.1-1.6-2.5-1.6-2.5 0v13.1h2.5c-.1-7.7-1.7-15-4.8-22.1-.7.4-1.4.8-2.2 1.3 4 8.3 5 17.2 2.8 26.1-.3 1.1 1.2 2.2 2.1 1.2 8.7-10.1 12.1-23.4 9-36.4-.3-1.4-2.5-1.1-2.5.3v16.4c0 1.4 2.2 1.8 2.5.3.4-2.8.8-5.5 1.2-8.3.2-1.5-2.1-2.3-2.4-.7-1.5 6.8-2.9 13.6-4.4 20.4-.2 1.1 1.2 2.3 2.1 1.2 15.7-19-2.1-47-22.9-52.4-11.5-3-24.3-.3-33.7 7.1-7.2 5.7-13 17.7-3.2 24.1.7.4 1.6 0 1.8-.7 2.2-8.8 7.4-17.4 15.9-21.4 8.3-3.9 18.4-2.4 24.7 4.4 1.1 1.2 2.9-.6 1.8-1.8-6.6-7.1-17.2-9-26.1-5.4-9.9 3.9-16.1 13.5-18.6 23.5.6-.2 1.2-.5 1.8-.7-11.5-7.5 2.5-20.5 10-24.1 9.3-4.4 20.2-4.9 29.7-.9 16.4 6.9 30.2 30.6 17 46.6l2.1 1.2c1.5-6.8 2.9-13.6 4.4-20.4-.8-.2-1.6-.4-2.4-.7-.4 2.8-.8 5.5-1.2 8.3.8.1 1.6.2 2.5.3v-16.4c-.8.1-1.6.2-2.5.3 2.8 12.1-.3 24.6-8.4 34l2.1 1.2c2.3-9.6 1.3-19.2-3.1-28.1-.7-1.5-2.8-.2-2.2 1.3 2.9 6.7 4.4 13.6 4.5 20.8 0 1.6 2.5 1.6 2.5 0v-13.1h-2.5c.1 3.4-.4 6.2-2 9.3.8.2 1.6.4 2.3.6.1-3.1.3-6.2.4-9.3h-2.5c-.1 3-.4 5.9-1.2 8.8-.3 1-.5 2.7-1.2 3.6-.2 1.5-.7 1.6-1.6.3-1.2-.5-1.6-1.3-1-2.6-.8.1-1.5.2-2.3.3.7 1.4 1.9 1.6 3.3.9 2.6-1.4.8-4.2 2.5-6l-2.1-.6c.6 3 .7 5.8.2 8.9.8-.1 1.5-.2 2.3-.3-1.8-2.8-2.2-5.5-1.5-8.7h-2.4c.6 3.2.8 6.3.6 9.5.8-.1 1.6-.2 2.5-.3-.9-3-1.2-5.9-1-9 .3-1.4-2.2-1.4-2.3.2z"/><path class="st9" d="M302.2 117.6c-.8-2-2.8-1.8-4.2-.5-1 .9-1.4 2.1-1.7 3.4-.7 2.3-1.3 4.5-2 6.8-.4 1.4 1.6 2.2 2.3 1 1.3-2.2 2-4.5 2-7.1h-2.5v8c0 1.3 1.6 1.6 2.3.6 1.3-1.9 1.7-4.1 1-6.3-.3-.9-1.8-1.4-2.3-.3-1 2.3-1.3 4.5-.9 7 .3 1.6 2.7.9 2.4-.7-.3-1.8-.1-3.4.6-5.1-.8-.1-1.5-.2-2.3-.3.5 1.6.3 3-.7 4.4.8.2 1.6.4 2.3.6v-8c0-1.6-2.5-1.6-2.5 0-.1 2.1-.6 4-1.7 5.8.8.3 1.5.6 2.3 1 .5-1.8 1.1-3.6 1.6-5.4.2-.8.4-2 .8-2.7.2-.3.3-.5.5-.8.7-.2.7-.5.2-.8.6 1.6 3.1.9 2.5-.6z"/><path class="st9" d="M297.3 121.6c-2.3 8.1.8 16.2.5 24.4-.1 1.6 2.4 1.6 2.5 0 .3-8-2.8-15.9-.6-23.8.5-1.5-2-2.1-2.4-.6zM320.9 142.8c.2.6.4 1.3.6 1.9.2.2.4.4.6.5.5.5 1 .9 1.5 1.4.9.9 1.7 1.8 2.5 2.8 1.7 2.1 3.1 4.4 4.3 6.9.7 1.4 2.9.2 2.2-1.3-2.3-4.7-5.5-9.2-9.7-12.4-1-.8-2.7-1.8-3.8-.5-.8.9-.5 2.3.5 2.8 1.5.8 2.8-1.4 1.3-2.1z"/><path class="st9" d="M321.8 145.8c2 1.1 3.5 2.7 4.4 4.7.7 1.5 2.8.2 2.2-1.3-1.1-2.4-3-4.4-5.3-5.6-1.5-.7-2.8 1.5-1.3 2.2zM226.3 103.3c18.9 1.9 37.5 5.4 55.7 10.6 1.6.4 2.2-2 .7-2.4-18.5-5.2-37.3-8.8-56.4-10.7-1.6-.2-1.6 2.3 0 2.5zM354.3 130.4c27 2.6 53.6 7.4 79.8 14.3 1.6.4 2.2-2 .7-2.4-26.4-7-53.3-11.9-80.4-14.4-1.7-.1-1.7 2.4-.1 2.5zM222.8 104.9c-.4 36.3-.7 72.7-1.1 109 0 1.6 2.5 1.6 2.5 0 .4-36.3.7-72.7 1.1-109 0-1.6-2.5-1.6-2.5 0zM221.3 229.7c0 47.2-.2 95-12.4 141-.4 1.6 2 2.2 2.4.7 12.2-46.2 12.4-94.2 12.4-141.7.1-1.7-2.4-1.7-2.4 0zM436.7 149.9c2.4 83 4.8 166 7.3 249 0 1.6 2.5 1.6 2.5 0-2.4-83-4.8-166-7.3-249-.1-1.6-2.6-1.6-2.5 0zM214.8 380.9c42.4 9.1 84.8 18.1 127.2 27.2 1.6.3 2.2-2.1.7-2.4-42.4-9.1-84.8-18.1-127.2-27.2-1.6-.3-2.3 2.1-.7 2.4zM375.1 419.9c16.8 5 33.9 8.5 51.4 10.1 4.5.4 13.5 3 16.8-1.5 3.6-4.9 3.5-14.8 3.4-20.6 0-1.6-2.5-1.6-2.5 0 .1 6.5.6 19-7.3 20.5-2.8.5-6.6-.4-9.4-.7-3.7-.3-7.4-.8-11.1-1.3-13.7-1.9-27.2-4.9-40.5-8.8-1.7-.6-2.4 1.9-.8 2.3zM208 401.2c2.8.5 5.5 1.1 8.3 1.6 1.5.3 3.1.6 4.6.9 2.6.5 3.4.1 4.6 2.9 2.1 5-.8 13.5-1.6 18.9-.2 1.6 2.2 2.3 2.4.7.7-5 1.5-9.9 2.2-14.9.3-2 1.4-5.3.2-7.2-1.1-1.8-3.5-2-5.3-2.4-4.9-1-9.9-2-14.8-2.9-1.5-.4-2.2 2-.6 2.4zM203.8 400.5c-.6 4-1.2 7.9-1.9 11.9-.3 2-1.6 5.6-.7 7.6.8 1.6 2.7 1.9 4.2 2.4 3.8 1.2 7.7 2.3 11.6 3.4 1.5.5 2.2-2 .7-2.4-2.5-.7-5-1.5-7.4-2.2-3.1-.9-6.4-.8-6.5-4.7-.1-4.9 1.6-10.5 2.4-15.3.2-1.6-2.2-2.3-2.4-.7zM242.1 412.5c10.6 1.9 21.2 3.9 31.8 5.8 1.6.3 2.2-2.1.7-2.4-10.6-1.9-21.2-3.9-31.8-5.8-1.6-.3-2.3 2.1-.7 2.4zM237 424.9c18.4 5 37.1 9 56 12.1 1.6.3 2.3-2.2.7-2.4-18.9-3.1-37.5-7.1-56-12.1-1.5-.5-2.2 1.9-.7 2.4zM243 329.6c.1-.1.3-.1.4-.2.4-.2.6-.7.6-1.1-.1-1-.2-1.4-1.1-2-.3-.2-.9-.2-1.3 0-3.1 2.1-3.3 8-4.2 11.4-1.5 6.2-2.8 12.4-3.8 18.6-.3 1.6 2.1 2.2 2.4.7.8-4.7 1.7-9.3 2.8-14 .5-2.2 1-4.3 1.5-6.5.2-.7 2.1-9.4 1.4-9.1-1.4.7-.1 2.9 1.3 2.2z"/><path class="st9" d="M235.9 358.5c28.5 14 60.6 16.9 91.5 21.2 8.4 1.2 16.9 2.3 25.3 3.5 4.2.6 8.4 1.2 12.7 1.8 3.5.5 7.3 1.5 10.9 1.5 5.9-.1 6-6.5 6.9-11.2 1.6-8 2.3-16.1 2.4-24.3 0-1.6-2.5-1.6-2.5 0-.1 7.9-.8 15.8-2.3 23.6-.3 1.4-.4 3.4-1 4.7 0 2-1 3-3.2 3.1-1.4 1.2-3 1.5-4.7 1-3.5 0-7.3-1-10.7-1.5-14.6-2-29.2-4-43.9-6.1-27.3-3.8-55.2-7.2-80.2-19.4-1.4-.8-2.6 1.4-1.2 2.1z"/><path class="st9" d="M241.3 331.4c47.3 4.4 94.2 11.8 140.6 22 1.6.3 2.2-2.1.7-2.4-46.6-10.2-93.8-17.6-141.3-22.1-1.6-.1-1.6 2.4 0 2.5zM245.5 267.4c-2 9.2-3.6 18.4-4.6 27.7-.1.5.4 1.1.9 1.2 47.5 12.3 95.7 21.6 144.3 28.1.7.1 1.2-.6 1.2-1.2.3-9.1 1.3-18.1 3.1-27.1.3-1.6-2.1-2.2-2.4-.7-1.8 9.2-2.9 18.4-3.2 27.7l1.2-1.2c-28.6-3.8-57.1-8.6-85.3-14.5-13.9-2.9-27.7-6-41.5-9.3-3.1-.8-6.3-1.5-9.4-2.3-.9-.2-4.9-.8-5.6-1.4-1.3-1.3-.5-3.1-.3-4.6 1-7.3 2.3-14.5 3.9-21.7.5-1.6-1.9-2.2-2.3-.7z"/><path class="st9" d="M247.1 269.1c46.8 6.7 93.4 14.2 139.9 22.6 1.6.3 2.2-2.1.7-2.4-46.5-8.4-93.2-15.9-139.9-22.6-1.6-.3-2.3 2.1-.7 2.4zM250.8 209.5c-1.2 7.3-2.5 14.7-3.7 22-.3 1.6 2.1 2.3 2.4.7 1.2-7.3 2.5-14.7 3.7-22 .3-1.6-2.1-2.3-2.4-.7z"/><path class="st9" d="M246.9 235.5c47.1 9.2 94.5 17.1 142.1 23.7 1.6.2 2.3-2.2.7-2.4-47.6-6.6-94.9-14.5-142.1-23.7-1.6-.3-2.3 2.1-.7 2.4z"/><path class="st9" d="M255.3 208.9c27.9 2.5 55.7 6.5 83.2 12.1 13.2 2.7 26.3 5.7 39.3 9.1 3.1.8 7.5 1.2 10.2 2.7 2.8 1.6 1.1 6.2.7 9.2-1 7.6-2.2 15.1-3.5 22.6-.3 1.6 2.1 2.2 2.4.7 1.9-10.9 3.5-21.8 4.7-32.8.1-.5-.4-1.1-.9-1.2-44.5-12.5-90.1-20.8-136.1-24.9-1.6-.1-1.6 2.4 0 2.5zM255 195c13 2.5 26.1 3.9 39.3 4.3 1.6 0 1.6-2.5 0-2.5-13-.3-25.9-1.7-38.6-4.2-1.6-.3-2.3 2.1-.7 2.4zM250.4 262.3c18.3 1.3 36.5 3.3 54.6 6.1 1.6.2 2.3-2.2.7-2.4-18.3-2.8-36.7-4.9-55.2-6.2-1.7-.1-1.7 2.4-.1 2.5zM403.4 247.6c-.2-1.2-.5-2.4-.7-3.6-.8.3-1.5.6-2.3 1 1.5 3.3 2.8 8.1 5.1 10.9 1 1.2 2.1 1.7 3.6 1.2 2.7-.8 4.9-4.6 6.6-6.5 2.9-3.2 5.7-6.5 8.4-9.8 1-1.2-.7-3-1.8-1.8-3.5 4.1-7 8.2-10.6 12.3-.5.6-1.4 2.1-2.2 2.4-2.7 1.1-2.9-.7-3.6-2.2-1.2-2.6-2.4-5.1-3.5-7.7-.6-1.4-2.6-.3-2.3 1 .2 1.2.5 2.4.7 3.6.5 1.4 2.9.8 2.6-.8zM397.1 307.6c2.1 3.8 4.1 7.5 6.2 11.3.4.7 1.4.8 2 .3 6.5-5.6 12-12.1 16.7-19.3.9-1.4-1.3-2.6-2.2-1.3-4.6 7-10 13.3-16.3 18.8.7.1 1.3.2 2 .3-2.1-3.8-4.1-7.5-6.2-11.3-.8-1.4-3-.2-2.2 1.2zM259.6 287.9v-1c0-1.6-2.5-1.6-2.5 0v1c0 1.6 2.5 1.6 2.5 0zM271.3 290.1c1.6 0 1.6-2.5 0-2.5s-1.6 2.5 0 2.5zM284.3 293.1c1.6 0 1.6-2.5 0-2.5s-1.6 2.5 0 2.5zM299.3 296.1c1.6 0 1.6-2.5 0-2.5s-1.6 2.5 0 2.5zM311.3 296.6h-1c-1.6 0-1.6 2.5 0 2.5h1c1.6 0 1.6-2.5 0-2.5zM328.6 301.9v-1c0-1.6-2.5-1.6-2.5 0v1c0 1.6 2.5 1.6 2.5 0zM241.8 352.4c23.1 3.8 46.1 7.5 69.2 11.3 11.4 1.9 22.7 3.7 34.1 5.6 10.7 1.8 21.4 3.7 32.3 3 .6 0 1-.4 1.2-.9 1-2.6 1.2-4.9.8-7.7-.1-.4-.5-.8-.9-.9-23.3-4.5-46.7-9-70-13.4-10.6-2-21.2-4.3-32-4.7-11.5-.5-23.2.8-34.2-3.5-.6-.2-1.4.3-1.5.9-.3 2.1-.6 4.2-.9 6.4-.2 1.6 2.2 2.3 2.4.7.3-2.1.6-4.2.9-6.4l-1.5.9c7.5 2.9 15.2 3.4 23.1 3.4 9.2.1 18.1.3 27.2 1.8 17.5 2.9 34.9 6.6 52.3 9.9 9 1.7 17.9 3.4 26.9 5.2 2.1.4 5.5.3 6.1 2.9.7 3.2-2.3 3-4.5 3.1-4.7 0-9.3-.4-13.9-1.1-18.4-2.5-36.7-5.9-55-8.9-20.5-3.3-40.9-6.7-61.4-10-1.6-.3-2.3 2.1-.7 2.4zM338.4 162.5c.7-1.6 1.4-3.1 2-4.7-.8-.3-1.5-.6-2.3-1-.2 1-.4 2-.7 3-.1.4-.3.8-.4 1.3-.1.3-.2.6-.4.9-.4.6-.2 1.2.6 1.8-.3 0-.6.1-1 .1.1 0 .1 0 .2.1 1.5.6 2.1-1.8.7-2.4-2.3-.9-2.8 3.7 0 3.2 1.3-.2 1.7-1.5 2.1-2.6.6-1.5 1-3.1 1.3-4.7.2-1.3-1.7-2.4-2.3-1-.7 1.6-1.4 3.1-2 4.7-.6 1.5 1.6 2.8 2.2 1.3zM287.3 102.5c-4.8.2-8.9 3.4-10.2 8-.4 1.6 2 2.2 2.4.7 1-3.5 4.1-6.1 7.8-6.2 1.6 0 1.6-2.5 0-2.5z"/><path class="st9" d="M281.1 104.1c-3.4 4.7-5.3 10-5.9 15.8-.1 1.6 2.4 1.6 2.5 0 .5-5.3 2.4-10.2 5.5-14.5 1-1.3-1.2-2.6-2.1-1.3zM209.3 374.5c.7 1 1.3 2 2 3 .4.6 1.1.8 1.7.4.6-.3.8-1.1.4-1.7-.7-1-1.3-2-2-3-.4-.6-1.1-.8-1.7-.4-.5.3-.8 1.1-.4 1.7zM503.7 116.5C585.5 96 667.2 75.4 749 54.9c-.5-.4-1.1-.8-1.6-1.2-.7 45.1 1.3 90.3 6.1 135.2.2 1.6 2.7 1.6 2.5 0-4.8-44.9-6.8-90-6.1-135.2 0-.8-.8-1.4-1.6-1.2-81.7 20.5-163.5 41.1-245.2 61.6-1.6.4-.9 2.8.6 2.4zM503.9 126.8c-2.1 3.7-1.3 8.1-1.3 12.1.1 6.3.1 12.7.2 19 .1 12.3.2 24.7.4 37 .2 24.7.5 49.3.7 74 0 1.6 2.5 1.6 2.5 0-.2-23.3-.5-46.7-.7-70l-.3-34c-.1-6-.1-12-.2-18 0-2.7-.1-5.3-.1-8 0-3.3-.7-7.8 1-10.9.7-1.4-1.4-2.6-2.2-1.2z"/><path class="st9" d="M508.1 270.4c59.5-32 126.3-45.1 190.6-64 18.3-5.4 36.5-11.3 54.4-18.3 1.5-.6.8-3-.7-2.4-63.2 24.5-130.5 35.8-194 59.5-17.7 6.6-34.9 14.1-51.5 23.1-1.5.7-.2 2.8 1.2 2.1zM621.8 127.8c-20.9 6.5-19.3 46.4 5.5 42.7 10.4-1.6 20.7-12.7 19.5-23.5-1.3-12.6-14.5-17.9-25-20.9-1.6-.4-2.2 2-.7 2.4 8.9 2.5 19.6 6.2 22.6 16 3 9.6-5.5 20.1-14.3 22.9-22.5 7.2-26.7-31.1-7-37.2 1.6-.4 1-2.8-.6-2.4z"/><path class="st9" d="M624.3 155.6c-.9-6.3-1.8-12.5-2.6-18.8l-2.1 1.2c2.3 1.9 4.5 3.9 6.8 5.8 1.9 1.6 6 4.4 2.7 6.7-2.4 1.7-4.9 2.4-6.7 4.7-1 1.3 1.2 2.5 2.2 1.3 2.2-2.9 8.2-3.3 8.6-7.6.2-1.9-1-3.4-2.3-4.6-3-2.8-6.3-5.4-9.4-8.1-1-.9-2.3 0-2.1 1.2.9 6.3 1.8 12.5 2.6 18.8.2 1.6 2.6 1 2.3-.6zM518.1 231.9v13.7c0 1.4 2.2 1.7 2.5.3.8-3.7-2.7-15.8 3.9-15.5l-1.2-.9c1.8 6 2.2 12 1.2 18.2-.3 1.6 2.2 2.3 2.4.7 1.1-6.6.7-13.1-1.2-19.5-.2-.5-.6-.9-1.2-.9-9.3-.4-5.3 12.4-6.3 17.3.8.1 1.6.2 2.5.3v-13.7c-.1-1.6-2.6-1.6-2.6 0zM533.4 241.2c63.8-15.4 126.9-33.5 189.1-54.4 1.5-.5.9-2.9-.7-2.4-62.2 20.9-125.3 39-189.1 54.4-1.5.4-.8 2.8.7 2.4zM726.1 174.9c-.4 2.7-.1 5.3.6 8 .3 1.1 2.2 1.3 2.4 0 .7-3.2.5-6.3-.6-9.4-.2.5-.4.9-.6 1.4 1.5-1 3-1.8 4.5-2.6 2.1-1.1 5.2-3.3 6.5 0 .6 1.6.4 3.8.6 5.5.2 2 .4 4.1.6 6.1.2 1.6 2.7 1.6 2.5 0-.3-3.3-.7-6.6-1-10-.2-1.8-.2-3.9-1.7-5.2-3.3-3.1-10.5 2.3-13.3 4.1-.4.3-.8.9-.6 1.4 1 2.7 1.2 5.3.6 8.1h2.4c-.7-2.5-.9-4.8-.5-7.3.3-1.7-2.2-1.7-2.4-.1zM507.4 296.9c.1 51.8 2.5 103.5 7.4 155 .2 1.6 2.7 1.6 2.5 0-4.9-51.5-7.4-103.3-7.4-155 0-1.6-2.5-1.6-2.5 0z"/><path class="st9" d="M511.9 302.8c61.6-22.9 123.5-44.8 185.8-65.7 17.7-5.9 35.4-11.7 53.1-17.5 1.5-.5.9-2.9-.7-2.4-62.5 20.3-124.7 41.6-186.4 63.9-17.5 6.3-35 12.8-52.5 19.3-1.4.6-.8 3 .7 2.4zM749.6 222.9c-1.6 50.6-2.4 101.3-2.3 152 0 1.6 2.5 1.6 2.5 0-.1-50.7.7-101.3 2.3-152 .1-1.6-2.4-1.6-2.5 0zM523 459.1c74.2-29.2 148.5-58.5 222.7-87.7 1.5-.6.8-3-.7-2.4-74.2 29.2-148.5 58.5-222.7 87.7-1.4.6-.8 3 .7 2.4z"/><path class="st9" d="M510.5 338.6c14.1-4.1 27.9-9.2 41.2-15.3-.6-.2-1.2-.5-1.8-.7 2.3 7.3 7.7 12.6 15.1 14.5.9.2 1.9-.6 1.5-1.5-3.2-9.1 3.7-17.2 11.5-20.9 7.6-3.6 16.3-4.6 24.4-6.7 16.8-4.5 32.9-11 49-17.6 33.7-13.7 67.1-27.8 100.5-42.3 1.5-.6.2-2.8-1.3-2.2-37.1 16.1-74.4 32-112 46.9-17.2 6.8-34.4 11.8-52.3 16.4-12 3.1-27.5 12.2-22.4 27.1l1.5-1.5c-6.5-1.8-11.3-6.3-13.3-12.8-.3-.8-1.1-1.1-1.8-.7-13.2 6-26.7 11-40.6 15-1.4.3-.8 2.7.8 2.3zM519.8 386.4C580.3 364.5 640 340.7 699 315c1.5-.6.2-2.8-1.3-2.2-58.7 25.6-118.3 49.4-178.6 71.2-1.5.5-.9 3 .7 2.4zM521.1 352.9c-.4 4.1 0 8 1 12 .4 1.4 2.5 1.1 2.5-.3 0-3.4-1.7-11.9 1.5-14.3 1.6-1.2 4.7-1.6 6.6-2.2 2.1-.7 4.2-1.3 6.3-2-.5-.4-1.1-.8-1.6-1.2.4 3.8 3.1 12.4-.2 15.1-1.6 1.3-4.2 2.1-6 3-2.5 1.2-5 2.5-7.5 3.7-1.4.7-.2 2.9 1.3 2.2l9-4.5c1.9-1 5.4-2 6.7-3.9.9-1.4.7-3 .5-4.6-.4-3.7-.8-7.3-1.3-11-.1-.8-.7-1.5-1.6-1.2-3.1 1-6.3 1.9-9.4 2.9-2 .6-4.2 1.1-5.6 2.8-1 1.2-1.2 2.4-1.2 3.9-.2 3.7 0 7.5.1 11.3.8-.1 1.6-.2 2.5-.3-1-3.8-1.3-7.4-.9-11.3-.1-1.7-2.6-1.7-2.7-.1z"/><path class="st9" d="M522.6 355.2l14.4-6.6c1.4-.6.3-2.5-1-2.3-4.7.7-8.8 2.9-12 6.4-1 1.1.2 2.5 1.5 2 3.2-1.4 6.4-2.7 9.6-4.1-.5-.7-1-1.3-1.5-2-2.7 2.3-5.6 4.4-8.6 6.2-1.2.7-.4 2.7 1 2.3 3.7-1.2 7.1-2.8 10.4-4.7-.5-.7-1-1.3-1.5-2-2.7 2.4-5.5 4.7-8.2 7.1-1.1 1 .3 2.6 1.5 2 2.5-1.3 5-2.1 7.8-2.4l-.9-2.1c-2.4 1.9-4.9 3.4-7.7 4.6.3.8.6 1.5 1 2.3 3.1-1.6 6.2-2.8 9.5-3.7l-1.2-2.1c-3.1 2.6-6.3 4.8-9.8 6.8-1.2.7-.4 2.8 1 2.3 2.5-1 4.9-1.9 7.4-2.9-.5-.6-.9-1.2-1.4-1.8-1.1 2.2-4 2.8-6 1.3-2.7-2-1.8-5.7-.1-8-.8-.3-1.5-.6-2.3-1l-2.4 6.3c.8-.1 1.5-.2 2.3-.3-.6-1-1.2-2-1.7-3.1-.5-.9-2-.8-2.3.3-.3 1.5-.3 2.5.1 4 .3 1 1.7 1.2 2.3.3.9-1.6 1.9-3.2 2.8-4.8.8-1.4-1.3-2.6-2.2-1.3-.9 1.6-1.9 3.2-2.8 4.8.8.1 1.5.2 2.3.3 0-.9 0-1.8-.1-2.6-.8.1-1.5.2-2.3.3.6 1 1.2 2 1.7 3.1.6 1 1.9.7 2.3-.3l2.4-6.3c.5-1.4-1.5-2-2.3-1-2.5 3.4-2.8 9 1.2 11.6 3.1 2 7.6 1 9.2-2.3.4-.9-.3-2.3-1.4-1.8-2.5 1-4.9 1.9-7.4 2.9.3.8.6 1.5 1 2.3 3.7-2.1 7.1-4.5 10.3-7.2 1-.8-.1-2.4-1.2-2.1-3.5.9-6.9 2.3-10.1 3.9-1.2.6-.4 2.8 1 2.3 3.2-1.3 6.1-3.1 8.8-5.3.8-.7.2-2.2-.9-2.1-3.2.3-6.2 1.2-9 2.7.5.7 1 1.3 1.5 2 2.7-2.4 5.5-4.7 8.2-7.1 1.1-.9-.3-2.7-1.5-2-3.1 1.9-6.4 3.3-9.8 4.5.3.8.6 1.5 1 2.3 3.3-1.9 6.3-4.1 9.1-6.5 1.2-1-.3-2.5-1.5-2-3.2 1.4-6.4 2.7-9.6 4.1.5.7 1 1.3 1.5 2 2.9-3.3 6.6-5.2 10.9-5.8-.3-.8-.6-1.5-1-2.3l-14.4 6.6c-1.6.6-.3 2.7 1.1 2z"/><path class="st9" d="M535 348.9c.1 2.6.1 5.2.2 7.8 0 1.4 2 1.7 2.5.3.6-2.1 1.3-4.3 1.9-6.4h-2.4c.6 2.2 1.1 4.4 1.7 6.5.3 1.2 2.1 1.2 2.4 0 .6-2.8-.2-5.7-2.4-7.7-.6-.6-1.9-.4-2.1.6-.3 1.7-.2 3.3.4 5 .5 1.4 2.3 1.1 2.5-.3.2-2-.1-4-1-5.8-.6-1.2-2.3-.5-2.3.6-.1 1.7-.1 3.5-.2 5.2.5-.4 1.1-.8 1.6-1.2.9.3-.9 2-1.3 2.3-1.2 1.1.6 2.9 1.8 1.8 1-.9 1.9-2 1.7-3.4-.2-1.1-1-2.1-2.2-2.2-2.3-.1-2.9 3.3-.7 3.9.8.2 1.6-.4 1.6-1.2.1-1.7.1-3.5.2-5.2-.8.2-1.6.4-2.3.6.7 1.5.9 3 .7 4.6.8-.1 1.6-.2 2.5-.3-.4-1.2-.6-2.4-.4-3.7l-2.1.6c1.5 1.3 2.2 3.2 1.8 5.2h2.4c-.6-2.2-1.1-4.4-1.7-6.5-.3-1.2-2.1-1.2-2.4 0-.6 2.1-1.3 4.3-1.9 6.4.8.1 1.6.2 2.5.3-.1-2.6-.1-5.2-.2-7.8-.3-1.6-2.8-1.6-2.8 0zM525 355.5l-2.1 9h2.4c-1-3.4-1.2-6.8-.5-10.3-.8.1-1.5.2-2.3.3 1.3 2.6 1.7 5.3 1.5 8.1h2.5c-.2-3.4-.9-6.7-2.1-9.9-.5-1.3-2.5-1.2-2.5.3v5.8c0 1.6 2.5 1.6 2.5 0V353c-.8.1-1.6.2-2.5.3 1.1 3 1.8 6 2 9.2.1 1.6 2.4 1.6 2.5 0 .3-3.3-.4-6.4-1.8-9.4-.5-.9-2.1-.7-2.3.3-.8 3.9-.6 7.8.5 11.6.3 1.1 2.1 1.2 2.4 0l2.1-9c.5-1.4-1.9-2-2.3-.5zM527.1 411.9c-.1 4.8.7 9.4 2.3 13.9.4 1.1 2.1 1.3 2.4 0 .6-2.3.9-4.5.8-6.9-.1-2.6-1.5-5-1.7-7.5-.4-5.1 12.2-8.8 16.4-10.7-.6-.2-1.2-.5-1.8-.7 1 6.4 1.9 12.8 2.7 19.2.2 1.6 2.7 1.6 2.5 0-.8-6.6-1.7-13.2-2.8-19.8-.1-.9-1.2-1.1-1.8-.7l-10.2 4.8c-2 1-5.9 2-7.3 4.1-1 1.6-.6 3-.1 4.7 1.4 4.6 2.1 8.3.9 13.1h2.4c-1.6-4.4-2.3-8.6-2.2-13.2 0-1.9-2.5-1.9-2.5-.3z"/><path class="st9" d="M534.2 408.3c-.8 1.3-1.6 2.7-2.4 4-.7 1.2 1 2.6 2 1.5 1.5-1.6 3-3.2 4.5-4.9-.7-.5-1.3-1-2-1.5-1.9 2.6-3.9 5.1-5.8 7.7.7.4 1.4.8 2.2 1.3 2.5-3.7 5.3-7.1 8.4-10.3-.7-.5-1.3-1-2-1.5-1.9 3.5-3.8 6.9-5.6 10.4-.7 1.2 1 2.6 2 1.5 2.3-2.5 4.6-5 6.9-7.6-.7-.5-1.3-1-2-1.5-1.6 3.5-3.2 7-4.8 10.4-.7 1.4 1.3 2.7 2.2 1.3l8.1-13.2c-.8-.3-1.5-.6-2.3-1-1.9 5.2-4.3 10.2-7.2 14.9-.7 1.2 1.1 2.7 2 1.5 3.6-4.6 6.7-9.5 9.2-14.8-.8-.3-1.5-.6-2.3-1-1.8 5.3-3.9 10.3-6.5 15.2-.6 1.2 1 2.7 2 1.5 2.5-2.9 4.6-6.1 6.4-9.5-.8-.3-1.5-.6-2.3-1-.9 2.6-1.8 5.1-2.7 7.7-.5 1.5 1.9 2.2 2.4.7.9-2.6 1.8-5.1 2.7-7.7.5-1.3-1.6-2.2-2.3-1-1.7 3.2-3.7 6.2-6 9 .7.5 1.3 1 2 1.5 2.7-5.1 4.9-10.4 6.7-15.8.4-1.3-1.7-2.3-2.3-1-2.4 5.1-5.3 9.9-8.8 14.3.7.5 1.3 1 2 1.5 3-4.9 5.4-10.1 7.4-15.5.5-1.4-1.6-2.1-2.3-1l-8.1 13.2c.7.4 1.4.8 2.2 1.3l4.8-10.5c.6-1.2-.9-2.6-2-1.5-2.3 2.5-4.6 5-6.9 7.6.7.5 1.3 1 2 1.5 1.9-3.5 3.8-6.9 5.6-10.4.7-1.2-.9-2.6-2-1.5-3.2 3.4-6.2 6.9-8.8 10.8-.9 1.4 1.2 2.5 2.2 1.3 1.9-2.6 3.9-5.1 5.8-7.7.9-1.1-1-2.5-2-1.5-1.5 1.6-3 3.2-4.5 4.9.7.5 1.3 1 2 1.5.8-1.3 1.6-2.7 2.4-4 .8-1.3-1.3-2.5-2.2-1.1z"/><path class="st9" d="M543.1 403.9c.5 4.9 1 9.9 1.6 14.8.8-.1 1.6-.2 2.5-.3-.9-5-.8-9.8.3-14.8h-2.4c.7 4.6 1.4 9.1 2.1 13.7.2 1.4 2.6 1.1 2.5-.3-.1-.6-.1-1.1-.2-1.7-.8.2-1.6.4-2.3.6 2.5 4.5-8.4 4.7-11.1 5.5-3 .9-5.7 2.3-8.2 4.1.6.4 1.3.7 1.9 1.1.3-5.4.7-10.8 1-16.2h-2.5c.3 2.4.9 4.6 1.9 6.8.6 1.2 2.3.5 2.3-.6.1-1.7.2-3.5.3-5.2-.8.1-1.6.2-2.5.3 1 2.5 1.9 4.9 2.9 7.4.4 1 2.2 1.4 2.4 0 .4-2.6 3.1-4.9 5.7-4.7 1.6.1 1.6-2.4 0-2.5-4.2-.2-7.5 2.4-8.1 6.6h2.4c-1-2.5-1.9-4.9-2.9-7.4-.5-1.3-2.4-1.1-2.5.3-.1 1.7-.2 3.5-.3 5.2.8-.2 1.6-.4 2.3-.6-.9-1.7-1.5-3.6-1.6-5.5-.2-1.6-2.4-1.6-2.5 0-.3 5.4-.7 10.8-1 16.2-.1.9 1.1 1.6 1.9 1.1 2.8-1.9 5.8-3.4 9.1-4.2 2.8-.6 5.9-.3 8.5-1.6 2.8-1.4 4.2-4.3 2.6-7.2-.6-1-2.5-.6-2.3.6.1.6.1 1.1.2 1.7.8-.1 1.6-.2 2.5-.3-.7-4.6-1.4-9.1-2.1-13.7-.2-1.2-2.1-1.1-2.4 0-1.3 5.4-1.4 10.6-.3 16.1.3 1.4 2.6 1.1 2.5-.3-.5-4.9-1-9.9-1.6-14.8-.3-1.8-2.8-1.8-2.6-.2zM569.9 397.8c24.7-11.3 50-21.2 75.8-29.6 1.5-.5.9-2.9-.7-2.4-26 8.5-51.5 18.4-76.4 29.9-1.4.6-.2 2.8 1.3 2.1zM572.7 410.3c10.7-3.6 21.4-7.1 32.1-10.7 1.5-.5.9-2.9-.7-2.4-10.7 3.6-21.4 7.1-32.1 10.7-1.5.4-.8 2.9.7 2.4zM619.5 392.8c24.2-7.3 47.7-16.6 70.4-27.8 1.4-.7.2-2.9-1.3-2.2-22.5 11.1-45.8 20.3-69.8 27.6-1.5.4-.8 2.8.7 2.4zM565.5 345.8c11.7-4.2 23.5-8.3 35.2-12.5 1.5-.5.9-3-.7-2.4-11.7 4.2-23.5 8.3-35.2 12.5-1.4.5-.8 2.9.7 2.4zM616.9 330.8c19.1-8.6 38.7-15.8 58.8-21.6 1.5-.4.9-2.9-.7-2.4-20.3 5.9-40.1 13.2-59.4 21.9-1.5.6-.2 2.7 1.3 2.1zM525 315.2c19.7-8.6 40-16 60.6-22.3 1.5-.5.9-2.9-.7-2.4-20.8 6.3-41.2 13.8-61.2 22.5-1.4.6-.1 2.8 1.3 2.2zM601.5 288.1c8.3-3.9 16.6-7.6 25.1-11.1 1.5-.6.8-3-.7-2.4-8.7 3.5-17.2 7.3-25.7 11.3-1.4.8-.1 2.9 1.3 2.2zM603.7 466.9c0-3.9-.2-8.8-3.6-11.5-2.3-1.8-6.1-2.3-8.4-.1-3 2.9-.8 7.3.9 10.2 3.1 5.4 7.2 10.1 11.8 14.1.6.5 1.5.5 2-.3 3.3-5.3 6-10.9 7.7-16.9 1-3.5 2.9-9 .2-12.2-6.4-7.6-13.1 10.5-14.2 14.2-.4 1.3 1.7 2.3 2.3 1 2.2-4.7 5.1-8.6 9-12l-2.1-.9c.3 6.7-1.1 12.9-4.5 18.7.8.2 1.6.4 2.3.6-.3-4.2.3-8 2-11.8-.8-.3-1.5-.6-2.3-1-1.3 3.5-2.2 7.1-2.8 10.8.8.1 1.6.2 2.5.3 0-2.8.1-5.5.1-8.3 0-1.4-2.1-1.7-2.5-.3-.8 3.5-1.5 6.9-2.3 10.4h2.4c-1-3.7-2-7.4-3.1-11.2-.3-1.3-2-1.1-2.4 0-1.4 3.6-1.1 7 .8 10.4.7 1.3 2.5.3 2.3-1-.5-3.3-1.5-5.9-3.4-8.7-.7-1-2.2-.6-2.3.6-.3 3.2.5 5.4 2.4 7.9.7.9 2.1.1 2.1-.9.3-4-1.5-7.3-5-9.3-.8-.4-1.6 0-1.8.7-1.3 3.4 0 6.6 3.1 8.4.9.5 1.8-.2 1.9-1.1.4-3.6-1.1-6.4-4.1-8.4-.9-.6-2.1.4-1.8 1.4 1.4 4.7 3.8 8.5 7.6 11.7 1.2 1 3-.7 1.8-1.8-3.5-2.9-5.6-6.2-6.9-10.6-.6.5-1.2.9-1.8 1.4 2.3 1.5 3.1 3.7 2.8 6.3.6-.4 1.3-.7 1.9-1.1-2.4-1.6-3-3.4-2-5.6-.6.2-1.2.5-1.8.7 2.8 1.5 4 3.9 3.8 7.1l2.1-.9c-1.5-1.9-2.1-3.9-1.7-6.1-.8.2-1.6.4-2.3.6 1.7 2.5 2.7 5.1 3.2 8.1.8-.3 1.5-.6 2.3-1-1.6-2.8-1.7-5.4-.5-8.4H599c1 3.7 2 7.4 3.1 11.2.3 1.1 2.1 1.2 2.4 0 .8-3.5 1.5-6.9 2.3-10.4-.8-.1-1.6-.2-2.5-.3 0 2.8-.1 5.5-.1 8.3 0 1.4 2.2 1.8 2.5.3.6-3.7 1.5-7.2 2.8-10.8.5-1.3-1.7-2.3-2.3-1-1.9 4.2-2.7 8.4-2.4 13.1.1 1.2 1.7 1.8 2.3.6 3.6-6.2 5.2-12.8 4.8-20-.1-1.1-1.3-1.6-2.1-.9-4.1 3.5-7.2 7.6-9.4 12.5.8.3 1.5.6 2.3 1 1.1-3.4 2.5-6.8 4.3-9.9 1-1.6 3.4-6.3 6.1-2.2.8 1.2-.1 4.3-.4 5.5-1.5 7-4.5 13.6-8.3 19.6.7-.1 1.3-.2 2-.3-4.1-3.6-7.7-7.5-10.6-12.2-.5-.8-1.4-1.9-1.7-2.9.2-2.1.4-4.2.6-6.4 1.1.2 2.2.3 3.3.5 3.4 1.8 3.3 6.7 3.3 9.9-.1 2.2 2.4 2.2 2.4.6z"/><path class="st9" d="M601.3 466.4c-2.1-1.5-4.1-3.1-5.8-5.1-.7-.8-1.3-1.6-1.8-2.4-1-1-.3-1.7 2-2 .8.4 1.3 3.3 1.6 4 1.9 5.4 3.4 10.9 4.5 16.4.3 1.6 2.7.9 2.4-.7-1.3-6.3-3-12.7-5.3-18.7-1-2.5-2.6-5.6-5.8-5.1-9.3 1.3 4.7 14.1 7.1 15.7 1.1 1 2.4-1.2 1.1-2.1z"/><path class="st9" d="M602 466.9c0 3.9.4 7.6 1.3 11.4.3 1.2 2.1 1.2 2.4 0 2.2-8.1 4.3-16.2 6.5-24.2h-2.4c1.8 5.1.4 10.2-3.7 13.8l2.1 1.2c1-2.6 2.1-5.3 3.1-7.9.6-1.5-1.8-2.1-2.4-.7-1 2.6-2.1 5.3-3.1 7.9-.5 1.3 1.2 2 2.1 1.2 4.7-4.1 6.3-10.3 4.3-16.2-.4-1.1-2.1-1.3-2.4 0-2.2 8.1-4.3 16.2-6.5 24.2h2.4c-.9-3.6-1.3-7.1-1.3-10.7.2-1.6-2.3-1.6-2.4 0zM854.8 56.2c.1 0 .2-.1.3-.1.5-.2 1-.7.9-1.2-.1-.9-.2-1.3-1-1.8-.5-.3-1.1-.2-1.5.2-2.2 2-1.4 6.5-1.5 9.2-.3 5.6-.5 11.2-.7 16.7-.4 11.2-.7 22.3-.9 33.5-.3 22.4-.1 44.7.7 67 .1 1.6 2.6 1.6 2.5 0-.7-20.7-.9-41.4-.7-62.1.1-10.2.3-20.4.7-30.6.2-5.3.4-10.5.6-15.8.1-1.5.5-17.7.1-17.6-1.7.7-1 3.1.5 2.6zM851.1 187.5c62.9 10.7 124.8 26.9 185 48.4 1.5.5 2.2-1.9.7-2.4-60.1-21.5-122-37.7-185-48.4-1.6-.3-2.3 2.1-.7 2.4zM858.8 55.8c68.4 16 136.2 34.9 203.1 56.4 1.5.5 2.2-1.9.7-2.4-66.9-21.5-134.7-40.4-203.1-56.4-1.6-.4-2.2 2-.7 2.4zM1065.3 112.6c-4.1 19.2-7.4 38.5-9.9 58-1.2 9.7-2.3 19.4-3.1 29.1l-1.2 15.6c-.1 1.8-.3 17.6-3 16.6-1.5-.6-2.2 1.9-.7 2.4 6.8 2.5 5.7-12.2 5.9-15.2.7-11.7 1.6-23.3 2.9-35 2.6-23.8 6.4-47.4 11.5-70.8.4-1.6-2-2.2-2.4-.7z"/><path class="st9" d="M856.9 56.4c59.7 47.9 114.3 101.8 163 160.8 1 1.2 2.8-.5 1.8-1.8-48.7-59-103.4-112.9-163-160.8-1.3-.9-3.1.8-1.8 1.8z"/><path class="st9" d="M855.3 178.7c66.6-17 132.5-36.8 197.5-59.3 1.5-.5.9-2.9-.7-2.4-65 22.5-130.9 42.3-197.5 59.3-1.5.4-.9 2.8.7 2.4zM847.2 217.5c66.6 19.8 134 36.8 201.9 51 1.6.3 2.2-2.1.7-2.4-68-14.2-135.4-31.2-201.9-51-1.6-.5-2.3 1.9-.7 2.4zM847.6 232.9l-.3 189c0 1.6 2.5 1.6 2.5 0l.3-189c0-1.6-2.5-1.6-2.5 0zM851.1 425.9c31 9 62.1 17.9 93.1 26.9 30.5 8.8 61.7 16.7 90.8 29.8 1.5.7 2.7-1.5 1.3-2.2-28.7-12.9-59.3-20.8-89.5-29.5-31.7-9.1-63.3-18.3-95-27.4-1.5-.5-2.2 1.9-.7 2.4zM1049.2 272.9c-6 53.2-10.6 106.6-13.8 160-.1 1.6 2.4 1.6 2.5 0 3.2-53.4 7.7-106.8 13.8-160 .2-1.6-2.3-1.6-2.5 0z"/><path class="st9" d="M850 262.2c70.6 12.6 140.6 28 209.9 46.2 1.6.4 2.2-2 .7-2.4-69.3-18.2-139.4-33.7-209.9-46.2-1.7-.3-2.3 2.1-.7 2.4zM848 247.2c1.1 4.7 3.3 8.9 6.4 12.5 1 1.2 2.8-.5 1.8-1.8-2.8-3.3-4.8-7.2-5.8-11.4-.4-1.5-2.8-.8-2.4.7zM851.3 236.5l6.9 13.8c1.3 2.5 2.2 6.8 5 7.9.4.2.9 0 1.2-.3.6-.6.7-1 .5-1.9-.1-.4-.5-.8-.9-.9h-.3c-1.6-.2-2.3 2.2-.7 2.4 1.8.3-1.5-6-1.6-6.3-.8-1.7-1.7-3.4-2.5-5.1-1.8-3.6-3.6-7.3-5.4-10.9-.7-1.4-2.9-.2-2.2 1.3zM852.5 227.4c5.4 11.8 11.4 23.4 17.9 34.6.8 1.4 3 .1 2.2-1.3-6.6-11.2-12.5-22.8-17.9-34.6-.7-1.4-2.9-.2-2.2 1.3z"/><path class="st9" d="M856.5 226.4c4.2 8 8.4 15.9 12.5 23.9 2 3.8 4 7.7 6 11.5 1.1 2.2 1.7 4.3 4.1 5.1.4.1 1 0 1.2-.3.1-.2.3-.3.4-.5 1-1.2-.8-3-1.8-1.8.6-.7-4.5-8.9-5.1-10-1.7-3.2-3.4-6.5-5.1-9.7-3.4-6.5-6.8-13-10.2-19.4-.6-1.5-2.7-.3-2 1.2zM862.5 225.4c7.1 14.9 15.6 29.1 25.3 42.5.9 1.3 3.1 0 2.2-1.3-9.7-13.4-18.1-27.6-25.3-42.5-.7-1.4-2.9-.2-2.2 1.3zM872.7 229.3c8.4 14.7 17.1 29.2 26.1 43.5.9 1.4 3 .1 2.2-1.3-9.1-14.3-17.8-28.8-26.1-43.5-.9-1.4-3-.1-2.2 1.3zM885.4 235.4c4.5 7.4 9.1 14.8 13.7 22.2 2.2 3.5 4.5 7.1 6.8 10.6 1.2 1.9 2.1 4.1 4.4 4.8.4.1.9 0 1.2-.3.7-.8.8-1.1.6-2.2-.1-.4-.5-.8-.9-.9-.1 0-.3-.1-.4-.1-1.6-.3-2.2 2.1-.7 2.4 1.1.3-2.9-6.3-3.1-6.7-.9-1.4-1.7-2.7-2.6-4.1l-5.7-9c-3.8-6-7.5-12-11.1-18.1-.8-1.3-3 0-2.2 1.4zM897.6 237.3c7.3 13.3 15.2 26.3 23.9 38.7.9 1.3 3.1.1 2.2-1.3-8.7-12.5-16.6-25.4-23.9-38.7-.8-1.3-3-.1-2.2 1.3zM910.3 240.5c4.7 10.2 10.1 20.1 16.1 29.5 1 1.6 3 6.4 5.4 6.5 1.5.1 2.6-1 2.4-2.4-.2-1.6-2.7-1.6-2.5 0-.3-2.7-3.7-6.2-5.2-8.6-1.8-2.9-3.5-5.9-5.2-8.9-3.2-5.7-6.2-11.6-8.9-17.5-.6-1.3-2.7-.1-2.1 1.4zM920.2 242.5c6.9 11.7 13.8 23.4 20.7 35.2.8 1.4 3 .1 2.2-1.3-6.9-11.7-13.8-23.4-20.7-35.2-.9-1.3-3-.1-2.2 1.3zM929.4 246.5c6.1 12.4 13.3 24.2 21.3 35.4.9 1.3 3.1 0 2.2-1.3-8.1-11.2-15.2-23.1-21.3-35.4-.8-1.4-3-.2-2.2 1.3zM941.3 251.5c5.5 11.7 12.1 22.8 19.8 33.1.9 1.3 3.1 0 2.2-1.3-7.7-10.4-14.3-21.4-19.8-33.1-.7-1.4-2.9-.2-2.2 1.3zM952.5 254.3c7.1 9.8 14.3 19.6 21.4 29.4.9 1.3 3.1 0 2.2-1.3-7.1-9.8-14.3-19.6-21.4-29.4-1-1.2-3.2 0-2.2 1.3zM964.4 255.4c6.7 10.1 13 20.5 18.7 31.2.8 1.4 2.9.2 2.2-1.3-5.8-10.7-12-21.1-18.7-31.2-.9-1.3-3.1-.1-2.2 1.3zM973 254.2c9.5 10.6 17.8 22.1 25 34.4.8 1.4 3 .1 2.2-1.3-7.3-12.5-15.8-24.1-25.4-34.9-1.1-1.1-2.8.6-1.8 1.8zM988.4 253.4c7.5 13.2 15.7 25.9 24.7 38.2.9 1.3 3.1 0 2.2-1.3-9-12.2-17.2-25-24.7-38.2-.8-1.3-3-.1-2.2 1.3zM1002.3 254.5c7.9 14.1 15.8 28.1 23.7 42.2.8 1.4 2.9.1 2.2-1.3-7.9-14.1-15.8-28.1-23.7-42.2-.9-1.4-3-.1-2.2 1.3zM1017.5 262.4c6.2 11.6 12.1 23.3 17.7 35.1.7 1.5 2.8.2 2.2-1.3-5.6-11.9-11.5-23.6-17.7-35.1-.8-1.4-3-.1-2.2 1.3zM878.9 294.4c41.2 8.3 82.4 16.5 123.5 24.8 1.4.3 2.1-1.4 1-2.3-2.2-1.7-4.3-2.3-7.1-2.2-1.6 0-1.6 2.5 0 2.5 2.3-.1 4 .5 5.8 1.9.3-.8.6-1.5 1-2.3-41.2-8.3-82.4-16.5-123.5-24.8-1.6-.3-2.3 2.1-.7 2.4zM909.1 318.5c12.4 2.6 24.7 5.3 37 8.2 1.1.3 2.3-1.3 1.2-2.1-.7-.6-1.4-1.1-2.1-1.7-1.2-1-3 .8-1.8 1.8.7.6 1.4 1.1 2.1 1.7l1.2-2.1c-12.3-2.9-24.6-5.7-37-8.2-1.5-.3-2.2 2.1-.6 2.4zM879.9 377.9c-1 10.3-1.2 20.7-.7 31 .1 1.6 2.6 1.6 2.5 0-.5-10.4-.2-20.7.7-31 .1-1.6-2.4-1.6-2.5 0z"/><path class="st9" d="M880.2 408.6c28.4 10.1 57.5 18.5 86.9 25.1 1.6.4 2.2-2.1.7-2.4-29.5-6.6-58.5-15-86.9-25.1-1.6-.6-2.2 1.8-.7 2.4z"/><path class="st9" d="M881.9 380.1c32.1 8.8 64.3 17.7 96.4 26.5l-.9-1.5c-3.4 9.6-5.7 19.5-6.9 29.6h2.5c-.4-5.7.5-11.1 2.6-16.3.6-1.5-1.8-2.1-2.4-.7-2.2 5.5-3.1 11.1-2.7 17 .1 1.6 2.3 1.6 2.5 0 1.2-9.9 3.5-19.5 6.8-28.9.2-.6-.3-1.4-.9-1.5-32.1-8.8-64.3-17.7-96.4-26.5-1.5-.5-2.1 1.9-.6 2.3zM641.5 431.8c-.5 12.6.3 25.1 2.4 37.5.1.6.7.9 1.2.9 3.1.2 5.2-1 6.8-3.5.9-1.4-1.3-2.6-2.2-1.3-1.3.5-2.5.9-3.8 1.4-.2-.9-.3-1.8-.4-2.8-.3-1.7-.5-3.5-.7-5.2-.4-3.1-.6-6.2-.8-9.3-.3-5.9-.3-11.8-.1-17.7.2-1.6-2.3-1.6-2.4 0z"/><path class="st9" d="M642.8 432.7c16.9-10.8 37.8-13.3 56.6-19.4 19.1-6.2 37.6-14.1 55.3-23.4-.6-.4-1.3-.7-1.9-1.1 0 12.1-.1 24.2-.1 36.3 0 1.6 2.5 1.6 2.5 0 0-12.1.1-24.2.1-36.3 0-1-1.1-1.5-1.9-1.1-18.7 9.8-38.1 18-58.3 24.3-18 5.6-37.6 8.2-53.7 18.5-1.3.9 0 3 1.4 2.2z"/><path class="st9" d="M647.7 467.2c37.6-12.9 73.9-29.3 108.5-48.9 1.4-.8.1-3-1.3-2.2-34.4 19.5-70.5 35.8-107.9 48.6-1.5.6-.8 3.1.7 2.5z"/><path class="st9" d="M642.6 459.1c3.3 2.1 6.9 3.3 10.7 3.7 1.6.1 1.6-2.4 0-2.5-3.4-.3-6.6-1.4-9.5-3.3-1.3-1-2.5 1.2-1.2 2.1zM644.7 453.9c4.4 2.3 8.7 4.6 13.1 6.9 1.4.7 2.7-1.4 1.3-2.2-4.4-2.3-8.7-4.6-13.1-6.9-1.5-.7-2.7 1.5-1.3 2.2zM644.8 447.8c5.7 4.1 11.6 7.9 17.7 11.5 1.4.8 2.7-1.3 1.3-2.2-6.1-3.5-12-7.4-17.7-11.5-1.3-.9-2.6 1.3-1.3 2.2zM647.7 443.9c6.9 5.1 14.2 9.4 22 13 1.5.7 2.7-1.5 1.3-2.2-7.8-3.6-15.1-7.9-22-13-1.3-.9-2.6 1.3-1.3 2.2zM643.6 435.2c10.7 5.6 21.4 11.3 32 16.9 1.4.8 2.7-1.4 1.3-2.2-10.7-5.6-21.4-11.3-32-16.9-1.5-.7-2.7 1.4-1.3 2.2zM648.7 429.9c11.5 7.1 23.6 13.3 36.1 18.5 1.5.6 2.1-1.8.7-2.4-12.3-5.1-24.2-11.2-35.5-18.2-1.4-.9-2.6 1.2-1.3 2.1zM658.7 429c11.6 5.5 23.2 10.9 34.8 16.4 1.4.7 2.7-1.5 1.3-2.2-11.6-5.5-23.2-10.9-34.8-16.4-1.5-.7-2.8 1.5-1.3 2.2zM669 427.1c11.2 4 22.1 8.6 32.7 13.8 1.4.7 2.7-1.4 1.3-2.2-10.8-5.4-21.9-10-33.3-14.1-1.6-.4-2.2 2-.7 2.5zM682.6 423.1c9 6.3 18.3 11.9 28.1 16.8 1.4.7 2.7-1.4 1.3-2.2-9.8-5-19.1-10.6-28.1-16.8-1.4-.9-2.6 1.3-1.3 2.2zM692.7 417c9.7 5 19.3 10 29 15.1 1.4.7 2.7-1.4 1.3-2.2-9.7-5-19.3-10-29-15.1-1.5-.7-2.8 1.5-1.3 2.2zM707.8 412.8c8.4 5.1 17 10 25.7 14.6 1.4.8 2.7-1.4 1.3-2.2-8.7-4.6-17.3-9.5-25.7-14.6-1.4-.8-2.7 1.4-1.3 2.2zM715.9 408.6c7.8 3.5 15.3 7.3 22.8 11.5 1.4.8 2.7-1.4 1.3-2.2-7.4-4.2-15-8-22.8-11.5-1.5-.7-2.8 1.5-1.3 2.2zM725.7 405c6.9 4.8 13.9 9.5 20.8 14.3 1.3.9 2.6-1.3 1.3-2.2-6.9-4.8-13.9-9.5-20.8-14.3-1.4-.9-2.7 1.3-1.3 2.2zM737.7 405c3.7 2.3 7.3 4.7 11 7 1.4.9 2.6-1.3 1.3-2.2-3.7-2.3-7.3-4.7-11-7-1.4-.9-2.7 1.3-1.3 2.2zM749.4 401.8l3 3c1.1 1.1 2.9-.6 1.8-1.8l-3-3c-1.1-1.1-2.9.6-1.8 1.8zM891.6 343.9c.1-2.6.1-5.2.2-7.8 0-1.4-2.3-1.8-2.5-.3-1.4 10.5-2.8 21.1-4.3 31.6-.2 1.5 2.1 2.3 2.4.7 2-9.6 4-19.1 6-28.7-.8-.1-1.6-.2-2.5-.3-.3 7.9-.6 15.8-1 23.7h2.5c.2-7.3 1.5-14.3 4-21.1-.8-.2-1.6-.4-2.4-.7-1 7.2-2.1 14.4-3.1 21.6-.2 1.6 2.2 2.3 2.4.7 1-7.2 2.1-14.4 3.1-21.6.2-1.6-1.9-2.2-2.4-.7-2.5 7.1-3.9 14.3-4.1 21.8 0 1.6 2.4 1.6 2.5 0 .3-7.9.6-15.8 1-23.7.1-1.4-2.2-1.7-2.5-.3-2 9.6-4 19.1-6 28.7.8.2 1.6.4 2.4.7 1.4-10.5 2.8-21.1 4.3-31.6-.8-.1-1.6-.2-2.5-.3-.1 2.6-.1 5.2-.2 7.8.1 1.4 2.6 1.4 2.7-.2z"/><path class="st9" d="M882.1 352.8c10.5 1.6 20.5 4.6 30.2 8.9.3-.8.6-1.5 1-2.3-11.2-2.8-22.3-6-33.3-9.7-.2.8-.4 1.6-.7 2.4 9.3 1.5 18.5 3.6 27.5 6.4 1.5.5 2.2-1.9.7-2.4-9-2.8-18.1-5-27.5-6.4-1.6-.2-2.2 1.9-.7 2.4 11 3.7 22 6.9 33.3 9.7 1.3.3 2.3-1.7 1-2.3-9.9-4.4-20.1-7.5-30.8-9.1-1.6-.3-2.3 2.1-.7 2.4zM929.9 347.9c-10.8-4.8-13.2 25.3 1.7 25.2 6.9 0 9.9-8.4 9.2-14.1-.6-4.7-5.6-13.9-11.6-10.1-5.7 3.6-6 15.6-4.4 21.2 1.9 6.6 8.5 8.7 13.9 4.3 5-4 8.9-12.7 7.7-19.1-1.1-6.1-6.9-9.3-12.8-7.7-7.9 2.1-10.7 10.5-9.3 17.8.6 3.2 2 7.8 5.2 9.3 2.5 1.2 5.1.3 6.4-2.1.8-1.4-1.4-2.7-2.2-1.3-3.7.5-5.8-.7-6.3-3.8-.3-.9-.5-1.9-.7-2.8-.5-2.6-.4-5.3.4-7.8 1.5-4.7 6.2-8.1 11.3-7 6.6 1.4 6.2 8.9 4.4 13.8-.8 2.1-1.9 4.2-3.2 6-.9 1.4-2 2.5-3.4 3.5-1.7 1.4-3.4 1.3-5.2-.2-2.4-.1-3.6-1.3-3.9-3.6-.4-1.5-.6-3-.6-4.5-.1-2.7.2-5.5.9-8.1.4-1.4.9-2.8 1.6-4.2 3.6-1.8 6.1-1.2 7.4 1.7 1.3 2.1 1.9 4.5 1.8 7-.1 2.6-.9 5.7-2.9 7.6-3.7 3.5-8.5 1.1-10.5-2.7-1-1.9-2.9-19 3.7-16.1 1.6.6 2.8-1.6 1.4-2.2zM956.6 378.4c0-4 .8-7.8 2.8-11.3.8-1.5 1.8-2.9 3-4.1 2.8-2.9 3.2-3.2 7.2-2.2 3.8.9 4 1.5 4.8 5 .5 2 .7 4.1.6 6.1-.1 4.2-1.4 8-3.6 11.6-.8 1.4 1.3 2.6 2.2 1.3 5.1-7.6 8.1-22.4-.9-28.6-12.1-8.4-15.3 11.3-17.3 18.5-.4 1.6 2 2.2 2.4.7 1-3.7 2-7.5 3.1-11.2.5-1.5.9-3.5 1.9-4.8 3.5-4.5 8.6-2.1 11 1.6 4.3 6.8 1.8 16.4-2.3 22.6.7.4 1.4.8 2.2 1.3 3.2-5.4 4.6-11.5 3.6-17.7-.6-3.9-2.1-9.4-6.6-10.3-10.6-2.1-16.4 13.8-16.4 21.7-.2 1.4 2.3 1.4 2.3-.2zM991.5 419.4c-1.1 3.9-2 7.8-2.8 11.8-.4 1.8-1.4 4.8-.4 6.7 1 1.8 3.4 2.1 5.1 2.6l12.9 3.6c.6.2 1.4-.2 1.5-.9 1.6-5.8 3.9-11.2 7.2-16.2.9-1.4-1.3-2.6-2.2-1.3-3.4 5.2-5.9 10.8-7.5 16.8l1.5-.9c-2.5-.7-4.9-1.4-7.4-2.1-1.2-.3-2.5-.7-3.7-1-2.4-.7-3.5-.4-4.4-3.1-1.6-4.4 1.1-11 2.4-15.5.7-1.4-1.7-2.1-2.2-.5z"/><path class="st9" d="M987.1 421.6c1.6 1.8 5.7 2.3 7.9 3 2.5.8 4.9 1.6 7.4 2.4 4.9 1.6 9.8 3.4 14.6 5.2 1.5.6 2.2-1.9.7-2.4-7.3-2.7-14.6-5.2-22-7.6-3.1-1-8.3-4.1-10.9-.8-.3.5-.1 1.1.2 1.5.1.1.2.3.4.4 1 1.3 2.7-.5 1.7-1.7z"/><path class="st9" d="M997.4 423.9c-.1-3.4 2.2-7.9 6.1-7.9 3.1 0 6.2 4.2 3.9 7-1 1.2.7 3 1.8 1.8 3.3-3.9.5-10-4.3-11.1-5.9-1.3-10.2 5.1-10.1 10.3.1 1.5 2.6 1.5 2.6-.1z"/><path class="st9" d="M995 425.5c-1 4.3-2 8.7-3 13-.4 1.6 2.1 2.2 2.4.7 1-4.3 2-8.7 3-13 .3-1.6-2.1-2.2-2.4-.7zM1004.2 425.2c-3 4.7-5 9.8-5.8 15.4-.2 1.6 2.2 2.3 2.4.7.8-5.3 2.7-10.2 5.6-14.8.8-1.4-1.3-2.6-2.2-1.3z"/><path class="st9" d="M987.3 432.1c6.7.8 13.2 2.1 19.7 4.1 1.5.5 2.2-2 .7-2.4-6.7-2-13.4-3.3-20.3-4.1-1.7-.3-1.7 2.2-.1 2.4zM1166.8 121.5c63.3-17.4 125.9-37 187.8-58.8 1.5-.5.9-2.9-.7-2.4-61.9 21.8-124.5 41.4-187.8 58.8-1.6.4-.9 2.8.7 2.4zM1160.8 137.9c2.9 79.5 2.1 159.1-2.5 238.5-1.3 22.5-2.9 45-4.8 67.4-.1 1.6 2.4 1.6 2.5 0 6.7-79.2 9.7-158.8 8.9-238.3-.2-22.5-.8-45.1-1.6-67.6-.1-1.6-2.6-1.6-2.5 0zM1156.6 450.3c11.1 10.3 27.4 6 40.4 2.6 19.3-5 38.4-11 57.2-17.7 18.9-6.7 37.5-14 56-21.5 9.4-3.8 18.8-7.7 28.2-11.6 2.6-1.1 5.6-2 7.5-4.4 2.2-2.9 2.2-7 2.7-10.5 3.1-23.4 4.7-46.9 4.9-70.4 0-1.6-2.5-1.6-2.5 0-.2 18.3-1.2 36.6-3.1 54.9-.5 4.6-1 9.1-1.6 13.6-.3 2.6-.3 5.4-1.2 7.9-1.4 4.2-4.5 5.3-8.3 6.9-8.2 3.4-16.4 6.8-24.7 10.1-33.2 13.5-66.7 26.4-101.2 36.2-8.8 2.5-17.6 5.2-26.6 6.8-9 1.6-19 1.9-26.1-4.7-1-1-2.8.7-1.6 1.8z"/><path class="st9" d="M1353 277.7c3.9-35.5 7.7-70.9 11.6-106.4l5.7-52.2c1.9-17.5 4.9-35.1 5.7-52.7.2-5.3-1.7-10.5-7.4-11.5s-11.7 2.2-16.2 5.4c-1.3.9-.1 3.1 1.3 2.2 3.2-2.2 6.8-4.3 10.7-5 7.8-1.4 9.6 4.9 9 11.4-.9 9.9-2.1 19.7-3.2 29.5-2.1 19.7-4.3 39.4-6.4 59.1-4.4 40-8.7 80.1-13.1 120.1-.4 1.7 2.1 1.7 2.3.1zM1253.9 125.1c-11.7 4.1-18.3 18.5-17.9 30.3.3 11.5 9.6 19.9 20.7 21.5 11.7 1.7 22.4-5.1 28.9-14.4 6.7-9.7 11.2-25.1 1.6-34.4-11.1-10.9-27.5-6-39.2 1.1-1.4.8-.1 3 1.3 2.2 11.1-6.7 29.1-12.3 38.2.9 8.3 12.1-2.2 30.6-12.7 37.7-10.2 7-25.3 6.3-32.9-4.3-8.3-11.5-.5-33.5 12.7-38.2 1.5-.5.8-2.9-.7-2.4z"/><path class="st9" d="M1254 151.4c2.7 1.9 5.4 4 8 6.1.8.6 1.7.4 2.1-.6 2.5-6.5 5.6-12.6 9.3-18.4.9-1.4-1.3-2.6-2.2-1.3-3.8 6-7 12.4-9.6 19l2.1-.6c-2.8-2.2-5.6-4.4-8.5-6.5-1.2-.8-2.5 1.4-1.2 2.3zM1164.5 178.3c13.8-2.4 27.6-5.4 41.1-9.3 6.6-1.9 13.2-3.9 19.6-6.2 4.1-1.4 10.1-2.3 12.6-6.3.9-1.4-1.3-2.6-2.2-1.3-1.7 2.7-7.4 3.8-10.2 4.8-2.9 1-5.9 2-8.9 3-5.6 1.8-11.3 3.5-17.1 5-11.8 3.2-23.7 5.7-35.7 7.8-1.4.4-.8 2.8.8 2.5zM1292.8 145.7c26.8-11.7 53.3-24.1 79.5-37 1.4-.7.2-2.9-1.3-2.2-26.2 12.9-52.7 25.2-79.5 37-1.4.7-.1 2.8 1.3 2.2z"/><path class="st9" d="M1161.8 165.3c1.5 4 4.2 7.3 7.9 9.6 1.4.8 2.6-1.3 1.3-2.2-3.1-1.9-5.4-4.7-6.7-8.1-.6-1.4-3-.8-2.5.7zM1162.4 157.4c2.9 4.8 6.4 9.1 10.6 12.9 1.2 1.1 3-.7 1.8-1.8-4-3.6-7.4-7.7-10.2-12.3-.9-1.4-3-.2-2.2 1.2zM1163.4 150.8c5 6.3 10.1 12.6 15.1 18.9 1 1.3 2.8-.5 1.8-1.8-5-6.3-10.1-12.6-15.1-18.9-1-1.2-2.8.6-1.8 1.8zM1159.6 142.6c9.2 9.8 18.4 19.5 27.7 29.3 1.1 1.2 2.9-.6 1.8-1.8-9.2-9.8-18.4-19.5-27.7-29.3-1.2-1.1-2.9.7-1.8 1.8zM1162 131.7c9.5 13.8 20.3 26.5 32.5 38 1.2 1.1 2.9-.7 1.8-1.8-12-11.4-22.7-23.9-32.1-37.5-.9-1.3-3.1-.1-2.2 1.3zM1166.4 125.8c10.5 13.4 21.5 26.4 33.1 38.9 1.1 1.2 2.9-.6 1.8-1.8-11.6-12.5-22.6-25.5-33.1-38.9-1-1.3-2.7.5-1.8 1.8zM1175.1 125.1c11.8 12.5 23.6 25.1 35.4 37.6 1.1 1.2 2.9-.6 1.8-1.8-11.8-12.5-23.6-25.1-35.4-37.6-1.1-1.2-2.9.6-1.8 1.8zM1183.4 121.8c13 14 25.9 28.1 38.9 42.1 1.1 1.2 2.9-.6 1.8-1.8-13-14-25.9-28.1-38.9-42.1-1.1-1.2-2.9.6-1.8 1.8zM1196.3 122.9c12.1 13.3 24.1 26.5 36.2 39.8 1.1 1.2 2.8-.6 1.8-1.8-12.1-13.3-24.1-26.5-36.2-39.8-1.1-1.2-2.8.6-1.8 1.8zM1203.5 116.7c11.1 10.8 21.3 22.5 30.6 35 .9 1.3 3.1 0 2.2-1.3-9.4-12.6-19.7-24.5-30.9-35.5-1.2-1.1-3 .6-1.9 1.8zM1215.6 109.6c7.8 9.8 15.6 19.6 23.5 29.4 1 1.3 2.8-.5 1.8-1.8-7.8-9.8-15.6-19.6-23.5-29.4-1-1.2-2.8.6-1.8 1.8zM1225.4 109.8c6 6.7 12 13.3 18 20 1.1 1.2 2.8-.6 1.8-1.8-6-6.7-12-13.3-18-20-1.1-1.2-2.8.6-1.8 1.8zM1235.2 108.5c3.9 5.5 8.3 10.6 13.2 15.3 1.2 1.1 2.9-.7 1.8-1.8-4.7-4.5-9-9.4-12.8-14.7-.9-1.3-3.1-.1-2.2 1.2zM1243.3 109.9c4.1 3.6 7.5 7.7 10.2 12.4.8 1.4 3 .1 2.2-1.3-2.8-4.9-6.4-9.2-10.6-12.9-1.3-1-3 .8-1.8 1.8zM1249.1 104.6c3.9 6.1 8.4 11.8 13.4 17.1 1.1 1.2 2.9-.6 1.8-1.8-4.8-5.1-9.2-10.7-13-16.6-.9-1.3-3.1-.1-2.2 1.3zM1257.5 103.7c6.3 7.4 12.6 14.7 18.9 22.1 1 1.2 2.8-.5 1.8-1.8-6.3-7.4-12.6-14.7-18.9-22.1-1.1-1.2-2.8.6-1.8 1.8zM1266.3 93.9c9.4 11 18.7 22 28.1 33 1 1.2 2.8-.5 1.8-1.8-9.4-11-18.7-22-28.1-33-1.1-1.2-2.8.5-1.8 1.8zM1276.3 92.8c10.6 12.4 21.3 24.7 31.9 37.1 1.1 1.2 2.8-.6 1.8-1.8-10.6-12.4-21.3-24.7-31.9-37.1-1-1.1-2.8.6-1.8 1.8zM1288 85.3c11.6 13.6 23.3 27.3 34.9 40.9 1 1.2 2.8-.5 1.8-1.8-11.6-13.6-23.3-27.3-34.9-40.9-1.1-1.2-2.8.6-1.8 1.8zM1298.9 81.4c11.8 13.8 23 28 33.7 42.6.9 1.3 3.1 0 2.2-1.3-10.8-14.8-22.2-29.2-34.1-43.1-1.1-1.2-2.8.6-1.8 1.8zM1312.1 78.6c9.8 14.5 20.9 27.9 33.4 40.1 1.1 1.1 2.9-.6 1.8-1.8-12.3-12.1-23.3-25.3-33-39.6-1-1.3-3.1 0-2.2 1.3zM1325.4 78.4c9.4 13 19.3 25.5 29.8 37.6 1.1 1.2 2.8-.6 1.8-1.8-10.3-11.9-20.1-24.3-29.4-37.1-1-1.3-3.1 0-2.2 1.3zM1339.7 73.5c8.2 10.1 15.9 20.5 23.1 31.3.9 1.3 3.1.1 2.2-1.3-7.3-11-15.1-21.6-23.5-31.8-1-1.2-2.8.6-1.8 1.8zM1358.4 73.4c5.3 7.7 10.6 15.4 16 23 .9 1.3 3.1.1 2.2-1.3-5.3-7.7-10.6-15.4-16-23-.9-1.3-3.1 0-2.2 1.3zM1189.5 225.7c18.1-4.3 35.8-9.8 53.2-16.4 1.5-.6.8-3-.7-2.4-17.4 6.6-35.1 12.1-53.2 16.4-1.5.3-.8 2.7.7 2.4zM1260.3 208.4c-.8-1.6 10-3.3 11-3.6 3.5-.7 6.9-1.3 10.4-2 1.6-.3.9-2.7-.7-2.4-3.5.7-6.9 1.3-10.4 2-3.1.6-6.7.8-9.7 2-2.3.9-4.1 2.8-2.9 5.2.9 1.5 3 .2 2.3-1.2zM1292.9 201.9c14.1-6.6 28.7-11.9 43.7-15.8 1.6-.4.9-2.8-.7-2.4-15.3 3.9-30.1 9.3-44.3 16-1.4.7-.1 2.9 1.3 2.2zM1193.5 241.4c27.5-6.3 54.6-13.8 81.4-22.5 1.5-.5.9-2.9-.7-2.4-26.8 8.7-54 16.2-81.4 22.5-1.5.3-.9 2.7.7 2.4zM1289.6 219c14.7-4.8 29.5-9.5 44.2-14.3 1.5-.5.9-2.9-.7-2.4-14.7 4.8-29.5 9.5-44.2 14.3-1.5.5-.8 2.9.7 2.4z"/><path class="st9" d="M1244.1 131.6c-7.2 6-10.8 15-9.8 24.3.2 1.6 2.7 1.6 2.5 0-.9-8.7 2.3-16.9 9.1-22.5 1.2-1.1-.6-2.8-1.8-1.8z"/><path class="st9" d="M1235.1 151.2c-1.7 3.4-1.7 7 0 10.4.7 1.4 2.9.2 2.2-1.3a8.9 8.9 0 0 1 0-7.8c.7-1.5-1.5-2.7-2.2-1.3zM1038.9 483.9c-.3-10.9.3-21.8 2-32.6.2-1.6-2.2-2.3-2.4-.7-1.7 11-2.5 22.1-2.1 33.3.1 1.6 2.6 1.6 2.5 0zM702.4 412.4l30.3 16.5c1.4.8 2.7-1.4 1.3-2.2l-30.3-16.5c-1.4-.7-2.7 1.4-1.3 2.2zM685.7 419.9c10.7 5 21.4 9.9 32.1 14.9 1.5.7 2.7-1.5 1.3-2.2-10.7-5-21.4-9.9-32.1-14.9-1.5-.7-2.7 1.5-1.3 2.2zM504.4 118.4h.4c.5 0 1.1-.4 1.2-.9.1-1 .2-1.4-.6-2.1-.6-.5-1.2-.5-1.8 0-2.9 2.3-2.2 9.9-2.6 13.2h2.5c.3-3.7.7-7.3 1-11H502v30.3c0 1.6 2.5 1.6 2.5 0v-30.3c0-1.6-2.4-1.6-2.5 0-.3 3.7-.7 7.3-1 11-.1 1.6 2.3 1.6 2.5 0 .3-2.3 0-10 1.8-11.4h-1.8c.3-.4.6-.8.8-1.2-1.5-.1-1.5 2.4.1 2.4z"/><path class="st9" d="M503.4 120c.2-1.5-.7-3.1-2.6-2.6-3.1 1-1.5 7.2-1.4 9.3.6 13.5 1.1 26.9 1.6 40.4.9 27.2 1.6 54.5 1.9 81.7 0 1.6 2.5 1.6 2.5 0-.3-21.7-.7-43.3-1.4-65-.3-10.5-.7-21-1.1-31.5-.2-5.6-.4-11.2-.7-16.7-.1-2.6-.2-5.2-.3-7.9-.1-1.3-.1-2.6-.2-3.9 0-1.1-.9-3.7-.8-4.4-.1 1.5 2.3 2.2 2.5.6zM1032.2 234.3c4.7 1.1 9.2 2.6 13.6 4.6 1.4.7 2.7-1.5 1.3-2.2-4.5-2.1-9.3-3.8-14.2-4.9-1.6-.3-2.3 2.1-.7 2.5z"/><path class="st9" d="M1016.4 213.9c5.9 6.3 12 12.3 18.6 18 2 1.7 8.5 9.5 11.4 5.8 1-1.2-.8-3-1.8-1.8-1.3 1.6-24.4-21.5-26.4-23.8-1.2-1.2-2.9.6-1.8 1.8z"/><path class="st9" d="M1030.7 235.6c4 .9 8.1 1.8 12.1 2.7 1.6.3 3.7 1.1 5.2.1 1.8-1.2 2-4.3 2.4-6.1 1-4.3 2.1-8.6 3.1-13 .4-1.6-2-2.2-2.4-.7-.6 2.7-1.3 5.4-1.9 8.1-.5 2.1-.7 6.4-1.9 8.1-1.7 2.4-5.3.8-7.6.3-2.8-.6-5.5-1.2-8.3-1.8-1.6-.5-2.3 1.9-.7 2.3zM1032 265.4c-.5 0 3.9 16 4.3 17.4 1.8 5.7 3.9 11.2 6.1 16.7.6 1.5 3 .8 2.4-.7-2.7-6.7-5.1-13.4-7.2-20.3-1-3.3-1.9-6.6-2.9-9.9-.5-1.8-.6-3-2.2-3.9-.5-.3-1.1-.2-1.5.2-.8.7-.8 1.1-.6 2.1.1.6.7.9 1.2.9h.4c1.6.1 1.6-2.4 0-2.5zM1037.8 268.3c2.2 8.4 4.6 16.7 7.4 24.9.5 1.5 2.9.9 2.4-.7-2.8-8.2-5.3-16.5-7.4-24.9-.4-1.5-2.8-.9-2.4.7zM1162.6 293.8c13.8-4.1 27.5-8.5 41.1-13.2 3.3-1.2 6.6-2.3 9.9-3.5 3.5-1.3 6.9-3.5 10.4-1.7 3 1.6 5.8 4.4 8.5 6.5 3.1 2.4 6.2 4.7 9.3 7.1.5.4 1.4.1 1.7-.4 2.1-3.8 4-7.7 5.4-11.8.6-1.9.9-4.9 2.3-6.2 1.6-1.4 5.2-1.4 7.2-1.8 10.6-2 21.1-4.3 31.5-6.9 20.6-5.1 40.9-11.4 60.8-18.7 1.5-.6.9-3-.7-2.4-32.7 12-66.4 21.1-100.7 27.2-.4.1-.8.5-.9.9-1.5 6.6-3.9 12.7-7.2 18.6.6-.1 1.1-.3 1.7-.4-6.2-4.7-12.3-9.6-18.5-14.2-2.6-1.9-3-1.1-6.1 0l-11.7 4.2c-14.8 5.2-29.7 10-44.7 14.5-1.6.2-.9 2.6.7 2.2z"/><path class="st9" d="M1349.3 244.1c1.6 0 1.6-2.5 0-2.5s-1.6 2.5 0 2.5z"/><path class="st9" d="M1352 244c1.3-.7 2.7-1.3 4-2 1.4-.7.2-2.9-1.3-2.2-1.3.7-2.7 1.3-4 2-1.4.8-.2 2.9 1.3 2.2zM1176.4 305.9c-.4 12.3-.8 24.7-1.2 37-.1 1.6 2.4 1.6 2.5 0 .4-12.3.8-24.7 1.2-37 0-1.6-2.5-1.6-2.5 0z"/><path class="st9" d="M1175.6 310.1c19.5-3.5 38.8-8 57.9-13.5 1.5-.4.9-2.9-.7-2.4-19.1 5.5-38.4 10-57.9 13.5-1.5.2-.8 2.7.7 2.4z"/><path class="st9" d="M1234.1 296.9c-1 12.3-1.4 24.6-1.1 37 0 1.6 2.5 1.6 2.5 0-.3-12.4.1-24.7 1.1-37 .2-1.6-2.3-1.6-2.5 0z"/><path class="st9" d="M1180.6 352.9c18.7-5.6 37.4-11.3 56-16.9 1.5-.5.9-2.9-.7-2.4-18.7 5.6-37.4 11.3-56 16.9-1.5.5-.9 2.9.7 2.4z"/><path class="st9" d="M1178.2 313.7c17.6 7.3 35.1 14.5 52.7 21.8 1.5.6 2.1-1.8.7-2.4-17.6-7.3-35.1-14.5-52.7-21.8-1.6-.7-2.2 1.8-.7 2.4z"/><path class="st9" d="M1228.8 297.3c-13.2 15.8-25.8 32-38 48.6-1 1.3 1.2 2.5 2.2 1.3 12.1-16.4 24.6-32.4 37.6-48.1.9-1.3-.8-3.1-1.8-1.8zM1257.8 294.6c21-4.3 41.7-10.3 61.8-17.8 1.5-.6.8-3-.7-2.4-20.1 7.6-40.7 13.5-61.8 17.8-1.6.4-.9 2.8.7 2.4zM1262.6 314.1c9.8-3.6 19.8-6.2 30-7.9 1.6-.3.9-2.7-.7-2.4-10.3 1.7-20.3 4.3-30 7.9-1.4.5-.8 2.9.7 2.4zM1185.1 389.9c-.5 11.5.1 23 1.9 34.4.2 1.6 2.7.9 2.4-.7-1.7-11.2-2.3-22.4-1.8-33.7.1-1.6-2.4-1.6-2.5 0z"/><path class="st9" d="M1188.6 390.6c43.4-9 86.9-18.2 128.3-34.3-.5-.4-1.1-.8-1.6-1.2-.5 4.6-.9 9.3-1.4 13.9-.2 2.2-.4 4.3-.6 6.5-.1 1.2-.2 2.5-.4 3.7.2 2-.7 3.5-2.5 4.6-.9-1.3-3.1 0-2.2 1.3 2.6 3.6 5.9.8 6.8-2.4 1.1-3.9.9-8.6 1.3-12.7.5-4.9 1-9.9 1.5-14.8.1-.8-.9-1.5-1.6-1.2-41.4 16.1-84.9 25.3-128.3 34.3-1.6.2-.9 2.6.7 2.3z"/><path class="st9" d="M1191.3 431.8c29.6-6.7 58.9-14.5 87.8-23.4 7.1-2.2 14.1-4.4 21.2-6.8 5-1.7 10.9-3 15-6.6 4.1-3.7 5.3-9.1 6-14.3.9-6.9 1.2-13.8 1-20.8 0-1.6-2.5-1.6-2.5 0 .2 6.7 0 13.4-.9 20.1-1.1 8-3.8 13.6-11.7 16.7-12.3 4.8-25.3 8.3-38 12.1-25.9 7.8-52.1 14.6-78.6 20.6-1.5.3-.8 2.7.7 2.4z"/><path class="st9" d="M1228.5 408.9c-.1-4.5 6.4-6.1 9.5-7.3 3.2-1.2 6.4-2.4 9.7-3.5 6.5-2.2 13.2-4 19.8-5.6-.2-.8-.4-1.6-.7-2.4-13.9 4.2-28 7.4-42.4 9.7.2.8.4 1.6.7 2.4 15.2-3.5 30.2-7.5 45-12.1 1.5-.5.9-2.9-.7-2.4-16.6 4.9-33.1 9.8-49.7 14.7-1.5.5-.9 2.9.7 2.4 16.6-4.9 33.1-9.8 49.7-14.7-.2-.8-.4-1.6-.7-2.4-14.9 4.6-29.9 8.6-45 12.1-1.6.4-.9 2.7.7 2.4 14.3-2.3 28.5-5.5 42.4-9.7 1.5-.5.9-2.8-.7-2.4-9.7 2.3-19.3 5.2-28.7 8.7-4.7 1.8-12.4 3.8-12.2 10 .2 1.7 2.7 1.7 2.6.1z"/><path class="st9" d="M1189.1 399.9c-.4 5.2.3 10.1 2 15.1.5 1.5 2.9.9 2.4-.7-1-3.4-1.8-6.9-2.1-10.4-.3-3.8-.2-4.5 3.7-5.6 5.8-1.6 11.5-3.2 17.3-4.8 12.2-3.4 24.4-6.8 36.5-10.2 24-6.7 48.1-13.4 72.1-20.1-.5-.4-1.1-.8-1.6-1.2-.3 5.9-.8 15.5-5.9 19.5-4.4 3.5-11.6 4.9-16.9 6.7-11.4 3.9-22.9 7.6-34.5 11-11.3 3.3-22.6 6.3-34.1 9.1-5.6 1.4-11.1 2.6-16.7 3.9-3.1.7-6.2 1.3-9.3 2-1.2.3-2.5.5-3.7.8-1.1.3-2.1.4-3.2.6-2.1.7-3.6-.4-4.4-3.3 1-1.2-.7-3-1.8-1.8-1.9 2.2-1.4 5.4 1.3 6.9 1.9 1.1 4.1.8 6.2.4 4-.6 8-1.6 12-2.5 15.8-3.4 31.6-7.3 47.2-11.7 15.6-4.4 31-9.3 46.3-14.6 5.2-1.8 12.3-3.2 15.7-8 3.6-5.2 4.1-13 4.4-19.1 0-.8-.8-1.4-1.6-1.2-43.6 12.1-87.2 24.3-130.8 36.4-.5.1-.9.7-.9 1.2 0 5.7.7 11.1 2.3 16.6.8-.2 1.6-.4 2.4-.7-1.7-4.7-2.3-9.4-2-14.4.3-1.5-2.2-1.5-2.3.1z"/><path class="st9" d="M1185.3 400.9c-.3 7.8.2 15.5 1.3 23.2l9.6-2.7c-1-6.1-1.3-12.3-.9-18.5h-10c0 3.6.1 7.2.1 10.8h10c-.2-2.9-.3-5.9-.5-8.8-.1-1.2-.1-2.3-.2-3.5-.1-.8-.1-1.6-.1-2.3 0-.7 0-.8-.1-.1-.9.8 3.2-.6 3.7-.7 1.6-.5 3.1-1 4.7-1.5l8.4-2.7c12.2-3.8 24.3-7.6 36.5-11.3 24.1-7.3 48.3-14.2 72.5-20.9l-6.3-4.8c-.1 6.9-.3 13.9-.4 20.8-.1 2.9.6 6.9-1.9 8.8-2.3 1.7-6 2.4-8.7 3.3-12.2 4.1-24.7 7.1-37.3 9.9-12.3 2.7-24.6 5.2-36.8 8.3-6.4 1.6-12.7 3.4-18.9 5.4-2.8.9-5.6 1.9-8.4 2.9-2.5.9-6.8 3.7-9.5 3.5 1.2.5 2.4 1 3.5 1.5.4.4 1.7-7 1.8-7.7.5-3.1.9-6.2 1.4-9.3-3.3-.4-6.5-.9-9.8-1.3-.1 4.2.9 8 3 11.6 1.8 3.2 6.8 3.3 8.6 0 2.2-4 3.3-7.9 3.8-12.4-3.3.4-6.5.9-9.8 1.3 1 3.8 2.1 7.7 3.1 11.5s7.3 5.3 9.1 1.2c2-4.5 3.9-9 5.9-13.4-3-.4-6.1-.8-9.1-1.2.4 1.8.7 3.7 1.1 5.5.8 4.2 7.3 4.9 9.1 1.2 1.5-3 3-5.9 4.5-8.9-3-.4-6.1-.8-9.1-1.2.7 2.9 1.5 5.9 2.2 8.8 1 4 7.3 5.1 9.1 1.2 2.4-4.9 4.7-9.9 7.1-14.8-3-.4-6.1-.8-9.1-1.2.5 3.7 1.1 7.4 1.6 11.1.7 4.5 7.1 4.5 9.1 1.2 2.1-3.4 4.3-6.9 6.4-10.3-3-.4-6.1-.8-9.1-1.2.7 3.2 1.3 6.5 2 9.7.9 4.1 7.2 4.9 9.1 1.2 2.3-4.6 4.2-9.3 5.5-14.3-3.3-.4-6.5-.9-9.8-1.3.5 5 1.4 9.8 2.9 14.5 1.2 3.7 7.2 5.4 9.1 1.2 2-4.3 4-8.6 6-13-3-.4-6.1-.8-9.1-1.2 1 3.7 1.9 7.4 2.9 11.2.9 3.4 5.9 5.2 8.4 2.2 3.6-4.4 6.6-9 8.8-14.3-3-.4-6.1-.8-9.1-1.2 1.2 3.4 2.4 6.8 3.6 10.1 1.3 3.6 7.2 5.5 9.1 1.2 2.1-4.6 4.1-9.2 6.2-13.8-3-.4-6.1-.8-9.1-1.2 1.2 3.5 2.5 7.1 3.7 10.6 1.3 3.7 7.2 5.4 9.1 1.2 2.2-4.6 4.4-9.3 6.5-13.9-3.1-.8-6.2-1.7-9.3-2.5-.4 4.5 1.4 8.9 4.9 11.7 2.4 1.9 6.2 2.1 7.9-1 2.3-4.3 4.7-8.5 7-12.8h-8.6c1.8 2.7 2.8 5.4 3.4 8.5.7 3.5 6 5 8.4 2.2 3.3-3.9 6.1-8 8.3-12.6h-8.6c1.3 2.4 2.4 4.7 3.2 7.3 1.3 4.2 6.8 4.8 9.1 1.2 2.2-3.5 4.5-6.9 6.7-10.4-3.1-.8-6.2-1.7-9.3-2.5.4 3.3.8 6.7 1.2 10 .7 5.7 7.6 6.7 9.8 1.3 1.8-4.4 3.6-8.8 5.5-13.2-3.3-.4-6.5-.9-9.8-1.3-.3 4.4-1.2 8.3-2.7 12.4-2.2 6.1 7.5 8.7 9.6 2.7 1.8-4.9 2.7-9.9 3-15.1.4-6.1-7.8-6.1-9.8-1.3-1.8 4.4-3.6 8.8-5.5 13.2 3.3.4 6.5.9 9.8 1.3-.4-3.3-.8-6.7-1.2-10-.6-4.8-6.4-7-9.3-2.5-2.2 3.5-4.5 6.9-6.7 10.4 3 .4 6.1.8 9.1 1.2-1.1-3.4-2.4-6.6-4.2-9.7-1.8-3.1-7-3.4-8.6 0-1.9 3.8-4 7.3-6.8 10.6 2.8.7 5.6 1.5 8.4 2.2-.8-3.9-2.3-7.6-4.5-10.9-2-3-6.7-3.4-8.6 0-2.3 4.3-4.7 8.5-7 12.8 2.6-.3 5.2-.7 7.9-1-1.7-1.4-2.2-2.4-2-4.7.5-4.9-7.2-6.9-9.3-2.5-2.2 4.6-4.4 9.3-6.5 13.9 3 .4 6.1.8 9.1 1.2-1.2-3.5-2.5-7.1-3.7-10.6-1.3-3.6-7.2-5.5-9.1-1.2-2.1 4.6-4.1 9.2-6.2 13.8 3 .4 6.1.8 9.1 1.2-1.2-3.4-2.4-6.8-3.6-10.1-1.3-3.6-7.3-5.5-9.1-1.2-1.9 4.4-4.2 8.5-7.3 12.2 2.8.7 5.6 1.5 8.4 2.2-1-3.7-1.9-7.4-2.9-11.2-1-3.9-7.3-5.2-9.1-1.2-2 4.3-4 8.6-6 13 3 .4 6.1.8 9.1 1.2-1.3-3.9-2.2-7.8-2.6-11.8-.5-5.3-8.3-7.1-9.8-1.3-1.1 4.2-2.5 8.1-4.5 11.9 3 .4 6.1.8 9.1 1.2-.7-3.2-1.3-6.5-2-9.7-.9-4.4-7-4.6-9.1-1.2-2.1 3.4-4.3 6.9-6.4 10.3 3 .4 6.1.8 9.1 1.2-.5-3.7-1.1-7.4-1.6-11.1-.6-4.2-7.4-4.9-9.1-1.2-2.4 4.9-4.7 9.9-7.1 14.8 3 .4 6.1.8 9.1 1.2-.7-2.9-1.5-5.9-2.2-8.8-1-4-7.2-5.1-9.1-1.2-1.5 3-3 5.9-4.5 8.9 3 .4 6.1.8 9.1 1.2-.4-1.8-.7-3.7-1.1-5.5-.8-4-7.4-5.1-9.1-1.2-2 4.5-3.9 9-5.9 13.4 3 .4 6.1.8 9.1 1.2-1-3.8-2.1-7.7-3.1-11.5-1.6-5.8-9.2-4-9.8 1.3-.3 2.7-1.2 5-2.5 7.4h8.6c-1.2-2.2-1.7-4.1-1.6-6.6.1-5.5-9-7-9.8-1.3-.8 5-1.5 9.9-2.3 14.9-.5 3.2-1.6 7 .1 10 4.2 7.6 15.2.2 20.6-1.7 16.4-5.8 33.3-9.5 50.3-13.2 17-3.7 34-7.3 50.4-13 7.3-2.5 13.9-5.2 15.1-13.8 1.2-9.1.6-18.8.7-28 .1-3.3-3.2-5.7-6.3-4.8-27.1 7.4-54.1 15.2-81 23.4-13.1 4-26.2 8.1-39.3 12.3-4.7 1.5-11 2.5-12.5 8.1-1.4 5.3.2 12.3.5 17.8.3 6.4 10.1 6.5 10 0 0-3.6-.1-7.2-.1-10.8-.1-6.5-9.6-6.4-10 0-.4 7.1.1 14.1 1.3 21.1 1.1 6.4 10.5 3.6 9.6-2.7-.9-6.8-1.1-13.7-.9-20.5.2-6.6-9.8-6.5-10-.1z"/><path class="st9" d="M1312 378c-37.4 12.4-74.9 24.8-113.5 32.9-6.3 1.3-3.6 11 2.7 9.6 38.6-8.1 76.1-20.5 113.5-32.9 6.1-2 3.5-11.7-2.7-9.6z"/><path class="st9" d="M1195.4 430.8c25.5-7.2 50.6-15.5 75.3-25.1 20.1-7.8 43.3-19.4 44.2-44.1.1-3.1-3.3-5.9-6.3-4.8-37.7 13.2-75.4 26.4-113.1 39.5-4.1 1.4-4.9 6.7-1.2 9.1.1.1.3.2.4.3 1.4.9 3.7 1 5 0 2-1.4 3.3-3.2 3.2-5.7-.1-2.4-1.5-4-3.7-4.8-5.7-2.1-9.6 4.7-8.2 9.4 1.9 6.1 11.5 3.5 9.6-2.7-.2.7-.5 1.5-.8 2.2-1.3.2-2.6.3-3.9.5.2.1.3.1.5.2-1.2-1.6-2.4-3.2-3.7-4.8.6-1 1.2-1.9 1.8-2.9h5c-.1-.1-.3-.2-.4-.3-.4 3-.8 6.1-1.2 9.1 37.7-13.2 75.4-26.4 113.1-39.5l-6.3-4.8c-.8 22.8-28.2 31.3-45.8 37.8-21.8 8.2-43.9 15.4-66.3 21.7-6.1 1.8-3.5 11.5 2.8 9.7zM246.3 335.9c.1-1.2.2-2.5.3-3.7.6-6.4-9.4-6.3-10 0-.7 7.5-2.4 15.5-2.2 23.1.1 6.6 5.3 8.4 10.7 10.1 14.2 4.4 28.8 7.4 43.4 9.5 29.4 4.2 59.1 4.9 88.7 5.5 2 0 4.5-1.6 4.8-3.7 1.2-8.8 1.6-17.5.8-26.3-.3-2.7-2.1-4.9-5-5-22.9-.6-45.9-1.6-68.8-3.2-11.1-.7-22.2-1.6-33.4-2.5-5.9-.5-11.8-1-17.6-1.6-2.8-.3-9.2-.3-10.5-3.5l-4.8 6.3c10-1.2 19.8.2 29.6 1.6 9.5 1.3 19.1 2.7 28.6 4 19.4 2.7 38.9 5.3 58.3 8.2 3.4.5 6.8.9 8.6 4.2 1.5 2.9 1.6 6.5 1.7 9.6 0 2.8.7 7.3-2.7 8-3.9.8-9.6-.9-13.5-1.3-18-2-35.9-4.3-53.6-7.8-20-4-39.6-9.7-58.1-18.3-.8 3.1-1.7 6.2-2.5 9.3 15.6-.9 31.2.1 46.5 2.9 6.4 1.2 8.7-7.4 2.7-9.6-10.4-3.9-21.2-6.4-32.2-7.6-5-.6-6.7 7.1-2.5 9.3 13.4 7.2 27.7 12 42.7 14.2 5.3.8 9.1-6 3.9-9.1-10.5-6.3-22-10.6-34.1-12.7-5.3-.9-9 6.1-3.9 9.1 12.5 7.4 26.2 12.3 40.6 14.3 5 .7 9.6-6.6 3.9-9.1-11.9-5.2-24-8.6-36.8-10.2-5.6-.7-6.7 8.5-1.3 9.8 18.3 4.3 36.5 8.7 54.8 13 5.2 1.2 9.2-6.7 3.9-9.1-10.8-4.9-22-8.6-33.7-10.9-6.4-1.3-8.5 7.2-2.7 9.6 14.2 5.9 28.9 10.3 44 13.2 5.6 1.1 8.6-5.9 3.9-9.1-10.4-7.3-22-12.6-34.2-15.9-6.4-1.7-8.4 7.2-2.7 9.6 12.5 5.3 25.5 8.8 38.9 10.7 6.3.9 8.9-7.4 2.7-9.6-8.9-3.2-17.7-6.4-26.6-9.6-5.3-1.9-9 6.8-3.9 9.1 14.2 6.3 28.9 10.4 44.4 12.4 4.3.6 6.6-5.9 3.5-8.5-5.3-4.6-11.2-8-17.9-10.2-5.4-1.8-8.8 6.5-3.9 9.1 7.2 3.9 14.9 6.5 23 7.7 4.1.6 8-3.2 5.6-7.3-1.2-2-2.4-4.1-3.6-6.1-3.2-5.6-11.8-.5-8.6 5 2.4 4.2 6 6.9 10.7 8 3.9.9 6.9-2.4 6.2-6.2-.6-2.8-1.7-5.4-3.3-7.8-3.1-4.6-10.6-1.8-9.1 3.9 1.1 4 3.4 7 6.8 9.1 4.5 2.8 9-2.6 6.8-6.8-4.1-8-11.7-12.6-20.4-13.3-5-.4-6.7 7-2.5 9.3 1.3.7 2.6 1.4 3.8 2.1 1.7-2.9 3.4-5.8 5-8.6-9.7-4.1-19.8-5.2-30.1-2.6-5.5 1.3-4.3 9.9 1.3 9.8 4.4 0 8.8-.1 13.2-.1 6.5 0 6.4-9.7 0-10-22.5-.9-45-1.9-67.5-2.8.8 3.1 1.7 6.2 2.5 9.3 5.7-3 11.8-4.5 18.2-4.5 5.4-.1 7.1-8.8 1.3-9.8-14.2-2.4-28.5-3.9-42.9-4.2-4.7-.1-13.5-1.7-17.1 2.3-3.6 3.9-.5 9.9 4.5 9.9 6.4-.1 6.4-10.1 0-10h-.6c1.4.8 2.9 1.7 4.3 2.5l.3 1.2c-.8 1.4-1.7 2.9-2.5 4.3 1.3-.9 8.1-.2 11-.1 4.4.1 8.9.3 13.3.6 9.1.6 18 1.7 27 3.3.4-3.3.9-6.5 1.3-9.8-8.3.1-16 2.1-23.3 5.9-4.6 2.4-2.2 9.1 2.5 9.3 22.5.9 45 1.9 67.5 2.8v-10c-4.4 0-8.8.1-13.2.1.4 3.3.9 6.5 1.3 9.8 7.5-1.8 15.2-1.4 22.4 1.6 5.7 2.4 10.8-5.4 5-8.6-1.3-.7-2.6-1.4-3.8-2.1-.8 3.1-1.7 6.2-2.5 9.3 5.3.5 9.4 3.7 11.8 8.4l6.8-6.8c-1.4-.9-1.8-1.6-2.2-3.1-3 1.3-6.1 2.6-9.1 3.9 1.2 1.8 1.8 3.3 2.3 5.4l6.2-6.2c-2.3-.5-3.6-1.4-4.7-3.4-2.9 1.7-5.8 3.4-8.6 5 1.2 2 2.4 4.1 3.6 6.1 1.9-2.4 3.8-4.9 5.6-7.3-7.3-1.1-14.1-3.2-20.6-6.7-1.3 3-2.6 6.1-3.9 9.1 5 1.7 9.5 4.2 13.5 7.6 1.2-2.8 2.4-5.7 3.5-8.5-13.5-1.8-26.9-5.5-39.3-11.1-1.3 3-2.6 6.1-3.9 9.1 8.9 3.2 17.7 6.4 26.6 9.6l2.7-9.6c-13.4-1.8-26.4-5.4-38.9-10.7l-2.7 9.6c11.5 3.1 22.1 8.1 31.8 14.9 1.3-3 2.6-6.1 3.9-9.1-15.1-2.9-29.8-7.3-44-13.2l-2.7 9.6c10.8 2.1 21.3 5.4 31.3 9.9 1.3-3 2.6-6.1 3.9-9.1-18.3-4.3-36.5-8.7-54.8-13-.4 3.3-.9 6.5-1.3 9.8 10.9 1.4 21.7 4.4 31.8 8.9 1.3-3 2.6-6.1 3.9-9.1-13.6-1.9-26.4-6.3-38.2-13.3-1.3 3-2.6 6.1-3.9 9.1 11.3 2 21.8 5.8 31.7 11.7 1.3-3 2.6-6.1 3.9-9.1-14.2-2-27.7-6.4-40.4-13.1-.8 3.1-1.7 6.2-2.5 9.3 10.1 1.2 20 3.7 29.6 7.3l2.7-9.6c-16.2-3-32.7-4.2-49.2-3.3-4.5.2-7.3 7.1-2.5 9.3 38.4 18 80.5 23.6 122.2 28.1 8.6.9 17.5 1.4 20.1-8.7 1.8-7 1.1-16.9-2.4-23.2-4.6-8.4-13.9-8.7-22.4-9.9-11.5-1.6-23.1-3.2-34.6-4.9-12.8-1.8-25.7-3.6-38.5-5.4-12.6-1.8-25.4-4.4-38.2-2.8-2.8.3-6.2 3-4.8 6.3 3.8 9.3 13.2 10.2 22.1 11 13.1 1.2 26.1 2.3 39.2 3.3 26.2 1.9 52.4 3.1 78.6 3.8l-5-5c.7 7.9.7 15.8-.4 23.7 1.6-1.2 3.2-2.4 4.8-3.7-26.4-.5-52.9-1.1-79.1-4.3-13.1-1.6-26-3.9-38.8-7.1-3.3-.8-6.6-1.7-9.8-2.7-1.2-.4-2.4-.8-3.6-1.1-1.4-1-2-1.1-1.7-.2.1.8.2.5.2-.9 1.5-7 1.4-14.7 2.1-21.8h-10c-.1 1.2-.2 2.5-.3 3.7-.6 5.9 9.5 5.9 10-.5zM278 130.4c1.9 10.3 6.5 19.5 13.1 27.5 3.8 4.5 10.4-1.2 7.9-6.1-7-13.3-15.8-33.9 1.9-43-2-2.6-4-5.2-6.1-7.9-4.4 5.7-7.6 11.8-9.3 18.8-1.3 5.4 6.3 8.9 9.1 3.9 4.4-7.8 13.1-11.7 21.9-12.1 4.6-.2 9.6.1 12.7 3.8 2.8 3.3 3.8 8 4.2 12.2 3.3-.4 6.5-.9 9.8-1.3-1.5-3.9-3.5-7.1-6.4-10-4.5-4.6-11.6 2.5-7.1 7.1 1.7 1.7 2.9 3.4 3.8 5.6 1.9 4.8 10.4 4.8 9.8-1.3-1.4-14.3-8.5-25.7-24-26.1-13.1-.3-26.8 5.4-33.4 17.1 3 1.3 6.1 2.6 9.1 3.9 1.3-5.3 3.4-10.1 6.7-14.4 3.4-4.3-.7-10.6-6.1-7.9-9.4 4.8-15.1 14.1-15.6 24.7-.5 11.4 4.9 22.2 10.1 32 2.6-2 5.2-4 7.9-6.1-5.6-6.7-9-14.5-10.6-23.1-.9-6.2-10.5-3.6-9.4 2.7z"/><path class="st9" d="M318.4 115.5c5.4.8 8.7 4.5 10.4 9.5 1.1 3.2 2.6 11.3-1.7 13-3.7 1.4-4.8 5.3-2.2 8.4 3.9 4.6 5.5 10.7 4.4 16.7-.9 4.8 4.5 8.4 8.4 4.9 12.6-11.6 28-30.5 15.3-47.8-3-4-8.9-2.6-9.3 2.5-.8 8.8-3.3 17.2-7.4 25 3.1.8 6.2 1.7 9.3 2.5.6-5.2 1.2-10.3 1.7-15.5.5-4.1 1.8-8.9 1.3-12.9-.8-6.8-9.8-9-12-1.8-1.9 6.2 7.8 8.8 9.6 2.7.1-.2.1-.4.2-.7l-3.5 3.5h-1.1c-1-.8-2-1.5-3-2.3.1.3-.8 4.7-.9 5.7-.3 2.3-.5 4.5-.8 6.8-.5 4.9-1.1 9.7-1.6 14.6-.6 5 7.1 6.7 9.3 2.5 4.9-9.5 7.8-19.4 8.8-30.1-3.1.8-6.2 1.7-9.3 2.5 9.8 13.3-4.5 27.2-13.7 35.7 2.8 1.6 5.6 3.2 8.4 4.9 1.8-9.7-.6-18.8-6.9-26.4-.7 2.8-1.5 5.6-2.2 8.4 19.2-7.3 8.9-39.3-8.7-41.8-6.4-1-9.2 8.6-2.8 9.5z"/><path class="st9" d="M350.7 150.1c2.5-11.7 3.6-22.8-1.8-33.9-4.5-9.3-12.7-16.9-22.3-20.8-20.8-8.4-44.1 3.4-54 22.5 3.1.8 6.2 1.7 9.3 2.5-.6-5.5 13.5-9.6 17.5-10.9 6.1-2 3.7-11-2.7-9.6-13.6 3-22.2 15.9-23.5 29.2-1.5 16 8.5 30.7 19.6 41.1 4.7 4.4 11.8-2.7 7.1-7.1-8.7-8.1-16.9-18.8-16.8-31.3 0-10 6.2-20 16.3-22.2l-2.7-9.6c-8.8 3-26.1 8.5-24.8 20.5.5 4.5 6.8 7.4 9.3 2.5 7.6-14.7 25-24.8 41.4-18.4 7.3 2.9 13.3 8.6 17 15.4 4.7 8.9 3.4 18 1.4 27.5-1.2 6.2 8.4 8.9 9.7 2.6z"/><path class="st9" d="M301.5 117.2c4.3-5.1 9.9-7.8 16.6-7.6v-10c-13.9 1.1-30 13.6-29.4 28.7.3 6.4 10.3 6.4 10 0-.4-9.3 10.8-17.9 19.4-18.7 6.3-.5 6.5-9.8 0-10-9.1-.2-17.8 3.5-23.6 10.5-4.2 4.9 2.9 12 7 7.1zM592.7 461.9c3.2 4.8 6.5 9.6 9.7 14.4 2.1 3.1 8.5 3.4 9.1-1.2 1.1-7.3 2.1-14.6 3.2-21.9.9-6.3-8.7-9-9.6-2.7-1.1 7.3-2.1 14.6-3.2 21.9 3-.4 6.1-.8 9.1-1.2-3.2-4.8-6.5-9.6-9.7-14.4-3.5-5.3-12.2-.3-8.6 5.1zM528.6 409.2c-.1 3.4-.3 6.9-.4 10.3-.2 6 7.9 6.2 9.8 1.3.6-1.6.6-3.4.2-5.1-.2-1-.8-3.4-1.5-4-.1-.2-.2-.5-.2-.7-1.1 1.6-1.2 2.1-.3 1.4.7 0 2-1.1 2.7-1.5 2.3-1.3 4.6-2.5 6.9-3.8-2.4-1-4.9-2-7.3-3 .4 2.3.8 4.6 1.1 6.9 1 6.3 10.7 3.6 9.6-2.7-.4-2.3-.8-4.6-1.1-6.9-.5-3.3-4.8-4.4-7.3-3-4.2 2.3-11.2 4.6-13.4 9.2-1 2.1-.9 4.4-.2 6.6.3.9.6 1.9 1.1 2.6.1.3.3.6.4 1 .2-.8.1-.8-.1.1 3.3.4 6.5.9 9.8 1.3.1-3.4.3-6.9.4-10.3 0-6.1-10-6.1-10.2.3zM382.4 367.3c35.6 10.3 73.7-4.8 92.5-36.7.8-1.4-1.3-2.6-2.2-1.3-18.3 30.9-55.2 45.5-89.7 35.5-1.5-.4-2.2 2-.6 2.5z"/><path class="st9" d="M477.1 328.8c4.2-24.2 13.5-47.1 27.4-67.4.9-1.3-1.3-2.6-2.2-1.3-14 20.5-23.4 43.6-27.6 68-.3 1.7 2.1 2.3 2.4.7z"/><path class="st9" d="M495.2 259.1c3.8.7 7.5 1.7 11 3.2l-.9-1.5c-.9 5.8-1.7 11.6-2.6 17.3-.2 1.6 2.2 2.3 2.4.7.9-5.8 1.7-11.6 2.6-17.3.1-.7-.2-1.2-.9-1.5-3.6-1.5-7.2-2.6-11-3.2-1.5-.4-2.2 2-.6 2.3zM753.8 163.9c11.9 4.8 18.4 16.7 22.4 28.2 4.6 13.5 7.2 27.9 6.8 42.1-.6 25.7-11.6 51.3-33.4 66-1.3.9-.1 3.1 1.3 2.2 23-15.6 34.5-42.8 34.6-70.1.1-15.5-2.9-31.5-8.8-45.8-4.4-10.8-11.2-20.7-22.3-25.1-1.5-.5-2.1 1.9-.6 2.5z"/><path class="st9" d="M756.9 282.7c-4 6.5-6.9 13.4-8.9 20.8-.2.8.4 1.6 1.2 1.6 5.5.1 10.9.1 16.4.2 1.6 0 1.6-2.5 0-2.5-5.5-.1-10.9-.1-16.4-.2.4.5.8 1.1 1.2 1.6 1.9-7.2 4.8-13.9 8.6-20.2.9-1.4-1.3-2.6-2.1-1.3zM736.2 432.1c.3 7.7 8.2 13.3 13.2 18.1 6.6 6.3 13.7 12.3 21.7 16.7 15.8 8.6 34.7 9.9 51.7 4.2 1.5-.5.9-2.9-.7-2.4-15.8 5.3-33.3 4.4-48.2-3.2-7-3.6-13.2-8.4-19-13.6-3-2.7-5.8-5.4-8.6-8.2-3.3-3.3-7.4-6.6-7.6-11.6-.1-1.6-2.6-1.6-2.5 0zM837.9 465.2c23-8.1 42.7-23.5 56-43.9.9-1.4-1.3-2.6-2.2-1.3-13 19.8-32.2 34.9-54.5 42.8-1.5.5-.8 2.9.7 2.4z"/><path class="st9" d="M880.4 422.7c4.7-3.2 9.7-5.9 14.9-8.1-.6-.2-1.2-.5-1.8-.7 2.1 5.4 4.2 10.8 6.2 16.2.6 1.5 3 .8 2.4-.7-2.1-5.4-4.2-10.8-6.2-16.2-.3-.8-1-1.1-1.8-.7-5.2 2.2-10.2 4.9-14.9 8.1-1.4.8-.2 3 1.2 2.1zM978.5 414.4c6.2-6.8 15.3-8.2 23.9-9.7 10.5-1.8 21-3.5 31.6-4.6 20.1-2.1 40.6-1.7 59.8 5.1 1.5.5 2.2-1.9.7-2.4-20.7-7.3-42.6-7.3-64.2-4.8-10.4 1.2-20.8 2.9-31.1 4.8-8.3 1.5-16.6 3.4-22.5 9.9-1.1 1.1.7 2.9 1.8 1.7zM1099 416.3c13.3 27.9 35.3 54.6 67.8 58.8 27.6 3.6 57.5-15.4 56.9-45.4 0-1.6-2.5-1.6-2.5 0 .3 13.8-7.2 26.6-18.3 34.6-11.7 8.4-26.6 10.5-40.6 7.5-29.5-6.2-49-30.9-61.3-56.8-.6-1.4-2.7-.2-2 1.3z"/><path class="st9" d="M1207.1 443.8c5.9-5.9 12.3-11.3 19.2-16-.6-.1-1.1-.3-1.7-.4 3.1 5.4 5.7 10.9 8 16.7.6 1.5 3 .8 2.4-.7-2.3-6-5-11.7-8.2-17.3-.3-.6-1.2-.8-1.7-.4-7.1 4.8-13.7 10.3-19.7 16.4-1.2 1.1.6 2.9 1.7 1.7zM300.4 139.4c-.3.6-.7 1.2-1 1.8-.8 1.4 1.4 2.7 2.2 1.3.3-.6.7-1.2 1-1.8.7-1.4-1.5-2.7-2.2-1.3zM327.8 138.5c.7-2.3 1.8-4.4 3.2-6.3-.8-.2-1.6-.4-2.3-.6 0 .7-.2 1.1-.7 1.5-1.2 1 .6 2.8 1.8 1.8 1-.8 1.5-2 1.4-3.3 0-1.3-1.6-1.6-2.3-.6-1.5 2.1-2.7 4.4-3.5 6.9-.6 1.5 1.9 2.1 2.4.6zM345.5 116.8l4.2 3c.8.6 1.8-.2 1.9-1.1.1-1.5 0-2.9-.3-4.3-.8.2-1.6.4-2.4.7.3 1.4.7 2.9 1 4.3.4 1.6 2.8.9 2.4-.7-.3-1.4-.7-2.9-1-4.3-.4-1.6-2.7-.9-2.4.7.3 1.2.3 2.4.2 3.7.6-.4 1.3-.7 1.9-1.1l-4.2-3c-1.3-1-2.6 1.1-1.3 2.1zM295.4 172.1c5.1 1.7 10.4 2.4 15.8 2 1.6-.1 1.6-2.6 0-2.5-5.2.4-10.2-.3-15.1-1.9-1.6-.5-2.2 1.9-.7 2.4zM279.6 107.5c-6.1 4.7-8.4 12.2-8.9 19.8-.6 9.6 4 17.6 9 25.4.9 1.4 3 .1 2.2-1.3-4-6.3-8.2-12.8-8.6-20.5-.5-7.5 1.5-16.5 7.7-21.2 1.2-1-.1-3.2-1.4-2.2z"/><path class="st9" d="M273.7 120.9c-.7 2.9-1.4 5.9-2 8.8.8.1 1.6.2 2.5.3.2-2.6.3-5.2.5-7.8h-2.5v8.1c0 1.2 1.8 1.8 2.3.6.2-.4.3-.7.5-1.1.7-1.5-1.5-2.7-2.2-1.3-.2.4-.3.7-.5 1.1.8.2 1.6.4 2.3.6v-8.1c0-1.6-2.4-1.6-2.5 0-.2 2.6-.3 5.2-.5 7.8-.1 1.4 2.2 1.7 2.5.3.6-3 1.2-5.9 2-8.8.4-1.4-2-2-2.4-.5z"/><path class="st10" d="M1542 72c-4.9 10.4-6.2 22.2-6.4 33.7-.2 9.5.7 19.8 7 27 2.9 3.3 6.8 5.6 9.3 9.2 3 4.1 3.9 9.4 5.4 14.3 3.4 10.9 11.6 21.3 22.9 22.9 13.5 1.9 25.6-9.2 39.2-9.9 1.1-.1 2.2-.1 3.2-.6.7-.4 1.2-1 1.6-1.7 2.9-4.1 4.5-9.1 5.8-14 2.6-9.2 4.6-18.5 6-27.9 1.3-8.3 2.1-16.8.2-24.9-2.8-11.7-10.9-21.4-20-29.3-6.3-5.5-13.2-10.4-20.8-13.8-5.9-2.7-12.2-4.3-18.5-5.9-3.8-1-9.4-8.3-13.4-7.3-10.4 2.6-17.2 18.9-21.5 28.2z"/><path class="st11" d="M1565 105.6c4.2 8.4 10.4 15.8 14.2 24.4 10.4 23.6.6 51.1 4.3 76.6 1.7 11.7 6.1 22.8 10.7 33.6 3.3 7.8 7.3 16.2 15.1 19.4 8.2 3.4 17.8-.2 26.2 2.5 9.3 3 14.4 12.7 21.2 19.6 8.4 8.6 20.8 13.5 32.7 11.8 11.9-1.7 22.8-10.4 26-21.9 3.1-11.2-.6-24.2 5.6-34 4.3-6.6 12.7-10.7 14.6-18.3 3-11.7-11.4-22.6-8.8-34.4.9-4 3.7-7.4 5.6-11 6.7-12.6 2.3-30-9.6-37.9-5.8-3.8-12.6-5.4-19-8.1-9.9-4.1-18.6-10.7-27.2-17.2-7.9-6-16.2-12.4-20.4-21.4-3.8-8.1-4-17.7-8.3-25.6-4.4-8-12.6-13.2-21.3-16s-17.8-3.3-26.9-3.7c-13.5-.7-30.1.4-36.2 14.3-6.3 14.7-5.6 32.9 1.5 47.3z"/><path class="st10" d="M1689.5 268.8c-.6-7.4-7.9-13.3-7.2-20.6.9-9.4 13.8-13.2 16.7-22.2 1.7-5.3-.6-11.1-3.7-15.7s-7.2-8.6-9.6-13.6c-3.6-7.4-3.2-16.6 1-23.7 1.6-2.7 3.8-5.2 4.5-8.3.4-1.8.2-3.6-.3-5.4-2.2-8.4-10.3-13.7-18.1-17.5-7.8-3.8-16.3-7.1-21.6-14-8.5-11.1-11.8-25.4-29.2-25.3-12.4.1-19.8 25.3-24.6 34.5-2.1 3.9-4.1 7.9-4.6 12.3-.8 8.4 4.7 16.1 5.9 24.5 2 14.1-8 26.8-11.2 40.7-.4 1.8-.7 3.7-.9 5.5 2.1 6.9 4.8 13.6 7.6 20.3 3.3 7.8 7.3 16.2 15.1 19.4 8.2 3.4 17.8-.2 26.2 2.5 8.2 2.7 13.2 10.5 18.9 17.1 6.1 2.9 12.5 5.4 19.2 4.9 8.2-.6 16.5-7.2 15.9-15.4z"/><path class="st0" d="M1609.3 115.9s-8.6 16.2-10.1 22.9-3.8 19.9-3.8 19.9-16.9 9.2-31 6.4c-14.1-2.7-5-15.3-5-15.3s6.5-10.5 4.3-17.7c-2.1-7.2 45.6-16.2 45.6-16.2z"/><path class="st1" d="M1603.4 493.3s.5-14-9.8-30c-15.2-23.7-61.7-3-79.1-19-17.4-16-13-57.5-13-57.5l39.8-39.8 35.2 3.8 26.8 22.5s7.1.5 13.1 20.5 6.1 20 6.1 20l3 22.6-22.1 56.9z"/><path class="st5" d="M94 258.1s9.8 5.9 26.9 0c17-5.9 16.2-10.6 16.2-10.6s-27.8-8.8-43.1 10.6z"/><path class="st12" d="M332.8 36.8s-10.4 4.4-15.4 2.9c-5.1-1.6-12.1-6.9-15.6-1.7s11.3 13.5 16.9 10.4c5.6-3 14.1-11.6 14.1-11.6z"/><path class="st13" d="M129 243l11.8 28.8s19.8-5.9 29.7-13.1c7.4-5.3 23.8-16.6 23.8-16.6l1.7 21.3s-44.6 56.8-60.5 52.8c-16.5-4.2-37.6-57.5-37.9-67.1-.4-9.6 31.4-6.1 31.4-6.1z"/><path class="st0" d="M131.4 301.4s-1.4-14.4 9.3-29.6L129 243l-22.6 1.9 25 56.5z"/><path class="st4" d="M96.5 182.8c-10.1 3.3-16.7 8.1-13 32.7C87.1 240 94 258.1 94 258.1s11.6-6.2 20.4-9.2 22.7-1.5 22.7-1.5-12.3-37.3-16.5-47.9c-4.2-10.5-12-20.7-24.1-16.7z"/><path class="st0" d="M318 57.8c1.4 6.1 23.4 2.3 32.5 0 9.1-2.3 17.1-2.7 17.1-2.7s-7.7-18.7-18.9-19.2-35.6 0-30.7 21.9z"/><path class="st13" d="M198.6 223.6s-5.4 2.9-9.7 13.2c-4.4 10.2 7.1 26.6 7.1 26.6s7 .1 10.5-7c3.5-7 3.1-22.9 7.8-32.3 4.7-9.4-9.4-7.3-15.7-.5z"/><path class="st0" d="M171.7 133.3c-2.8-1-10.6.5-19.5 2.8-2.5-4.7-4.8-10.4-3.9-13.4 1.9-5.8-45.1 5-45.1 5s6 10 13.9 19.8c-1.8 1.8-4.6 6.9-4.7 14.3-.2 17.3 24.5 24.8 46.1 11.3s20.8-37 13.2-39.8z"/><path class="st12" d="M148.2 126.1l-37.2 12s26.6 31.5 39.4 23.5c7.9-4.1 6.2-14.9 6.2-14.9l-4.1-10.6c-.1 0-.3.1-.4.1-1.7-3.4-3.4-7.1-3.9-10.1z"/><path class="st13" d="M151.1 80.9c-6-26.1-18.7-34-43.7-29.2-11.6 2.2-30.2 14.5-26 41.3-4-1.1-8.5-1.1-9.6 4-1.8 8.3 12.2 24.3 18.8 21.6 12.2 21.7 30.8 29 46.5 22.9 19.1-7.3 20.1-34.5 14-60.6z"/><path class="st14" d="M127.2 80.9s14.1 23.9 13.9 28.9c-.2 5-10.5 8.3-11.4 2.6-1-5.7.5-24.4-2.5-31.5z"/><path class="st0" d="M109.7 51.3c-6 2.7-11.5 7.1-16.8 11.1-2.7 2-5.4 4.1-8 6.2-3.3 6.2-5 14.3-3.4 24.4-4-1.1-8.5-1.1-9.6 4-.9 4.5 2.7 11.2 7.2 16 1.6-3.4 2.5-8.4 4.4-10.5 4-4.7 10.8-5.1 16.6-6.9 5.7-1.7 11-5 15-9.4 3.9-4.2 7-9.5 12.2-11.7 2.1-.9 4.3-1.2 6.6-1.2 5.8-.1 11.6 1.6 16.5 4.8-6-23.2-18.1-30.6-40.7-26.8z"/><path class="st3" d="M108.5 50s13.2 10.1 25.3 10.8c12.2.7 25.1 6.8 30.9 17.1S149.4 52 149.4 52l-10.9-5.6h-9l-11.4.9-9.6 2.7z"/><path class="st3" d="M113.1 48.8c4.3 1.8 5.7 26.4-13.9 33.3-13.5 4.7-19 5.8-24 16.1s-14.7 31.5-14.7 31.5-2.7-18 8.1-40.1S91.2 47 113.1 48.8z"/><path class="st3" d="M77.1 85.6s1.2 12.8 9.3 19.3c0 0 .8-21.5 4.3-27s-13.6 7.7-13.6 7.7z"/><path class="st2" d="M100.9 68.9c-3.1 4.6-8.3 7.2-13.5 9.2-5.2 1.9-10.6 3.5-15.1 6.7s-7.9 8.8-6.6 14.2c1.9-5.7 6.3-10.5 11.8-13 4.1-1.9 8.8-2.5 12.9-4.4 8.5-4 14.7-14.4 16.1-23.6-3 1.4-3.7 8.1-5.6 10.9zM57.9 123c-4.2 3.3-9.3 5.7-12.7 9.9-5 6.3-4.4 16.5 1.9 21.5-4.1-.7-7.6-4-8.9-8-1.3-4-.6-8.5 1.5-12.1 3.1-5.2 8.6-8.3 13.6-11.6 4.5-3 8.8-6.6 10.8-11.7 1.3 4.2-2.9 9.3-6.2 12zM129.2 53.3c6.9 1.2 14.6-.8 20.7 2.8 4.1 2.5 6.5 7 8.5 11.4.4-6.2-3.2-12.6-8.8-15.3-8.8-4.3-19.4-.8-28.6-3.6-.3 3 5.8 4.2 8.2 4.7z"/><path class="st0" d="M195.9 263.3c-5.4-4.4-7.3-11.7-7.3-11.7s-7.9 14.1-19.2 26.7c-11.3 12.5-34 37.8-34 37.8l7.6-1.3c19.3-8.6 52.9-51.5 52.9-51.5z"/><path class="st2" d="M150.7 133.2l2.6 4.9s12.3 14.8-5 24.8-29.2-4-30.7-7.5c-1.4-3.6-.6-7.7-.6-7.7l-1.3-1.6s-3.9 11.3 8 19.3 23.2 2.4 25.5 1.2 12.1-8.5 9.4-19.5c-2.5-11.2-7.9-13.9-7.9-13.9z"/><circle class="st2" cx="150.1" cy="169.6" r="3.6"/><circle class="st2" cx="150.1" cy="169.6" r="2"/><path class="st15" d="M1485.3 420.2s8.2 59.8 34.2 88.8h65.4l-33.6-123.6s-58.4 16.5-66 34.8z"/><path d="M1549.5 509c.1-1.1 11-72.3 6.4-107.7l-4.6-15.9s-33.4 9.5-52.9 21.9c-7.7 7.1-13 12.8-13 12.8s8.2 59.8 34.2 88.8h29.9z" fill="#79b2f7"/><path d="M1561.9 354.9s11.6 26.8-31.8 51.4c-43.3 24.6-69.8 82.3-76.4 102.7h-71.8s35.9-98.4 63.4-155.3 31.1-60.8 31.1-60.8l36.9 2.4 48.6 59.6z" fill="#9ec9ff"/><path class="st13" d="M1470.6 254.4s-27.2 30-65.8 35V308s65.4-12.6 85.4-39.6c19.9-27.1-19.6-14-19.6-14z"/><path class="st15" d="M1473.9 297.1c-3.5 6.1-11.3 20.9-28.6 56.7-27.5 56.8-63.4 155.3-63.4 155.3h32.7c5.6-18.7 19.4-63.5 31.4-88.8 15.6-32.8 67.4-117 67.4-117s-24.1-6.8-39.5-6.2z"/><path class="st6" d="M1470.8 302.6s19.4 11.6 51.7 5.3c32.3-6.3 26.8-81.4 26.8-81.4l-43.5 16.3c0 .1-30 39.1-35 59.8z"/><path class="st12" d="M1609.1 116.3l-30.1 7c-6.7 2.1-12.5 4.4-14.6 6.7l-.7 2.5c1.9 7.2-4.4 17.4-4.4 17.4s-.3.4-.7 1.1l-1.4 5.1s12.7 1 29.2-13.7c12.6-11.3 19.4-20.7 21.8-24.4.4-.8.8-1.4.9-1.7z"/><path class="st3" d="M1570.5 157.4c22.7 2.5 27.3-9.2 27.3-9.2s8 17.7 2.2 53.8c-5.8 36.2 40.8 91.3 84.5 106.8s53.8 51 61.8 83-20 68.5-69.5 70.2c-49.5 1.7-72.7 29.8-72.7 29.8s13.2-33.5 2.1-81.3-74.8-24.1-93.1-92c-15.7-58.2 2.6-105.4 7.9-118.3.9-2.2 1.4-3.4 1.3-3.5l48.2-39.3z"/><path class="st2" d="M1653.7 436.6c-7.1-15.8-1.6-34.2-4-51.4-1.6-11-6.4-21.2-11.7-31-5.4-10-11.5-20-20-27.5-7.6-6.7-16.7-11.3-25.5-16.3-16.2-9-32.5-20.1-40.2-36.9-4.2-9.1-5.4-19.3-5.3-29.2 0-5.1 4-19.6-.2-23.2-4.7-3.9-14.7 3.1-18.7 5.6-7.5 4.8-14 11.1-19.1 18.4-2.9 20.2-3.2 45.5 4.3 73.4 18.4 67.9 82.1 44.2 93.1 92 11.1 47.8-2.1 81.3-2.1 81.3s23.2-28.1 72.7-29.8c.9 0 1.8-.1 2.8-.2 4-1.6 8.1-3.1 12.2-4.5-15.6 2.2-32-6.5-38.3-20.7z"/><path class="st3" d="M1559.4 149.9c19.9 4.6 15.7 28.3 0 51.3-15.7 23.1-53.1 65.4-72.3 76.8 0 0-6.1-16.2-16.6-23.6 0 0 15.6-33.4 33.3-50 14.5-13.4 38.5-58.5 55.6-54.5z"/><path class="st2" d="M1473.5 275.9c.5 1.9.8 3.8 1.8 5.5.9 1.7 2.5 3.2 4.4 3.4 1.9.2 4-1.4 3.9-3.3 0-.4-.1-.8 0-1.2.3-1 1.9-.9 2.8-.3s1.9 1.4 2.9 1.2c2.1-.5 1-4.2 2.7-5.7 1.4-1.3 3.6 0 5.5-.2s3.3-2 3.6-3.8c.4-1.8 0-3.7-.5-5.5-2.6-9.5-7.8-18.2-14.7-25.1-.9-.9-1.8-1.7-2.8-2.3-1.6-1-3.8-1.3-5.4-.3-1.6 1-2.2 3.6-.7 4.8-1 .9-2.5 1.2-3.8.8-.6-.2-1.2-.5-1.8-.3-2.2.5 0 4.3-1.4 6-1.5 1.8-4.8-.2-6.8 1.1-3.4 2.2-1.7 4.3-.2 6.7 4.1 6.2 8.5 10.8 10.5 18.5z"/><path class="st13" d="M1404.8 308s-7.6 7.5-22.9 8.9c-15.3 1.4-35.1-7.2-36-17.1-.9-9.9 21.1-9.2 31.5-8.4 10.4.8 27.5-1.9 27.5-1.9V308z"/><path class="st11" d="M1612.3 87.8s6.3 14.1-3 27-21.5 47.1 3 63.3 36.1 12.9 34.3 41.3 30.2 85 58.2 69-6-36.2 4-53.4c10-17.2-7-28.5.5-43.3s11.2-6.6 15.2-17.1 16.7-29.5-4-40.6c-20.7-11.1-65.2-25.9-69.4-52-4.2-26.1-25.9-35.3-25.9-35.3l-12.9 41.1z"/><path class="st10" d="M1685.7 196.9c-3.6-7.4-3.2-16.6 1-23.7 1.6-2.7 3.8-5.2 4.5-8.3.4-1.8.2-3.6-.3-5.4-2.2-8.4-10.3-13.7-18.1-17.5-7.8-3.8-16.3-7.1-21.6-14-8.5-11.1-11.8-25.4-29.2-25.3-3.1 0-5.9 1.6-8.4 4.1-.7 3-2.1 6.2-4.3 9.2-9.3 12.9-21.5 47.1 3 63.3s36.1 12.8 34.3 41.3c-1.1 18.6 12 48.9 28.9 63.4 7.5-1.4 14.5-7.5 14-15.1-.6-7.4-7.9-13.3-7.2-20.6.9-9.4 13.8-13.2 16.7-22.2 1.7-5.3-.6-11.1-3.7-15.7s-7.2-8.5-9.6-13.5z"/><path class="st13" d="M1616.8 56.2c-13.6-15.2-47.2-13.8-62 11.9s-8.8 50.5-3.7 60.4c5.2 9.9 38.2 8.8 58.2-12.2.9-.9 1.7-1.9 2.5-2.8 6.7-1.1 10-8.8 9.6-15.1 7-16.1 4.6-32-4.6-42.2z"/><path class="st0" d="M1620.5 88c-8.4-4.6-17.8-6.9-26.1-11.7-2.8-1.7-5.6-3.7-7.3-6.4-3-4.7-2.9-11.1-6.7-15.1-2.1-2.2-5.1-3.2-8.2-3.4-4.7 2.5-9.2 5.9-12.9 10.4.8 3.6 3.2 7.5 4.6 10.5 3 6.4 6.2 13 11.5 17.7 3.4 3 7.6 5 11.7 6.8 3.9 1.6 7.8 3 11.9 3.9 4.9 1.1 9.9 1.5 14.6 3.1 2.2.7 4.4 1.8 6.3 3.1 1.3-2.7 1.8-5.8 1.6-8.6 1.2-2.6 2-5.3 2.7-7.9-1.2-1-2.4-1.8-3.7-2.4z"/><path class="st11" d="M1563.5 43.8s3.3 35.5 24.6 42.5 34 8.6 41.9 22.6 22.7 36.6 49.9 29.6c0 0-27.9-15.7-33.2-39.7s-2.8-40.4-21.5-51.2-36-21.3-61.7-3.8z"/><path class="st14" d="M1562.7 75.9s-8.6 14.2-13.1 23.1c-3.2 6.4 7 10.3 11.3 5.7 4.4-4.7 1.8-28.8 1.8-28.8z"/><path class="st10" d="M1597.5 75.8c8 3 16.9 3.6 24.8 7 14.8 6.3 23.9 21.3 29.7 36.3-2.6-13.8-7-28.6-18.7-36.2-8.6-5.7-19.5-6.3-29.6-8.6-8.2-1.9-16.3-5.7-21.3-12.8 2 7 8.6 11.9 15.1 14.3zM1694.8 143c4.2 2.3 8.6 5.2 10.2 9.7 2.7 7.4-3 15-4.3 22.7-1.1 6.4 1.1 13.3 5.7 17.9-5-4.9-3.6-13.2-.6-19.5 3-6.3 7.4-12.3 7.4-19.3 0-7.7-5.6-14.5-12.3-18.4s-14.4-5.6-21.8-7.7c-4.8-1.4-8.3-3.7-12.4-6.3 5.7 10.3 18.4 15.5 28.1 20.9z"/><path class="st2" d="M1572.8 170.8c1.2 14.4-7.1 33.9-15.5 47.1-7.9 12.3-26.7 26.5-39.5 33.4 22.1-16.6 41.4-54.5 55-80.5z"/><path class="st2" d="M1565.5 202.7s-19.5 28.6-15.4 65.5-11.6 5.5-11.6 5.5l4.7-42.7 22.3-28.3z"/><path class="st0" d="M1396.5 262.2s6.2-5.2 7.1-14.7c1-9.5-8-21.9-16.1-17.8-8.2 4.1 4.7 13.3 7.4 17.8 2.8 4.6 1.6 14.7 1.6 14.7z"/></svg>