<svg id="Layer_1" xmlns="http://www.w3.org/2000/svg" viewBox="0 0 348 248"><style>.st0{fill:#c6e6fe}.st1{fill:#a0d6fe}.st2{fill:#63acff}.st3{fill:#459cff}.st4{fill:#087bfb}.st5{fill:#006ee8}.st6{fill:#288cfb}.st8{fill:#0874f0}.st10{fill:#0772e8}</style><path class="st0" d="M105.2 18.6L33.4 55.9l23.6 72s.6 2 12.7 38.6 102.9 57.6 102.9 57.6 60.9-70.7 48.9-107.4-12.7-38.6-12.7-38.6l-23.6-72-80 12.5z"/><path class="st1" d="M105.3 18.6h-.1L33.4 55.9l23.6 72s.6 2 12.7 38.6 102.9 57.6 102.9 57.6l.1-.1-67.4-205.4z"/><path class="st2" d="M109.5 31.7L46.9 64.3 67.4 127s.6 1.7 11 33.7 89.8 50.2 89.8 50.2 53.1-61.6 42.6-93.6-11-33.7-11-33.7l-20.6-62.8-69.7 10.9z"/><path class="st3" d="M109.6 31.7h-.1L46.9 64.3 67.4 127s.6 1.7 11 33.7c10.5 32 89.8 50.2 89.8 50.2l.1-.1-58.7-179.1z"/><path class="st4" d="M114.8 109.3l37.8 54-74.7-41.9z"/><path class="st5" d="M151.2 97.4l1.4 65.9 35.5-78z"/><path class="st4" d="M114.8 109.3l37.8 54-1.4-65.9z"/><path class="st6" d="M87.1 87l27.6 22.3-36.6 12.1z"/><path fill="#3b96ff" d="M123.8 75l27.6 22.3-36.7 12z"/><path class="st4" d="M160.5 63l27.6 22.3-36.7 12z"/><path class="st8" d="M114.7 109.3l9.1-34.3-36.7 12z"/><path class="st5" d="M151.4 97.3l9.1-34.3-36.7 12z"/><path class="st8" d="M133 103.2l19.3 59.2-37.6-53.2z"/><path class="st6" d="M123.8 75l9.3 28.3-18.4 6z"/><g><path class="st0" d="M325.6 67.1l-4.2-42.4-.3-.1-32.2 27.9-43.4 138.2 9.1 9.1 1.8-4.7 5.6 2.2z"/><path class="st1" d="M252.4 197.6l7.9-5.5 51.2-122.5-.4-19.6-15.4 18.8-44.6 119.6z"/><path class="st1" d="M321.1 24.6l-32.2 27.9-43.4 138.2 6.9 7 69-173z"/><path fill="#87cbfe" d="M311.1 50.4V50l-15.4 18.8-44.6 119.6 1.3 9.2.1-.1z"/><path class="st2" d="M282.8 202.9c-4.1-1.6-8.6-.8-11.8 1.9l-9.2-3.7 7.7-19.1-15.6 12-3.1-19.4-7.5 19.1-9.6-3.8c-.5-4.1-3.1-7.9-7.2-9.5-5.9-2.4-12.7.5-15.1 6.5-2.4 5.9.5 12.7 6.5 15.1 3.8 1.5 7.9.9 11-1.3l10.1 4-5.3 13.5c-4.2 1.3-7.8 4.5-9.6 8.9-3.1 7.9.7 16.8 8.6 19.9 7.9 3.1 16.8-.7 19.9-8.6 1.7-4.3 1.3-8.9-.7-12.7l5.5-13.6 9.7 3.9c.7 3.7 3.3 7 7.1 8.6 5.9 2.4 12.7-.5 15.1-6.5 2.4-6.1-.5-12.9-6.5-15.2z"/><path class="st3" d="M253.9 194l-3-19.3-7.5 19.1-9.6-3.8c-.5-4.1-3.1-7.9-7.2-9.5-5.9-2.4-12.7.5-15.1 6.5-2.4 5.9.5 12.7 6.5 15.1 3.8 1.5 7.9.9 11-1.3l10.1 4-5.3 13.5c-4.2 1.3-7.8 4.5-9.6 8.9-3.1 7.9.7 16.8 8.6 19.9h.1l21-53.1z"/><ellipse transform="rotate(-68.266 222.38 191.486)" class="st10" cx="222.4" cy="191.5" rx="6" ry="6"/><ellipse transform="rotate(-68.266 278.543 213.877)" class="st4" cx="278.5" cy="213.9" rx="6" ry="6"/><ellipse transform="rotate(-68.266 238.316 232.655)" class="st4" cx="238.3" cy="232.7" rx="6" ry="6"/><path class="st10" d="M232.7 230.4c-1.2 3.1.3 6.6 3.4 7.9l4.5-11.2c-3.1-1.3-6.7.2-7.9 3.3z"/></g><path class="st0" d="M236.4.6l2.7 5.4 6 .9-4.3 4.2 1 6-5.4-2.8-5.3 2.8 1-6-4.4-4.2 6-.9zM46.9 146.8l2.6 5.4 6 .9-4.3 4.2 1 6-5.3-2.8-5.4 2.8 1-6-4.3-4.2 6-.9zM339 113.1l2.6 5.4 6 .9-4.3 4.2 1 6-5.3-2.8-5.4 2.8 1-6-4.3-4.2 6-.9z"/><path class="st1" d="M240.6 66.7l2.6 5.5 6 .8-4.3 4.3 1 5.9-5.3-2.8-5.4 2.8 1-5.9-4.3-4.3 6-.8zM9 116l2.7 5.5 6 .8-4.3 4.3 1 5.9-5.4-2.8-5.3 2.8 1-5.9-4.3-4.3 6-.8z"/></svg>