<svg id="Layer_1" xmlns="http://www.w3.org/2000/svg" viewBox="0 0 500 500"><style>.st0{fill:#d1eaff}.st1{fill:#edf7ff}.st6{fill:#a1cbff}.st8{fill:#00c4ff}.st9{fill:#0076ff}.st10{fill:#fff}.st11{fill:#5291ff}.st12{fill:#0064d9}.st13{fill:#ffd8b5}.st14{fill:#00b6ed}.st17{fill:#8fbef7}.st18{fill:#77b0f7}</style><path class="st0" d="M498.2 425.7h-6.1v-2.6h6.1c.7 0 1.3.6 1.3 1.3V293.8c-.2.1-.3.1-.5.1h-7.8c-.7 0-1.3-.6-1.3-1.3 0-.7.6-1.3 1.3-1.3h7.8c.2 0 .4 0 .5.1V29.9H336.7c-4.7 0-8.6 3.9-8.6 8.6V500h171.4v-75.6c0 .8-.6 1.3-1.3 1.3z"/><path class="st1" d="M491.2 291.3c-.7 0-1.3.6-1.3 1.3 0 .7.6 1.3 1.3 1.3h7.8c.2 0 .4 0 .5-.1v-2.4c-.2-.1-.3-.1-.5-.1h-7.8zM498.2 423.2h-6.1v2.6h6.1c.7 0 1.3-.6 1.3-1.3 0-.8-.6-1.3-1.3-1.3z"/><path class="st0" d="M500.3 292.6c0-.5-.3-1-.8-1.2v2.4c.5-.2.8-.7.8-1.2z"/><path d="M328.1 317.2h-44.4c-2.8 0-5.2 2.3-5.2 5.2v121.5c0 2.8 2.3 5.2 5.2 5.2h44.4V317.2z" fill="#94c4ff"/><path d="M489.2 424.4c0-.7.6-1.3 1.3-1.3h1.7V322.4c0-2.8-2.3-5.2-5.2-5.2H373.7v3.4c0 .7-.6 1.3-1.3 1.3-.7 0-1.3-.6-1.3-1.3v-3.4H328v131.9h158.9c2.8 0 5.2-2.3 5.2-5.2v-18.2h-1.7c-.7 0-1.2-.5-1.2-1.3zm-118.1-90.8c0-.7.6-1.3 1.3-1.3.7 0 1.3.6 1.3 1.3v7.7c0 .7-.6 1.3-1.3 1.3-.7 0-1.3-.6-1.3-1.3v-7.7zm0 20.7c0-.7.6-1.3 1.3-1.3.7 0 1.3.6 1.3 1.3v7.8c0 .7-.6 1.3-1.3 1.3-.7 0-1.3-.6-1.3-1.3v-7.8zm0 20.6c0-.7.6-1.3 1.3-1.3.7 0 1.3.6 1.3 1.3v7.8c0 .7-.6 1.3-1.3 1.3-.7 0-1.3-.6-1.3-1.3v-7.8zm0 20.7c0-.7.6-1.3 1.3-1.3.7 0 1.3.6 1.3 1.3v7.8c0 .7-.6 1.3-1.3 1.3-.7 0-1.3-.6-1.3-1.3v-7.8zm4.4 28.6c-.3.3-.6.5-1 .5-.3 0-.6-.1-.8-.3-1.6-1.2-2.5-3.1-2.5-5.1v-3c0-.7.6-1.3 1.3-1.3.7 0 1.3.6 1.3 1.3v3c0 1.2.6 2.3 1.5 3.1.5.4.6 1.2.2 1.8zm19.4 1.5h-7.8c-.7 0-1.3-.6-1.3-1.3s.6-1.3 1.3-1.3h7.8c.7 0 1.3.6 1.3 1.3s-.6 1.3-1.3 1.3zm20.6 0h-7.8c-.7 0-1.3-.6-1.3-1.3s.6-1.3 1.3-1.3h7.8c.7 0 1.3.6 1.3 1.3s-.6 1.3-1.3 1.3zm20.7 0h-7.8c-.7 0-1.3-.6-1.3-1.3s.6-1.3 1.3-1.3h7.8c.7 0 1.3.6 1.3 1.3s-.6 1.3-1.3 1.3zm20.7 0h-7.8c-.7 0-1.3-.6-1.3-1.3s.6-1.3 1.3-1.3h7.8c.7 0 1.3.6 1.3 1.3s-.6 1.3-1.3 1.3zm20.6 0h-7.8c-.7 0-1.3-.6-1.3-1.3s.6-1.3 1.3-1.3h7.8c.7 0 1.3.6 1.3 1.3s-.5 1.3-1.3 1.3z" fill="#88beff"/><path d="M489.2 424.4c0-.7.6-1.3 1.3-1.3h1.7V322.4c0-2.8-2.3-5.2-5.2-5.2H373.7v3.4c0 .7-.6 1.3-1.3 1.3-.7 0-1.3-.6-1.3-1.3v-3.4H328v131.9h158.9c2.8 0 5.2-2.3 5.2-5.2v-18.2h-1.7c-.7 0-1.2-.5-1.2-1.3zm-118.1-90.8c0-.7.6-1.3 1.3-1.3.7 0 1.3.6 1.3 1.3v7.7c0 .7-.6 1.3-1.3 1.3-.7 0-1.3-.6-1.3-1.3v-7.7zm0 20.7c0-.7.6-1.3 1.3-1.3.7 0 1.3.6 1.3 1.3v7.8c0 .7-.6 1.3-1.3 1.3-.7 0-1.3-.6-1.3-1.3v-7.8zm0 20.6c0-.7.6-1.3 1.3-1.3.7 0 1.3.6 1.3 1.3v7.8c0 .7-.6 1.3-1.3 1.3-.7 0-1.3-.6-1.3-1.3v-7.8zm0 20.7c0-.7.6-1.3 1.3-1.3.7 0 1.3.6 1.3 1.3v7.8c0 .7-.6 1.3-1.3 1.3-.7 0-1.3-.6-1.3-1.3v-7.8zm4.4 28.6c-.3.3-.6.5-1 .5-.3 0-.6-.1-.8-.3-1.6-1.2-2.5-3.1-2.5-5.1v-3c0-.7.6-1.3 1.3-1.3.7 0 1.3.6 1.3 1.3v3c0 1.2.6 2.3 1.5 3.1.5.4.6 1.2.2 1.8zm19.4 1.5h-7.8c-.7 0-1.3-.6-1.3-1.3s.6-1.3 1.3-1.3h7.8c.7 0 1.3.6 1.3 1.3s-.6 1.3-1.3 1.3zm20.6 0h-7.8c-.7 0-1.3-.6-1.3-1.3s.6-1.3 1.3-1.3h7.8c.7 0 1.3.6 1.3 1.3s-.6 1.3-1.3 1.3zm20.7 0h-7.8c-.7 0-1.3-.6-1.3-1.3s.6-1.3 1.3-1.3h7.8c.7 0 1.3.6 1.3 1.3s-.6 1.3-1.3 1.3zm20.7 0h-7.8c-.7 0-1.3-.6-1.3-1.3s.6-1.3 1.3-1.3h7.8c.7 0 1.3.6 1.3 1.3s-.6 1.3-1.3 1.3zm20.6 0h-7.8c-.7 0-1.3-.6-1.3-1.3s.6-1.3 1.3-1.3h7.8c.7 0 1.3.6 1.3 1.3s-.5 1.3-1.3 1.3z" fill="#7ab6ff"/><path d="M454.6 80H328.1v186.7h126.6c4.7 0 8.6-3.9 8.6-8.6V88.6c-.1-4.8-3.9-8.6-8.7-8.6z" fill="#b8deff"/><path class="st1" d="M387.9 293.9h7.8c.7 0 1.3-.6 1.3-1.3s-.6-1.3-1.3-1.3h-7.8c-.7 0-1.3.6-1.3 1.3s.6 1.3 1.3 1.3zM408.6 293.9h7.8c.7 0 1.3-.6 1.3-1.3s-.6-1.3-1.3-1.3h-7.8c-.7 0-1.3.6-1.3 1.3s.5 1.3 1.3 1.3zM449.9 293.9h7.8c.7 0 1.3-.6 1.3-1.3s-.6-1.3-1.3-1.3h-7.8c-.7 0-1.3.6-1.3 1.3s.6 1.3 1.3 1.3zM429.2 293.9h7.8c.7 0 1.3-.6 1.3-1.3s-.6-1.3-1.3-1.3h-7.8c-.7 0-1.3.6-1.3 1.3s.6 1.3 1.3 1.3zM372.4 301.3c.7 0 1.3-.6 1.3-1.3v-2.2c0-1.4.8-2.7 2-3.4.6-.3.8-1.1.5-1.8-.3-.6-1.1-.8-1.8-.5-2.1 1.1-3.3 3.3-3.3 5.7v2.2c0 .7.6 1.3 1.3 1.3zM373.7 312.9c0-.7-.6-1.3-1.3-1.3-.7 0-1.3.6-1.3 1.3v4.3h2.6v-4.3zM470.6 293.9h7.8c.7 0 1.3-.6 1.3-1.3s-.6-1.3-1.3-1.3h-7.8c-.7 0-1.3.6-1.3 1.3s.5 1.3 1.3 1.3zM415.5 423.2h-7.8c-.7 0-1.3.6-1.3 1.3s.6 1.3 1.3 1.3h7.8c.7 0 1.3-.6 1.3-1.3s-.6-1.3-1.3-1.3zM394.9 423.2h-7.8c-.7 0-1.3.6-1.3 1.3s.6 1.3 1.3 1.3h7.8c.7 0 1.3-.6 1.3-1.3s-.6-1.3-1.3-1.3zM477.5 423.2h-7.8c-.7 0-1.3.6-1.3 1.3s.6 1.3 1.3 1.3h7.8c.7 0 1.3-.6 1.3-1.3s-.5-1.3-1.3-1.3zM456.9 423.2h-7.8c-.7 0-1.3.6-1.3 1.3s.6 1.3 1.3 1.3h7.8c.7 0 1.3-.6 1.3-1.3s-.6-1.3-1.3-1.3zM436.2 423.2h-7.8c-.7 0-1.3.6-1.3 1.3s.6 1.3 1.3 1.3h7.8c.7 0 1.3-.6 1.3-1.3s-.6-1.3-1.3-1.3zM372.4 363.3c.7 0 1.3-.6 1.3-1.3v-7.8c0-.7-.6-1.3-1.3-1.3-.7 0-1.3.6-1.3 1.3v7.8c0 .7.6 1.3 1.3 1.3zM372.4 322c.7 0 1.3-.6 1.3-1.3v-3.4h-2.6v3.4c0 .7.6 1.3 1.3 1.3zM372.4 342.6c.7 0 1.3-.6 1.3-1.3v-7.7c0-.7-.6-1.3-1.3-1.3-.7 0-1.3.6-1.3 1.3v7.7c0 .8.6 1.3 1.3 1.3zM375.2 422.3c-1-.7-1.5-1.9-1.5-3.1v-3c0-.7-.6-1.3-1.3-1.3-.7 0-1.3.6-1.3 1.3v3c0 2 .9 3.9 2.5 5.1.2.2.5.3.8.3.4 0 .8-.2 1-.5.5-.5.4-1.3-.2-1.8zM372.4 384c.7 0 1.3-.6 1.3-1.3v-7.8c0-.7-.6-1.3-1.3-1.3-.7 0-1.3.6-1.3 1.3v7.8c0 .7.6 1.3 1.3 1.3zM372.4 404.6c.7 0 1.3-.6 1.3-1.3v-7.8c0-.7-.6-1.3-1.3-1.3-.7 0-1.3.6-1.3 1.3v7.8c0 .8.6 1.3 1.3 1.3zM490.5 423.2c-.7 0-1.3.6-1.3 1.3s.6 1.3 1.3 1.3h1.7v-2.6h-1.7z"/><path class="st6" d="M415.5 423.2h-7.8c-.7 0-1.3.6-1.3 1.3s.6 1.3 1.3 1.3h7.8c.7 0 1.3-.6 1.3-1.3s-.6-1.3-1.3-1.3zM394.9 423.2h-7.8c-.7 0-1.3.6-1.3 1.3s.6 1.3 1.3 1.3h7.8c.7 0 1.3-.6 1.3-1.3s-.6-1.3-1.3-1.3zM477.5 423.2h-7.8c-.7 0-1.3.6-1.3 1.3s.6 1.3 1.3 1.3h7.8c.7 0 1.3-.6 1.3-1.3s-.5-1.3-1.3-1.3zM456.9 423.2h-7.8c-.7 0-1.3.6-1.3 1.3s.6 1.3 1.3 1.3h7.8c.7 0 1.3-.6 1.3-1.3s-.6-1.3-1.3-1.3zM436.2 423.2h-7.8c-.7 0-1.3.6-1.3 1.3s.6 1.3 1.3 1.3h7.8c.7 0 1.3-.6 1.3-1.3s-.6-1.3-1.3-1.3zM372.4 363.3c.7 0 1.3-.6 1.3-1.3v-7.8c0-.7-.6-1.3-1.3-1.3-.7 0-1.3.6-1.3 1.3v7.8c0 .7.6 1.3 1.3 1.3zM372.4 322c.7 0 1.3-.6 1.3-1.3v-3.4h-2.6v3.4c0 .7.6 1.3 1.3 1.3zM372.4 342.6c.7 0 1.3-.6 1.3-1.3v-7.7c0-.7-.6-1.3-1.3-1.3-.7 0-1.3.6-1.3 1.3v7.7c0 .8.6 1.3 1.3 1.3zM375.2 422.3c-1-.7-1.5-1.9-1.5-3.1v-3c0-.7-.6-1.3-1.3-1.3-.7 0-1.3.6-1.3 1.3v3c0 2 .9 3.9 2.5 5.1.2.2.5.3.8.3.4 0 .8-.2 1-.5.5-.5.4-1.3-.2-1.8zM372.4 384c.7 0 1.3-.6 1.3-1.3v-7.8c0-.7-.6-1.3-1.3-1.3-.7 0-1.3.6-1.3 1.3v7.8c0 .7.6 1.3 1.3 1.3zM372.4 404.6c.7 0 1.3-.6 1.3-1.3v-7.8c0-.7-.6-1.3-1.3-1.3-.7 0-1.3.6-1.3 1.3v7.8c0 .8.6 1.3 1.3 1.3zM490.5 423.2c-.7 0-1.3.6-1.3 1.3s.6 1.3 1.3 1.3h1.7v-2.6h-1.7z"/><path d="M328.1 80H206.3c-4.7 0-8.6 3.9-8.6 8.6V258c0 4.7 3.9 8.6 8.6 8.6H328V80z" fill="#d1ebff"/><path class="st8" d="M350.2 119.9H238c-4 0-7.3-3.3-7.3-7.3s3.3-7.3 7.3-7.3h112.3c4 0 7.3 3.3 7.3 7.3-.1 4-3.4 7.3-7.4 7.3zM384.3 213.5h-74.2c-4 0-7.3-3.3-7.3-7.3s3.3-7.3 7.3-7.3h74.2c4 0 7.3 3.3 7.3 7.3s-3.3 7.3-7.3 7.3z"/><path class="st9" d="M416.1 119.9h-42.5c-4 0-7.3-3.3-7.3-7.3s3.3-7.3 7.3-7.3h42.5c4 0 7.3 3.3 7.3 7.3s-3.3 7.3-7.3 7.3zM283 244.1h-42.5c-4 0-7.3-3.3-7.3-7.3s3.3-7.3 7.3-7.3H283c4 0 7.3 3.3 7.3 7.3s-3.3 7.3-7.3 7.3z"/><path class="st8" d="M294.1 152.7H238c-4 0-7.3-3.3-7.3-7.3s3.3-7.3 7.3-7.3h56.2c4 0 7.3 3.3 7.3 7.3-.1 4-3.3 7.3-7.4 7.3z"/><path class="st10" d="M394.8 152.7h-74.4c-4 0-7.3-3.3-7.3-7.3s3.3-7.3 7.3-7.3h74.4c4 0 7.3 3.3 7.3 7.3s-3.3 7.3-7.3 7.3z"/><path class="st9" d="M350.2 185.5H238c-4 0-7.3-3.3-7.3-7.3s3.3-7.3 7.3-7.3h112.3c4 0 7.3 3.3 7.3 7.3-.1 4-3.4 7.3-7.4 7.3z"/><path class="st8" d="M416.1 185.5h-42.5c-4 0-7.3-3.3-7.3-7.3s3.3-7.3 7.3-7.3h42.5c4 0 7.3 3.3 7.3 7.3s-3.3 7.3-7.3 7.3z"/><path class="st10" d="M282.1 212h-42.5c-4 0-7.3-3.3-7.3-7.3s3.3-7.3 7.3-7.3h42.5c4 0 7.3 3.3 7.3 7.3s-3.3 7.3-7.3 7.3z"/><circle class="st10" cx="352.4" cy="45.3" r="5.2"/><circle class="st10" cx="371.4" cy="45.3" r="5.2"/><circle class="st10" cx="390.5" cy="45.3" r="5.2"/><path class="st11" d="M462.2 347.6h-92.5c-1.9 0-3.5-1.6-3.5-3.5s1.6-3.5 3.5-3.5h92.5c1.9 0 3.5 1.6 3.5 3.5-.1 1.9-1.6 3.5-3.5 3.5zM385.7 367h-42.9c-1.9 0-3.5-1.6-3.5-3.5s1.6-3.5 3.5-3.5h42.9c1.9 0 3.5 1.6 3.5 3.5-.1 1.9-1.6 3.5-3.5 3.5z"/><path class="st10" d="M454.1 367h-42.9c-1.9 0-3.5-1.6-3.5-3.5s1.6-3.5 3.5-3.5h42.9c1.9 0 3.5 1.6 3.5 3.5s-1.6 3.5-3.5 3.5zM354.1 347.6h-11.3c-1.9 0-3.5-1.6-3.5-3.5s1.6-3.5 3.5-3.5h11.3c1.9 0 3.5 1.6 3.5 3.5-.1 1.9-1.6 3.5-3.5 3.5zM454.6 389.7h-11.3c-1.9 0-3.5-1.6-3.5-3.5s1.6-3.5 3.5-3.5h11.3c1.9 0 3.5 1.6 3.5 3.5-.1 2-1.6 3.5-3.5 3.5zM352.9 433.5h-11.3c-1.9 0-3.5-1.6-3.5-3.5s1.6-3.5 3.5-3.5h11.3c1.9 0 3.5 1.6 3.5 3.5-.1 1.9-1.6 3.5-3.5 3.5zM378.1 433.5h-11.3c-1.9 0-3.5-1.6-3.5-3.5s1.6-3.5 3.5-3.5h11.3c1.9 0 3.5 1.6 3.5 3.5-.1 1.9-1.6 3.5-3.5 3.5z"/><path class="st11" d="M475.8 415h-42.9c-1.9 0-3.5-1.6-3.5-3.5s1.6-3.5 3.5-3.5h42.9c1.9 0 3.5 1.6 3.5 3.5-.1 2-1.6 3.5-3.5 3.5zM431.1 389.7h-71c-1.9 0-3.5-1.6-3.5-3.5s1.6-3.5 3.5-3.5h71c1.9 0 3.5 1.6 3.5 3.5 0 2-1.6 3.5-3.5 3.5zM412.1 415h-71c-1.9 0-3.5-1.6-3.5-3.5s1.6-3.5 3.5-3.5h71c1.9 0 3.5 1.6 3.5 3.5-.1 2-1.6 3.5-3.5 3.5zM290.3 328.2h33.6v109.7h-33.6z"/><g><path class="st12" d="M101 147.3c-6.4 7.2-5 18.1-6.1 27.7-1.2 11.2-6.5 22.1-15.3 29.1s-21.1 9.9-31.8 6.4c5.6 1.1 11.4-.7 16.5-3.2 4.7-2.3 9.1-5.4 12.3-9.5 2.7-3.5 4.4-7.7 6.1-11.8 4.3-10.5 8.7-21.1 13-31.6"/><path class="st13" d="M204.3 101.7S226 76.6 235 72.2c9.1-4.4 30.4-9.2 43.4-.7 11.6 7.6-1.9 14.1-11.4 12-9.6-2.2-12.5-2.5-14.9-.4-2.4 2.1 3.8 1.7 8.4 4.7 4.7 3 5 5.8.9 4.8s-9.3-3.3-21.9-4.7c-9.6 4.6-23.6 27.4-23.6 27.4s-13.8-2.8-11.6-13.6z"/><path class="st14" d="M169.4 141.9c19.5-22.4 20.1-19.7 34.9-40.2.6 9.2 5.8 10.8 11.7 13.5 1.4.6-37.3 52.4-66.4 76.3-8 6.6-12.5 20.2-24 17.3-8.2-2-23-10.7-17.8-18.5 4.6-6.9 23.2-19.2 30.1-25.1 10.1-8.6 22.3-12.7 31.5-23.3z"/><path class="st12" d="M171.2 102.8c1.3 2.2 1.6 4.8 1.9 7.3.2 1.6.4 3.1.6 4.7.2 1.5.1 3.6-1.4 4-1.1.3-2.1-.6-2.9-1.3-2.8-2.7-5.8-5.7-6.6-9.5-.9-4.3.3-10.5 3.3-10.2 1.2.1 3.9 2.8 5.1 5z"/><path d="M172.7 118.6s8 18.6 8.9 24.1c.9 5.5-10 5.2-10 5.2l1.1-29.3z" fill="#edba96"/><path class="st13" d="M174.3 116.2c-7.4-23-18.2-22-29.9-20.9-14.5 1.4-22.4 14.6-25.3 29.7-1.8 9.4 1.1 25.7 10.7 36.1.3 6 .5 17.8-2.6 20.9l25.9 16s-2.8-20-.2-27.1c.8 0 1.6 0 2.5-.1 16.8-1.3 26.2-31.7 18.9-54.6z"/><path class="st9" d="M166 97.8s.2 7.7-4.5 14.2c-4.7 6.5-6.7 14.1-6.7 14.1s-14.3-2.7-12.2 8.2c2.1 10.9 9.4 6.7 9.4 6.7s-1.3 15.4-10.9 20.9c-5.5 3.2-12.9 2-12.9 2s-19-8.9-19.8-32.3 22.1-48.7 57.6-33.8z"/><path class="st8" d="M107.8 190.3s9.7-8.1 19.3-8.3 31 6.5 40 14c9.1 7.5 15.9 22.5 14.3 35.7-1.6 13.2-7 41.1-9.2 50.4-2.8 11.3-.5 22-.5 22s-28.3 17-48.1 12-24.9-10.9-24.9-10.9 11.2-28.6 7-47.9c-5.8-26.7-3.7-62.7 2.1-67z"/><path class="st12" d="M151.1 146.3c-5.5 2.3-11.7 3.3-17.5 2.2-6.5-1.2-12.6-5.2-15.5-11.1-2.5-4.9-6.1-14.9-2.7-27.7.1-.2-.4-.1-.6-.1-4.4 6.6-6.6 14.4-6.3 22 .8 23.5 19.8 32.3 19.8 32.3s7.4 1.2 12.9-2c5.9-3.4 8.7-10.6 9.9-15.6z"/><path d="M300 182.4c-5.1-5.6-10.7.2-15.6 4.8-2.7 2.5-6.6 4.4-10 6.6.2-1.8.6-4.3 1.1-6.6.8-4.2 2.6-7.2 0-9.5s-3.7 7.6-5.6 11.9c-4.8 10.3-4.6 23.1-4.6 23.1s-.2.4-.4.9c-3.7 8.6-17 22.2-17 22.2s6.9 22.6 9.4 18.7c2.5-3.9 15.8-38.3 15.8-38.3 12.4-5.9 32-28.2 26.9-33.8z" fill="#ffe4cc"/><path class="st17" d="M133 442.8l12.3 57.2h42.3s5.2-67.9-2.7-92.1c-7.9-24.2-51.9 34.9-51.9 34.9zM95.1 432.5L51.9 500h-46s36.5-85.7 46-97.5 43.2 30 43.2 30z"/><path class="st18" d="M88.4 424.8L46 412.2C32.3 438 5.9 500 5.9 500h25.2l33-58.5c6.5 3.3 13.7 5.7 21.4 6l9.6-15s-2.7-3.2-6.7-7.7zM165 500l-4.6-46.5c10.2-1.1 20.5-3.7 28.8-9-.1-6-.4-11.9-.9-17.4l-45.6 3.7c-5.7 6.7-9.6 12-9.6 12l12.3 57.2H165z"/><path class="st8" d="M157.5 191.8c-13.4 4-6.5 24.7-1.5 40.1 5 15.4 18.2 45.5 55.3 48.9s49.6-34.6 49.6-34.6-11.6-2.8-13.1-10.4c0 0-21.6 24-33.8 21.6-12.1-2.4-23.9-16.9-28.4-28-4.5-11.2-15.7-41.4-28.1-37.6z"/><path class="st9" d="M98.7 305.1L43.2 416.3s32.9 27.3 89.8 26.5 66.8-13.1 66.8-13.1L171.7 304s-28.9 7.5-44.6 6.6c-15.7-1-28.4-5.5-28.4-5.5z"/><path class="st8" d="M109.4 132.4l-.2 4.4s1.4 4.7 5 3.7 3.5-6.3 1.9-8.3-4.2-2.8-6.7.2z"/><path class="st12" d="M144.1 309.5c-6.1.8-12.2 1.4-17 1.1-15.7-1-28.4-5.5-28.4-5.5L43.2 416.3s6.9 5.7 19.7 11.8c8.8-29.8 30-74.1 40.7-93.7 11.3-20.6 40.5-24.9 40.5-24.9z"/><path class="st13" d="M151.3 126.5s-9.9-3.7-8.7 7.8 10.8 12.1 10.8 12.1"/><path class="st9" d="M52.1 177.7c-14.7 11.3-29.6 10.6-41.6 1.5 0 0 8.7 23.4 29.3 25.9s38.9-5.4 46.3-18.6c7.4-13.2 14.5-50 26.7-51.1 0 0-6.2-6.6-22.1 2.8s-23.9 28.2-38.6 39.5M149.1 111c.6 8.8 5 9.8 6.4 21.2 1 8.1-1.7 19.4 1 27.1 2.2-7.7 4.3-15.5 6.5-23.2 1.2-4.3 1.1-9.1 3-13.2 2.8-6 3.5-23.9 0-25.2"/><path class="st14" d="M151 197.3c-3.7 8.2 1.2 22.9 5 34.6 4.2 13 14.3 36.4 39.5 45.4 7.7 1.3 15.2 2.6 21.5 3.6.7 0 1.5-.1 2.2-.1-46-8.8-63.6-65-68.2-83.5z"/><path class="st12" d="M86.8 147.4c-3.1 4.3-5.1 9.4-7.9 13.9-6.1 10.2-20.6 23.6-31.9 26.7 10.6 3 26.2-9.2 33.2-17.7 8.9-10.6 13.1-27.5 25.2-35-7.4 1.6-14.2 6.1-18.6 12.1z"/><path class="st12" d="M32.1 191.9c2.1 1.4 3.9 3.2 6 4.6 4.3 2.9 9.7 4 14.9 3.8 5.5-.2 11-1.8 15.3-5.3 4.2-3.5 7-9 6.4-14.4-2.6 4-5.8 7.8-9.8 10.5s-8.9 4.1-13.7 3.4c-3.5-.5-6.7-2.2-10-3.3-4.5-1.5-10-2.4-14.6-1.3 1.9.3 3.8.9 5.5 2z"/><path d="M155.7 167.7c-2.9-1.1-5.5-2.9-8-4.9-.7-.5-1.4-1.1-2.3-.9-1.2.3-1.4 1.9-1.3 3.1.4 3.8 2.9 14.4 7.5 15.5h.1c0-3.8.3-7.4 1.1-9.7.8 0 1.6 0 2.5-.1 2.3-.2 4.4-.9 6.4-2-2 .1-4.1-.2-6-1z" fill="#f5c59d"/><path class="st14" d="M127.2 181.9c-9.7.3-19.3 8.3-19.3 8.3-5.8 4.3-8 40.3-2.2 66.9 4 18.4-6 45.4-6.9 47.7 0 0 2.8 1.8 8.9 3.1 6.1 1.3 10.8 1.7 10.8 1.7s11.5-35.8 8.6-47.6c-2.9-11.9-12.7-26.9-11.8-47.5 1-20.6 11.9-32.6 11.9-32.6z"/><path class="st12" d="M125.3 343.2l-8 6.9-20.5 76-1.7 6.4zM144.1 332.7L153 436l5.7-9-9-87.3zM162.5 354.2l19.1 78.3-13.2-71.4z"/></g></svg>