<svg id="Layer_1" xmlns="http://www.w3.org/2000/svg" viewBox="0 0 1136 417"><style>.st0{fill:#5291ff}.st1{fill:#fff}.st2{fill:#d1eaff}.st5{fill:#0076ff}.st6{fill:#ffe4cc}.st7{fill:#94afcc}.st8{fill:#ffd8b5}.st9{fill:#7bc1fa}.st10{fill:#edf7ff}.st11{fill:#ffd2a5}.st12{fill:#58aaed}.st13{fill:#7ab6ff}.st17{fill:#00e1ff}.st18{fill:#9ec9ff}.st19{fill:#8fbef7}.st20{fill:#0064d9}.st23{fill:#00c4ff}</style><path class="st0" d="M671.1 416.5c.2-2.4.3-4.8.3-7.3 0-54-43.8-97.8-97.8-97.8s-97.8 43.8-97.8 97.8c0 2.5.1 4.9.3 7.3h195z"/><path class="st1" d="M796.6 18.2c-.4 0-.8-.1-1.1-.3-8.5-4.4-17.3-8.6-26.1-12.5-1.3-.6-1.8-2-1.3-3.3.6-1.3 2-1.8 3.3-1.3 8.9 4 17.8 8.2 26.4 12.7 1.2.6 1.7 2.1 1.1 3.4-.5.8-1.4 1.3-2.3 1.3zM836.5 41.2c-.5 0-.9-.1-1.3-.4-8.6-5.5-17.6-10.9-26.5-15.9-1.2-.7-1.6-2.2-1-3.4.7-1.2 2.2-1.6 3.4-1 9.1 5 18.1 10.4 26.8 16 1.2.7 1.5 2.3.8 3.5-.5.8-1.4 1.2-2.2 1.2zM1059.1 411.7c-1.3 0-2.4-1-2.5-2.3-5.9-70.7-27.8-140.7-63.2-202.3-36-62.7-86.4-117.3-145.8-158-1.1-.8-1.4-2.3-.6-3.5.8-1.1 2.3-1.4 3.5-.6 60 41.2 110.9 96.4 147.3 159.7 35.8 62.3 57.9 133 63.9 204.4.1 1.4-.9 2.6-2.3 2.7-.2-.1-.3-.1-.3-.1zM1081.9 357.7c-1.2 0-2.2-.8-2.5-2-10.5-55.6-30.4-108.4-59.1-157.2-.7-1.2-.3-2.7.9-3.4 1.2-.7 2.7-.3 3.4.9 29 49.2 49.1 102.7 59.7 158.8.3 1.4-.6 2.7-2 2.9h-.4zM1088.3 403.2c-1.3 0-2.4-1-2.5-2.3-.8-8.8-1.9-17.7-3.2-26.4-.2-1.4.7-2.6 2.1-2.8 1.4-.2 2.6.7 2.8 2.1 1.3 8.8 2.4 17.8 3.2 26.7.1 1.4-.9 2.6-2.3 2.7h-.1zM158.8 357.7h-.4c-1.4-.2-2.3-1.5-2-2.9 13.6-78.7 48.2-152.5 100.1-213.3 53.4-62.6 123.2-109 201.9-134.2 1.3-.4 2.7.3 3.1 1.6.4 1.3-.3 2.7-1.6 3.1C382.1 37 313 82.8 260.3 144.7c-51.3 60.2-85.5 133.1-98.9 210.9-.3 1.3-1.4 2.1-2.6 2.1z"/><path class="st2" d="M325.8 416.5c-.1-3.2-.2-6.4-.2-9.6 0-136.9 111-248 248-248s248 111 248 248c0 3.2-.1 6.4-.2 9.6h137.9c.1-3.2.1-6.4.1-9.6 0-213.1-172.7-385.8-385.8-385.8S187.8 193.8 187.8 406.9c0 3.2 0 6.4.1 9.6h137.9z"/><path class="st2" d="M455.4 416.5c-.1-2.4-.2-4.9-.2-7.3 0-65.4 53-118.4 118.4-118.4S692 343.8 692 409.2c0 2.5-.1 4.9-.2 7.3H811c.1-2.4.1-4.9.1-7.3 0-131.2-106.4-237.6-237.6-237.6S336 278 336 409.2c0 2.4 0 4.9.1 7.3h119.3z"/><path d="M632.7 416.5c.1-1.5.2-2.9.2-4.4 0-32.8-26.6-59.3-59.3-59.3s-59.3 26.6-59.3 59.3c0 1.5.1 3 .2 4.4h118.2z" fill="#3374e6"/><path d="M720.8 15.7L681.9 148c79.2 24.2 141.6 86.9 165.2 166.4l130.7-44.2c-38-121.8-134.7-217.7-257-254.5z" fill="#94c4ff"/><path class="st5" d="M958.5 148.5c.2-.4.4-.9.7-1.2.6-.6 1.7-.7 2.5-.4.8.3 1.6.8 2.2 1.4-1.3-.5-1.8-2.1-1.8-3.5 0-.9 0-1.8.5-2.6 1-1.8 3.4-2.2 5.3-1.4 1.9.7 3.2 2.3 4.6 3.8 1 1.1 2 2.5 1.5 3.9-.4 1.4-2 1.9-3.4 2.3-1.7.6-3.3 1.4-4.8 2.3-1.3.9-2.7 2.7-4.2 3.2-4.2 1.4-4.1-5.4-3.1-7.8zM921 381.2l-1 35.3h42.4s1-10.6 5.5-9.9 7.4 10 7.4 10l50.9-.1-8.1-36.5c.1 0-84 5-97.1 1.2z"/><path class="st6" d="M936 217.5s-24.8-22.1-28.5-47.7-7.7-54.4-7.7-54.4l-16.5-17s-5.3 51-4.5 79.2 50.4 81.8 50.4 81.8l6.8-41.9z"/><path class="st7" d="M878.9 177.6c.8 28.2 50.4 81.8 50.4 81.8l6.8-41.9s-24.8-22.1-28.5-47.7c-1.8-12.3-3.6-25.3-5-35.5-6.5-7.6-13.3-15-20.4-22.1-1.6 17.2-3.9 46.5-3.3 65.4z"/><path class="st5" d="M989.7 204.2c1-2.2.9-4.7 1.9-6.9.9-2 2.5-3.6 4-5.3 3-3.3 5-7.4 7.4-11.2 9.3-14.3 5.4-21.5 4.3-23.5-.9-1.7-6.5 14.3-8.5 14.3-5.3-.2-10 3.9-12.2 8.7-2.2 4.8-2.5 10.3-2.7 15.6-.1 1.7-1.5 9.1 0 10.4 1.9 1.8 4.9 0 5.8-2.1z"/><path class="st8" d="M991.9 184.1s-9.1 22.1-6.2 33.4c2.9 11.3-.6 16-.6 16l-40.2-9.4s11.4-3.8 12.8-9.1c1.5-5.9-.1-10.4.8-15.8 2-11.3 33.4-15.1 33.4-15.1z"/><path class="st9" d="M1017.8 377.8c.5-1.6-.3-3.1-.6-4.6-.6-2.9-1.5-5.8-.6-8.6s1.4-6.1-.2-8.6c-1-1.6-.7-2.6-1.5-4.3-1.7-3.5-.8-7.7-1.8-11.4-.7-2.5-1.1-4.5-2.6-6.6-1.9-13.4-3.3-26.5-2.9-34.3.9-21 2.9-73.9 2.9-73.9l-24.6-8s-2.4 10.7-12.7 10.5c-23.2-.4-16.8-10.5-16.8-10.5H945s-32.4-32.4-34.3-45.5l-31.6 10c-2.5 14.7 27.6 50.2 36.2 62 3.5 4.8 6.2 10.9 8.2 16.6.6 31.5-5.1 115.7-2.5 120.6 32.4 19.6 97.2-1.2 97.2-1.2s-.2-.8-.4-2.2z"/><path class="st6" d="M1000.6 178c5.5-11.3 7.4-25-9.4-32.3-15.1-6.6-28.6 5-37 19.6-8.5 14.6-6.1 28 .8 37.1 7 9 28-.3 33.9-7.2 0 0 10.4.1 15.6-7.7 8.3-12.6-3.9-9.5-3.9-9.5z"/><path class="st10" d="M960.4 290.4l-15.2-9.7s-.1 13.1.4 13.8c.5.7 8.2 7.4 9.7 7.9s4 .3 4 .3 2.5.6 4 .3c1.5-.2 10.2-5.6 10.9-6.1.7-.6 2.8-13.5 2.8-13.5l-16.6 7z"/><path class="st5" d="M972.1 258.5c-2.4 1.2-15.7.1-17.9-1.5-2.2-1.6-6.9-9.7-6.9-9.7l-3 35.1 12.2 6.1 3.8 2.8 4.2-2.1 13-4 3-35.1s-6 7.1-8.4 8.4z"/><path class="st5" d="M972.1 258.5c-2.4 1.2-15.7.1-17.9-1.5-2.2-1.6-6.9-9.7-6.9-9.7l-3 35.1 12.2 6.1 3.8 2.8 4.2-2.1 13-4 3-35.1s-6 7.1-8.4 8.4z"/><path class="st10" d="M957.3 283s-2.9-7.1-7.7-7.5c-2 1.9-.4 4.2-.4 4.2l8.1 3.3zM964.7 283.6s4.1-6.5 8.9-6.1c1.6 2.2-.4 4.2-.4 4.2l-8.5 1.9z"/><path class="st11" d="M971.5 165s-14.7 9.5-15.2 14.6c-.4 5.1 5.9 4.3 5.9 4.3s3.9-10.7 9.3-18.9z"/><path class="st6" d="M1010.4 225.5s-.2 53.3-32.7 66.4S905 300 905 300l-19.3 6.7s60.9 26.3 97.7 10.7c36.9-15.7 38.4-25.9 46.2-47.2s-8.4-36.8-19.2-44.7z"/><path class="st9" d="M973 287.9l15.9 30.7s35-9.3 41.2-42c6.3-32.7-1.3-52.8-19.8-51.1-15.7 1.4 9.9 39.5-37.3 62.4z"/><path class="st12" d="M974.4 314.2c.3 2.2.8 4.4 2.2 6.1 1.4 1.7 4 2.6 5.8 1.3.8-.6 1.4-1.5 2.3-2 2.1-1.1 5.2.8 7-.8 1.1-1 1.4-3 2.8-3 .3 0 .7.1 1 .2 1.9.5 3.9-.7 4.8-2.4.9-1.7.8-3.8.2-5.7-.6-1.9-1.6-3.6-2.4-5.3-1.8-3.5-3.1-7.3-3.9-11.1-.6-2.7-.9-5.6-2.6-7.9-1.6-2.2-5.2-3.4-7.2-1.6-1.2 1-1.9 2.9-3.4 3-1.1.1-2.1-.9-3.2-1-2.4-.4-4.1 2.7-6.6 2.9-1.8.1-5.6-2.4-5.6.8 0 2.1 3.4 5.5 4.3 7.5 2.8 5.9 3.5 12.6 4.5 19zM1017.2 373.2s-32.4 5.6-55.7 6.8c-22.3 1.1-40-8.1-41.5-8.9.1 3.8.4 7.2 1 10.1 11.1 6.7 26 8.7 40.8 8.4 0 0 13.8.2 18.1-.4 5.9-.8 37.1-6.3 38.3-9.2 1.1-2.8-1-6.8-1-6.8z"/><path class="st5" d="M991.9 184.1c2-4 3.7-12.2 2.4-16.5-1.4-4.7-6.2-7.3-10.7-9.4l-6.3-3c-3.6-1.7-7.4-3.7-9.2-7.2-1-2-1.3-4.3-1.1-6.5.3-3.2 1.9-6.5 4.8-7.8 2.9-1.3 7.1.6 7.2 3.9-1-2.8 2.2-6 5.1-5.3 2.9.7 4.6 4.3 3.5 7.1.9-1.3 1.9-2.7 2.8-4 .4-.6.9-1.3 1.7-1.4 1-.2 1.9.7 2.5 1.6 1.7 2.6 2.6 5.8 2.3 9-.7-.9.3-2.4 1.5-2.4s2.1 1 2.6 2c.5 1.1.6 2.2.9 3.3.8 2.4 2.7 4.3 4.1 6.5 3.1 4.8.5 15.3-2.3 20.4-2.8 5-6.5 6.3-11.8 9.7z"/><path class="st8" d="M734 112.9c-7.7-5.6-21.4 9.1-27.1 16.9-5.7 7.8-8.9 18.8-8.9 18.8s-14.3 10.4-34 45.7c-19.7 35.3-13.3 58.2-13.3 58.2l28 9.1s-3.7-39.2-1.2-54.1c2.5-14.8 32.5-55.9 32.5-55.9 1.9-2.6 12.8-7.8 19.2-12.3 6.4-4.5 3.4-8.3-1.8-4.9-5.2 3.4-6.8 1.8-6.8 1.8 1.5-4.3 21.1-17.7 13.4-23.3zM165.6 236.2s43.3-2 56.9-9.4c13.5-7.4 49.6-49.3 49.6-49.3l6.7 6.9s-35 61.2-54.2 67.9c-19.2 6.7-63.9 10.7-63.9 10.7l4.9-26.8z"/><path class="st6" d="M905 300s-6.3-12.4-11.1-11.4 2.5 9 2.5 9l8.6 2.4z"/><path class="st0" d="M573.6 21.1c-148.8 0-277.9 84.2-342.3 207.6L352.2 295c40.9-80.7 124.7-136 221.4-136V21.1z"/><path class="st13" d="M711.7 46.6L681.9 148c79.2 24.2 141.6 86.9 165.2 166.4l92-31.1C902.4 174.5 818.4 87.5 711.7 46.6z"/><path class="st7" d="M893.9 288.6c-4.8 1 2.5 9 2.5 9l6-2c-2.2-3.4-5.6-7.6-8.5-7z"/><path d="M977.8 270.1c-4.7-15-10.3-29.7-16.7-43.9-8.6-3-4.9-8.8-4.9-8.8H945s-32.4-32.4-34.3-45.5l-25.1 8-6.5 2.1c-2.5 14.7 27.6 50.2 36.2 62 3.5 4.8 6.2 10.9 8.2 16.6.1 7.2 0 17-.4 28.1l16-5.4 38.7-13.2z" fill="#4794fa"/><path d="M977.8 270.1c-1.3-4.3-2.8-8.5-4.2-12.8-.6.5-1.1.9-1.5 1.1-2.4 1.2-15.7.1-17.9-1.5-2.2-1.6-6.9-9.7-6.9-9.7l-2.9 34.2 33.4-11.3z" fill="#005bff"/><path d="M734 112.9c-7.7-5.6-21.4 9.1-27.1 16.9-5.7 7.8-8.9 18.8-8.9 18.8s-1.4 1-3.9 3.5c4.1 1.5 8.2 3.1 12.2 4.8 2.3-3.3 3.8-5.3 3.8-5.3 1.9-2.6 12.8-7.8 19.2-12.3 6.4-4.5 3.4-8.3-1.8-4.9-5.2 3.4-6.8 1.8-6.8 1.8 1.4-4.3 21-17.7 13.3-23.3z" fill="#94a6b5"/><path class="st13" d="M536.4 296.7l-33.9-114.3C406 212.6 336 302.7 336 409.2c0 2.4 0 4.9.1 7.3h119.3c-.1-2.4-.2-4.9-.2-7.3-.1-52.4 34-96.9 81.2-112.5z"/><path class="st1" d="M396.2 411.7c-1.4 0-2.5-1.1-2.5-2.5 0-5.8.3-11.6.8-17.3.1-1.4 1.4-2.4 2.7-2.3 1.4.1 2.4 1.4 2.3 2.7-.5 5.6-.8 11.2-.8 16.8 0 1.5-1.1 2.6-2.5 2.6zM399.2 378.8h-.5c-1.4-.3-2.3-1.6-2-2.9 1.2-6.7 2.9-13.3 4.9-19.8.4-1.3 1.8-2.1 3.1-1.7 1.3.4 2.1 1.8 1.7 3.1-1.9 6.3-3.5 12.7-4.7 19.2-.2 1.3-1.3 2.1-2.5 2.1zM410.1 342.8c-.3 0-.7-.1-1-.2-1.3-.5-1.9-2-1.3-3.3 24.4-57.8 78.1-99.3 140.1-108.2 1.4-.2 2.6.8 2.8 2.1s-.8 2.6-2.1 2.8c-60.3 8.6-112.4 48.9-136.2 105.2-.4 1-1.4 1.6-2.3 1.6z"/><path class="st17" d="M433.9 352.7c-.3 0-.7-.1-1-.2-1.3-.5-1.9-2-1.3-3.3 24.2-57.1 79.9-94.1 141.9-94.1 1.4 0 2.5 1.1 2.5 2.5s-1.1 2.5-2.5 2.5c-60 0-113.9 35.7-137.3 91-.4 1-1.3 1.6-2.3 1.6zM833.7 206.1c-.7 0-1.4-.3-1.9-.9-37.7-46.4-87.5-81.5-144-101.5-58-20.5-120.5-24-180.8-10.2-1.3.3-2.7-.5-3-1.9-.3-1.3.5-2.7 1.9-3 61.2-14 124.7-10.4 183.6 10.4 57.3 20.3 107.9 55.9 146.2 103 .9 1.1.7 2.6-.4 3.5-.5.4-1 .6-1.6.6zM867.1 255.9c-.9 0-1.7-.5-2.2-1.3-5.5-10-11.5-19.9-18-29.3-.8-1.1-.5-2.7.6-3.5 1.1-.8 2.7-.5 3.5.6 6.6 9.5 12.7 19.6 18.3 29.7.7 1.2.2 2.7-1 3.4-.4.3-.8.4-1.2.4zM904.9 389.8c-1.3 0-2.4-1-2.5-2.2-2.2-21.6-6.6-43-13-63.6-.4-1.3.3-2.7 1.6-3.1 1.3-.4 2.7.3 3.1 1.6 6.5 20.9 10.9 42.6 13.2 64.6.1 1.4-.9 2.6-2.2 2.7 0-.1-.1 0-.2 0z"/><path class="st1" d="M309 186.3c-.5 0-1.1-.2-1.5-.5-1.1-.8-1.3-2.4-.5-3.5 36-47.6 84.3-84.7 139.7-107.3 56.9-23.2 119.2-30 180.1-19.8 1.4.2 2.3 1.5 2 2.9-.2 1.4-1.5 2.3-2.9 2C566 50 504.6 56.8 448.6 79.6c-54.5 22.2-102.1 58.8-137.6 105.7-.5.6-1.3 1-2 1z"/><path class="st18" d="M1115.9 416.5c-.7-9.1-14.2-68.1-14.2-68.1s-1-10.6-3.6-10.5c-2.6.2-5.4 10.2-5.4 10.2l-6.7.2s-3.4-11.5-5.4-11.5c-1.4-.1-3.2 5.5-4.2 8.9-.5 1.7-.9 4.2-1.4 7.1h-.1s-18.2-6-19.8-4c-1.4 1.7 12.9 22.7 16.6 28.1-2.3 19.3-4.2 39.6-4.2 39.6h48.4z"/><path class="st19" d="M1124.4 416.5s2.9-5.8 2.7-15.7c-.2-9.6-5.5-17.8-5.5-17.8s9.2 6.6 12.5 16.8c3 9.1 1.5 16.8 1.5 16.8h-11.2zM1095.8 404.5c-5.9-8.2-1.7-13.6 1.1-19.3 2.8-5.8-3.9-7.7-2.5-16.6 1.4-8.9 11.2-2.7 11.2-2.7 3.2 14.6 7.6 34.7 9.4 45-3 .2-14.2.6-19.2-6.4z"/><path class="st1" d="M1090.2 363.4c-10.1 4.7-24.8-2.6-31.5-6.6 4.2 7.1 10.6 16.6 13 20-1.4 11.8-2.6 23.9-3.4 31.6 2.5-3.6 34.9-51 21.9-45z"/><path class="st20" d="M1057.9 355.6s-.5-3.2 2-3.2 2.7-3.1 2.7-3.1-6-3.4-7.6-.5c-1.5 2.8 2.9 6.8 2.9 6.8z"/><path d="M949.5 275.5c-2 1.9-.4 4.2-.4 4.2l.2.1 4.8-1.6c-1.1-1.4-2.7-2.6-4.6-2.7z" fill="#8abeff"/><path class="st20" d="M618.9 351.6s25.6 14.9 66.1 12.4 45.7-16.6 45.7-16.6-17.1-25.2-57.5-18.2-54.3 22.4-54.3 22.4zM770.8 242.8s2.9-5.1-1.1-14.1c-3.9-9-12.4-15.6-12.4-15.6s1.9 25.6 13.5 29.7z"/><path class="st9" d="M642.9 328s-28.5 38-28.5 88.5h106.1l-5-81.7-72.6-6.8z"/><path d="M721.6 189.9l7.4 11.7s-.5 5.7-3.7 7.7c-3.1 2-3.7-19.4-3.7-19.4z" fill="#edba96"/><path class="st12" d="M682.6 340.3l-50.4 4.8c-8.3 16.8-17.9 40.6-17.9 71.4h40.2c-1.1-6.9-7.7-15.4.3-46.5 4.8-18.7 27.7-29.7 27.8-29.7z"/><path class="st6" d="M794.5 108.7c-4.1 2.5-3.5 14.9-5.8 21.9-3.1 2.6-3.2-2.5-3.1-4.4.3-3.7-3-7.4-3.8 0-.8 7.4-2.8 18.3 1.5 21.4-2.3 38.3-26 65.5-26 65.5s-13.4 36 7.4 27.2 29.7-92.7 29.7-92.7 5.4-13.4 6.3-21.4-1-20.7-6.2-17.5z"/><path class="st5" d="M770.8 242.8c-8.3-4.6-13.4-29.7-13.4-29.7s-23.5 16.5-34.1 18.2c-18 2.8-54.8.1-69.4 9l-.9.6c-.3.2-.7.5-1 .8-.3.2-.5.5-.8.8l-.2.2c-.3.4-.7.8-1 1.2-.1.2-.3.4-.4.5l-.3.3c0 .1-.1.1-.1.2-.2.2-.3.5-.5.7 0 0 0 .1-.1.1-.4.6-.8 1.2-1.1 1.8 0 0 0 .1-.1.1-.4.6-.7 1.3-1.1 1.9-.1.2-.3.5-.4.7-.1.1-.1.2-.2.4s-.2.5-.3.7c-.1.1-.1.3-.2.4-.3.6-.6 1.3-.9 1.9-.4 1-.8 1.9-1.2 3-.1.1-.1.3-.2.4-.4 1.1-.9 2.3-1.3 3.5v.1c-.1.4-.3.8-.4 1.2 0 .1 0 .1-.1.2-.4 1.3-.9 2.6-1.3 4-.1.3-.2.5-.2.8-.1.2-.1.4-.2.6 0 .1-.1.3-.1.4-.8 2.7-1.5 5.4-2.2 8.1 0 .1-.1.2-.1.4-.3 1.3-.6 2.5-.9 3.8 0 .2-.1.4-.1.5-1.2 5.4-2.2 10.5-3 14.7v.2c-.5 2.8-.9 5.1-1.1 6.9v.1c-.1.6-.2 1.2-.2 1.7-.1.5-.1.8-.1 1.1v.4c-5.9 30.5-12.6 45.9-12.6 45.9s31.3-7.5 57.4-10.8c26.1-3.3 54.4 6.6 54.4 6.6-3.1-17.4-11.2-70.9-11.2-70.9 2.8-5.4 51.2-33.7 51.2-33.7z"/><path class="st20" d="M720.4 245.4c-.8-3.3-4-5.7-8.8-7.3-10.4.3-22.8-1-33.9-1.3-11.3 1.5-22.2 4.6-29.2 9-2.4 3.6-4.6 8.4-6.5 13.7 1.9 5.6 6.5 14.3 16.3 15.3 14.4 1.4 25.4-7.4 35.6-5.8 10.3 1.6 30.5-6.3 26.5-23.6z"/><path class="st8" d="M708.1 177.6s10.9 5.1 14.9 15.2c4 10 4 30.6-2.6 36.3-6.5 5.7-21.7-36.1-12.3-51.5z"/><path class="st23" d="M717.6 177.6s2.6 10.3-2.1 14.9c0 0-3.9 17 5 30.9 5.6 8.8-1.4 37.7-14 40.9-12.6 3.1-18.9-.6-26.3 1.7-7.4 2.3-15.7 8.3-24 0s-6.3-14-12.3-16c-6-2-23.5.6-20.3-22.3s40.3-12.3 43.2-24c2.7-11.8 9-42.7 50.8-26.1z"/><path d="M718.5 220c.8 4.6-.8 7.1-2.1 8-4.3 3.3-6.3 8.8-8.7 13.7-2.4 4.9-6.3 9.9-11.8 10.2-6.7.5-12.4-6.2-19.1-5.3-3 .4-5.5 2.3-8.2 3.7-2.7 1.4-6.1 2.3-8.6.6-2.8-1.9-3.1-5.8-3.2-9.2-.2-3.4-1-7.4-4.2-8.6-2.2-.8-4.7.2-7-.5-3.3-1-4.7-5.2-3.7-8.4 1-3.3 3.7-5.7 6.4-7.7 5-3.7 9.9-5.7 15-9.1-9.7 5.5-37.3.6-40 20.2-3.1 22.9 14.3 20.3 20.3 22.3s4 7.7 12.3 16 16.6 2.3 24 0c7.4-2.3 13.7 1.4 26.3-1.7 11.6-2.8 24-30.1 12.3-44.2z" fill="#00b6ed"/><path class="st23" d="M713.5 189.8c.2.9.5 1.9 1.4 2.2.9.4 2-.2 2.8-.9 1.9-1.7 3.2-3.9 3.8-6.4.4-1.7.4-3.6-.6-5.1-.8-1-2-1.7-3.1-2.2-2-.9-4.1-1.7-6.2-2.4-3.3-1-2.6.2-1.5 2.5 1.7 4 2.4 8.3 3.4 12.3z"/><path class="st20" d="M649.7 310.4c3.1-22.6 15-36.3 15-36.3l-22.8-14.2c-.1.2-.2.4-.2.6v.1c-.1.4-.3.8-.4 1.2 0 .1 0 .1-.1.2-.4 1.3-.9 2.6-1.3 4-.1.3-.2.5-.2.8-.1.2-.1.4-.2.6 0 .1-.1.3-.1.4-.8 2.7-1.5 5.4-2.2 8.1 0 .1-.1.2-.1.4-.3 1.3-.6 2.5-.9 3.8 0 .2-.1.4-.1.5-1.2 5.4-2.2 10.5-3 14.7v.2c-.5 2.8-.9 5.1-1.1 6.9v.1c-.1.6-.2 1.2-.2 1.7-.1.5-.1.8-.1 1.1v.4c-5.9 30.5-12.6 45.9-12.6 45.9s26-6.2 50.3-9.8c-.1 0-22.8-8.8-19.7-31.4z"/><path class="st6" d="M865.2 96.3s16.7-4.1 25.8 1c9.1 5.1 8.9 18.1 8.9 18.1s-17 9.5-25.2 0c-8.3-9.5-9.5-19.1-9.5-19.1zM866.7 299.4c-8 3.1 0 9.1 0 9.1s12.4 4.2 24.9 0c11.2-3.7 13.5-8.4 13.5-8.4s-6.5-2.1-11.7-3.1c-6.7-1.2-16.4-1.7-26.7 2.4z"/><path class="st20" d="M173.7 207.9c2.2-1.7-8.7-23.2 2.2-21.1 8.5 1.5 1.5 18.3-2.2 21.1z"/><g><path class="st19" d="M140.4 273.6s18.2-1.7 23.3-3.7c4.5-13.6 4.5-36.7 4.5-36.7l-31.2 5.5 3.4 34.9z"/><path class="st12" d="M52.2 393l19.1 23.9h51.6s-15.6-39.6-27.4-46c-11.8-6.3-34.1-8.8-43.3 22.1z"/><path class="st6" d="M109.8 303.8S150 326 170 325.7s91.9-48.5 91.9-48.5l-7.5-12.7s-61.5 37.8-85 36.3-34.4-17.7-34.4-17.7l-25.2 20.7z"/><path class="st12" d="M71.3 376.7l-19.1 39.8-52 .4s3.5-38.8 9.2-47.6c5.6-8.8 61.9 7.4 61.9 7.4z"/><path class="st18" d="M103.1 246.4c-13.3 1-24.1 16.2-15.5 33.4s34.8 38.7 35.4 37.9c.5-.8 21.4-18 22.6-27.3.1 0-29.9-45-42.5-44z"/><path class="st9" d="M52.2 416.5l24-49.1c-4.8-.5-40.5 15.6-60.5 49.5l36.5-.4z"/><path class="st18" d="M146.7 242.1c-9.1-8.3-25-9.8-25-9.8-7.9.2-34.8 8.9-46.3 19.9-11.4 11-30 32.7-41.2 58.6-11.2 26-24.9 58.5-24.9 58.5s30.1 6.8 45.9 7c17.1.2 31.4-3 37.3-4.6.4.1.9.1 1.3.1 2.6-.1 5.2-1.9 5.3-4.5 0-2-1.4-3.9-.7-5.8.6-1.5 2.3-2.2 3.1-3.6 1.1-1.8.3-4-.1-6.1.6-1.8 1.2-3.6 1.8-5.5.9-.8 2-1.5 2.6-2.6 1-1.7.6-4 .5-6.1 1.2-3.3 2.4-6.2 3.4-8.6 5.6-12.6 24.4-30.8 29.6-42.9 5.4-12 16.5-35.7 7.4-44z"/><path class="st19" d="M121.7 232.3c-6.8.1-27.7 6.6-40.7 15.5-.6 1.4-.9 2.9-.9 4.4.1 3.5 1.8 6.9 4.7 8.9 2.4 1.7 5.3 2.4 8.2 2.9 3.6.6 7.3.8 10.9 0 2.9-.7 5.6-2.1 8.5-3 5.1-1.5 10.5-1.3 15.9-1.2 5.3.1 10.8.1 15.8-1.7 2.2-.8 4.2-2 5.9-3.6.5-5.2-.3-9.7-3.3-12.4-9.2-8.2-25-9.8-25-9.8z"/><path class="st8" d="M127.1 212.5s-3.3 16.6-10.2 22.6c-4.8 4.2.1 13.4 6.1 17.9 6 4.5 16.3-.7 16.3-.7s2.6-7.7 5.8-12.8-18-27-18-27z"/><path d="M145.4 237.9c-5.1-7.1-12.4-12.7-16-20.6l-1.7 5.3c-.2 4.7.2 9.4 1.1 13.9.3 1.6.8 3.3 1.5 4.8s1.7 2.8 2.7 4.1c1.8 2.3 3.6 4.7 5.4 7 0 .1.1.1.1.2.5-.2.8-.3.8-.3s2.6-7.7 5.8-12.8c.2-.4.3-1 .3-1.6z" fill="#f5c59d"/><path class="st6" d="M152.5 178.2c14.1 6 25.2 11 22.3 40-2.2 22.2-20.1 29.2-27.3 26.6-7.2-2.6-21.2-18.2-20.5-32.3 1-20.5 14.7-39 25.5-34.3z"/><path class="st8" d="M150.1 195.4c6.8.4 15.8 11.9 24.7 8.3.1 0 .1 0 .2-.1-1.3-11.5-6.3-17-13-20.9-7.7-1-16.1-1.3-20.2.9-9 4.8-3 18.6-3 18.6s4.6-7.2 11.3-6.8z"/><path class="st5" d="M124.6 181.6s-1.8-9.8 15.2-15.3 17.1 9 24.2 8.1 9.7-8.1 15.5-2.2c5.8 5.9 1.4 20.8-6.8 20.9-8.2.2-14.9-4.6-23-5.7-8.1-1.1-11.3 5.7-11.3 5.7l-13.8-11.5z"/><path class="st20" d="M137.9 189l4 14.8-3.3 2.6s-6.2 7.3-8.2 11.1c-2.1 3.8-2 6.9-2 6.9l-6.8 4s-10.8-29.7-2.5-45c5.5-10.2 18.8 5.6 18.8 5.6z"/><path class="st6" d="M136 221c-7.3 0-10.6-13.7-6.8-19.3 3.9-5.6 10.1 1.6 9.3 4.8L136 221z"/><path class="st20" d="M182 181.5c-2.1 2.9-5.3 4.9-8.9 5.3-7.8 1-14.8-5-22.7-5.8-4.5-.5-9.1 1-12.6 3.8-4.8 3.7-2.7 5.3.9 7.7 1.1-1.7 4.5-5.9 11-5 8.1 1.1 14.8 5.8 23 5.7 5.1-.2 8.7-5.9 9.3-11.7z"/><path class="st19" d="M84.5 270.4c21.8 35.7 44 42.1 44 42.1l-5.5 5.1c0 .1-43.5-30.2-38.5-47.2z"/><path class="st11" d="M166.9 208.3s8 19.3 1.3 22.9c-5.9 3.1-9.6-2.9-9.6-2.9l8.3-20z"/></g><path class="st6" d="M254.3 264.5s-.3-15 3.2-16.1c3.5-1.1.3 9.5 2.9 9.2 2.6-.3 10.7-25.6 20.7-24s7.8 13.1 5.5 21.2-24.8 22.5-24.8 22.5l-7.5-12.8z"/><path class="st8" d="M271.5 166.9s6-21 12.4-18.6c6.3 2.4-12.4 18.6-12.4 18.6z"/><path d="M882.9 160.2c-2.5.2-5.1.5-7.3 1.7-.9.5-1.8 1.1-2.2 2-1.2 2.7 2.3 5.9 1 8.6-.4.9-1.4 1.6-1.7 2.6-.6 2.3 2.7 3.9 2.7 6.3 0 1-.6 1.9-.7 2.9-.2 2.2 2.3 3.8 4.5 3.7 2.2-.1 4.1-1.3 6.1-2.3 9.2-4.2 20.8-2.3 28.8-8.4.5-.4 1-.8 1.1-1.4.6-2-2.8-3.5-2.4-5.6.3-1.2 1.8-1.8 2.1-3.1.4-2.1-3-3.3-2.7-5.4 1-7.3-5.3-3.6-9.7-2.9-6.5 1-13.1.8-19.6 1.3z" fill="#3383ed"/></svg>