<svg id="Layer_1" xmlns="http://www.w3.org/2000/svg" viewBox="0 0 500 500"><style>.st1{fill:#fff}.st3{fill:#0076ff}.st4{fill:#ffe4cc}.st5{fill:#94afcc}.st6{fill:#ffd8b5}.st7{fill:#7bc1fa}.st8{fill:#edf7ff}.st10{fill:#58aaed}.st14{fill:#00e1ff}.st18{fill:#0064d9}.st20{fill:#00c4ff}.st23{fill:#8fbef7}</style><path d="M0 67v65c21.9 3.4 43.5 8.9 64.6 16.3 63.3 22.4 119.2 61.8 161.5 113.8 1 1.2.8 2.9-.4 3.9-.5.4-1.1.6-1.7.6-.8 0-1.6-.3-2.1-1-41.7-51.2-96.7-90-159-112.1-20.5-7.2-41.5-12.6-62.7-16V222c17.4 4.1 34.2 9.9 50.1 17.2 7.7-8.7 21.2-13.7 45.5-4 0 0 2.9 11.4-2.4 16.4 0 0-1.1 4.8-.9 11.6 10.1 7 19.7 14.6 28.7 22.9 9.7-5.5 18.5-11.7 18.5-11.7s5.7 27.8 14.8 32.9c0 0-3.3 1.9-8.3 4.9 40.1 47.7 64.4 109.2 64.4 176.4 0 3.5-.1 8.1-.2 11.6h152.4c.1-3.5.1-8 .1-11.6C362.7 274.7 205.3 97.6 0 67z" fill="#d1eaff"/><path class="st1" d="M182.9 59c-.4 0-.9-.1-1.3-.3-9.4-4.9-19.1-9.5-28.9-13.8-1.4-.6-2-2.3-1.4-3.6.6-1.4 2.3-2 3.6-1.4 9.8 4.4 19.6 9.1 29.2 14 1.4.7 1.9 2.4 1.2 3.7-.4.9-1.4 1.4-2.4 1.4zM227 84.5c-.5 0-1-.1-1.5-.4-9.5-6.1-19.4-12-29.3-17.5-1.3-.7-1.8-2.4-1.1-3.8.7-1.3 2.4-1.8 3.8-1.1 10 5.6 20 11.5 29.6 17.7 1.3.8 1.7 2.5.8 3.8-.5.9-1.4 1.3-2.3 1.3zM472.9 493.8c-1.4 0-2.6-1.1-2.7-2.5-6.6-78.1-30.7-155.4-69.9-223.5-39.8-69.2-95.5-129.6-161.1-174.6-1.3-.9-1.6-2.6-.7-3.8.9-1.3 2.6-1.6 3.8-.7C308.6 134 364.8 195 405 265c39.5 68.8 63.9 146.9 70.6 225.8.1 1.5-1 2.9-2.5 3h-.2z"/><path d="M99.2 56.3l-43 146.1c87.5 26.7 156.4 96 182.5 183.8l144.4-48.8C341.1 202.8 234.3 96.9 99.2 56.3z" fill="#94c4ff"/><path class="st3" d="M361.8 203c.2-.5.4-1 .8-1.3.7-.7 1.8-.8 2.8-.5.9.3 1.7.9 2.5 1.6-1.5-.5-2-2.4-2-3.9 0-1 0-2 .5-2.9 1.1-1.9 3.8-2.4 5.8-1.6 2.1.8 3.6 2.5 5 4.2 1.1 1.2 2.2 2.7 1.7 4.3-.5 1.5-2.3 2.1-3.7 2.6-1.9.6-3.7 1.5-5.3 2.6-1.5.9-3 2.9-4.6 3.5-4.8 1.5-4.7-5.9-3.5-8.6zM320.3 456.9l-1.1 43H366s1.1-11.7 6-11c5 .7 8.2 11.1 8.2 11.1l56.3-.1-8.9-43.3c.1 0-92.7 4.5-107.3.3z"/><path class="st4" d="M337 279.2s-27.4-24.4-31.5-52.7-8.5-60.1-8.5-60.1l-18.2-18.7s-5.9 56.4-5 87.5 55.6 90.4 55.6 90.4l7.6-46.4z"/><path class="st5" d="M273.8 235.2c.9 31.1 55.6 90.4 55.6 90.4l7.5-46.3s-27.4-24.4-31.5-52.7c-1.9-13.6-4-27.9-5.6-39.2-7.2-8.4-14.7-16.6-22.6-24.4-1.5 18.9-4 51.2-3.4 72.2z"/><path class="st3" d="M396.3 264.5c1.1-2.4 1-5.2 2.1-7.6 1-2.3 2.8-4 4.5-5.8 3.3-3.7 5.5-8.2 8.2-12.3 10.3-15.8 6-23.7 4.7-26-1-1.9-7.2 15.8-9.4 15.7-5.9-.2-11.1 4.3-13.5 9.6-2.5 5.3-2.7 11.4-3 17.2-.1 1.9-1.6 10.1 0 11.4 2.1 2.1 5.3.1 6.4-2.2z"/><path class="st6" d="M398.7 242.3s-10.1 24.4-6.9 36.9-.6 17.6-.6 17.6l-44.4-10.4s12.6-4.2 14.2-10c1.7-6.5-.1-11.5.9-17.5 2-12.4 36.8-16.6 36.8-16.6z"/><path class="st7" d="M427.2 456.4c0-.1.1-.1 0 0 .6-1.7-.3-3.4-.6-5.1-.7-3.2-1.6-6.4-.7-9.6.9-3.1 1.5-6.7-.2-9.5-1.1-1.7-.8-2.9-1.7-4.7-1.9-3.8-.9-8.5-2-12.6-.8-2.8-1.2-4.9-2.8-7.2-2.1-14.8-3.6-29.3-3.2-37.9 1-23.2 3.2-81.7 3.2-81.7l-27.2-8.8s-2.7 11.8-14 11.6c-25.6-.5-18.6-11.6-18.6-11.6H347s-35.8-35.8-37.9-50.2l-35.1 11c-2.7 16.3 30.5 55.4 40 68.5 3.9 5.3 6.9 12.1 9.1 18.3.7 34.8-5.6 127.8-2.7 133.3 35.8 21.6 107.4-1.3 107.4-1.3s-.3-1-.6-2.5z"/><path class="st4" d="M408.3 235.6c6.1-12.5 8.2-27.6-10.4-35.7-16.7-7.3-31.6 5.5-40.9 21.7-9.3 16.1-6.8 31 .9 40.9 7.7 10 30.9-.3 37.5-7.9 0 0 11.5.1 17.2-8.5 9.2-13.9-4.3-10.5-4.3-10.5z"/><path class="st8" d="M363.8 359.8l-16.7-10.7s-.1 14.5.5 15.3 9.1 8.2 10.7 8.7 4.4.4 4.4.4 2.7.6 4.4.4c1.7-.3 11.3-6.1 12-6.8.7-.6 3.1-15 3.1-15l-18.4 7.7z"/><path class="st3" d="M376.8 324.5c-2.7 1.3-17.3.1-19.8-1.7s-7.6-10.7-7.6-10.7l-3.3 38.8 13.4 6.8 4.2 3 4.6-2.3 14.4-4.4 3.3-38.8c.1 0-6.5 7.9-9.2 9.3z"/><path class="st3" d="M376.8 324.5c-2.7 1.3-17.3.1-19.8-1.7s-7.6-10.7-7.6-10.7l-3.3 38.8 13.4 6.8 4.2 3 4.6-2.3 14.4-4.4 3.3-38.8c.1 0-6.5 7.9-9.2 9.3z"/><path class="st8" d="M360.4 351.6s-3.2-7.9-8.5-8.3c-2.2 2.1-.4 4.6-.4 4.6l8.9 3.7zM368.6 352.3s4.5-7.2 9.8-6.7c1.8 2.5-.4 4.6-.4 4.6l-9.4 2.1z"/><path d="M376.2 221.3s-16.3 10.5-16.8 16.1 6.5 4.7 6.5 4.7 4.2-11.8 10.3-20.8z" fill="#ffd2a5"/><path class="st4" d="M419.1 288s-.2 58.9-36.1 73.4-80.3 9-80.3 9l-21.4 7.4s67.2 29.1 108 11.8 42.4-28.6 51.1-52.1c8.7-23.6-9.3-40.7-21.3-49.5z"/><path class="st7" d="M377.8 357l17.6 33.9s38.6-10.3 45.5-46.4-1.4-58.4-21.9-56.4c-17.4 1.6 11 43.6-41.2 68.9z"/><path class="st10" d="M379.3 386c.4 2.4.9 4.9 2.4 6.8s4.5 2.9 6.4 1.5c.9-.6 1.5-1.7 2.5-2.2 2.4-1.3 5.8.9 7.8-.9 1.2-1.1 1.5-3.3 3.1-3.3.4 0 .7.2 1.1.3 2.1.6 4.3-.8 5.3-2.7 1-1.9.9-4.2.2-6.3-.6-2.1-1.7-3.9-2.7-5.9-1.9-3.9-3.4-8-4.3-12.3-.6-3-1-6.2-2.8-8.7s-5.7-3.8-8-1.8c-1.3 1.1-2.1 3.2-3.8 3.3-1.2.1-2.3-.9-3.5-1.1-2.7-.5-4.6 3-7.3 3.2-1.9.1-6.2-2.6-6.2.9 0 2.3 3.8 6.1 4.8 8.3 3.1 6.5 3.9 13.9 5 20.9zM426.6 451.2s-35.8 6.2-61.5 7.5c-24.6 1.2-44.2-9-45.8-9.9.2 4.2.5 7.9 1.1 11.2 12.3 7.4 28.7 9.6 45 9.2 0 0 15.2.3 20-.4 6.5-.9 41-7 42.3-10.1 1.3-3.1-1.1-7.5-1.1-7.5z"/><path class="st3" d="M398.7 242.3c2.2-4.4 4.1-13.5 2.7-18.2-1.5-5.2-6.9-8.1-11.8-10.4l-6.9-3.3c-4-1.9-8.2-4-10.2-7.9-1.2-2.2-1.5-4.8-1.2-7.2.3-3.5 2.1-7.2 5.3-8.6 3.3-1.4 7.9.7 7.9 4.3-1.1-3.1 2.4-6.6 5.7-5.9 3.2.7 5 4.8 3.9 7.9 1-1.5 2.1-3 3.1-4.4.5-.7 1-1.4 1.8-1.6 1.1-.2 2.1.8 2.8 1.7 1.9 2.9 2.9 6.5 2.6 9.9-.8-1 .3-2.6 1.6-2.6s2.3 1.1 2.8 2.2c.5 1.2.6 2.5 1 3.7.9 2.7 3 4.8 4.5 7.2 3.4 5.3.5 16.9-2.5 22.5-3.1 5.6-7.2 6.9-13.1 10.7z"/><path class="st4" d="M302.7 370.4s-6.9-13.7-12.3-12.6 2.8 10 2.8 10l9.5 2.6z"/><path d="M89.1 90.4l-32.9 112c87.5 26.7 156.4 96 182.5 183.8l101.6-34.4C299.7 231.7 207 135.6 89.1 90.4z" fill="#7ab6ff"/><path class="st5" d="M290.4 357.8c-5.3 1.1 2.8 10 2.8 10l6.6-2.2c-2.5-3.9-6.2-8.4-9.4-7.8z"/><path d="M383.1 337.4c-5.2-16.6-11.4-32.8-18.4-48.4-9.5-3.3-5.4-9.7-5.4-9.7h-12.4s-35.8-35.8-37.9-50.2l-27.7 8.8-7.2 2.3c-2.7 16.3 30.5 55.4 40 68.5 3.9 5.3 6.9 12.1 9.1 18.3.2 7.9 0 18.8-.4 31l17.7-6 42.6-14.6z" fill="#4794fa"/><path d="M383.1 337.4c-1.5-4.7-3-9.4-4.7-14.1-.6.5-1.2 1-1.6 1.2-2.7 1.3-17.3.1-19.8-1.7-2.4-1.8-7.6-10.7-7.6-10.7l-3.2 37.8 36.9-12.5z" fill="#005bff"/><path class="st14" d="M260.8 321.7c-1 0-1.9-.5-2.4-1.4-6-11.1-12.7-22-19.9-32.4-.9-1.3-.6-3 .7-3.8 1.3-.9 3-.6 3.8.7 7.3 10.5 14.1 21.6 20.2 32.9.7 1.3.2 3-1.1 3.7-.4.2-.9.3-1.3.3zM302.6 469.5c-1.4 0-2.6-1.1-2.7-2.5-2.5-23.9-7.3-47.5-14.4-70.2-.5-1.5.4-3 1.8-3.5 1.5-.5 3 .4 3.5 1.8 7.2 23.1 12.1 47.1 14.6 71.3.2 1.5-.9 2.9-2.5 3-.1.1-.2.1-.3.1z"/><path d="M351.9 343.3c-2.2 2.1-.4 4.6-.4 4.6l.2.1 5.3-1.8c-1.3-1.5-3.1-2.7-5.1-2.9z" fill="#8abeff"/><path class="st4" d="M258.7 145.3s18.4-4.5 28.5 1.1 9.9 20 9.9 20-18.8 10.5-27.9 0c-9.2-10.5-10.5-21.1-10.5-21.1zM260.4 369.7c-8.8 3.4 0 10.1 0 10.1s13.7 4.6 27.5 0c12.4-4.1 14.9-9.3 14.9-9.3s-7.1-2.3-13-3.4c-7.3-1.4-18.1-1.9-29.4 2.6z"/><path d="M278.2 215.9c-2.8.2-5.6.6-8.1 1.8-1 .5-2 1.2-2.4 2.2-1.3 3 2.5 6.6 1.1 9.5-.5 1-1.6 1.8-1.8 2.9-.7 2.5 3 4.3 3 6.9 0 1.1-.7 2.1-.8 3.2-.2 2.4 2.5 4.2 4.9 4s4.5-1.5 6.7-2.5c10.1-4.7 22.9-2.5 31.8-9.3.5-.4 1.1-.9 1.3-1.5.7-2.2-3.1-3.9-2.6-6.2.3-1.4 2-2 2.3-3.4.5-2.3-3.3-3.7-3-6 1.1-8.1-5.9-4-10.7-3.3-7.2 1.4-14.5 1.1-21.7 1.7z" fill="#3383ed"/><path class="st14" d="M62.7 153.5c62.4 22.1 117.4 60.8 159 112.1.5.7 1.3 1 2.1 1 .6 0 1.2-.2 1.7-.6 1.2-1 1.4-2.7.4-3.9-42.3-52-98.1-91.4-161.5-113.8C43.5 140.9 21.9 135.4 0 132v5.6c21.2 3.4 42.2 8.7 62.7 15.9z"/><path class="st10" d="M1.9 499.1H0v.9h25.9c0-.3-.1-.6-.2-.9H1.9z"/><path class="st1" d="M500 426.8c-11.9-60.5-33.8-118.2-65.1-171.4-.8-1.3-2.5-1.8-3.8-1s-1.8 2.5-1 3.8c31.7 53.8 53.6 112.3 65.2 173.7.3 1.3 1.4 2.2 2.7 2.2h.5c.6-.1 1-.4 1.4-.7v-6.6h.1z"/><path class="st6" d="M114.2 163.7c-8.6-6.2-23.7 10.1-30 18.7-6.4 8.6-9.9 20.8-9.9 20.8s-15.9 11.5-37.6 50.6c-21.8 39.1-14.8 64.4-14.8 64.4l31 10.1s-4.1-43.4-1.3-59.9c2.7-16.4 36-61.9 36-61.9 2.1-2.9 14.2-8.6 21.2-13.6s3.8-9.1-2-5.4c-5.8 3.8-7.5 2-7.5 2 1.8-4.8 23.5-19.6 14.9-25.8z"/><path d="M114.2 163.7c-8.6-6.2-23.7 10.1-30 18.7-6.4 8.6-9.9 20.8-9.9 20.8s-1.5 1.1-4.3 3.9c4.5 1.7 9 3.4 13.5 5.3 2.6-3.6 4.2-5.8 4.2-5.8 2.1-2.9 14.2-8.6 21.2-13.6s3.8-9.1-2-5.4c-5.8 3.8-7.5 2-7.5 2 1.7-4.9 23.4-19.7 14.8-25.9z" fill="#94a6b5"/><path class="st18" d="M2 427.9s13.1 16.7 58 13.9 50.6-18.4 50.6-18.4-19-28-63.6-20.2C2.3 411 2 427.9 2 427.9zM155 307.5s3.2-5.7-1.2-15.6c-4.4-9.9-13.7-17.3-13.7-17.3s2 28.4 14.9 32.9z"/><path class="st7" d="M0 499.9h99.2l-5.5-90.5-80.4-7.5S7 410.3 0 424.6v75.3z"/><path d="M100.6 249l8.2 13s-.6 6.3-4.1 8.6-4.1-21.6-4.1-21.6z" fill="#edba96"/><path class="st3" d="M155 307.5c-9.2-5.1-15.4-34.1-15.4-34.1s-25.5 19.5-37.3 21.3c-19.9 3.1-60.7.1-76.9 9.9-.3.2-.6.4-1 .7-.4.3-.7.6-1.1.9l-.9.9c-.1.1-.1.2-.2.2-.4.4-.8.8-1.1 1.3-.2.2-.3.4-.5.6-.1.1-.2.2-.3.4 0 .1-.1.1-.1.2-.2.2-.4.5-.5.8 0 0 0 .1-.1.1-.4.6-.8 1.3-1.2 2 0 0 0 .1-.1.1-.4.7-.8 1.4-1.2 2.2-.1.3-.3.5-.4.8-.1.1-.1.3-.2.4-.1.3-.3.5-.4.8-.1.2-.1.3-.2.5-.3.7-.6 1.4-1 2.1-.5 1.1-.9 2.2-1.4 3.3-.1.2-.1.3-.2.5-.5 1.3-1 2.6-1.4 3.9v.1c-.2.5-.3.9-.5 1.4 0 .1 0 .1-.1.2-.5 1.5-1 2.9-1.4 4.4-.1.3-.2.6-.3.8-.1.2-.1.5-.2.7 0 .2-.1.3-.1.5-.9 3-1.7 6-2.4 9 0 .1-.1.3-.1.4-.3 1.4-.7 2.8-1 4.2 0 .2-.1.4-.1.6-1.4 6-2.5 11.6-3.3 16.3v.2c-.5 3.1-1 5.7-1.3 7.6v.1c-.1.7-.2 1.3-.3 1.9-.1.5-.1.9-.2 1.2v.4c-.2 1.3-.5 2.5-.7 3.7v44.2c12.7-2.7 32.6-6.7 50.4-9 29-3.7 60.3 7.3 60.3 7.3-3.5-19.3-12.4-78.5-12.4-78.5 3.3-6.1 56.8-37.5 56.8-37.5z"/><path class="st4" d="M181.3 159c-4.5 2.8-3.9 16.5-6.4 24.2-3.4 2.9-3.6-2.7-3.4-4.9.3-4.1-3.3-8.2-4.2 0-.9 8.2-3.1 20.3 1.7 23.8-2.5 42.4-28.8 72.5-28.8 72.5s-14.9 39.9 8.2 30.1c23.1-9.8 32.9-102.6 32.9-102.6s6-14.9 7-23.8c.9-8.9-1.3-22.8-7-19.3z"/><path class="st18" d="M99.2 310.4c-.8-3.7-4.4-6.3-9.7-8.1-11.5.3-25.3-1.1-37.5-1.4-12.5 1.7-24.6 5.1-32.4 9.9-2.7 4-5 9.3-7.2 15.2 2.2 6.1 7.2 15.9 18.1 16.9 16 1.5 28.2-8.2 39.4-6.4 11.3 1.8 33.7-6.9 29.3-26.1z"/><path class="st6" d="M85.6 235.3s12 5.7 16.5 16.8c4.4 11.1 4.4 33.9-2.9 40.2-7.2 6.4-24-39.9-13.6-57z"/><path class="st20" d="M91.5 248.9c.2 1 .6 2.1 1.5 2.5 1 .5 2.2-.2 3.1-1 2.1-1.9 3.5-4.4 4.2-7.1.5-1.9.5-4-.7-5.6-.8-1.2-2.2-1.8-3.5-2.4-2.2-1-4.5-1.9-6.9-2.6-3.7-1.1-2.9.2-1.6 2.8 2.1 4.1 2.8 8.9 3.9 13.4z"/><path class="st20" d="M99.2 286c-9.9-15.4-5.5-34.2-5.5-34.2 5.2-5.1 2.4-16.5 2.4-16.5-46.2-18.4-53.2 15.8-56.4 28.8-2.4 9.8-26.6 5.5-39.7 13.8V312c5.1 2.4 11.2 2.3 14.4 3.3 6.7 2.2 4.4 8.6 13.6 17.7 9.2 9.2 18.4 2.5 26.6 0 8.2-2.5 15.2 1.6 29.1-1.9 14-3.3 21.8-35.4 15.5-45.1z"/><path d="M97.1 282.2c.8 5.1-.9 7.8-2.3 8.9-4.8 3.7-6.9 9.7-9.6 15.1-2.7 5.4-7 10.9-13 11.3-7.4.5-13.8-6.9-21.1-5.9-3.3.5-6.1 2.6-9 4.1-3 1.5-6.7 2.5-9.5.6-3.1-2.1-3.4-6.5-3.6-10.2-.2-3.7-1.1-8.2-4.6-9.5-2.4-.9-5.2.2-7.7-.5-3.6-1.1-5.2-5.7-4.1-9.3 1.1-3.6 4.1-6.3 7.1-8.5 5.6-4.1 11-6.3 16.6-10.1-7.7 4.4-25.6 2.9-36.2 9.6V312c5.1 2.4 11.2 2.3 14.4 3.3 6.7 2.2 4.4 8.6 13.6 17.7 9.2 9.2 18.4 2.5 26.6 0 8.2-2.5 15.2 1.6 29.1-1.9 12.5-2.9 26.2-33.3 13.3-48.9z" fill="#00b6ed"/><path class="st10" d="M0 420.7V500h26.2c-1.2-7.6-8.5-17 .3-51.5 5.3-20.8 30.6-32.9 30.8-32.9L0 420.7z"/><path class="st18" d="M20.9 382.4c3.4-25 16.7-40.2 16.7-40.2l-25.2-15.7c-.1.2-.2.4-.2.7v.1c-.2.5-.3.9-.5 1.4 0 .1 0 .1-.1.2-.5 1.5-1 2.9-1.4 4.4-.1.3-.2.6-.3.8-.1.2-.1.5-.2.7 0 .2-.1.3-.1.5-.9 3-1.7 6-2.4 9 0 .1-.1.3-.1.4-.3 1.4-.7 2.8-1 4.2 0 .2-.1.4-.1.6-1.4 6-2.5 11.6-3.3 16.3v.2c-.5 3.1-1 5.7-1.3 7.6v.1c-.1.7-.2 1.3-.3 1.9-.1.5-.1.9-.2 1.2v.4c-.2 1.3-.5 2.5-.7 3.7v44.2c10.9-2.3 26.8-5.9 42.3-8.2-.2 0-25-9.4-21.6-34.5z"/><g><path d="M111 500c.9-12.6 19.7-94.7 19.7-94.7s1.4-14.8 5-14.6c3.6.2 7.5 14.2 7.5 14.2l9.3.3s4.8-15.9 7.5-16.1c1.9-.1 4.4 7.6 5.9 12.3.6 2.4 1.3 5.8 2 9.9.1 0 .2-.1.2-.1s25.3-8.3 27.5-5.6c1.9 2.4-17.9 31.6-23.1 39.1 3.2 26.8 5.8 55.1 5.8 55.1H111v.2z" fill="#9ec9ff"/><path class="st23" d="M99.1 500s-4-8-3.7-21.9c.3-13.3 7.6-24.7 7.6-24.7s-12.7 9.2-17.3 23.3c-4.1 12.7-2.1 23.3-2.1 23.3h15.5zM138.9 483.3c8.2-11.4 2.3-18.9-1.6-26.9s5.4-10.7 3.5-23.1-15.6-3.8-15.6-3.8c-4.5 20.3-10.6 48.2-13.1 62.6 4.3.4 19.8 1 26.8-8.8z"/><path class="st1" d="M146.6 426.2c14.1 6.6 34.5-3.6 43.8-9.2-5.8 9.8-14.8 23.1-18 27.8 1.9 16.3 3.7 33.2 4.7 43.9-3.5-5-48.5-70.9-30.5-62.5z"/><path class="st18" d="M191.5 415.3s.7-4.4-2.8-4.4-3.8-4.3-3.8-4.3 8.4-4.7 10.5-.7-3.9 9.4-3.9 9.4z"/></g></svg>