<svg id="Layer_1" xmlns="http://www.w3.org/2000/svg" viewBox="0 0 281 206"><style>.st0{fill:#087bfb}.st1{fill:#63acff}</style><path class="st0" d="M34.8 205H5.1c-2.8 0-5-2.2-5-5v-29.7c0-2.8 2.2-5 5-5h29.7c2.8 0 5 2.2 5 5V200c0 2.8-2.3 5-5 5z"/><path class="st1" d="M34.8 161H5.1c-2.8 0-5-2.2-5-5v-29.7c0-2.8 2.2-5 5-5h29.7c2.8 0 5 2.2 5 5V156c0 2.7-2.3 5-5 5zM114.2 205H84.5c-2.8 0-5-2.2-5-5v-29.7c0-2.8 2.2-5 5-5h29.7c2.8 0 5 2.2 5 5V200c0 2.8-2.3 5-5 5zM114.2 161H84.5c-2.8 0-5-2.2-5-5v-29.7c0-2.8 2.2-5 5-5h29.7c2.8 0 5 2.2 5 5V156c0 2.7-2.3 5-5 5z"/><path d="M119.2 58.3c0-1.7-1.4-3.2-3.2-3.2H3.3c-1.7 0-3.2 1.4-3.2 3.2v19.6c0 .4.1.9.3 1.3-.2.4-.3.8-.3 1.3v33.3c0 1.7 1.4 3.2 3.2 3.2h33.3c1.7 0 3.2-1.4 3.2-3.2V109c.4-9.1 3.1-27.9 19.4-27.9 18.1 0 20.1 23.2 20.3 30.5v2.2c0 1.7 1.4 3.2 3.2 3.2H116c1.7 0 3.2-1.4 3.2-3.2V80.5c0-.4-.1-.9-.3-1.3.2-.4.3-.8.3-1.3V58.3z" fill="#a0d6fe"/><path class="st0" d="M59.6-.2l58.3 47.4H1.4z"/><g><path class="st1" d="M150.2 206c-.3 0-.5-.1-.7-.3-.2-.2-.3-.4-.3-.7v-5.4c0-.6.4-1 1-1s1 .4 1 1v4.5c.3.2.6.5.6.9 0 .6-.4 1-1 1h-.6zm10.5 0c-.6 0-1-.4-1-1s.4-1 1-1h6c.6 0 1 .4 1 1s-.4 1-1 1h-6zm16-.1c-.6 0-1-.4-1-1s.4-1 1-1h6c.6 0 1 .4 1 1s-.4 1-1 1h-6zm16 0c-.6 0-1-.4-1-1s.4-1 1-1h6c.6 0 1 .4 1 1s-.4 1-1 1h-6zm16-.1c-.6 0-1-.4-1-1s.4-1 1-1h6c.6 0 1 .4 1 1s-.4 1-1 1h-6zm16 0c-.6 0-1-.4-1-1s.4-1 1-1h6c.6 0 1 .4 1 1s-.4 1-1 1h-6zm12.6-3.4c-.6 0-1-.4-1-1v-6c0-.6.4-1 1-1s1 .4 1 1v6c0 .5-.4 1-1 1zm-87.1-11.8c-.6 0-1-.4-1-1v-6c0-.6.4-1 1-1s1 .4 1 1v6c0 .5-.5 1-1 1zm87.1-4.2c-.6 0-1-.4-1-1v-6c0-.6.4-1 1-1s1 .4 1 1v6c0 .5-.4 1-1 1zm-87.1-11.8c-.6 0-1-.4-1-1v-6c0-.6.4-1 1-1s1 .4 1 1v6c0 .5-.5 1-1 1zm87.1-4.2c-.6 0-1-.4-1-1v-6c0-.6.4-1 1-1s1 .4 1 1v6c0 .5-.4 1-1 1zm-87.1-11.8c-.6 0-1-.4-1-1v-6c0-.6.4-1 1-1s1 .4 1 1v6c0 .5-.5 1-1 1zm87.1-4.2c-.6 0-1-.4-1-1v-6c0-.6.4-1 1-1s1 .4 1 1v6c0 .5-.4 1-1 1zm-87.1-11.8c-.6 0-1-.4-1-1v-6c0-.6.4-1 1-1s1 .4 1 1v6c0 .5-.5 1-1 1zm87.1-4.2c-.6 0-1-.4-1-1v-6c0-.6.4-1 1-1s1 .4 1 1v6c0 .5-.4 1-1 1zm-87.1-11.8c-.6 0-1-.4-1-1v-6c0-.4.2-.7.5-.9 0-.1.1-.1.2-.2l4.4-4.1c.4-.4 1-.4 1.4.1.4.4.4 1-.1 1.4l-4.4 4.1-.1.1v5.6c.1.4-.4.9-.9.9zm87.1-4.2c-.6 0-1-.4-1-1V120l-2.8-2.4c-.4-.4-.5-1-.1-1.4.4-.4 1-.5 1.4-.1l3.2 2.7c.2.2.3.5.3.8v1.8c0 .5-.4 1-1 1zm-10.7-11.1c-.2 0-.5-.1-.7-.2l-4.6-3.9c-.4-.4-.5-1-.1-1.4.4-.4 1-.5 1.4-.1l4.6 3.9c.4.4.5 1 .1 1.4-.2.2-.5.3-.7.3zm-64.3-2c-.3 0-.5-.1-.7-.3-.4-.4-.4-1 .1-1.4l4.4-4.1c.4-.4 1-.4 1.4.1.4.4.4 1-.1 1.4l-4.4 4.1c-.2.1-.4.2-.7.2zm52.1-8.4c-.2 0-.5-.1-.7-.2l-4.6-3.9c-.4-.4-.5-1-.1-1.4.4-.4 1-.5 1.4-.1l4.6 3.9c.4.4.5 1 .1 1.4-.1.2-.4.3-.7.3zM174 98.5c-.3 0-.5-.1-.7-.3-.4-.4-.4-1 .1-1.4l4.4-4.1c.4-.4 1-.4 1.4.1.4.4.4 1-.1 1.4l-4.4 4.1c-.2.1-.4.2-.7.2zm28.3-8c-.2 0-.5-.1-.7-.2l-4.6-3.9c-.4-.4-.5-1-.1-1.4.4-.4 1-.5 1.4-.1l4.6 3.9c.4.4.5 1 .1 1.4-.2.2-.5.3-.7.3zm-16.5-2.9c-.3 0-.5-.1-.7-.3-.4-.4-.4-1 .1-1.4l4.4-4.1c.4-.4 1-.4 1.4.1s.4 1-.1 1.4l-4.4 4.1c-.2.1-.5.2-.7.2zM192.1 81.8c-.6 0-1-.4-1-1v-6c0-.6.4-1 1-1s1 .4 1 1v6c0 .5-.5 1-1 1zm0-16c-.6 0-1-.4-1-1v-6c0-.6.4-1 1-1s1 .4 1 1v6c0 .5-.5 1-1 1zm31.5-9.9h-6c-.6 0-1-.4-1-1s.4-1 1-1h6c.6 0 1 .4 1 1s-.5 1-1 1zm-16 0h-6c-.6 0-1-.4-1-1s.4-1 1-1h6c.6 0 1 .4 1 1s-.5 1-1 1zm21.1-4.9c-.6 0-1-.4-1-1v-6c0-.6.4-1 1-1s1 .4 1 1v6c0 .5-.5 1-1 1zm-36.6-1.2c-.6 0-1-.4-1-1v-6c0-.6.4-1 1-1s1 .4 1 1v6c0 .5-.5 1-1 1zM228.7 35c-.6 0-1-.4-1-1v-.3H224c-.6 0-1-.4-1-1s.4-1 1-1h4.7c.6 0 1 .4 1 1V34c0 .5-.5 1-1 1zm-36.6-1.3c-.6 0-1-.4-1-1v-.1c0-.6.4-1 1-1h5.9c.6 0 1 .4 1 1s-.4 1-1 1h-5.6c-.1.1-.2.1-.3.1zm21.9 0h-6c-.6 0-1-.4-1-1s.4-1 1-1h6c.6 0 1 .4 1 1s-.5 1-1 1z"/></g><g><path class="st0" d="M228.5 190.5h-29.7c-2.8 0-5-2.2-5-5v-29.7c0-2.8 2.2-5 5-5h29.7c2.8 0 5 2.2 5 5v29.7c0 2.7-2.3 5-5 5z"/><path class="st1" d="M228.5 146.5h-29.7c-2.8 0-5-2.2-5-5v-29.7c0-2.8 2.2-5 5-5h29.7c2.8 0 5 2.2 5 5v29.7c0 2.7-2.3 5-5 5zM275.9 190.5h-29.7c-2.8 0-5-2.2-5-5v-29.7c0-2.8 2.2-5 5-5h29.7c2.8 0 5 2.2 5 5v29.7c0 2.7-2.2 5-5 5z"/><path class="st0" d="M275.9 146.5h-29.7c-2.8 0-5-2.2-5-5v-29.7c0-2.8 2.2-5 5-5h29.7c2.8 0 5 2.2 5 5v29.7c0 2.7-2.2 5-5 5z"/><path class="st1" d="M235.7 50.5s6.4-4.7 15.1-4.7 12.1 4.7 22.8 4.7V26.4s-8.2 2.6-13.4 0c-5.6-2.8-17.5-4.8-24.5.5v23.6z"/><path class="st0" d="M235.7 64.7l41.9 33.2h-83.8z"/><path d="M235.7 66.2c-.8 0-1.5-.7-1.5-1.5V26.9c0-.8.7-1.5 1.5-1.5s1.5.7 1.5 1.5v37.8c0 .8-.7 1.5-1.5 1.5z" fill="#5395fc"/></g></svg>