<svg id="Layer_1" xmlns="http://www.w3.org/2000/svg" viewBox="0 0 1575 590"><style>.st0{fill:#94c4ff}.st2{fill:#d1eaff}.st3{fill:#7ab6ff}.st5{fill:#edf7ff}.st6{fill:#c7e0ff}.st7{fill:#a1cbff}.st8{fill:#fff}.st11{fill:#00c4ff}.st12{fill:#0076ff}.st13{fill:#00e1ff}.st14{fill:#5291ff}.st15{fill:#0064d9}.st16{fill:#ffd8b5}.st17{fill:#00b6ed}.st19{fill:#ffe4cc}.st20{fill:#8fbef7}.st21{fill:#77b0f7}.st22{fill:#f5c59d}.st24{fill:#7bc1fa}.st25{fill:#9ec9ff}</style><path class="st0" d="M373.4 378.2h-51.5c-3.3 0-6 2.7-6 6V525c0 3.3 2.7 6 6 6h51.5V378.2z"/><path d="M560.1 502.4c0-.8.7-1.5 1.5-1.5h1.9V384.2c0-3.3-2.7-6-6-6H426.3v4c0 .8-.7 1.5-1.5 1.5s-1.5-.7-1.5-1.5v-4h-49.9V531h184.1c3.3 0 6-2.7 6-6v-21.1h-1.9c-.9 0-1.5-.6-1.5-1.5zM423.3 397.2c0-.8.7-1.5 1.5-1.5s1.5.7 1.5 1.5v9c0 .8-.7 1.5-1.5 1.5s-1.5-.7-1.5-1.5v-9zm0 23.9c0-.8.7-1.5 1.5-1.5s1.5.7 1.5 1.5v9c0 .8-.7 1.5-1.5 1.5s-1.5-.7-1.5-1.5v-9zm0 24c0-.8.7-1.5 1.5-1.5s1.5.7 1.5 1.5v9c0 .8-.7 1.5-1.5 1.5s-1.5-.7-1.5-1.5v-9zm0 23.9c0-.8.7-1.5 1.5-1.5s1.5.7 1.5 1.5v9c0 .8-.7 1.5-1.5 1.5s-1.5-.7-1.5-1.5v-9zm5 33.1c-.3.4-.7.6-1.2.6-.3 0-.6-.1-.9-.3-1.9-1.4-2.9-3.6-2.9-5.9V493c0-.8.7-1.5 1.5-1.5s1.5.7 1.5 1.5v3.5c0 1.4.6 2.7 1.8 3.6.6.4.7 1.4.2 2zm22.5 1.8h-9c-.8 0-1.5-.7-1.5-1.5s.7-1.5 1.5-1.5h9c.8 0 1.5.7 1.5 1.5s-.7 1.5-1.5 1.5zm24 0h-9c-.8 0-1.5-.7-1.5-1.5s.7-1.5 1.5-1.5h9c.8 0 1.5.7 1.5 1.5s-.7 1.5-1.5 1.5zm23.9 0h-9c-.8 0-1.5-.7-1.5-1.5s.7-1.5 1.5-1.5h9c.8 0 1.5.7 1.5 1.5s-.7 1.5-1.5 1.5zm24 0h-9c-.8 0-1.5-.7-1.5-1.5s.7-1.5 1.5-1.5h9c.8 0 1.5.7 1.5 1.5s-.7 1.5-1.5 1.5zm23.9 0h-9c-.8 0-1.5-.7-1.5-1.5s.7-1.5 1.5-1.5h9c.8 0 1.5.7 1.5 1.5s-.7 1.5-1.5 1.5z" fill="#88beff"/><path class="st2" d="M1031.1 590V55.2c0-5.5-4.5-10-10-10H383.4c-5.5 0-10 4.5-10 10V590h657.7z"/><path class="st0" d="M1113.8.2H761.6c-3.3 0-6 2.7-6 6v39h265.5c5.5 0 10 4.5 10 10v151.2h82.7c3.3 0 6-2.7 6-6V6.2c0-3.3-2.7-6-6-6z"/><path class="st3" d="M560.1 502.4c0-.8.7-1.5 1.5-1.5h1.9V384.2c0-3.3-2.7-6-6-6H426.3v4c0 .8-.7 1.5-1.5 1.5s-1.5-.7-1.5-1.5v-4h-49.9V531h184.1c3.3 0 6-2.7 6-6v-21.1h-1.9c-.9 0-1.5-.6-1.5-1.5zM423.3 397.2c0-.8.7-1.5 1.5-1.5s1.5.7 1.5 1.5v9c0 .8-.7 1.5-1.5 1.5s-1.5-.7-1.5-1.5v-9zm0 23.9c0-.8.7-1.5 1.5-1.5s1.5.7 1.5 1.5v9c0 .8-.7 1.5-1.5 1.5s-1.5-.7-1.5-1.5v-9zm0 24c0-.8.7-1.5 1.5-1.5s1.5.7 1.5 1.5v9c0 .8-.7 1.5-1.5 1.5s-1.5-.7-1.5-1.5v-9zm0 23.9c0-.8.7-1.5 1.5-1.5s1.5.7 1.5 1.5v9c0 .8-.7 1.5-1.5 1.5s-1.5-.7-1.5-1.5v-9zm5 33.1c-.3.4-.7.6-1.2.6-.3 0-.6-.1-.9-.3-1.9-1.4-2.9-3.6-2.9-5.9V493c0-.8.7-1.5 1.5-1.5s1.5.7 1.5 1.5v3.5c0 1.4.6 2.7 1.8 3.6.6.4.7 1.4.2 2zm22.5 1.8h-9c-.8 0-1.5-.7-1.5-1.5s.7-1.5 1.5-1.5h9c.8 0 1.5.7 1.5 1.5s-.7 1.5-1.5 1.5zm24 0h-9c-.8 0-1.5-.7-1.5-1.5s.7-1.5 1.5-1.5h9c.8 0 1.5.7 1.5 1.5s-.7 1.5-1.5 1.5zm23.9 0h-9c-.8 0-1.5-.7-1.5-1.5s.7-1.5 1.5-1.5h9c.8 0 1.5.7 1.5 1.5s-.7 1.5-1.5 1.5zm24 0h-9c-.8 0-1.5-.7-1.5-1.5s.7-1.5 1.5-1.5h9c.8 0 1.5.7 1.5 1.5s-.7 1.5-1.5 1.5zm23.9 0h-9c-.8 0-1.5-.7-1.5-1.5s.7-1.5 1.5-1.5h9c.8 0 1.5.7 1.5 1.5s-.7 1.5-1.5 1.5z"/><path d="M520 103.3H373.4v216.4H520c5.5 0 10-4.5 10-10V113.3c0-5.5-4.5-10-10-10z" fill="#b8deff"/><path class="st5" d="M730.3 82.4h-9c-.8 0-1.5.7-1.5 1.5s.7 1.5 1.5 1.5h9c.8 0 1.5-.7 1.5-1.5s-.6-1.5-1.5-1.5zM726.8 288.6h-9c-.8 0-1.5.7-1.5 1.5s.7 1.5 1.5 1.5h9c.8 0 1.5-.7 1.5-1.5s-.7-1.5-1.5-1.5zM750.8 288.6h-9c-.8 0-1.5.7-1.5 1.5s.7 1.5 1.5 1.5h9c.8 0 1.5-.7 1.5-1.5s-.7-1.5-1.5-1.5zM682.3 82.4h-9c-.8 0-1.5.7-1.5 1.5s.7 1.5 1.5 1.5h9c.8 0 1.5-.7 1.5-1.5s-.6-1.5-1.5-1.5zM706.3 82.4h-9c-.8 0-1.5.7-1.5 1.5s.7 1.5 1.5 1.5h9c.8 0 1.5-.7 1.5-1.5s-.6-1.5-1.5-1.5zM918.8 288.6h-9c-.8 0-1.5.7-1.5 1.5s.7 1.5 1.5 1.5h9c.8 0 1.5-.7 1.5-1.5s-.7-1.5-1.5-1.5zM702.8 288.6h-9c-.8 0-1.5.7-1.5 1.5s.7 1.5 1.5 1.5h9c.8 0 1.5-.7 1.5-1.5s-.7-1.5-1.5-1.5zM894.8 288.6h-9c-.8 0-1.5.7-1.5 1.5s.7 1.5 1.5 1.5h9c.8 0 1.5-.7 1.5-1.5s-.7-1.5-1.5-1.5zM870.8 288.6h-9c-.8 0-1.5.7-1.5 1.5s.7 1.5 1.5 1.5h9c.8 0 1.5-.7 1.5-1.5s-.7-1.5-1.5-1.5zM846.8 288.6h-9c-.8 0-1.5.7-1.5 1.5s.7 1.5 1.5 1.5h9c.8 0 1.5-.7 1.5-1.5s-.7-1.5-1.5-1.5zM798.8 288.6h-9c-.8 0-1.5.7-1.5 1.5s.7 1.5 1.5 1.5h9c.8 0 1.5-.7 1.5-1.5s-.7-1.5-1.5-1.5zM822.8 288.6h-9c-.8 0-1.5.7-1.5 1.5s.7 1.5 1.5 1.5h9c.8 0 1.5-.7 1.5-1.5s-.7-1.5-1.5-1.5zM658.3 82.4h-9c-.8 0-1.5.7-1.5 1.5s.7 1.5 1.5 1.5h9c.8 0 1.5-.7 1.5-1.5s-.6-1.5-1.5-1.5zM632.6 239.3c.8 0 1.5-.7 1.5-1.5v-9c0-.8-.7-1.5-1.5-1.5s-1.5.7-1.5 1.5v9c0 .8.7 1.5 1.5 1.5zM632.6 191.3c.8 0 1.5-.7 1.5-1.5v-9c0-.8-.7-1.5-1.5-1.5s-1.5.7-1.5 1.5v9c0 .8.7 1.5 1.5 1.5zM632.6 215.3c.8 0 1.5-.7 1.5-1.5v-9c0-.8-.7-1.5-1.5-1.5s-1.5.7-1.5 1.5v9c0 .8.7 1.5 1.5 1.5zM678.8 288.6h-9c-.8 0-1.5.7-1.5 1.5s.7 1.5 1.5 1.5h9c.8 0 1.5-.7 1.5-1.5s-.7-1.5-1.5-1.5zM632.6 167.3c.8 0 1.5-.7 1.5-1.5v-9c0-.8-.7-1.5-1.5-1.5s-1.5.7-1.5 1.5v9c0 .8.7 1.5 1.5 1.5zM632.6 143.3c.8 0 1.5-.7 1.5-1.5v-9c0-.8-.7-1.5-1.5-1.5s-1.5.7-1.5 1.5v9c0 .8.7 1.5 1.5 1.5zM632.6 119.3c.8 0 1.5-.7 1.5-1.5v-9c0-.8-.7-1.5-1.5-1.5s-1.5.7-1.5 1.5v9c0 .8.7 1.5 1.5 1.5zM654.8 288.6h-9c-.8 0-1.5.7-1.5 1.5s.7 1.5 1.5 1.5h9c.8 0 1.5-.7 1.5-1.5s-.7-1.5-1.5-1.5zM633.7 84.3c-1.7 1.4-2.6 3.5-2.6 5.7v3.8c0 .8.7 1.5 1.5 1.5s1.5-.7 1.5-1.5V90c0-1.3.6-2.6 1.6-3.4.6-.5.7-1.5.2-2.1-.6-.7-1.6-.8-2.2-.2zM632.6 263.3c.8 0 1.5-.7 1.5-1.5v-9c0-.8-.7-1.5-1.5-1.5s-1.5.7-1.5 1.5v9c0 .8.7 1.5 1.5 1.5zM634.1 284.1v-7.4c0-.8-.7-1.5-1.5-1.5s-1.5.7-1.5 1.5v7.4c0 .7.1 1.4.3 2 .2.7.8 1.1 1.4 1.1.1 0 .3 0 .4-.1.8-.2 1.3-1.1 1-1.9-.1-.2-.1-.6-.1-1.1zM774.8 288.6h-9c-.8 0-1.5.7-1.5 1.5s.7 1.5 1.5 1.5h9c.8 0 1.5-.7 1.5-1.5s-.7-1.5-1.5-1.5zM996.8 217.6c-.8 0-1.5.7-1.5 1.5v9c0 .8.7 1.5 1.5 1.5s1.5-.7 1.5-1.5v-9c0-.9-.7-1.5-1.5-1.5zM996.8 241.6c-.8 0-1.5.7-1.5 1.5v9c0 .8.7 1.5 1.5 1.5s1.5-.7 1.5-1.5v-9c0-.9-.7-1.5-1.5-1.5zM942.8 288.6h-9c-.8 0-1.5.7-1.5 1.5s.7 1.5 1.5 1.5h9c.8 0 1.5-.7 1.5-1.5s-.7-1.5-1.5-1.5zM754.3 82.4h-9c-.8 0-1.5.7-1.5 1.5s.7 1.5 1.5 1.5h9c.5 0 1-.3 1.2-.7V83c-.2-.3-.6-.6-1.2-.6zM966.8 288.6h-9c-.8 0-1.5.7-1.5 1.5s.7 1.5 1.5 1.5h9c.8 0 1.5-.7 1.5-1.5s-.7-1.5-1.5-1.5zM992.6 288.3c-.6.3-1.2.4-1.8.4h-9c-.8 0-1.5.7-1.5 1.5s.7 1.5 1.5 1.5h9c1.1 0 2.1-.2 3-.6.8-.3 1.1-1.2.8-2-.3-.8-1.2-1.2-2-.8zM996.8 265.6c-.8 0-1.5.7-1.5 1.5v9c0 .8.7 1.5 1.5 1.5s1.5-.7 1.5-1.5v-9c0-.9-.7-1.5-1.5-1.5z"/><path class="st3" d="M1021.1 45.2H755.6v37.9c.2.2.3.5.3.8s-.1.6-.3.8v115.6c0 3.3 2.7 6 6 6h269.5V55.2c0-5.5-4.5-10-10-10zM778.3 85.4h-9c-.8 0-1.5-.7-1.5-1.5s.7-1.5 1.5-1.5h9c.8 0 1.5.7 1.5 1.5s-.6 1.5-1.5 1.5zm24 0h-9c-.8 0-1.5-.7-1.5-1.5s.7-1.5 1.5-1.5h9c.8 0 1.5.7 1.5 1.5s-.6 1.5-1.5 1.5zm24 0h-9c-.8 0-1.5-.7-1.5-1.5s.7-1.5 1.5-1.5h9c.8 0 1.5.7 1.5 1.5s-.6 1.5-1.5 1.5zm24 0h-9c-.8 0-1.5-.7-1.5-1.5s.7-1.5 1.5-1.5h9c.8 0 1.5.7 1.5 1.5s-.6 1.5-1.5 1.5zm24 0h-9c-.8 0-1.5-.7-1.5-1.5s.7-1.5 1.5-1.5h9c.8 0 1.5.7 1.5 1.5s-.6 1.5-1.5 1.5zm24 0h-9c-.8 0-1.5-.7-1.5-1.5s.7-1.5 1.5-1.5h9c.8 0 1.5.7 1.5 1.5s-.6 1.5-1.5 1.5zm24 0h-9c-.8 0-1.5-.7-1.5-1.5s.7-1.5 1.5-1.5h9c.8 0 1.5.7 1.5 1.5s-.6 1.5-1.5 1.5zm24 0h-9c-.8 0-1.5-.7-1.5-1.5s.7-1.5 1.5-1.5h9c.8 0 1.5.7 1.5 1.5s-.6 1.5-1.5 1.5zm24 0h-9c-.8 0-1.5-.7-1.5-1.5s.7-1.5 1.5-1.5h9c.8 0 1.5.7 1.5 1.5s-.6 1.5-1.5 1.5zm23.8 1.1c-.3 0-.6-.1-.8-.3-.7-.5-1.6-.8-2.5-.8h-5.5c-.8 0-1.5-.7-1.5-1.5s.7-1.5 1.5-1.5h5.5c1.5 0 2.9.4 4.2 1.3.7.5.9 1.4.4 2.1-.3.4-.8.7-1.3.7zm4.2 117.6c0 .8-.7 1.5-1.5 1.5s-1.5-.7-1.5-1.5v-9c0-.8.7-1.5 1.5-1.5s1.5.7 1.5 1.5v9zm0-24c0 .8-.7 1.5-1.5 1.5s-1.5-.7-1.5-1.5v-9c0-.8.7-1.5 1.5-1.5s1.5.7 1.5 1.5v9zm0-24c0 .8-.7 1.5-1.5 1.5s-1.5-.7-1.5-1.5v-9c0-.8.7-1.5 1.5-1.5s1.5.7 1.5 1.5v9zm0-24c0 .8-.7 1.5-1.5 1.5s-1.5-.7-1.5-1.5v-9c0-.8.7-1.5 1.5-1.5s1.5.7 1.5 1.5v9zm0-24c0 .8-.7 1.5-1.5 1.5s-1.5-.7-1.5-1.5v-9c0-.8.7-1.5 1.5-1.5s1.5.7 1.5 1.5v9z"/><path class="st3" d="M755.6 83.1v1.7c.2-.2.3-.5.3-.8s-.2-.7-.3-.9z"/><path class="st6" d="M996.8 145.6c-.8 0-1.5.7-1.5 1.5v9c0 .8.7 1.5 1.5 1.5s1.5-.7 1.5-1.5v-9c0-.9-.7-1.5-1.5-1.5zM996.8 169.6c-.8 0-1.5.7-1.5 1.5v9c0 .8.7 1.5 1.5 1.5s1.5-.7 1.5-1.5v-9c0-.9-.7-1.5-1.5-1.5zM996.8 193.6c-.8 0-1.5.7-1.5 1.5v9c0 .8.7 1.5 1.5 1.5s1.5-.7 1.5-1.5v-9c0-.9-.7-1.5-1.5-1.5zM970.3 82.4h-9c-.8 0-1.5.7-1.5 1.5s.7 1.5 1.5 1.5h9c.8 0 1.5-.7 1.5-1.5s-.6-1.5-1.5-1.5zM995 83.7c-1.2-.8-2.7-1.3-4.2-1.3h-5.5c-.8 0-1.5.7-1.5 1.5s.7 1.5 1.5 1.5h5.5c.9 0 1.8.3 2.5.8.3.2.5.3.8.3.5 0 1-.2 1.2-.7.5-.7.4-1.6-.3-2.1zM996.8 121.6c-.8 0-1.5.7-1.5 1.5v9c0 .8.7 1.5 1.5 1.5s1.5-.7 1.5-1.5v-9c0-.9-.7-1.5-1.5-1.5zM996.8 97.6c-.8 0-1.5.7-1.5 1.5v9c0 .8.7 1.5 1.5 1.5s1.5-.7 1.5-1.5v-9c0-.9-.7-1.5-1.5-1.5zM778.3 82.4h-9c-.8 0-1.5.7-1.5 1.5s.7 1.5 1.5 1.5h9c.8 0 1.5-.7 1.5-1.5s-.6-1.5-1.5-1.5zM850.3 82.4h-9c-.8 0-1.5.7-1.5 1.5s.7 1.5 1.5 1.5h9c.8 0 1.5-.7 1.5-1.5s-.6-1.5-1.5-1.5zM826.3 82.4h-9c-.8 0-1.5.7-1.5 1.5s.7 1.5 1.5 1.5h9c.8 0 1.5-.7 1.5-1.5s-.6-1.5-1.5-1.5zM802.3 82.4h-9c-.8 0-1.5.7-1.5 1.5s.7 1.5 1.5 1.5h9c.8 0 1.5-.7 1.5-1.5s-.6-1.5-1.5-1.5zM946.3 82.4h-9c-.8 0-1.5.7-1.5 1.5s.7 1.5 1.5 1.5h9c.8 0 1.5-.7 1.5-1.5s-.6-1.5-1.5-1.5zM874.3 82.4h-9c-.8 0-1.5.7-1.5 1.5s.7 1.5 1.5 1.5h9c.8 0 1.5-.7 1.5-1.5s-.6-1.5-1.5-1.5zM922.3 82.4h-9c-.8 0-1.5.7-1.5 1.5s.7 1.5 1.5 1.5h9c.8 0 1.5-.7 1.5-1.5s-.6-1.5-1.5-1.5zM898.3 82.4h-9c-.8 0-1.5.7-1.5 1.5s.7 1.5 1.5 1.5h9c.8 0 1.5-.7 1.5-1.5s-.6-1.5-1.5-1.5z"/><path class="st3" d="M990.2 562.8H799.6c-5.5 0-10-4.5-10-10v-181c0-5.5 4.5-10 10-10h190.5c5.5 0 10 4.5 10 10v181c.1 5.5-4.4 10-9.9 10z"/><path class="st5" d="M442.7 351.2h9c.8 0 1.5-.7 1.5-1.5s-.7-1.5-1.5-1.5h-9c-.8 0-1.5.7-1.5 1.5s.7 1.5 1.5 1.5zM466.7 351.2h9c.8 0 1.5-.7 1.5-1.5s-.7-1.5-1.5-1.5h-9c-.8 0-1.5.7-1.5 1.5s.6 1.5 1.5 1.5zM514.6 351.2h9c.8 0 1.5-.7 1.5-1.5s-.7-1.5-1.5-1.5h-9c-.8 0-1.5.7-1.5 1.5s.6 1.5 1.5 1.5zM490.6 351.2h9c.8 0 1.5-.7 1.5-1.5s-.7-1.5-1.5-1.5h-9c-.8 0-1.5.7-1.5 1.5s.7 1.5 1.5 1.5zM424.8 359.7c.8 0 1.5-.7 1.5-1.5v-2.6c0-1.6.9-3.1 2.3-3.9.7-.4 1-1.3.6-2s-1.3-1-2-.6c-2.4 1.3-3.9 3.8-3.9 6.6v2.6c0 .8.6 1.4 1.5 1.4zM426.3 373.2c0-.8-.7-1.5-1.5-1.5s-1.5.7-1.5 1.5v5h3v-5zM672.4 480.3c-.8 0-1.5.7-1.5 1.5v9c0 .8.7 1.5 1.5 1.5s1.5-.7 1.5-1.5v-9c0-.8-.7-1.5-1.5-1.5zM672.4 456.4c-.8 0-1.5.7-1.5 1.5v9c0 .8.7 1.5 1.5 1.5s1.5-.7 1.5-1.5v-9c0-.8-.7-1.5-1.5-1.5zM672.4 432.4c-.8 0-1.5.7-1.5 1.5v9c0 .8.7 1.5 1.5 1.5s1.5-.7 1.5-1.5v-9c0-.8-.7-1.5-1.5-1.5zM667.5 348.2c-.4-.1-.7-.1-1.1-.1h-8.1c-.8 0-1.5.7-1.5 1.5s.7 1.5 1.5 1.5H667.3c.7 0 1.4-.5 1.5-1.3.1-.7-.5-1.4-1.3-1.6zM666.4 500.9h-9c-.8 0-1.5.7-1.5 1.5s.7 1.5 1.5 1.5h9.1c.8 0 1.5-.7 1.5-1.5s-.8-1.5-1.6-1.5zM672.4 360.6c-.8 0-1.5.7-1.5 1.5v9c0 .8.7 1.5 1.5 1.5s1.5-.7 1.5-1.5v-9c0-.8-.7-1.5-1.5-1.5zM538.5 351.2h9c.8 0 1.5-.7 1.5-1.5s-.7-1.5-1.5-1.5h-9c-.8 0-1.5.7-1.5 1.5s.7 1.5 1.5 1.5zM672.4 384.5c-.8 0-1.5.7-1.5 1.5v9c0 .8.7 1.5 1.5 1.5s1.5-.7 1.5-1.5v-9c0-.8-.7-1.5-1.5-1.5zM672.4 408.5c-.8 0-1.5.7-1.5 1.5v9c0 .8.7 1.5 1.5 1.5s1.5-.7 1.5-1.5v-9c0-.8-.7-1.5-1.5-1.5zM643.3 348.2h-9c-.8 0-1.5.7-1.5 1.5s.7 1.5 1.5 1.5h9c.8 0 1.5-.7 1.5-1.5s-.7-1.5-1.5-1.5zM571.4 348.2h-9c-.8 0-1.5.7-1.5 1.5s.7 1.5 1.5 1.5h9c.8 0 1.5-.7 1.5-1.5s-.6-1.5-1.5-1.5zM642.4 500.9h-9c-.8 0-1.5.7-1.5 1.5s.7 1.5 1.5 1.5h9c.8 0 1.5-.7 1.5-1.5s-.7-1.5-1.5-1.5zM570.6 500.9h-7.1v3h7.1c.8 0 1.5-.7 1.5-1.5s-.7-1.5-1.5-1.5zM594.5 500.9h-9c-.8 0-1.5.7-1.5 1.5s.7 1.5 1.5 1.5h9c.8 0 1.5-.7 1.5-1.5s-.7-1.5-1.5-1.5zM619.3 348.2h-9c-.8 0-1.5.7-1.5 1.5s.7 1.5 1.5 1.5h9c.8 0 1.5-.7 1.5-1.5s-.6-1.5-1.5-1.5zM595.4 348.2h-9c-.8 0-1.5.7-1.5 1.5s.7 1.5 1.5 1.5h9c.8 0 1.5-.7 1.5-1.5s-.7-1.5-1.5-1.5zM618.5 500.9h-9c-.8 0-1.5.7-1.5 1.5s.7 1.5 1.5 1.5h9c.8 0 1.5-.7 1.5-1.5s-.7-1.5-1.5-1.5zM474.8 500.9h-9c-.8 0-1.5.7-1.5 1.5s.7 1.5 1.5 1.5h9c.8 0 1.5-.7 1.5-1.5s-.7-1.5-1.5-1.5zM450.8 500.9h-9c-.8 0-1.5.7-1.5 1.5s.7 1.5 1.5 1.5h9c.8 0 1.5-.7 1.5-1.5s-.7-1.5-1.5-1.5zM546.6 500.9h-9c-.8 0-1.5.7-1.5 1.5s.7 1.5 1.5 1.5h9c.8 0 1.5-.7 1.5-1.5s-.7-1.5-1.5-1.5zM522.7 500.9h-9c-.8 0-1.5.7-1.5 1.5s.7 1.5 1.5 1.5h9c.8 0 1.5-.7 1.5-1.5s-.7-1.5-1.5-1.5zM498.7 500.9h-9c-.8 0-1.5.7-1.5 1.5s.7 1.5 1.5 1.5h9c.8 0 1.5-.7 1.5-1.5s-.7-1.5-1.5-1.5zM424.8 431.6c.8 0 1.5-.7 1.5-1.5v-9c0-.8-.7-1.5-1.5-1.5s-1.5.7-1.5 1.5v9c0 .8.6 1.5 1.5 1.5zM424.8 383.7c.8 0 1.5-.7 1.5-1.5v-4h-3v4c0 .8.6 1.5 1.5 1.5zM424.8 407.6c.8 0 1.5-.7 1.5-1.5v-9c0-.8-.7-1.5-1.5-1.5s-1.5.7-1.5 1.5v9c0 .9.6 1.5 1.5 1.5zM428 500c-1.1-.9-1.8-2.2-1.8-3.6V493c0-.8-.7-1.5-1.5-1.5s-1.5.7-1.5 1.5v3.5c0 2.3 1.1 4.5 2.9 5.9.3.2.6.3.9.3.4 0 .9-.2 1.2-.6.6-.6.5-1.6-.2-2.1zM424.8 455.5c.8 0 1.5-.7 1.5-1.5v-9c0-.8-.7-1.5-1.5-1.5s-1.5.7-1.5 1.5v9c0 .9.6 1.5 1.5 1.5zM424.8 479.5c.8 0 1.5-.7 1.5-1.5v-9c0-.8-.7-1.5-1.5-1.5s-1.5.7-1.5 1.5v9c0 .8.6 1.5 1.5 1.5zM561.6 500.9c-.8 0-1.5.7-1.5 1.5s.7 1.5 1.5 1.5h1.9v-3h-1.9z"/><path class="st7" d="M474.8 500.9h-9c-.8 0-1.5.7-1.5 1.5s.7 1.5 1.5 1.5h9c.8 0 1.5-.7 1.5-1.5s-.7-1.5-1.5-1.5zM450.8 500.9h-9c-.8 0-1.5.7-1.5 1.5s.7 1.5 1.5 1.5h9c.8 0 1.5-.7 1.5-1.5s-.7-1.5-1.5-1.5zM546.6 500.9h-9c-.8 0-1.5.7-1.5 1.5s.7 1.5 1.5 1.5h9c.8 0 1.5-.7 1.5-1.5s-.7-1.5-1.5-1.5zM522.7 500.9h-9c-.8 0-1.5.7-1.5 1.5s.7 1.5 1.5 1.5h9c.8 0 1.5-.7 1.5-1.5s-.7-1.5-1.5-1.5zM498.7 500.9h-9c-.8 0-1.5.7-1.5 1.5s.7 1.5 1.5 1.5h9c.8 0 1.5-.7 1.5-1.5s-.7-1.5-1.5-1.5zM424.8 431.6c.8 0 1.5-.7 1.5-1.5v-9c0-.8-.7-1.5-1.5-1.5s-1.5.7-1.5 1.5v9c0 .8.6 1.5 1.5 1.5zM424.8 383.7c.8 0 1.5-.7 1.5-1.5v-4h-3v4c0 .8.6 1.5 1.5 1.5zM424.8 407.6c.8 0 1.5-.7 1.5-1.5v-9c0-.8-.7-1.5-1.5-1.5s-1.5.7-1.5 1.5v9c0 .9.6 1.5 1.5 1.5zM428 500c-1.1-.9-1.8-2.2-1.8-3.6V493c0-.8-.7-1.5-1.5-1.5s-1.5.7-1.5 1.5v3.5c0 2.3 1.1 4.5 2.9 5.9.3.2.6.3.9.3.4 0 .9-.2 1.2-.6.6-.6.5-1.6-.2-2.1zM424.8 455.5c.8 0 1.5-.7 1.5-1.5v-9c0-.8-.7-1.5-1.5-1.5s-1.5.7-1.5 1.5v9c0 .9.6 1.5 1.5 1.5zM424.8 479.5c.8 0 1.5-.7 1.5-1.5v-9c0-.8-.7-1.5-1.5-1.5s-1.5.7-1.5 1.5v9c0 .8.6 1.5 1.5 1.5zM561.6 500.9c-.8 0-1.5.7-1.5 1.5s.7 1.5 1.5 1.5h1.9v-3h-1.9z"/><path class="st8" d="M979.2 395H805.7c-2.2 0-4-1.8-4-4v-.3c0-2.2 1.8-4 4-4h173.5c2.2 0 4 1.8 4 4v.3c0 2.2-1.8 4-4 4z"/><path d="M933.7 395.2h-128c-2.2 0-4-1.8-4-4v-.5c0-2.2 1.8-4 4-4h128c2.2 0 4 1.8 4 4v.5c0 2.2-1.8 4-4 4z" fill="#a8cfff"/><path d="M373.4 103.3H232.3c-5.5 0-10 4.5-10 10v196.4c0 5.5 4.5 10 10 10h141.1V103.3z" fill="#d1ebff"/><path class="st11" d="M399.1 149.5H269c-4.7 0-8.5-3.8-8.5-8.5s3.8-8.5 8.5-8.5h130.1c4.7 0 8.5 3.8 8.5 8.5-.1 4.7-3.9 8.5-8.5 8.5zM438.5 258h-85.9c-4.7 0-8.5-3.8-8.5-8.5s3.8-8.5 8.5-8.5h85.9c4.7 0 8.5 3.8 8.5 8.5s-3.8 8.5-8.5 8.5z"/><path class="st12" d="M475.4 149.5h-49.3c-4.7 0-8.5-3.8-8.5-8.5s3.8-8.5 8.5-8.5h49.3c4.7 0 8.5 3.8 8.5 8.5-.1 4.7-3.9 8.5-8.5 8.5zM321.2 293.4h-49.3c-4.7 0-8.5-3.8-8.5-8.5s3.8-8.5 8.5-8.5h49.3c4.7 0 8.5 3.8 8.5 8.5-.1 4.7-3.9 8.5-8.5 8.5z"/><path class="st11" d="M334.1 187.5H269c-4.7 0-8.5-3.8-8.5-8.5s3.8-8.5 8.5-8.5h65.1c4.7 0 8.5 3.8 8.5 8.5-.1 4.7-3.9 8.5-8.5 8.5z"/><path class="st8" d="M450.7 187.5h-86.3c-4.7 0-8.5-3.8-8.5-8.5s3.8-8.5 8.5-8.5h86.3c4.7 0 8.5 3.8 8.5 8.5-.1 4.7-3.9 8.5-8.5 8.5z"/><path class="st12" d="M399.1 225.5H269c-4.7 0-8.5-3.8-8.5-8.5s3.8-8.5 8.5-8.5h130.1c4.7 0 8.5 3.8 8.5 8.5-.1 4.7-3.9 8.5-8.5 8.5z"/><path class="st11" d="M475.4 225.5h-49.3c-4.7 0-8.5-3.8-8.5-8.5s3.8-8.5 8.5-8.5h49.3c4.7 0 8.5 3.8 8.5 8.5-.1 4.7-3.9 8.5-8.5 8.5z"/><path class="st8" d="M320.1 256.3h-49.3c-4.7 0-8.5-3.8-8.5-8.5s3.8-8.5 8.5-8.5h49.3c4.7 0 8.5 3.8 8.5 8.5s-3.8 8.5-8.5 8.5z"/><circle class="st8" cx="401.5" cy="63" r="6"/><circle class="st8" cx="423.6" cy="63" r="6"/><circle class="st8" cx="445.7" cy="63" r="6"/><g><path class="st12" d="M885.3 529.9c-21.3-3.6-38.8-18.5-45.8-38.9-5.1-14.9-4.1-30.8 2.8-45 6.9-14.1 18.9-24.7 33.8-29.8 14.9-5.1 30.8-4.1 45 2.8 14.1 6.9 24.7 18.9 29.8 33.8 1.3 3.8 2.2 7.7 2.7 11.6l-9.9 1.3c-.4-3.3-1.2-6.5-2.3-9.6-8.7-25.5-36.6-39.1-62.1-30.3-12.3 4.2-22.3 13-28 24.7-5.7 11.7-6.6 25-2.3 37.3 5.8 16.9 20.4 29.3 38 32.3l-1.7 9.8z"/><path class="st13" d="M909.4 508.2l-3.9-9.2c10.3-4.4 17-14.5 17-25.7 0-15.4-12.5-27.9-27.9-27.9-7.5 0-14.6 3-19.9 8.3l-7.1-7c7.2-7.3 16.8-11.3 27-11.3 20.9 0 37.9 17 37.9 37.9 0 15.3-9.1 28.9-23.1 34.9z"/><circle class="st5" cx="894.9" cy="471.5" r="9.3"/></g><path class="st14" d="M1038.8 31H901.3c-2.2 0-4-1.8-4-4s1.8-4 4-4h137.5c2.2 0 4 1.8 4 4s-1.8 4-4 4zM951.1 53.5h-49.8c-2.2 0-4-1.8-4-4s1.8-4 4-4h49.8c2.2 0 4 1.8 4 4s-1.8 4-4 4zM1017.4 53.5h-49.8c-2.2 0-4-1.8-4-4s1.8-4 4-4h49.8c2.2 0 4 1.8 4 4s-1.8 4-4 4z"/><circle class="st5" cx="880.3" cy="27" r="5.1"/><circle class="st5" cx="880.3" cy="49.5" r="5.1"/><path class="st14" d="M983.6 79.9h-82.3c-2.2 0-4-1.8-4-4s1.8-4 4-4h82.3c2.2 0 4 1.8 4 4s-1.8 4-4 4zM528.8 413.4H421.6c-2.2 0-4-1.8-4-4s1.8-4 4-4h107.2c2.2 0 4 1.8 4 4s-1.8 4-4 4zM440.2 435.8h-49.8c-2.2 0-4-1.8-4-4s1.8-4 4-4h49.8c2.2 0 4 1.8 4 4s-1.8 4-4 4z"/><path class="st8" d="M519.5 435.8h-49.8c-2.2 0-4-1.8-4-4s1.8-4 4-4h49.8c2.2 0 4 1.8 4 4s-1.8 4-4 4zM403.5 413.4h-13.1c-2.2 0-4-1.8-4-4s1.8-4 4-4h13.1c2.2 0 4 1.8 4 4s-1.8 4-4 4zM520 462.2h-13.1c-2.2 0-4-1.8-4-4s1.8-4 4-4H520c2.2 0 4 1.8 4 4s-1.8 4-4 4zM402.1 512.9H389c-2.2 0-4-1.8-4-4s1.8-4 4-4h13.1c2.2 0 4 1.8 4 4s-1.8 4-4 4zM431.3 512.9h-13.1c-2.2 0-4-1.8-4-4s1.8-4 4-4h13.1c2.2 0 4 1.8 4 4s-1.8 4-4 4z"/><path class="st14" d="M544.6 491.5h-49.8c-2.2 0-4-1.8-4-4s1.8-4 4-4h49.8c2.2 0 4 1.8 4 4s-1.8 4-4 4zM492.8 462.2h-82.3c-2.2 0-4-1.8-4-4s1.8-4 4-4h82.3c2.2 0 4 1.8 4 4s-1.8 4-4 4zM470.8 491.5h-82.3c-2.2 0-4-1.8-4-4s1.8-4 4-4h82.3c2.2 0 4 1.8 4 4s-1.8 4-4 4z"/><circle class="st5" cx="880.3" cy="75.9" r="5.1"/><path class="st14" d="M329.6 390.9h38.9v127.2h-38.9z"/><path class="st5" d="M780.5 19.5h68.4v68.4h-68.4z"/><path class="st14" d="M778.1 103.3H1101v83.8H778.1z"/><path class="st12" d="M1090 175.5c-14.7 0-21.4-11.1-28.6-22.8-9-14.7-18.3-30-44.4-30-18.1 0-30.7 11.5-44.1 23.6-13.9 12.6-28.2 25.5-49.2 25.5-19.4 0-30.9-10.5-42.1-20.7-11.4-10.4-22.2-20.2-41.3-20.2-24 0-46.3 31.7-46.6 32-.8 1.1-2.3 1.4-3.5.6-1.1-.8-1.4-2.3-.6-3.5 1-1.4 24-34.2 50.7-34.2 21 0 33 11 44.7 21.6 10.9 10 21.3 19.4 38.7 19.4 19.1 0 32.1-11.8 45.9-24.2 13.5-12.2 27.5-24.9 47.5-24.9 29 0 39.9 18 48.7 32.4 7.1 11.6 12.6 20.8 25 20.4h.1c1.3 0 2.5 1.1 2.5 2.4 0 1.4-1 2.5-2.4 2.6-.4-.1-.7 0-1 0z"/><path class="st13" d="M796.1 173.1c-.4 0-.8-.1-1.2-.3-1.2-.7-1.6-2.2-.9-3.4.3-.5 7.5-13.1 21-25.8 18.1-16.9 38.9-25.9 60.3-25.9 29 0 46.4 13 61.9 24.4 13.1 9.7 24.5 18.2 40.6 17.7 20.8-.5 29.6-9.7 39.7-20.4 12.3-12.9 26.2-27.5 64-29.3 1.4-.1 2.5 1 2.6 2.4.1 1.4-1 2.5-2.4 2.6-35.8 1.7-48.4 14.9-60.6 27.7-10.4 11-20.3 21.3-43.2 21.9-17.9.5-30.4-8.9-43.7-18.7-15.5-11.5-31.6-23.4-58.9-23.4-48.6 0-76.7 48.7-77 49.2-.5.8-1.3 1.3-2.2 1.3z"/><g><path class="st15" d="M110.2 181.3c-7.5 8.3-5.8 21-7 32.1-1.4 13-7.5 25.6-17.7 33.8s-24.4 11.4-36.8 7.4c6.5 1.2 13.2-.8 19.1-3.7 5.4-2.7 10.6-6.2 14.3-11 3.1-4.1 5.1-8.9 7.1-13.6 5-12.2 10.1-24.4 15.1-36.6"/><path class="st16" d="M230 128.4s25.1-29 35.6-34.2c10.5-5.1 35.3-10.7 50.3-.8 13.5 8.8-2.2 16.4-13.3 13.9-11.1-2.5-14.5-2.9-17.2-.5-2.7 2.4 4.4 2 9.8 5.5s5.8 6.7 1.1 5.6c-4.8-1.1-10.7-3.8-25.4-5.4-11.1 5.3-27.3 31.7-27.3 31.7s-16.2-3.2-13.6-15.8z"/><path class="st17" d="M189.5 175c22.6-26 23.3-22.8 40.5-46.6.7 10.7 6.7 12.6 13.6 15.6 1.6.7-43.2 60.8-76.9 88.4-9.3 7.7-14.4 23.4-27.8 20.1-9.5-2.4-26.6-12.4-20.7-21.4 5.3-8 26.8-22.2 34.9-29.1 11.6-9.9 25.7-14.7 36.4-27z"/><path class="st15" d="M191.6 129.7c1.5 2.6 1.8 5.6 2.2 8.5.2 1.8.5 3.6.7 5.5.2 1.8.1 4.2-1.7 4.6-1.3.3-2.5-.6-3.4-1.5-3.3-3.2-6.7-6.6-7.6-11-1-5 .3-12.1 3.8-11.8 1.5 0 4.6 3.2 6 5.7z"/><path d="M193.3 148s9.3 21.5 10.3 27.9c1.1 6.4-11.6 6-11.6 6l1.3-33.9z" fill="#edba96"/><path class="st16" d="M195.2 145.2c-8.6-26.6-21.1-25.5-34.6-24.2-16.9 1.6-25.9 16.9-29.3 34.4-2.1 10.9 1.3 29.7 12.5 41.8.4 6.9.6 20.6-3 24.2l30 18.5s-3.2-23.2-.2-31.4c.9 0 1.9 0 2.9-.1 19.3-1.4 30.2-36.6 21.7-63.2z"/><path class="st12" d="M185.6 123.9s.2 8.9-5.2 16.5-7.7 16.3-7.7 16.3-16.6-3.2-14.2 9.5c2.4 12.7 10.9 7.8 10.9 7.8s-1.5 17.8-12.6 24.3c-6.4 3.7-14.9 2.3-14.9 2.3s-22.1-10.3-23-37.4 25.5-56.5 66.7-39.3z"/><path class="st11" d="M118.2 231.1s11.2-9.3 22.4-9.7c11.2-.3 35.9 7.5 46.4 16.2s18.4 26.1 16.5 41.3c-1.9 15.3-8.1 47.7-10.7 58.4-3.2 13.1-.6 25.5-.6 25.5s-32.8 19.7-55.7 13.9c-22.9-5.8-28.9-12.6-28.9-12.6s12.9-33.2 8.1-55.5c-6.7-30.8-4.2-72.6 2.5-77.5z"/><path class="st15" d="M168.3 180.1c-6.4 2.7-13.5 3.8-20.3 2.6-7.5-1.4-14.6-6.1-18-12.9-2.8-5.7-7.1-17.3-3.1-32 .1-.2-.4-.1-.6-.1-5 7.6-7.6 16.7-7.3 25.5.9 27.2 23 37.4 23 37.4s8.6 1.4 14.9-2.3c6.8-4 10-12.4 11.4-18.2z"/><path class="st19" d="M340.9 222c-5.9-6.5-12.4.2-18.1 5.6-3.1 2.9-7.6 5.1-11.6 7.6.3-2.1.7-5 1.2-7.6 1-4.9 3.1-8.3 0-11s-4.3 8.8-6.5 13.8c-5.5 12-5.4 26.7-5.4 26.7s-.2.4-.4 1c-4.3 10-19.6 25.7-19.6 25.7s8 26.2 10.9 21.6c2.9-4.6 18.3-44.4 18.3-44.4 14.3-6.7 37-32.5 31.2-39z"/><path class="st20" d="M147.4 523.7l14.2 66.3h49s6-78.7-3.1-106.7c-9.1-28.1-60.1 40.4-60.1 40.4zM103.4 511.8l-50 78.2H.1s42.3-99.3 53.3-113c11-13.7 50 34.8 50 34.8z"/><path class="st21" d="M95.7 502.9l-49.2-14.6C30.6 518.2 0 590 0 590h29.2l38.2-67.8c7.5 3.8 15.9 6.6 24.8 7l11.1-17.3c.1-.1-3-3.9-7.6-9zM184.4 590l-5.4-53.9c11.8-1.2 23.8-4.3 33.3-10.4-.2-7-.5-13.8-1.1-20.2l-52.8 4.3c-6.6 7.8-11.1 13.9-11.1 13.9l14.2 66.3h22.9z"/><path class="st11" d="M175.7 232.8c-15.5 4.7-7.6 28.6-1.7 46.5 5.8 17.9 21.1 52.7 64.1 56.6 43 3.9 57.5-40.1 57.5-40.1s-13.4-3.3-15.2-12c0 0-25.1 27.8-39.1 25-14.1-2.8-27.7-19.6-32.9-32.5-5.3-12.9-18.2-47.8-32.7-43.5z"/><path class="st12" d="M107.6 364.1L43.3 493s38.2 31.7 104 30.7 77.5-15.2 77.5-15.2l-32.6-145.6s-33.5 8.7-51.7 7.6-32.9-6.4-32.9-6.4z"/><path class="st11" d="M120.1 164l-.2 5.1s1.6 5.4 5.8 4.3c4.2-1.1 4.1-7.3 2.2-9.7s-5-3.2-7.8.3z"/><path class="st15" d="M160.2 369.2c-7.1 1-14.1 1.6-19.7 1.2-18.2-1.1-32.9-6.4-32.9-6.4L43.3 493s8 6.6 22.9 13.7c10.2-34.6 34.8-85.9 47.2-108.6 13-23.8 46.8-28.9 46.8-28.9z"/><path class="st16" d="M168.6 157.2s-11.5-4.3-10.1 9c1.4 13.3 12.5 14 12.5 14"/><path class="st12" d="M53.6 216.5c-17 13.1-34.3 12.3-48.2 1.7 0 0 10.1 27.1 34 30 23.9 2.9 45.1-6.2 53.7-21.6s16.8-57.9 30.9-59.2c0 0-7.2-7.7-25.7 3.3-18.4 11-27.6 32.7-44.7 45.8M166 139.3c.8 10.2 5.8 11.3 7.5 24.6 1.2 9.4-2 22.5 1.2 31.4 2.5-9 5-17.9 7.5-26.9 1.4-5 1.3-10.6 3.5-15.3 3.2-6.9 4-27.7 0-29.2"/><path class="st17" d="M168.2 239.3c-4.3 9.5 1.4 26.5 5.8 40 4.9 15.1 16.5 42.2 45.7 52.6 8.9 1.5 17.6 3 25 4.2.9 0 1.7-.1 2.6-.1-53.4-10.2-73.8-75.3-79.1-96.7z"/><path class="st15" d="M93.8 181.5c-3.6 5-5.9 10.9-9.2 16.2-7.1 11.7-23.8 27.2-37 30.8 12.3 3.4 30.3-10.7 38.5-20.5 10.3-12.3 15.2-31.9 29.2-40.5-8.5 1.7-16.4 6.9-21.5 14z"/><path class="st15" d="M30.4 233c2.5 1.6 4.6 3.7 7 5.3 5 3.4 11.2 4.7 17.3 4.5 6.4-.2 12.8-2.1 17.7-6.1 4.9-4 8.1-10.4 7.4-16.7-3 4.7-6.7 9-11.3 12.1-4.6 3.1-10.4 4.8-15.9 3.9-4-.6-7.7-2.6-11.6-3.9-5.2-1.7-11.6-2.8-16.9-1.5 2.1.4 4.4 1.1 6.3 2.4z"/><path class="st22" d="M173.6 205c-3.4-1.3-6.4-3.4-9.2-5.7-.8-.6-1.7-1.3-2.6-1.1-1.4.3-1.6 2.2-1.5 3.6.5 4.4 3.4 16.7 8.7 18h.1c0-4.4.3-8.6 1.3-11.2.9 0 1.9 0 2.9-.1 2.7-.2 5.1-1 7.4-2.4-2.4.2-4.8-.3-7.1-1.1z"/><path class="st17" d="M140.6 221.4c-11.2.3-22.4 9.7-22.4 9.7-6.7 5-9.2 46.7-2.5 77.5 4.7 21.4-7 52.6-8 55.3 0 0 3.2 2.1 10.3 3.6s12.6 1.9 12.6 1.9 13.3-41.4 10-55.2c-3.3-13.8-14.7-31.1-13.7-55 1.1-23.9 13.7-37.8 13.7-37.8z"/><path class="st15" d="M138.5 408.3l-9.3 8-23.8 88.1-2 7.4zM160.2 396.1l10.3 119.7 6.7-10.4-10.5-101.2zM181.5 421l22.2 90.8-15.3-82.8z"/></g><g><path d="M1367.1 531.7c1.9-29.5 10.5-90.5 10.5-90.5l51.7 21.8c29.9-3.4 59.8-6.8 89.8-10.3 28.1-3.2 24.7 30.2 30.9 48.8 10 30 21.5 58.6 22.1 87.7H1482c-6.6-15.3-13.3-31.3-17.8-46.4-1.1-3.6-2.1-7.2-2.9-10.7-2.6-7.9-6.9-17.3-12.6-16.9-3.4.2-5.3 5.6-6.4 12.6v61.3l-75.9.7c-.1.2-.9-32.4.7-58.1z" fill="#58aaed"/><path class="st24" d="M1509.1 535.4c17.5 22.9 22.4 46.8 23.5 53.9H1482c-6.6-15.3-13.3-31.3-17.8-46.4-1.1-3.6-2.1-7.2-2.9-10.7-1.5-4.4-3.4-9.2-5.9-12.6 0 0 32.8-11.6 53.7 15.8zM1373.2 474.4c8.9 1.8 22.5 17.6 31 38.8 10.2 25.5 23.9 75.9 23.9 75.9l-1.6.3-60.2.6s-.8-32.6.8-58.3c1-15 3.7-38.2 6.1-57.3z"/><path class="st16" d="M1363.3 293.3l-5.8 48.6 27.2 25.8 3.2-41.6.6-26.9z"/><path class="st20" d="M1390 219s-14.5 7.5-19.7 30.3c-5.2 22.8-12.8 44-12.8 44s19 7.8 25.5 6.7 7-81 7-81z"/><path class="st16" d="M1431.4 200.6s0 27.7-1.5 37.3c4 9.6 23.8 1.7 38.4-.2 14.6-1.9 16.9-20.1 7.4-28.1 4.8-10.7 9-29.2 9-29.2l-53.3 20.2z"/><path class="st22" d="M1431.2 217.4c.1-5.6.2-10.7.2-13.8l51.5-18.1s-23 35.4-38.2 37.4c-6.2.8-10.6-1.9-13.5-5.5z"/><path class="st25" d="M1478.3 204.3s-13.7 23.9-32.6 25.4c-15.1 1.1-14.3-26-14.3-26s-27.9 5.2-41.4 15.4c-10.6 7.9-12 104.8-12 104.8s-2.4 40.8-4.9 53.3c-7.1 34.5 2.7 78.4.7 87.5-2 9.1 59.4 20.1 96.2 16.7 36.8-3.3 77.8-24.4 77.8-24.4s-.6-18.8-8.4-26.8c-6.8-7 .4-25.5-5.8-33.9-6.2-8.4-9.9-65.8-8.7-78.9 1.2-13.1-8.9-90.4-8.9-90.4s-3.3-5.1-37.7-22.7z"/><path class="st19" d="M1553.9 286s14.7 31.5 20.2 52.3c5.5 20.8-16.4 34.5-43.4 36.2-27 1.7-146-6.8-146-6.8s1.6-11.9 17.2-18.9c15.6-7 32.5 1.9 43.8 2.5s34.8-6.7 53.4-8 24.8-7.5 24.8-7.5l-15.1-23 45.1-26.8z"/><path class="st20" d="M1373.7 464.6c2-9.1-7.8-53-.7-87.5.3-1.6.7-3.7 1-6.2 2.2 3.7 4.2 7.5 7 10.8 12.4 15.1 34.7 17.1 51.3 27.5 10.9 6.9 19 17.2 27.9 26.5 8.9 9.3 19.4 18 32.1 20.1 18.3 3 36.5-8.6 54.8-7 .7 4.6.8 8 .8 8s-41 21.1-77.8 24.4c-37 3.4-98.4-7.6-96.4-16.6z"/><path class="st16" d="M1530.7 374.5c-11 .7-37.1-.3-64.4-1.7 32.4-3.5 87.8-11.5 95.4-26.2 10.9-20.9-10.5-53.3-10.5-53.3l2.6-7.3s14.7 31.5 20.2 52.3c5.6 20.8-16.3 34.5-43.3 36.2z"/><path class="st25" d="M1561.8 286s-25.2 32.8-53 26.8c0 0-25.7-49.8-15.7-73.8 10-24.1 30.1-13.3 43-1 12.9 12.3 25.7 48 25.7 48z"/><path transform="rotate(-180 1346.997 385.17)" class="st8" d="M1245.9 375.1H1448v20.2h-202.1z"/><path class="st8" d="M1228.7 590l65.3-194.6h-10.7L1217.7 590zM1457.9 589.3l-64.8-193.9h10.6l65.4 193.9z"/><path d="M1342.1 374.9h100.8c5.9 0 7.4-8.7 7.4-8.7h-108.2v8.7z" fill="#94cbf2"/><path d="M1239.9 374.9h137.6c4 0 9.7 0 7.2-7.2l-42.4-90.6c-2.4-5.4-7.6-6.7-11.5-6.7l-133.2-.5c-4 0-8.7 2.8-7.2 7.2l42.4 90.6c2.4 5.1 3.2 7.2 7.1 7.2z" fill="#c2e5ff"/><path class="st20" d="M1438.5 233.9c-15.6-4.8-21.3-17.6-32-18.1-4.8-.2-9.6.4-13.5 1.1 14.3-8.9 38.4-13.4 38.4-13.4s-.8 27.2 14.3 26c18.8-1.4 32.6-25.4 32.6-25.4 34.3 17.6 37.7 22.6 37.7 22.6s.7 5.4 1.7 13.5c-3.4.5-7.7.4-13-1.1-19-5.3-26.6-12-38.4-12-11.6.1-12.2 11.7-27.8 6.8z"/><path class="st24" d="M1558.9 524.3h-1 1z"/><path class="st19" d="M1464.7 116.5c21.3 7.6 29.6 21.9 25.5 50.4s-46.5 48.5-69.4 38.5-2.3-71.1 7.2-80.2c9.4-9 17.5-15.5 36.7-8.7z"/><path d="M1427 143.2s-6.8 15-11.2 22c-4.4 7.1-5.8 14.2 4.2 15.8 9.9 1.7 7-37.8 7-37.8z" fill="#ffd2a5"/><path class="st16" d="M1425.9 127.8c6.6-1.7 13.8-1.1 20.1 1.7 7.2 3.2 13.4 9.2 16.8 16.4 1.3 2.7 9.1 11.6 4.8 12.8-3 .8-14.3-6.3-17.5-6.8-5.5-1-11.2-1.2-16.3-3.6-3.1-1.4-5.9-3.6-9.3-4-2.4-.3-4.7.3-6.9 1.3 2.7-7.6 5.7-14 8.3-17.8z"/><path class="st12" d="M1410.6 123c1.8-2.3 5.2-2.3 8.1-1.9 4 .5 8 1.3 11.5 3.2.5.3 1.1.6 1.6 1 9.7.5 62.7 30 62.7 30s1.3 5.9-1.9 17.3-12.8 15.8-12.8 15.8-4-1.3-2.3-6.9c1.6-5.7 7.3-24.1 4.4-24.7-6.6-1.5-11.3 12.3-11.3 12.3s-8.1-.4-8.2-8.8c-.1-8.4 4.9-10.3-2.6-14.6-4.7-2.7-15-6.1-26.2-9.1-4.1-1.1-14.4 1.5-18.5.8-2.8-.5-6.9-3.5-7.5-6-.7-2.9 1.3-6.2 3-8.4z"/><path class="st19" d="M1475.7 159.6s8.4-8.1 10.7 2.6-9.6 23.7-16.5 20.8"/><path class="st11" d="M1494.6 155.2s-17.1-8.3-30.5-14.8c-13.5-6.4-36.1-15.3-36.1-15.3s11.4-31 47.9-16c33.5 13.8 18.7 46.1 18.7 46.1z"/><path class="st17" d="M1457.1 137.3c-3.2-4.7-33.5-10.7-20.3-24.4 0 0-41.1-22.1-47.2-9.8-6.1 12.3 60.7 33.5 67.5 34.2z"/><path class="st20" d="M1530.1 232.8s-6.3 11.7-25.3 6.4c-3.8-1.1-7.2-2.2-10.2-3.3 8.7-16.9 23.7-12.1 35.5-3.1zM1496.8 428.8c-3.8-1.2-7.2-3.3-10.8-4.9-7.4-3.3-15.6-4.5-23.6-3.6 4.5-5.8 12.8-7.1 20-5.9 7.2 1.2 13.9 4.6 20.9 6.5 4.6 1.2 9.3 1.9 14 2.5 2.2.3 4.4.5 6.5 1.1-1.6 6.9-21.6 6-27 4.3z"/><path class="st2" d="M1448 385.2l-202.1 10.1H1448zM1286.3 395.3l-57.2 193.4 64.9-193.4zM1397.1 395.4l67.4 193.9h4.6l-65.4-193.9z"/><path d="M1239.9 374.9c-4 0-4.8-2.1-7.2-7.2l-42.4-90.6 151.8 97.8h-102.2z" fill="#b0ddff"/></g></svg>