<svg id="Layer_1" xmlns="http://www.w3.org/2000/svg" viewBox="0 0 500 500"><style>.st0{fill:#fff}.st1{fill:#bfddf5}.st2{fill:#edf7ff}.st3{fill:#d3e6f5}.st4{fill:#0076ff}.st5{fill:#0064d9}.st7{fill:#00c4ff}.st8{fill:#00b6ed}.st9{fill:#ffd8b5}.st10{fill:#f5c59d}.st11{fill:#ffe4cc}</style><path class="st0" d="M500 441.8c-15.2 6-30.3 11.9-45.5 17.9-1.2.5-1.7-1.5-.5-1.9 15.3-6 30.7-12.1 46-18.1v-21.2c-1.8.6-3.5 1.2-5.3 1.8-1.2.4-1.8-1.5-.5-1.9 1.9-.6 3.9-1.3 5.8-1.9v-9.6c-2.5 1.1-5.1 2.3-7.6 3.4-1.2.5-2.2-1.2-1-1.7 2.9-1.3 5.7-2.6 8.6-3.9v-21.6c-16 6.2-32 12.2-48.1 18-1.2.4-1.8-1.5-.5-1.9 16.3-5.9 32.5-12 48.6-18.2v-16.6l-11.1 3.9c-1.2.4-1.8-1.5-.5-1.9 3.9-1.4 7.8-2.8 11.6-4.1v-19.5c-.3.1-.7.3-1 .4-6.4 3-11.9 9.5-9.3 16.9.3.7-.5 1.4-1.2 1.2-5.6-1.5-9.8-5.4-11.8-10.7-10.5 4.7-21.2 8.7-32.2 11.8-1.3.4-1.8-1.6-.5-1.9 11.2-3.2 22.2-7.3 32.8-12.1.6-.3 1.3-.1 1.5.6 1.4 4.6 4.7 8.1 9 9.8-1.9-8.7 5.2-14.8 12.8-18.1v-13.6c-14.9 4.7-29.5 10.2-43.8 16.4-1.2.5-2.2-1.2-1-1.7 14.7-6.4 29.6-12 44.9-16.8v-11.4c-18.2 6.5-36.3 13.2-54.4 19.9-1.2.5-1.7-1.5-.5-1.9 14.1-5.3 28.3-10.5 42.4-15.6l12.6-4.5v-28.3c-19.7 6.6-39.1 14.2-57.6 24.1-1.1.6-2.2-1.1-1-1.7 13.4-7.2 27.4-13.3 41.7-18.6 5.6-2.1 11.2-4 16.9-5.9v-6.6c-12.3 3.2-24.7 6.4-37.1 9.3-1.3.3-1.8-1.6-.5-1.9 12.6-3 25.1-6.2 37.6-9.5v-105c-20.4 5.1-40.7 10.2-61.1 15.4-1.3.3-1.8-1.6-.5-1.9 20.5-5.2 41.1-10.3 61.6-15.5v-30.8l-87.1 20.3 8.3 345.2 78.8-5.4v-52.9z"/><path class="st1" d="M500 129.6l-84.3 17.1-2.8 8.1s41.5-10.7 87.1-22v-3.2z"/><path class="st1" d="M500 132.8c-45.6 11.3-87.1 22-87.1 22l87.1-20.3v-1.7z"/><path class="st2" d="M421.2 500H500v-5.4z"/><path class="st3" d="M438.4 180.8c-1.3.3-.7 2.3.5 1.9 20.4-5.1 40.7-10.2 61.1-15.4v-2.1c-20.5 5.2-41.1 10.4-61.6 15.6zM483.1 286.7c-14.3 5.3-28.2 11.4-41.7 18.6-1.1.6-.1 2.4 1 1.7 18.5-9.9 37.8-17.6 57.6-24.1v-2.2c-5.7 1.9-11.3 3.9-16.9 6zM462.4 281.6c-1.3.3-.7 2.3.5 1.9 12.4-3 24.7-6.1 37.1-9.3v-2.1c-12.5 3.3-25 6.4-37.6 9.5zM487.4 315.8c-14.2 5.1-28.3 10.3-42.4 15.6-1.2.5-.7 2.4.5 1.9 18.1-6.7 36.3-13.4 54.4-19.9v-2.1c-4.1 1.5-8.3 3-12.5 4.5zM454 457.7c-1.2.5-.7 2.4.5 1.9 15.2-6 30.3-11.9 45.5-17.9v-2.2c-15.3 6.1-30.7 12.2-46 18.2zM489 359.1c-.6-.2-1.2-.4-1.7-.6.1.6.3 1.2.5 1.8.3-.4.8-.8 1.2-1.2z"/><path class="st3" d="M487.2 358.5c.6.2 1.1.4 1.7.6l-1.2 1.2c-.2-.6-.4-1.2-.5-1.8-4.4-1.7-7.6-5.1-9-9.8-.2-.7-.9-.9-1.5-.6-10.6 4.9-21.6 8.9-32.8 12.1-1.2.4-.7 2.3.5 1.9 11-3.2 21.8-7.1 32.2-11.8-.1-.4-.3-.7-.4-1.1l1.5.6c-.4.2-.7.3-1.1.5 2 5.3 6.2 9.2 11.8 10.7.7.2 1.5-.5 1.2-1.2-2.6-7.4 3-13.9 9.3-16.9.3-.2.7-.3 1-.4v-2c-7.5 3.2-14.5 9.3-12.7 18z"/><path class="st3" d="M476.2 349.3c.1.4.2.7.4 1.1.4-.2.7-.3 1.1-.5l-1.5-.6zM451.4 398.9c-1.2.4-.7 2.4.5 1.9C468 395 484 389 500 382.8v-2.2c-16.2 6.4-32.4 12.5-48.6 18.3zM491.4 408.4c-1.2.5-.2 2.3 1 1.7 2.5-1.2 5.1-2.3 7.6-3.4v-2.2c-2.9 1.3-5.8 2.5-8.6 3.9zM494.2 418.2c-1.2.4-.7 2.4.5 1.9 1.8-.6 3.5-1.2 5.3-1.8v-2.1c-1.9.7-3.9 1.4-5.8 2zM488.4 366.1c-1.2.4-.7 2.4.5 1.9l11.1-3.9V362c-3.9 1.4-7.8 2.7-11.6 4.1zM455.1 341.5c-1.2.5-.2 2.3 1 1.7 14.3-6.2 29-11.7 43.8-16.4v-2.1c-15.1 4.9-30.1 10.5-44.8 16.8z"/><path class="st4" d="M162.4 138.2c-.9-2.9-2-5.9-3.8-8.4-2.1-2.9-5.1-4.9-8.2-6.7-5-2.9-10.4-5.2-16.1-5.9-5.7-.7-11.7.3-16.5 3.6-1.3.9-2.6 2-4.1 2.5-1.7.6-3.5.5-5.3.5-10.1.2-19.9 6-24.9 14.7-1.7 2.9-2.8 6-3.5 9.2-1.6 4.2-1.8 8.9-4.3 12.6-2.6 3.8-7 5.8-11 8.1s-8 5.8-8.2 10.4c-.3 5.5 4.9 10.8 3 16-.7 1.9-2.1 3.3-3.1 5-.2.4-.4.9-.6 1.4-.5.6-1 1.2-1.5 1.9-3.6 5.5-2 13.3 2.5 18.1 4.5 4.8 11.2 6.9 17.7 7.3 4.1.2 8.2-.2 12.1 1 5.5 1.6 9.7 5.8 14.8 8.4 8.5 4.4 19.2 3.6 27.7-.9s14.8-12.5 18.5-21.3l2-16.8c16-.4 15.2-16.6 16.7-27.7 1.7-11.2-.5-22.4-3.9-33z"/><path class="st5" d="M151.9 339s-32.8 49-43.6 64.6C97.4 419.3 31.7 500 31.7 500h51.8s73-51 102.6-96.3c17.9-2 34.5 11.5 34.5 11.5s18.1-62.9 16.6-74.5-85.3-1.7-85.3-1.7z"/><path d="M145.2 407.6c-20.7 23.4-42.9 45.4-65 67.5-6.7 6.7-33.8 24.8-33.9 25h37.2s67.4-47.2 98.8-90.9c.2-.6.4-1.3.6-1.9 4-13.8 6.4-57 7.1-71.4-15.6 24.2-31 56.1-44.8 71.7z" fill="#0058bf"/><path class="st5" d="M86.4 190.6c-2.1 2.8-5.3 4.3-8.2 6.2-2.9 1.8-5.8 4.4-6.2 7.9-.5 3.7 2.1 7.1 4.9 9.4 2 1.7 4.4 3.1 7 3.6 2.1.4 4.2.3 6.3.7 8.4 1.8 12.4 12.2 20.6 15.1 5.8 2.1 12.2-.2 17.6-3.1 12.1-6.3 23.4-16.3 26.3-29.6.6-2.5.8-5.1 1.3-7.6 1.2-7 3.7-13.7 5.5-20.6 1.8-6.9 2.8-14.2 1.1-21.1s-6.7-13.3-13.7-15c-3.8-.9-7.7-.4-11.5-1-4.4-.7-8.8-2.8-13.2-2.1-5 .8-8.6 4.9-11.8 8.8-2.4 2.9-4.7 5.7-7.7 7.9-3.3 2.4-7.1 3.9-9.4 7.4-2 3-2.9 7-3.7 10.5-1.5 7-.9 16.7-5.2 22.6z"/><path class="st7" d="M129 355.2s18.9-29.6 7.9-49.4c-11-19.8-38.4-47.9-38.4-47.9s-8.4-37 49.2-62.6 112.6-43.9 112.6-43.9l11.4 25.8s-67.4 32.5-69 45c-1.6 12.5 25.8 60.1 28.2 73.7 2.4 13.5 6.3 44.8 6.3 44.8s-23-2.5-58.1 9.7c-23 8-50.1 4.8-50.1 4.8z"/><path class="st8" d="M179.7 350.2c4.1-1.4 8-2.6 11.7-3.7 2-4.1 2.6-8.7 3.1-13.3 3.8-32.7 7.7-65.7 3.6-98.3-2.3-18.4-7.1-36.6-7.1-55.2h-6.4c-2.3.9-4.6 1.9-7 2.9 4.8 55.7 5.5 111.7 2.1 167.6z"/><path class="st9" d="M192 258.1c-.2 3.6-.4 7.2-.7 10.8 0 .7-.1 1.4-.3 2-.5 1.8-2 3-3.2 4.4-1.5 1.7-2.6 3.7-3.7 5.7.8-11.5 4.1-18 7.9-22.9z"/><path class="st8" d="M132.7 237.6c2.1.9 4.4 1.2 6.7 1.2 13.1.4 26.2-6.7 32.9-17.9-1.9 4.9-3.9 9.9-7.9 13.4-3 2.6-6.8 4-10.6 5.1-5.3 1.6-10.9 2.9-16.4 2.2-4.3-.6-9.3-2.7-11.5-6.5 2.6-.7 4.3 1.4 6.8 2.5zM129.2 249.8s7.1 20 10.2 29.4M142.5 288.6s-2-28.7-10.9-38.7M139.4 279.2l-7.8-29.4M183.8 212c.4-10.4-.3-20.8-2-31-11 4.5-22.5 9.3-34.1 14.5-23 10.2-35.5 22.3-42.2 33.1.4 2.5 2.7 3.6 8.4 1.5 3.2-1.2 5.8-3.5 8.5-5.6 8.2-6.7 17.2-12.4 26.7-17.1 5.9-2.9 12.3-5.4 18.9-5.2 6.5.2 13.3 3.6 15.8 9.8z"/><path class="st0" d="M171.6 500l22.3-183.2s-17.2-177.4-6.8-210.5l217.3 43.4s38.4 171 42 221.7C450 422.1 420.9 500 420.9 500H171.6z"/><path class="st1" d="M187.1 106.3l225.8 48.5 2.8-8.1zM193.9 316.8L171.6 500h-8.1z"/><path class="st1" d="M404.4 149.7L420.9 500l-5.2-353.3z"/><path class="st2" d="M171.6 500l42.6-164.2 202.1 62.8 4.6 101.4z"/><path class="st2" d="M418.1 459.2l-58.5-304.4 44.8 7.3zM210.2 304.9l16.6 18.3 12-3.3zM199.9 296.8l27.6-2.4 11.9-14.7zM203.8 283.6l27.6-13.8 5.6-19.1z"/><path class="st3" d="M268.2 169c-14.3 7.3-15.6 25-10.4 38.5 2.6 6.6 6.4 13.4 12.2 17.7 6 4.4 13.7 5 20.9 4.3 13.5-1.3 24.5-10.9 28.2-23.9 3.6-12.8-1.7-26.3-12-34.4-14.3-11.3-33.2-8.5-47.4 1.5-1.1.7 0 2.5 1 1.7 11.3-7.9 26.1-11.8 39.1-5.5 10.7 5.3 18.7 16.5 18.5 28.7-.2 12.1-8.3 24.1-19.8 28.2-6.3 2.3-14.5 2.7-21 .8-6.7-1.9-11.4-7.4-14.6-13.2-7.5-13.5-9.9-34.5 6.4-42.7 1.1-.5.1-2.3-1.1-1.7z"/><path class="st3" d="M280.4 178.9c-6.5 3.1-10 11.2-7.1 18 2.9 6.6 11.5 9.9 18 6.8 6.5-3 9.6-11.8 6.2-18.2-3.4-6.6-12.1-8.7-18.4-5.3-1.1.6-.1 2.4 1 1.7 5.4-2.9 12.8-1 15.7 4.6 2.9 5.6-.3 13.6-6.2 15.7-5.7 2-12.9-1.3-14.8-7.1-1.9-5.7 1.4-11.9 6.6-14.5 1.2-.5.2-2.2-1-1.7z"/><path class="st3" d="M275.9 200.2c-3.4 7.8-4.2 16.1-2.3 24.4.3 1.3 2.2.7 1.9-.5-1.8-7.8-1.1-15.6 2.1-22.9.6-1.1-1.2-2.2-1.7-1zM291.9 203.9c4 6.5 6 13.5 6 21.1 0 1.3 2 1.3 2 0 0-7.9-2.1-15.4-6.3-22.1-.6-1.1-2.4-.1-1.7 1zM264.4 189.5c.4 4.8 1.4 9.3 3.1 13.8.5 1.2 2.2.7 1.9-.5-1.3-7.9-3.7-15.4-7.2-22.6-.5-1.1-2-.3-1.8.8 1.2 6.6 2.3 13.1 3.5 19.7.2 1.3 2.1.7 1.9-.5-.9-5.9-2.3-11.6-4.2-17.2-.4-1.1-1.9-.9-2 .3-.2 5.2.1 10.2 1 15.3.2 1.2 1.9.8 2-.3.2-4.2-.7-8.1-2.7-11.8-.5-1-1.8-.4-1.9.5-.5 4.9-.3 9.8.6 14.6.2 1 1.8 1 1.9 0 .6-3.9.4-7.4-1-11.1-.4-1.1-1.9-.9-2 .3-.5 5.5.5 10.5 3 15.4.6 1.2 2.4.1 1.7-1-2.4-4.5-3.3-9.3-2.8-14.4-.7.1-1.3.2-2 .3 1.2 3.3 1.5 6.5 1 10.1h1.9c-.9-4.7-1.1-9.3-.6-14.1-.6.2-1.3.3-1.9.5 1.8 3.5 2.5 6.9 2.4 10.8.7-.1 1.3-.2 2-.3-.9-4.9-1.1-9.8-.9-14.8-.7.1-1.3.2-2 .3 1.9 5.6 3.3 11.3 4.2 17.2.6-.2 1.3-.4 1.9-.5-1.2-6.6-2.3-13.1-3.5-19.7-.6.3-1.2.5-1.8.8 3.4 7 5.7 14.4 7 22.1.6-.2 1.3-.4 1.9-.5-1.6-4.3-2.6-8.7-3-13.3.3-1.5-1.7-1.5-1.6-.2z"/><path class="st3" d="M257.7 192.3c-.9 6.1.3 11.8 3.8 16.9.6.9 2.1.4 1.8-.8-1.5-6.2-3.5-12.2-6-18-.4-.9-1.9-.4-1.9.5.4 8.7 3.5 16.7 9.2 23.3.7.8 2-.1 1.7-1-1.4-4.1-3.5-7.5-6.7-10.4-.7-.6-2 0-1.7 1 2.2 6.3 5.2 12.1 9.2 17.5.5.7 2 .6 1.9-.5-.2-2.2-.9-3.7-2.5-5.1-.8-.7-2.2.2-1.6 1.2 1.3 2 2.5 4 3.8 6 .6 1 2.1.3 1.8-.8-.7-3.9-2.3-7.1-4.7-10.2l-1.4 1.4c1.4 1.5 2.7 3 3.8 4.7.7 1.1 2.3.2 1.7-1-1.4-3.1-2.7-6.2-4.1-9.3-.6.3-1.2.7-1.7 1 2.8 4.9 4.9 10 6.4 15.4.3 1.1 2.1.9 2-.3-.4-4.1-.7-8.1-1.1-12.2-.7.1-1.3.2-2 .3.8 3.4 1.7 6.8 2.5 10.2.3 1.1 2 .9 2-.3 0-3.5-.3-7-.9-10.5-.2-1.1-2.1-.9-2 .3.3 3.3.6 6.7.9 10h2c-.8-7.3-1-14.6-.7-22-.6.2-1.3.3-1.9.5 1.1 1.4 1.5 3 1.1 4.8.7.1 1.3.2 2 .3.2-4.4-1.4-8.4-2.8-12.5-1.7-5.1-2.5-10.3-2.6-15.7h-2c.4 8.5 2.6 16.6 6.6 24.1.5-.4 1.1-.8 1.6-1.2-4.2-5-6.3-11-6.1-17.6 0-1.3-2-1.3-2 0-.2 7.1 2.1 13.6 6.7 19 .8.9 2.1-.3 1.6-1.2-3.8-7.2-6-14.9-6.4-23.1-.1-1.3-2-1.3-2 0 0 4.6.6 9.1 1.8 13.6 1.4 4.9 3.8 9.4 3.5 14.7 0 1.1 1.8 1.4 2 .3.4-2.4.1-4.3-1.3-6.3-.6-.8-1.8-.5-1.9.5-.3 7.4 0 14.7.7 22 .1 1.3 2.1 1.3 2 0-.3-3.3-.6-6.7-.9-10-.7.1-1.3.2-2 .3.6 3.3.9 6.6.9 9.9.7-.1 1.3-.2 2-.3-.8-3.4-1.7-6.8-2.5-10.2-.3-1.1-2.1-.9-2 .3.4 4.1.7 8.1 1.1 12.2.7-.1 1.3-.2 2-.3-1.6-5.6-3.8-10.8-6.6-15.9-.7-1.2-2.3-.1-1.7 1 1.4 3.1 2.7 6.2 4.1 9.3.6-.3 1.2-.7 1.7-1-1.2-1.9-2.5-3.5-4.1-5.1-.9-1-2.2.4-1.4 1.4 2.2 2.8 3.5 5.8 4.2 9.3.6-.3 1.2-.5 1.8-.8-1.3-2-2.5-4-3.8-6-.5.4-1.1.8-1.6 1.2 1.2.8 1.9 2.1 2 3.7.6-.2 1.3-.3 1.9-.5-3.9-5.2-6.9-10.8-9-17-.6.3-1.1.7-1.7 1 2.9 2.7 4.9 5.8 6.2 9.5.6-.3 1.1-.7 1.7-1-5.3-6.2-8.2-13.7-8.6-21.9-.6.2-1.3.3-1.9.5 2.4 5.7 4.3 11.5 5.8 17.5.6-.3 1.2-.5 1.8-.8-3.2-4.6-4.4-9.8-3.6-15.3.2-1.2-1.7-1.7-1.9-.5z"/><path class="st3" d="M266.3 176.8c-1.6 2.4-2.4 4.9-2.5 7.8 0 .8 1.2 1.4 1.7.7 1.7-2.2 2.2-4.6 1.3-7.2-.3-.8-1.4-1-1.8-.2-.8 1.4-1.6 2.8-2.5 4.1-.7 1.1 1 2.1 1.7 1 1.2-1.9 1.9-3.8 2.3-6 .2-1.1-1.2-1.7-1.8-.8-1.1 1.5-2.1 2.9-3.2 4.4.6.3 1.2.5 1.8.8.5-1.5 1-2.9 1.5-4.4.3-1-1-1.7-1.7-1-1.2 1.2-2.3 2.5-3.2 3.9.6.3 1.2.5 1.8.8.5-1.3 1-2.5 1.4-3.8.4-1.1-1.2-1.7-1.8-.8-1.7 2.5-3 5.2-3.9 8.1-.4 1.1 1.2 1.7 1.8.8 1.2-1.7 1.7-3.5 1.9-5.6.1-1.2-1.6-1.2-2-.3-1.7 4.3-2.4 8.7-2.1 13.3.1.9 1.1 1.3 1.7.7 1.4-1.2 2.2-2.5 2.8-4.2.4-1.2-1.5-1.8-1.9-.5-.5 1.4-1.2 2.4-2.3 3.3.6.2 1.2.5 1.7.7-.3-4.4.4-8.6 2-12.7-.7-.1-1.3-.2-2-.3-.1 1.7-.7 3.1-1.6 4.6.6.3 1.2.5 1.8.8.9-2.8 2.1-5.2 3.7-7.6-.6-.3-1.2-.5-1.8-.8-.5 1.3-1 2.5-1.4 3.8-.4 1.1 1.3 1.7 1.8.8.8-1.3 1.8-2.4 2.9-3.5-.6-.3-1.1-.7-1.7-1-.5 1.5-1 2.9-1.5 4.4-.4 1.2 1.2 1.6 1.8.8 1.1-1.5 2.1-2.9 3.2-4.4-.6-.3-1.2-.5-1.8-.8-.3 2-1 3.8-2.1 5.5.6.3 1.2.7 1.7 1 .8-1.4 1.6-2.8 2.5-4.1-.6-.1-1.2-.2-1.8-.2.7 1.9.5 3.6-.8 5.3.6.2 1.2.5 1.7.7.1-2.5.8-4.7 2.2-6.8 1-1.1-.7-2.1-1.5-1.1z"/><path class="st3" d="M261.5 178.6c-1 6-2 12-2.9 18.1.7.1 1.3.2 2 .3.5-3.8.5-7.5.2-11.3-.1-1-1.8-1.5-2-.3-1.1 5.8-1 11.5.5 17.2.3 1.2 1.9.8 2-.3.3-3.3.1-6.4-.8-9.7-.3-1.1-1.9-.8-2 .3-.5 6.1 1.1 11.8 4.7 16.9.5.7 1.6.7 1.8-.2 1.2-5.2.4-10.2-2.6-14.7-.5-.8-1.8-.5-1.9.5-.1 4.1.7 7.8 2.5 11.4.5.9 1.9.5 1.9-.5-.1-3.8-1-7.3-2.9-10.6-.5-.9-1.9-.5-1.9.5 0 4.1 1 7.8 3.1 11.3.4.7 1.7.6 1.8-.2.9-4.8.5-9.3-1.1-13.9-.4-1.2-2.2-.7-1.9.5.3 1.6.6 3.2 1 4.8.3 1.3 2.2.7 1.9-.5-.3-1.6-.6-3.2-1-4.8-.6.2-1.3.4-1.9.5 1.5 4.2 1.9 8.4 1.1 12.8.6-.1 1.2-.2 1.8-.2-1.9-3.2-2.8-6.5-2.8-10.3-.6.2-1.3.3-1.9.5 1.7 3.1 2.5 6.1 2.6 9.6.6-.2 1.3-.3 1.9-.5-1.7-3.3-2.4-6.7-2.2-10.4-.6.2-1.3.3-1.9.5 2.6 4 3.4 8.4 2.4 13.1.6-.1 1.2-.2 1.8-.2-3.4-4.7-4.8-10-4.4-15.8-.7.1-1.3.2-2 .3.8 3 1 6 .7 9.1.7-.1 1.3-.2 2-.3-1.4-5.4-1.6-10.7-.5-16.1-.7-.1-1.3-.2-2-.3.3 3.8.3 7.5-.2 11.3-.1 1.1 1.8 1.4 2 .3.9-6 1.9-12.1 2.9-18.1.4-1.4-1.6-1.9-1.8-.6z"/><path class="st3" d="M262.8 195.5c1.5 5.2 3.5 10.3 5.9 15.1.6-.3 1.2-.7 1.7-1-2.2-4.2-4.3-8.3-6.5-12.5-.5-1-2.2-.3-1.8.8 1.5 5.2 3.7 10 6.6 14.5.6.9 2.2.4 1.8-.8-1.6-5-3.3-10.1-4.9-15.1-.4-1.2-2.3-.7-1.9.5 1.3 4.4 2.9 8.6 4.8 12.8.5 1.1 2 .3 1.8-.8-.9-5.8-2.7-11.2-5.3-16.4-.6-1.2-2.2-.1-1.7 1 1.9 4.5 3.8 8.9 5.7 13.4.5 1.1 2.1.3 1.8-.8-1.4-6.5-3.5-12.7-6.2-18.7-.5-1-2.2-.3-1.8.8 1.7 5.5 3.9 10.8 6.6 15.9.5 1 2.2.3 1.8-.8-1.9-5.7-3.7-11.4-5.6-17.1-.6.2-1.3.4-1.9.5 1.7 4.6 3.4 9.2 5.1 13.7.4 1.2 2.3.7 1.9-.5-1.2-4.9-2.4-9.9-3.6-14.8-.3-1.3-2.2-.7-1.9.5.9 4.6 2.7 8.8 5.2 12.8.7 1.1 2.5.1 1.7-1-2.5-3.8-4.1-7.9-5-12.3-.6.2-1.3.4-1.9.5 1.2 4.9 2.4 9.9 3.6 14.8.6-.2 1.3-.4 1.9-.5-1.7-4.6-3.4-9.2-5.1-13.7-.4-1.2-2.4-.7-1.9.5 1.9 5.7 3.7 11.4 5.6 17.1.6-.3 1.2-.5 1.8-.8-2.6-4.9-4.7-10.1-6.4-15.4-.6.3-1.2.5-1.8.8 2.6 5.9 4.6 11.9 6 18.2.6-.3 1.2-.5 1.8-.8-1.9-4.5-3.8-8.9-5.7-13.4-.6.3-1.2.7-1.7 1 2.5 5.1 4.2 10.3 5.1 15.9.6-.3 1.2-.5 1.8-.8-1.9-4-3.4-8.1-4.6-12.3-.6.2-1.3.4-1.9.5 1.6 5 3.3 10.1 4.9 15.1.6-.3 1.2-.5 1.8-.8-2.9-4.4-5-9-6.4-14-.6.3-1.2.5-1.8.8 2.2 4.2 4.3 8.3 6.5 12.5.6 1.2 2.3.1 1.7-1-2.4-4.7-4.3-9.6-5.7-14.6-.4-1.1-2.3-.6-1.9.7z"/><path class="st3" d="M265.2 180.6c.9 7.3 2.5 14.3 5 21.2.4 1 2.1.9 2-.3-.3-3.3-1-6.5-2-9.6-.4-1.3-2.2-.7-1.9.5.7 4.1 1.5 8.3 2.2 12.4.2 1 1.7.9 1.9 0 .4-1.6.4-2.6-.1-4.1-.3-1.1-2-.9-2 .3v8.6c0 1.3 2 1.3 2 0v-5.3c0-1.3-2-1.3-2 0 0 1.8-.3 3.4-.8 5.1.7.1 1.3.2 2 .3-.3-5.5-.5-11-.8-16.5-.1-1.3-2-1.3-2 0 0 3.3 0 6.6-.1 9.9.7-.1 1.3-.2 2-.3-1.8-6.1-3.6-12.2-5.3-18.2-.3-1.1-1.9-.9-2 .3-.3 5.6.3 10.9 1.8 16.3.3 1.1 1.9.9 2-.3.3-6.3-.9-12.2-3.6-17.9-.3-.7-1.7-.6-1.8.2-1 7.6-.2 14.9 2.6 22 .5 1.2 2.4.7 1.9-.5-2.7-6.7-3.6-13.8-2.6-20.9-.6.1-1.2.2-1.8.2 2.5 5.4 3.6 11 3.3 16.9.7-.1 1.3-.2 2-.3-1.5-5.2-2-10.4-1.7-15.8-.7.1-1.3.2-2 .3 1.8 6.1 3.6 12.2 5.3 18.2.3 1.1 2 .9 2-.3 0-3.3 0-6.6.1-9.9h-2c.3 5.5.5 11 .8 16.5.1 1.1 1.6 1.4 2 .3.6-1.9.9-3.6.9-5.6h-2v5.3h2V201c-.7.1-1.3.2-2 .3 0 1 .1 2 .1 3.1h1.9c-.7-4.1-1.5-8.3-2.2-12.4-.6.2-1.3.4-1.9.5 1 3 1.6 6 1.9 9.1.7-.1 1.3-.2 2-.3-2.4-6.7-4-13.6-4.9-20.7-.4-1.3-2.4-1.3-2.2 0z"/><path class="st3" d="M259.4 186.7c-1.7 7-.8 14 2.9 20.3.4.8 1.6.6 1.8-.2 2-6.8.9-13.8-3-19.7-.5-.7-1.6-.6-1.8.2-2.7 8-.7 16.6 5.2 22.7.4.4 1.3.4 1.6-.2.8-1.7 1.5-3.4 2.3-5.2.5-1.2-1.2-2.2-1.7-1-.8 1.7-1.5 3.4-2.3 5.2.5-.1 1.1-.1 1.6-.2-5.4-5.6-7.1-13.4-4.7-20.7-.6.1-1.2.2-1.8.2 3.7 5.5 4.7 11.8 2.8 18.2.6-.1 1.2-.2 1.8-.2-3.3-5.8-4.3-12.2-2.7-18.7.2-1.5-1.7-2-2-.7z"/><path class="st3" d="M263.7 188.4c-1.5 7.7.3 15.1 5.1 21.3.8 1 2.2-.4 1.4-1.4-4.3-5.6-5.9-12.4-4.6-19.3.3-1.4-1.6-1.9-1.9-.6z"/><path class="st3" d="M269.4 197.5c0 3.2 0 6.4-.1 9.6 0 1.2 1.7 1.3 2 .3.5-1.6 1-3.3 1.5-4.9-.7-.1-1.3-.2-2-.3.1 1.9.1 3.8.2 5.7 0 1.3 2.1 1.3 2 0 0-2 .2-3.9.8-5.8-.7-.1-1.3-.2-2-.3.1 2.8-.2 5.5-.8 8.2.7.1 1.3.2 2 .3.2-2.6.7-5 1.5-7.4-.7-.1-1.3-.2-2-.3 0 2.9-.4 5.5-1.3 8.3.6.2 1.3.4 1.9.5.5-2.6 1-5.1 1.5-7.7.3-1.3-1.6-1.8-1.9-.5-2 6.9-2.6 13.9-1.9 21 .1 1.3 2.1 1.3 2 0-.7-7-.1-13.8 1.9-20.5-.6-.2-1.3-.4-1.9-.5-.5 2.6-1 5.1-1.5 7.7-.3 1.3 1.6 1.8 1.9.5.9-2.9 1.4-5.7 1.4-8.8 0-1.2-1.6-1.3-2-.3-.9 2.6-1.4 5.2-1.6 8-.1 1.1 1.7 1.4 2 .3.7-2.9 1-5.8.9-8.8 0-1.1-1.7-1.4-2-.3-.6 2.1-.9 4.1-.8 6.3h2c-.1-1.9-.1-3.8-.2-5.7 0-1.1-1.6-1.4-2-.3-.5 1.6-1 3.3-1.5 4.9.7.1 1.3.2 2 .3 0-3.2 0-6.4.1-9.6 0-1.2-2.1-1.2-2.1.1zM308.2 192.7c.3 3.9 1.2 7.5 3 11 .4.9 2 .5 1.9-.5-.8-6.4-2.6-12.3-5.5-18.1-.5-.9-1.9-.5-1.9.5.1 5.1 1.1 9.9 3.2 14.6.5 1.1 2 .3 1.8-.8-.9-5.5-2.9-10.4-6.1-15-.6-.9-2.2-.4-1.8.8.9 2.6 1.8 5.2 2.6 7.8.4 1.3 2.1.7 1.9-.5-.9-6.8-5.1-12.5-11.3-15.6-1.1-.5-1.9.7-1.2 1.6 5.5 7 10.3 19.4.2 25l1.4 1.4c.5-.7.9-1.3 1.4-2 .7-1-.8-2-1.6-1.2-.7.6-1.3 1.2-2 1.8l1.4 1.4c3.4-3.4 4.7-7.7 3.8-12.5-.2-1.3-2.2-.7-1.9.5 0 .2.1.5.1.7.2 1.3 2.2.7 1.9-.5 0-.2-.1-.5-.1-.7-.6.2-1.3.4-1.9.5.7 4-.4 7.6-3.3 10.5-.9.9.5 2.3 1.4 1.4.7-.6 1.3-1.2 2-1.8-.5-.4-1.1-.8-1.6-1.2-.5.7-.9 1.3-1.4 2-.6.9.5 1.9 1.4 1.4 11.3-6.3 6.5-20.2.2-28.2-.4.5-.8 1.1-1.2 1.6 5.8 2.8 9.5 8 10.3 14.4.6-.2 1.3-.4 1.9-.5-.9-2.6-1.8-5.2-2.6-7.8-.6.3-1.2.5-1.8.8 3 4.4 5 9.2 5.9 14.5.6-.3 1.2-.5 1.8-.8-1.9-4.4-2.8-8.8-2.9-13.6-.6.2-1.3.3-1.9.5 2.8 5.4 4.5 11 5.3 17.1.6-.2 1.3-.3 1.9-.5-1.6-3.2-2.5-6.4-2.8-10 .1-1.3-2-1.3-1.9 0z"/><path class="st3" d="M293.8 204.6c3.7 4.8 6 10.3 6.5 16.4.1 1.3 2.1 1.3 2 0-.6-6.4-2.8-12.3-6.8-17.4-.8-1.1-2.5-.1-1.7 1z"/><path class="st3" d="M301.8 204.8c-.2 2.7.1 5.2.9 7.8.3 1.1 1.9.9 2-.3.2-2.8 0-5.5-.6-8.2-.2-1-1.7-.9-1.9 0-.7 3.1-.3 5.9 1.4 8.6.4.7 1.7.7 1.8-.2.5-2.8.4-5.5-.2-8.3-.2-.8-1.2-1-1.7-.4-.8.8-2 3.5-1.6 4.5-.3-.7-1.7-.6-1.8.2-.3 2.2.1 7 3.5 6 4.2-1.2 4.4-10.3 4.5-13.6 0-1.3-2-1.3-2 0l-.3 7.5c0 1 1.4 1.4 1.9.5 1.4-2.8 2-5.4 1.9-8.5-.1-1.3-2-1.3-2 0V211h2c-.1-6.3-1.4-12.1-3.9-17.9-.6.3-1.2.7-1.7 1 3.2 6.7 4 13.9 2.3 21.1-.2.9 1 1.8 1.7 1 7.1-8.1 9.8-18.9 7.3-29.4-.3-1.1-2-.9-2 .3v13.3c0 1.1 1.8 1.4 2 .3.3-2.2.7-4.5 1-6.7.2-1.3-1.7-1.8-1.9-.5l-3.6 16.5c-.2.9 1 1.8 1.7 1 12.7-15.4-1.7-38-18.5-42.3-9.3-2.4-19.7-.2-27.2 5.7-5.9 4.6-10.5 14.3-2.6 19.5.5.4 1.3 0 1.5-.6 1.8-7.2 6-14 12.9-17.3 6.7-3.1 14.9-1.9 19.9 3.5.9 1 2.3-.5 1.4-1.4-5.3-5.8-13.9-7.3-21.1-4.4-8 3.2-13 10.9-15.1 19l1.5-.6c-9.3-6.1 2-16.6 8.1-19.5 7.5-3.5 16.3-4 24-.7 13.3 5.6 24.4 24.7 13.8 37.6.6.3 1.1.7 1.7 1l3.6-16.5c-.6-.2-1.3-.4-1.9-.5-.3 2.2-.7 4.5-1 6.7.7.1 1.3.2 2 .3v-13.3c-.7.1-1.3.2-2 .3 2.3 9.8-.2 19.9-6.8 27.5.6.3 1.1.7 1.7 1 1.9-7.8 1-15.5-2.5-22.7-.6-1.2-2.3-.1-1.7 1 2.4 5.4 3.6 11 3.6 16.8 0 1.3 2 1.3 2 0v-10.6h-2c.1 2.8-.3 5-1.6 7.5.6.2 1.3.3 1.9.5l.3-7.5h-2c-.1 2.4-.4 4.8-1 7.2-.2.8-.4 2.2-1 2.9-.1 1.2-.6 1.3-1.3.2-1-.4-1.3-1.1-.8-2.1-.6.1-1.2.2-1.8.2.5 1.1 1.6 1.3 2.7.7 2.1-1.1.6-3.4 2.1-4.8-.6-.1-1.1-.3-1.7-.4.5 2.5.6 4.7.2 7.2.6-.1 1.2-.2 1.8-.2-1.4-2.3-1.8-4.4-1.2-7h-1.9c.5 2.6.7 5.1.5 7.7.7-.1 1.3-.2 2-.3-.7-2.4-1-4.8-.8-7.3-.3-1.5-2.4-1.5-2.4-.2z"/><path class="st3" d="M276 183.6c-.6-1.7-2.2-1.5-3.4-.4-.8.8-1.1 1.7-1.4 2.8-.5 1.8-1.1 3.7-1.6 5.5-.3 1.1 1.3 1.8 1.8.8 1.1-1.8 1.6-3.7 1.7-5.7h-2v6.4c0 1.1 1.3 1.3 1.9.5 1.1-1.5 1.3-3.3.8-5.1-.2-.7-1.5-1.1-1.8-.2-.8 1.9-1 3.6-.7 5.7.2 1.3 2.2.7 1.9-.5-.2-1.4-.1-2.8.5-4.1-.6-.1-1.2-.2-1.8-.2.4 1.3.2 2.4-.6 3.5.6.2 1.3.3 1.9.5v-6.4c0-1.3-2-1.3-2 0 0 1.7-.5 3.2-1.4 4.7.6.3 1.2.5 1.8.8.4-1.5.9-2.9 1.3-4.4.2-.7.3-1.6.6-2.2.1-.2.3-.4.4-.6.5-.2.6-.4.2-.6.4.9 2.4.4 1.9-.8z"/><path class="st3" d="M272 186.8c-1.9 6.6.6 13.1.4 19.8 0 1.3 2 1.3 2 0 .2-6.4-2.3-12.9-.5-19.2.5-1.3-1.5-1.8-1.9-.6zM291.1 204c.2.5.3 1 .5 1.5.2.1.3.3.5.4l1.2 1.2c.7.7 1.4 1.5 2.1 2.3 1.4 1.7 2.5 3.6 3.4 5.5.6 1.2 2.3.1 1.7-1-1.8-3.8-4.5-7.4-7.8-10-.8-.7-2.2-1.5-3.1-.4-.6.7-.4 1.9.4 2.3 1.3.5 2.3-1.3 1.1-1.8z"/><path class="st3" d="M291.8 206.4c1.6.9 2.8 2.2 3.6 3.8.5 1.2 2.3.2 1.7-1-.9-1.9-2.4-3.5-4.3-4.6-1.1-.6-2.1 1.2-1 1.8zM214.6 172c15.3 1.5 30.3 4.4 45.1 8.6 1.3.4 1.8-1.6.5-1.9-14.9-4.2-30.2-7.1-45.6-8.6-1.2-.3-1.2 1.8 0 1.9zM318.1 193.9c21.8 2.1 43.3 5.9 64.5 11.6 1.3.3 1.8-1.6.5-1.9-21.3-5.7-43.1-9.6-65-11.7-1.3-.1-1.3 1.9 0 2zM211.8 173.3l-.9 88.1c0 1.3 2 1.3 2 0l.9-88.1c0-1.3-2-1.3-2 0zM210.6 274.2c0 38.2-.2 76.8-10 114-.3 1.3 1.6 1.8 1.9.5 9.8-37.4 10-76.2 10.1-114.5 0-1.3-2-1.3-2 0zM384.7 209.7c2 67.1 3.9 134.2 5.9 201.3 0 1.3 2.1 1.3 2 0-2-67.1-3.9-134.2-5.9-201.3 0-1.3-2-1.3-2 0zM205.3 396.5c34.3 7.3 68.5 14.6 102.8 22 1.3.3 1.8-1.7.5-1.9-34.3-7.3-68.5-14.6-102.8-22-1.2-.4-1.7 1.6-.5 1.9zM334.9 428c13.5 4.1 27.4 6.8 41.5 8.2 3.7.4 10.9 2.4 13.6-1.2 2.9-4 2.8-12 2.7-16.7 0-1.3-2-1.3-2 0 .1 5.2.5 15.3-5.9 16.5-2.2.4-5.4-.4-7.6-.6-3-.3-6-.6-9-1-11.1-1.5-22-3.9-32.7-7.2-1.3-.3-1.8 1.6-.6 2zM199.8 412.8c2.2.4 4.5.9 6.7 1.3 1.2.2 2.5.5 3.7.7 2.1.4 2.8.1 3.7 2.3 1.7 4.1-.7 10.9-1.3 15.3-.2 1.3 1.8 1.8 1.9.5l1.8-12c.2-1.6 1.1-4.3.2-5.8-.9-1.5-2.8-1.6-4.3-1.9-4-.8-8-1.6-11.9-2.4-1.2-.2-1.7 1.8-.5 2zM196.4 412.3l-1.5 9.6c-.2 1.6-1.3 4.5-.5 6.2.6 1.3 2.2 1.5 3.4 1.9 3.1 1 6.2 1.8 9.4 2.8 1.3.4 1.8-1.6.5-1.9l-6-1.8c-2.5-.7-5.2-.6-5.3-3.8-.1-3.9 1.3-8.5 1.9-12.4.3-1.3-1.7-1.9-1.9-.6zM227.4 422c8.6 1.6 17.2 3.2 25.7 4.7 1.3.2 1.8-1.7.5-1.9-8.6-1.6-17.2-3.2-25.7-4.7-1.2-.3-1.8 1.6-.5 1.9zM223.3 432c14.9 4 30 7.3 45.2 9.8 1.3.2 1.8-1.7.5-1.9-15.2-2.5-30.3-5.7-45.2-9.8-1.2-.4-1.7 1.5-.5 1.9zM228.2 355c.1 0 .2-.1.3-.1.3-.1.5-.6.5-.9-.1-.8-.2-1.1-.9-1.6-.3-.2-.7-.2-1 0-2.5 1.7-2.7 6.5-3.4 9.2-1.2 5-2.2 10-3.1 15-.2 1.3 1.7 1.8 1.9.5.7-3.8 1.4-7.5 2.2-11.3.4-1.7.8-3.5 1.2-5.2.1-.6 1.7-7.6 1.1-7.4-1.1.6 0 2.3 1.2 1.8z"/><path class="st3" d="M222.4 378.3c23 11.3 49 13.6 74 17.1 6.8.9 13.7 1.9 20.5 2.8 3.4.5 6.8.9 10.2 1.4 2.9.4 5.9 1.2 8.8 1.2 4.8-.1 4.9-5.3 5.6-9 1.3-6.5 1.9-13 1.9-19.6 0-1.3-2-1.3-2 0-.1 6.4-.6 12.8-1.8 19.1-.2 1.2-.3 2.7-.8 3.8 0 1.6-.8 2.4-2.6 2.5-1.2 1-2.4 1.2-3.8.8-2.8 0-5.9-.8-8.7-1.2-11.8-1.6-23.6-3.3-35.5-4.9-22.1-3.1-44.6-5.8-64.9-15.7-1-.6-2.1 1.1-.9 1.7z"/><path class="st3" d="M226.8 356.4c38.2 3.6 76.2 9.5 113.7 17.8 1.3.3 1.8-1.7.5-1.9-37.7-8.3-75.8-14.2-114.2-17.8-1.3-.2-1.3 1.8 0 1.9zM230.2 304.7c-1.6 7.4-2.9 14.9-3.7 22.4 0 .4.3.9.7 1 38.4 9.9 77.4 17.5 116.7 22.7.6.1 1-.5 1-1 .2-7.4 1-14.7 2.5-21.9.3-1.3-1.7-1.8-1.9-.5-1.5 7.4-2.4 14.9-2.6 22.4l1-1c-23.1-3.1-46.1-7-69-11.7-11.2-2.3-22.4-4.8-33.5-7.5-2.5-.6-5.1-1.2-7.6-1.9-.7-.2-4-.6-4.5-1.2-1-1-.4-2.5-.3-3.7.8-5.9 1.8-11.8 3.1-17.6.3-1.2-1.6-1.8-1.9-.5z"/><path class="st3" d="M231.5 306c37.8 5.4 75.5 11.5 113.1 18.3 1.3.2 1.8-1.7.5-1.9-37.6-6.8-75.3-12.9-113.1-18.3-1.3-.2-1.8 1.7-.5 1.9zM234.5 257.9c-1 5.9-2 11.9-3 17.8-.2 1.3 1.7 1.8 1.9.5 1-5.9 2-11.9 3-17.8.2-1.3-1.7-1.8-1.9-.5z"/><path class="st3" d="M231.3 278.9c38.1 7.4 76.4 13.8 114.9 19.2 1.3.2 1.8-1.8.5-1.9-38.4-5.4-76.7-11.8-114.9-19.2-1.2-.3-1.8 1.7-.5 1.9z"/><path class="st3" d="M238.1 257.4c22.6 2 45.1 5.3 67.3 9.8 10.6 2.2 21.2 4.6 31.7 7.4 2.5.6 6 1 8.2 2.2 2.3 1.3.9 5 .6 7.4-.8 6.1-1.8 12.2-2.8 18.3-.2 1.3 1.7 1.8 1.9.5 1.6-8.8 2.8-17.7 3.8-26.5 0-.4-.3-.9-.7-1-36-10.1-72.8-16.8-110.1-20.1-1.2-.2-1.2 1.9.1 2zM237.8 246.1c10.5 2 21.1 3.2 31.8 3.5 1.3 0 1.3-2 0-2-10.5-.3-20.9-1.4-31.2-3.4-1.3-.3-1.8 1.7-.6 1.9zM234.1 300.5c14.8 1 29.5 2.7 44.1 4.9 1.3.2 1.8-1.7.5-1.9-14.8-2.3-29.7-4-44.6-5-1.3-.1-1.3 2 0 2zM357.8 288.7c-.2-1-.4-1.9-.6-2.9-.6.3-1.2.5-1.8.8 1.2 2.7 2.2 6.6 4.1 8.8.8 1 1.7 1.4 2.9 1 2.2-.6 4-3.7 5.4-5.3 2.3-2.6 4.6-5.3 6.8-8 .8-1-.6-2.4-1.4-1.4-2.8 3.4-5.6 6.7-8.5 9.9-.4.5-1.2 1.7-1.8 1.9-2.2.9-2.3-.6-2.9-1.8-1-2.1-1.9-4.2-2.9-6.2-.5-1.1-2.1-.3-1.8.8.2 1 .4 1.9.6 2.9.2 1.3 2.2.7 1.9-.5zM352.7 337.2c1.7 3 3.3 6.1 5 9.1.3.6 1.1.6 1.6.2 5.2-4.6 9.7-9.8 13.5-15.6.7-1.1-1-2.1-1.7-1-3.7 5.7-8.1 10.7-13.2 15.2.5.1 1.1.1 1.6.2-1.7-3-3.3-6.1-5-9.1-.7-1.2-2.4-.1-1.8 1zM241.5 321.2v-.8c0-1.3-2-1.3-2 0v.8c0 1.3 2 1.3 2 0zM251 323.3c1.6 0 1.6-2.5 0-2.5s-1.6 2.5 0 2.5zM261.5 325.7c1.6 0 1.6-2.5 0-2.5s-1.6 2.5 0 2.5zM273.7 328.1c1.6 0 1.6-2.5 0-2.5s-1.6 2.5 0 2.5zM283.4 328.3h-.8c-1.3 0-1.3 2 0 2h.8c1.3 0 1.3-2 0-2zM297.3 332.6v-.8c0-1.3-2-1.3-2 0v.8c0 1.3 2 1.3 2 0zM227.1 373.4c18.7 3.1 37.3 6.1 56 9.2l27.6 4.5c8.7 1.4 17.3 3 26.1 2.5.5 0 .8-.3 1-.7.8-2.1 1-3.9.6-6.2-.1-.3-.4-.6-.7-.7-18.9-3.6-37.7-7.2-56.6-10.9-8.5-1.6-17.1-3.5-25.8-3.8-9.3-.4-18.8.6-27.7-2.8-.5-.2-1.2.2-1.2.7-.2 1.7-.5 3.4-.7 5.1-.2 1.3 1.8 1.8 1.9.5.2-1.7.5-3.4.7-5.1-.4.2-.8.5-1.2.7 6 2.3 12.3 2.7 18.7 2.8 7.4.1 14.6.3 22 1.5 14.1 2.3 28.2 5.3 42.3 8 7.2 1.4 14.5 2.8 21.7 4.2 1.7.3 4.5.2 4.9 2.4.5 2.6-1.9 2.5-3.6 2.5-3.8 0-7.5-.4-11.2-.9-14.9-2-29.7-4.8-44.5-7.2-16.6-2.7-33.1-5.4-49.7-8.1-1.3-.4-1.8 1.6-.6 1.8zM305.3 219.9c.6-1.3 1.1-2.5 1.7-3.8-.6-.3-1.2-.5-1.8-.8-.1.8-.3 1.6-.6 2.4-.1.3-.2.7-.3 1-.1.3-.2.5-.3.8-.3.5-.1 1 .5 1.5-.3 0-.5.1-.8.1h.1c1.2.5 1.7-1.5.5-1.9-1.8-.7-2.2 3 0 2.6 1-.2 1.4-1.2 1.7-2.1.5-1.2.8-2.5 1-3.8.2-1-1.4-1.9-1.8-.8-.6 1.3-1.1 2.5-1.7 3.8-.5 1.1 1.2 2.2 1.8 1zM264 171.4c-3.9.1-7.2 2.7-8.2 6.5-.3 1.3 1.6 1.8 1.9.5.8-2.9 3.3-4.9 6.3-5 1.3 0 1.3-2.1 0-2z"/><path class="st3" d="M258.9 172.7c-2.8 3.8-4.3 8.1-4.7 12.8-.1 1.3 1.9 1.3 2 0 .4-4.3 1.9-8.2 4.5-11.7.7-1.2-1-2.2-1.8-1.1zM200.9 391.3c.5.8 1.1 1.6 1.6 2.4.3.5.9.6 1.4.4.5-.3.7-.9.4-1.4-.5-.8-1.1-1.6-1.6-2.4-.3-.5-.9-.6-1.4-.4-.5.2-.7.9-.4 1.4zM439 191c-1.7 3-1.1 6.5-1.1 9.8.1 5.1.1 10.2.2 15.4l.3 29.9.6 59.8c0 1.3 2 1.3 2 0l-.6-56.6-.3-27.5c0-4.9-.1-9.7-.1-14.6 0-2.2 0-4.3-.1-6.5 0-2.7-.6-6.3.8-8.8.7-1-1-2-1.7-.9zM450.5 276v11c0 1.1 1.7 1.4 2 .3.6-3-2.2-12.7 3.2-12.5-.3-.2-.6-.5-1-.7 1.5 4.8 1.8 9.7 1 14.7-.2 1.3 1.7 1.8 1.9.5.9-5.3.6-10.6-1-15.8-.1-.4-.5-.7-1-.7-7.6-.3-4.3 10-5.1 14 .7.1 1.3.2 2 .3v-11c0-1.4-2-1.4-2-.1zM441.9 328.5c.1 41.8 2.1 83.7 6 125.3.1 1.3 2.1 1.3 2 0-4-41.7-6-83.5-6-125.3 0-1.3-2-1.3-2 0zM453 373.8c-.3 3.3 0 6.5.8 9.7.3 1.1 2 .9 2-.3 0-2.8-1.4-9.7 1.2-11.5 1.3-1 3.8-1.3 5.4-1.8 1.7-.5 3.4-1.1 5.1-1.6-.4-.3-.9-.6-1.3-1 .3 3.1 2.5 10-.2 12.2-1.3 1-3.4 1.7-4.8 2.4-2 1-4 2-6.1 3-1.2.6-.1 2.3 1 1.7 2.4-1.2 4.8-2.4 7.3-3.6 1.6-.8 4.4-1.6 5.4-3.2.8-1.2.6-2.4.4-3.8-.3-3-.7-5.9-1-8.9-.1-.6-.6-1.2-1.3-1-2.5.8-5.1 1.6-7.6 2.4-1.6.5-3.4.9-4.5 2.2-.8.9-.9 1.9-1 3.1-.2 3 0 6.1.1 9.1.7-.1 1.3-.2 2-.3-.8-3-1-6-.8-9.1 0-1-2-1-2.1.3z"/><path class="st3" d="M454.2 375.7c3.9-1.8 7.8-3.5 11.7-5.3 1.1-.5.2-2-.8-1.8-3.8.5-7.1 2.3-9.7 5.2-.8.9.2 2 1.2 1.6l7.8-3.3c-.4-.5-.8-1.1-1.2-1.6-2.2 1.9-4.5 3.5-7 5-1 .6-.3 2.2.8 1.8 3-1 5.7-2.2 8.4-3.8-.4-.5-.8-1.1-1.2-1.6-2.2 1.9-4.4 3.8-6.7 5.7-.9.8.2 2.1 1.2 1.6 2-1.1 4-1.7 6.3-1.9-.2-.6-.5-1.2-.7-1.7-1.9 1.6-4 2.8-6.2 3.7.3.6.5 1.2.8 1.8 2.5-1.3 5-2.2 7.7-3-.3-.6-.7-1.1-1-1.7a53.2 53.2 0 0 1-7.9 5.5c-1 .5-.3 2.3.8 1.8 2-.8 4-1.6 6-2.3-.4-.5-.8-1-1.1-1.5-.9 1.8-3.2 2.3-4.8 1.1-2.2-1.6-1.4-4.6-.1-6.5-.6-.3-1.2-.5-1.8-.8-.6 1.7-1.3 3.4-1.9 5.1.6-.1 1.2-.2 1.8-.2-.5-.8-.9-1.7-1.4-2.5-.4-.7-1.7-.6-1.8.2-.3 1.2-.3 2 0 3.2.2.8 1.4 1 1.8.2.8-1.3 1.5-2.6 2.3-3.9.7-1.1-1.1-2.1-1.7-1-.8 1.3-1.5 2.6-2.3 3.9.6.1 1.2.2 1.8.2v-2.1c-.6.1-1.2.2-1.8.2.5.8.9 1.7 1.4 2.5.5.8 1.6.5 1.8-.2.6-1.7 1.3-3.4 1.9-5.1.4-1.1-1.2-1.6-1.8-.8-2 2.8-2.3 7.3.9 9.3 2.5 1.6 6.1.8 7.5-1.9.4-.7-.3-1.8-1.1-1.5-2 .8-4 1.6-6 2.3.3.6.5 1.2.8 1.8 3-1.7 5.7-3.6 8.3-5.8.8-.7-.1-1.9-1-1.7-2.8.8-5.6 1.8-8.2 3.2-1 .5-.3 2.3.8 1.8 2.6-1.1 4.9-2.5 7.1-4.3.7-.5.1-1.8-.7-1.7-2.6.3-5 1-7.3 2.2.4.5.8 1.1 1.2 1.6 2.2-1.9 4.4-3.8 6.7-5.7.9-.8-.3-2.2-1.2-1.6-2.5 1.5-5.2 2.7-7.9 3.6.3.6.5 1.2.8 1.8 2.6-1.5 5.1-3.3 7.4-5.3.9-.8-.3-2-1.2-1.6l-7.8 3.3c.4.5.8 1.1 1.2 1.6 2.4-2.6 5.3-4.2 8.8-4.7-.3-.6-.5-1.2-.8-1.8-3.9 1.8-7.8 3.5-11.7 5.3-1.4.9-.4 2.6.8 2.1z"/><path class="st3" d="M464.2 370.6c.1 2.1.1 4.2.2 6.3 0 1.1 1.7 1.4 2 .3.5-1.7 1-3.5 1.6-5.2h-1.9c.4 1.8.9 3.5 1.3 5.3.2.9 1.7 1 1.9 0 .5-2.3-.2-4.6-2-6.2-.5-.5-1.6-.4-1.7.4-.2 1.4-.2 2.7.3 4 .4 1.1 1.9.9 2-.3.2-1.7-.1-3.2-.8-4.7-.5-1-1.8-.4-1.9.5-.1 1.4-.1 2.8-.2 4.2.4-.3.9-.6 1.3-1 .7.2-.8 1.6-1 1.9-1 .9.5 2.3 1.4 1.4.8-.7 1.5-1.6 1.4-2.8-.1-.9-.8-1.7-1.8-1.8-1.8-.1-2.3 2.7-.5 3.2.7.2 1.3-.3 1.3-1 .1-1.4.1-2.8.2-4.2-.6.2-1.3.3-1.9.5.6 1.2.7 2.4.6 3.7.7-.1 1.3-.2 2-.3-.4-1-.5-1.9-.3-3-.6.1-1.1.3-1.7.4 1.2 1.1 1.8 2.6 1.5 4.2h1.9c-.4-1.8-.9-3.5-1.3-5.3-.3-1-1.7-.9-1.9 0-.5 1.7-1 3.5-1.6 5.2.7.1 1.3.2 2 .3-.1-2.1-.1-4.2-.2-6.3-.2-1-2.2-1-2.2.3zM456.1 375.9c-.6 2.4-1.1 4.9-1.7 7.3h1.9c-.8-2.7-.9-5.5-.4-8.3-.6.1-1.2.2-1.8.2 1 2.1 1.4 4.2 1.2 6.6h2c-.2-2.8-.7-5.4-1.7-8-.4-1-2-.9-2 .3v4.7c0 1.3 2 1.3 2 0V374c-.7.1-1.3.2-2 .3.9 2.4 1.5 4.9 1.6 7.5.1 1.3 1.9 1.3 2 0 .2-2.7-.3-5.2-1.5-7.6-.4-.8-1.7-.6-1.8.2-.6 3.2-.5 6.3.4 9.4.3.9 1.7 1 1.9 0 .6-2.4 1.1-4.9 1.7-7.3.5-1.3-1.5-1.8-1.8-.6zM457.8 421.5c-.1 3.9.5 7.6 1.9 11.2.3.9 1.7 1 1.9 0 .5-1.8.7-3.7.7-5.6-.1-2.1-1.2-4.1-1.4-6.1-.3-4.1 9.9-7.1 13.3-8.7l-1.5-.6c.8 5.2 1.5 10.3 2.2 15.5.2 1.3 2.2 1.3 2 0-.7-5.4-1.4-10.7-2.2-16-.1-.7-1-.9-1.5-.6-2.7 1.3-5.5 2.6-8.2 3.9-1.6.8-4.8 1.6-5.9 3.3-.8 1.3-.5 2.4-.1 3.8 1.1 3.7 1.7 6.7.7 10.6h1.9c-1.3-3.5-1.9-6.9-1.8-10.7.1-1.3-2-1.3-2 0z"/><path class="st3" d="M463.6 418.6c-.7 1.1-1.3 2.2-2 3.2-.6 1 .8 2.1 1.6 1.2l3.6-3.9c-.5-.4-1.1-.8-1.6-1.2-1.6 2.1-3.1 4.1-4.7 6.2.6.3 1.2.7 1.7 1 2-3 4.3-5.7 6.8-8.3-.5-.4-1.1-.8-1.6-1.2-1.5 2.8-3 5.6-4.6 8.4-.5 1 .8 2.1 1.6 1.2 1.9-2 3.7-4.1 5.6-6.1-.5-.4-1.1-.8-1.6-1.2l-3.9 8.4c-.5 1.2 1.1 2.2 1.7 1 2.2-3.6 4.4-7.1 6.5-10.7-.6-.3-1.2-.5-1.8-.8-1.5 4.2-3.5 8.2-5.8 12.1-.6 1 .9 2.1 1.6 1.2 2.9-3.7 5.4-7.7 7.4-12-.6-.3-1.2-.5-1.8-.8-1.4 4.2-3.2 8.3-5.2 12.3-.5 1 .8 2.1 1.6 1.2 2-2.4 3.7-4.9 5.2-7.7-.6-.3-1.2-.5-1.8-.8-.7 2.1-1.5 4.1-2.2 6.2-.4 1.2 1.5 1.8 1.9.5.7-2.1 1.5-4.1 2.2-6.2.4-1.1-1.3-1.8-1.8-.8-1.4 2.6-3 5-4.9 7.3.5.4 1.1.8 1.6 1.2 2.2-4.1 4-8.4 5.4-12.8.4-1.1-1.4-1.8-1.8-.8-1.9 4.1-4.3 8-7.1 11.6.5.4 1.1.8 1.6 1.2 2.4-4 4.4-8.2 6-12.6.4-1.1-1.3-1.7-1.8-.8-2.2 3.6-4.4 7.1-6.5 10.7.6.3 1.2.7 1.7 1l3.9-8.4c.4-1-.8-2.1-1.6-1.2-1.9 2-3.7 4.1-5.6 6.1.5.4 1.1.8 1.6 1.2 1.5-2.8 3-5.6 4.6-8.4.5-1-.8-2.1-1.6-1.2-2.6 2.7-5 5.6-7.1 8.7-.7 1.1 1 2 1.7 1 1.6-2.1 3.1-4.1 4.7-6.2.7-.9-.8-2.1-1.6-1.2l-3.6 3.9c.5.4 1.1.8 1.6 1.2.7-1.1 1.3-2.2 2-3.2.6-.8-1.1-1.9-1.8-.7z"/><path class="st3" d="M470.7 415c.4 4 .8 8 1.3 11.9.7-.1 1.3-.2 2-.3-.8-4.1-.7-7.9.3-11.9h-1.9c.6 3.7 1.1 7.4 1.7 11.1.2 1.1 2.1.9 2-.3-.1-.5-.1-.9-.2-1.4-.6.2-1.3.3-1.9.5 2 3.7-6.8 3.8-9 4.4-2.4.7-4.6 1.9-6.7 3.3l1.5.9c.3-4.4.5-8.7.8-13.1h-2c.2 2 .7 3.7 1.6 5.5.5 1 1.8.4 1.9-.5l.3-4.2c-.7.1-1.3.2-2 .3.8 2 1.6 4 2.3 5.9.3.8 1.8 1.1 1.9 0 .3-2.1 2.5-3.9 4.6-3.8 1.3.1 1.3-2 0-2-3.4-.2-6.1 1.9-6.6 5.3h1.9c-.8-2-1.6-4-2.3-5.9-.4-1-1.9-.9-2 .3l-.3 4.2c.6-.2 1.3-.3 1.9-.5-.7-1.4-1.2-2.9-1.3-4.5-.2-1.3-1.9-1.3-2 0-.3 4.4-.5 8.7-.8 13.1 0 .7.9 1.3 1.5.9 2.3-1.6 4.7-2.8 7.3-3.4 2.2-.5 4.8-.3 6.9-1.3 2.3-1.1 3.4-3.5 2.1-5.8-.5-.8-2-.5-1.9.5.1.5.1.9.2 1.4.7-.1 1.3-.2 2-.3-.6-3.7-1.1-7.4-1.7-11.1-.2-1-1.7-.9-1.9 0-1 4.4-1.1 8.6-.3 13 .2 1.1 2.1.9 2-.3-.4-4-.8-8-1.3-11.9 0-1.3-2-1.3-1.9 0zM439.5 184.2h.3c.4 0 .9-.3 1-.7.1-.8.1-1.2-.5-1.7-.5-.4-1-.4-1.4 0-2.4 1.9-1.8 8-2.1 10.7h2c.3-3 .6-5.9.8-8.9h-2v24.5c0 1.3 2 1.3 2 0v-24.5c0-1.3-1.9-1.3-2 0-.3 3-.6 5.9-.8 8.9-.1 1.3 1.9 1.3 2 0 .2-1.9 0-8.1 1.5-9.2h-1.4c.2-.3.5-.7.7-1-1.4-.1-1.4 1.9-.1 1.9z"/><path class="st3" d="M438.7 185.5c.2-1.3-.6-2.5-2.1-2.1-2.5.8-1.2 5.8-1.2 7.5.5 10.9.9 21.8 1.3 32.6.8 22 1.3 44.1 1.6 66.1 0 1.3 2 1.3 2 0-.2-17.5-.6-35-1.1-52.6-.3-8.5-.5-17-.9-25.5-.2-4.5-.4-9-.5-13.5-.1-2.1-.2-4.2-.3-6.4 0-1.1-.1-2.1-.1-3.2 0-.9-.7-3-.6-3.6-.3 1.5 1.7 2 1.9.7zM230.8 360l.3-3c.5-5.2-7.6-5.1-8.1 0-.6 6.1-1.9 12.6-1.8 18.7.1 5.3 4.3 6.8 8.7 8.1 11.5 3.5 23.2 6 35.1 7.7 23.8 3.4 47.8 4 71.7 4.5 1.6 0 3.7-1.3 3.9-3 1-7.1 1.3-14.1.6-21.3-.2-2.2-1.7-4-4-4-18.6-.5-37.1-1.3-55.6-2.6-9-.6-18-1.3-27-2-4.8-.4-9.5-.8-14.3-1.3-2.3-.2-7.4-.3-8.5-2.8l-3.9 5.1c8-1 16 .2 23.9 1.3 7.7 1.1 15.4 2.2 23.2 3.3 15.7 2.2 31.4 4.3 47.1 6.6 2.8.4 5.5.7 6.9 3.4 1.2 2.3 1.3 5.2 1.4 7.8 0 2.3.5 5.9-2.2 6.5-3.1.6-7.7-.7-10.9-1.1-14.5-1.6-29-3.5-43.3-6.3-16.1-3.2-32-7.8-47-14.8-.7 2.5-1.4 5-2 7.5 12.6-.7 25.2 0 37.6 2.4 5.1 1 7-6 2.1-7.8-8.4-3.2-17.1-5.1-26.1-6.2-4.1-.5-5.4 5.7-2 7.5 10.8 5.8 22.4 9.7 34.6 11.4 4.3.6 7.4-4.9 3.1-7.4-8.5-5.1-17.8-8.6-27.5-10.3-4.3-.8-7.3 4.9-3.1 7.4 10.1 6 21.2 9.9 32.9 11.5 4 .6 7.7-5.4 3.1-7.4-9.6-4.2-19.4-6.9-29.8-8.3-4.5-.6-5.4 6.9-1.1 7.9 14.8 3.5 29.5 7 44.3 10.5 4.2 1 7.5-5.4 3.1-7.4-8.8-4-17.8-7-27.2-8.8-5.2-1-6.9 5.8-2.1 7.8 11.5 4.8 23.4 8.3 35.6 10.7 4.5.9 6.9-4.7 3.1-7.4-8.4-5.9-17.8-10.2-27.7-12.8-5.2-1.4-6.8 5.8-2.1 7.8 10.1 4.3 20.6 7.1 31.4 8.6 5.1.7 7.2-6 2.1-7.8-7.2-2.6-14.3-5.2-21.5-7.8-4.3-1.5-7.3 5.5-3.1 7.4 11.5 5.1 23.4 8.4 35.9 10.1 3.5.5 5.4-4.7 2.9-6.9-4.3-3.7-9.1-6.4-14.5-8.2-4.3-1.4-7.1 5.2-3.1 7.4 5.8 3.1 12 5.3 18.6 6.3 3.3.5 6.5-2.6 4.6-5.9-1-1.7-1.9-3.3-2.9-5-2.6-4.5-9.6-.4-7 4.1 1.9 3.4 4.9 5.6 8.7 6.5 3.1.7 5.6-1.9 5-5-.5-2.3-1.3-4.4-2.6-6.3-2.5-3.7-8.6-1.5-7.4 3.1.9 3.2 2.7 5.6 5.5 7.4 3.6 2.2 7.3-2.1 5.5-5.5-3.3-6.4-9.4-10.2-16.5-10.8-4.1-.3-5.4 5.7-2 7.5 1 .6 2.1 1.1 3.1 1.7 1.4-2.3 2.7-4.7 4.1-7-7.9-3.3-16-4.2-24.3-2.1-4.4 1.1-3.5 8 1.1 7.9 3.6 0 7.1 0 10.7-.1 5.2 0 5.2-7.9 0-8.1-18.2-.8-36.4-1.5-54.6-2.3.7 2.5 1.4 5 2 7.5 4.6-2.4 9.5-3.6 14.7-3.7 4.4 0 5.7-7.1 1.1-7.9-11.5-2-23.1-3.2-34.7-3.4-3.8-.1-10.9-1.3-13.8 1.8-2.9 3.1-.4 8 3.6 8 5.2-.1 5.2-8.1 0-8.1h-.5c1.2.7 2.3 1.3 3.5 2l.3.9c-.7 1.2-1.3 2.3-2 3.5 1.1-.7 6.6-.1 8.9-.1 3.6.1 7.2.2 10.8.5 7.3.5 14.6 1.4 21.8 2.6.4-2.6.7-5.3 1.1-7.9-6.7.1-12.9 1.7-18.8 4.8-3.7 1.9-1.8 7.4 2 7.5 18.2.8 36.4 1.5 54.6 2.3v-8.1c-3.6 0-7.1 0-10.7.1.4 2.6.7 5.3 1.1 7.9 6-1.5 12.3-1.1 18.1 1.3 4.6 2 8.8-4.4 4.1-7-1-.6-2.1-1.1-3.1-1.7-.7 2.5-1.4 5-2 7.5 4.3.4 7.6 3 9.5 6.8l5.5-5.5c-1.1-.7-1.5-1.3-1.8-2.5-2.5 1-4.9 2.1-7.4 3.1.9 1.4 1.5 2.7 1.8 4.4l5-5c-1.9-.4-2.9-1.1-3.8-2.8-2.3 1.4-4.7 2.7-7 4.1 1 1.7 1.9 3.3 2.9 5 1.5-2 3-4 4.6-5.9-5.9-.9-11.4-2.6-16.7-5.4-1 2.5-2.1 4.9-3.1 7.4 4 1.3 7.7 3.4 10.9 6.2 1-2.3 1.9-4.6 2.9-6.9-10.9-1.4-21.7-4.5-31.8-9-1 2.5-2.1 4.9-3.1 7.4 7.2 2.6 14.3 5.2 21.5 7.8l2.1-7.8c-10.8-1.5-21.3-4.4-31.4-8.6l-2.1 7.8c9.3 2.5 17.8 6.5 25.7 12 1-2.5 2.1-4.9 3.1-7.4-12.2-2.4-24.1-5.9-35.6-10.7l-2.1 7.8c8.7 1.7 17.2 4.3 25.3 8 1-2.5 2.1-4.9 3.1-7.4-14.8-3.5-29.5-7-44.3-10.5-.4 2.6-.7 5.3-1.1 7.9 8.8 1.1 17.5 3.6 25.7 7.2 1-2.5 2.1-4.9 3.1-7.4-11-1.6-21.4-5.1-30.9-10.7-1 2.5-2.1 4.9-3.1 7.4 9.1 1.6 17.7 4.7 25.6 9.5 1-2.5 2.1-4.9 3.1-7.4-11.5-1.6-22.4-5.2-32.6-10.6-.7 2.5-1.4 5-2 7.5 8.2.9 16.2 3 23.9 5.9l2.1-7.8c-13.1-2.4-26.4-3.4-39.8-2.6-3.7.2-5.9 5.7-2 7.5 31 14.5 65.1 19.1 98.8 22.7 6.9.8 14.1 1.1 16.2-7.1 1.5-5.6.9-13.6-1.9-18.8-3.7-6.8-11.3-7.1-18.1-8-9.3-1.3-18.6-2.6-28-3.9-10.4-1.5-20.8-2.9-31.1-4.4-10.2-1.4-20.6-3.5-30.9-2.3-2.3.3-5 2.4-3.9 5.1 3.1 7.5 10.6 8.2 17.8 8.9 10.6 1 21.1 1.9 31.7 2.6 21.2 1.5 42.3 2.5 63.5 3.1l-4-4c.6 6.4.6 12.8-.3 19.1l3.9-3c-21.3-.4-42.7-.9-64-3.4-10.6-1.3-21.1-3.1-31.4-5.8-2.7-.7-5.3-1.4-8-2.2-.9-.3-1.9-.7-2.9-.9-1.2-.8-1.6-.9-1.4-.2.1.6.2.4.1-.7 1.2-5.7 1.1-11.9 1.7-17.6H223l-.3 3c-.4 5.3 7.7 5.3 8.1.1zM256.5 193.9c1.6 8.3 5.2 15.7 10.6 22.2 3 3.7 8.4-1 6.3-4.9-5.7-10.8-12.8-27.4 1.5-34.8-1.6-2.1-3.3-4.2-4.9-6.3-3.6 4.6-6.1 9.5-7.5 15.2-1.1 4.4 5.1 7.2 7.4 3.1 3.6-6.3 10.6-9.4 17.7-9.8 3.7-.2 7.7.1 10.3 3.1 2.2 2.7 3.1 6.5 3.4 9.9 2.6-.4 5.3-.7 7.9-1.1-1.2-3.1-2.8-5.7-5.2-8.1-3.7-3.7-9.4 2-5.7 5.7 1.3 1.4 2.4 2.8 3.1 4.5 1.5 3.9 8.4 3.9 7.9-1.1-1.1-11.5-6.9-20.8-19.4-21.1-10.6-.2-21.6 4.4-27 13.9 2.5 1 4.9 2.1 7.4 3.1 1-4.2 2.7-8.2 5.4-11.7s-.6-8.6-4.9-6.3c-7.6 3.9-12.2 11.4-12.6 19.9-.4 9.2 4 18 8.1 25.9 2.1-1.6 4.2-3.3 6.3-4.9-4.5-5.4-7.3-11.8-8.5-18.7-.8-4.9-8.6-2.7-7.6 2.3z"/><path class="st3" d="M289.1 181.9c4.3.6 7 3.7 8.4 7.7.9 2.5 2.1 9.1-1.4 10.5-3 1.1-3.8 4.3-1.8 6.8 3.2 3.8 4.4 8.7 3.5 13.5-.7 3.9 3.7 6.8 6.8 3.9 10.2-9.4 22.7-24.7 12.3-38.7-2.4-3.3-7.2-2.1-7.5 2-.6 7.1-2.7 13.9-6 20.2 2.5.7 5 1.4 7.5 2 .5-4.2.9-8.4 1.4-12.5.4-3.3 1.4-7.2 1.1-10.5-.6-5.5-7.9-7.3-9.7-1.4-1.5 5 6.3 7.1 7.8 2.1.1-.2.1-.4.2-.5l-2.8 2.8h-.9c-.8-.6-1.6-1.2-2.4-1.9.1.2-.6 3.8-.7 4.6-.2 1.8-.4 3.7-.6 5.5-.4 3.9-.9 7.8-1.3 11.8-.5 4 5.8 5.4 7.5 2 4-7.6 6.3-15.7 7.1-24.3-2.5.7-5 1.4-7.5 2 7.9 10.7-3.6 22-11.1 28.9 2.3 1.3 4.5 2.6 6.8 3.9 1.5-7.9-.5-15.2-5.6-21.4-.6 2.3-1.2 4.5-1.8 6.8 15.5-5.9 7.2-31.8-7.1-33.8-5.1-.5-7.3 7.3-2.2 8z"/><path class="st3" d="M315.2 209.9c2-9.5 2.9-18.4-1.5-27.4-3.6-7.5-10.3-13.6-18-16.8-16.8-6.8-35.7 2.7-43.6 18.2 2.5.7 5 1.4 7.5 2-.5-4.4 10.9-7.7 14.2-8.8 4.9-1.7 3-8.9-2.1-7.8-11 2.4-18 12.8-19 23.6-1.2 12.9 6.8 24.8 15.9 33.2 3.8 3.5 9.5-2.2 5.7-5.7-7.1-6.5-13.7-15.2-13.6-25.3 0-8.1 5-16.2 13.2-18l-2.1-7.8c-7.2 2.4-21.1 6.9-20.1 16.6.4 3.6 5.5 5.9 7.5 2 6.1-11.9 20.2-20.1 33.5-14.9 5.9 2.3 10.8 6.9 13.7 12.5 3.8 7.2 2.8 14.6 1.2 22.2-1.2 5.1 6.6 7.2 7.6 2.2z"/><path class="st3" d="M275.5 183.2c3.5-4.1 8-6.3 13.4-6.1V169c-11.2.9-24.3 11-23.8 23.2.2 5.2 8.3 5.2 8.1 0-.3-7.5 8.7-14.5 15.7-15.1 5.1-.4 5.3-7.9 0-8.1-7.3-.2-14.4 2.8-19.1 8.5-3.4 4 2.3 9.7 5.7 5.7zM459 419.4c-.1 2.8-.2 5.6-.3 8.3-.2 4.9 6.4 5.1 7.9 1.1.5-1.3.5-2.7.2-4.1-.2-.8-.6-2.7-1.2-3.2-.1-.2-.1-.4-.2-.6-.9 1.3-1 1.7-.3 1.2.6 0 1.6-.9 2.2-1.2 1.9-1 3.7-2 5.6-3-2-.8-4-1.6-5.9-2.4.3 1.9.6 3.7.9 5.6.8 5.1 8.6 2.9 7.8-2.1-.3-1.9-.6-3.7-.9-5.6-.4-2.7-3.9-3.6-5.9-2.4-3.4 1.9-9.1 3.7-10.9 7.4-.8 1.7-.8 3.6-.2 5.4.2.7.5 1.5.9 2.1.1.3.2.5.3.8.2-.6.1-.6-.1.1 2.6.4 5.3.7 7.9 1.1.1-2.8.2-5.6.3-8.3.2-5.5-7.9-5.4-8.1-.2zM340.8 385.4c28.8 8.3 59.6-3.9 74.8-29.7.7-1.1-1.1-2.1-1.7-1-14.8 25-44.6 36.8-72.5 28.7-1.3-.3-1.8 1.6-.6 2z"/><path class="st3" d="M417.4 354.4c3.4-19.6 10.9-38.1 22.1-54.5.7-1.1-1-2.1-1.7-1-11.3 16.6-18.9 35.3-22.3 55-.3 1.2 1.7 1.7 1.9.5z"/><path class="st3" d="M432 298c3.1.5 6 1.4 8.9 2.6-.2-.4-.5-.8-.7-1.2-.7 4.7-1.4 9.3-2.1 14-.2 1.3 1.8 1.8 1.9.5.7-4.7 1.4-9.3 2.1-14 .1-.6-.1-1-.7-1.2-2.9-1.2-5.8-2.1-8.9-2.6-1.2-.3-1.8 1.6-.5 1.9zM274.5 201.2c-.3.5-.5 1-.8 1.5-.6 1.1 1.1 2.2 1.7 1 .3-.5.5-1 .8-1.5.7-1.1-1.1-2.1-1.7-1zM296.7 200.5c.6-1.8 1.5-3.5 2.6-5.1-.6-.2-1.3-.3-1.9-.5 0 .6-.1.9-.6 1.2-1 .8.4 2.3 1.4 1.4.8-.7 1.2-1.6 1.1-2.7 0-1.1-1.3-1.3-1.9-.5-1.2 1.7-2.2 3.6-2.8 5.6-.3 1.3 1.7 1.8 2.1.6zM311 182.9c1.1.8 2.3 1.6 3.4 2.5.7.5 1.5-.2 1.5-.9.1-1.2 0-2.3-.2-3.5-.6.2-1.3.4-1.9.5.3 1.2.5 2.3.8 3.5.3 1.3 2.2.7 1.9-.5-.3-1.2-.5-2.3-.8-3.5-.3-1.3-2.2-.7-1.9.5.2 1 .2 2 .1 3l1.5-.9c-1.1-.8-2.3-1.6-3.4-2.5-1-.7-2 1.1-1 1.8zM270.5 227.7c4.1 1.4 8.4 1.9 12.7 1.6 1.3-.1 1.3-2.1 0-2-4.2.3-8.2-.2-12.2-1.6-1.2-.4-1.7 1.6-.5 2zM257.8 175.4c-5 3.8-6.8 9.9-7.2 16-.5 7.8 3.2 14.2 7.3 20.5.7 1.1 2.4.1 1.7-1-3.3-5.1-6.6-10.4-7-16.6-.4-6 1.2-13.3 6.2-17.2 1-.7 0-2.5-1-1.7z"/><path class="st3" d="M252.9 186.3c-.6 2.4-1.1 4.8-1.6 7.2.7.1 1.3.2 2 .3.1-2.1.3-4.2.4-6.3h-2v6.5c0 .9 1.5 1.5 1.9.5.1-.3.3-.6.4-.9.5-1.2-1.2-2.2-1.7-1-.1.3-.3.6-.4.9.6.2 1.3.3 1.9.5v-6.5c0-1.3-1.9-1.3-2 0-.1 2.1-.3 4.2-.4 6.3-.1 1.1 1.8 1.4 2 .3.5-2.4 1-4.8 1.6-7.2.2-1.4-1.7-1.9-2.1-.6z"/><path class="st8" d="M107.7 297.2s7.9 4.8 21.7 0c13.8-4.8 13.1-8.6 13.1-8.6s-22.5-7.2-34.8 8.6z"/><path class="st10" d="M300.8 118.2s-8.4 3.6-12.5 2.3c-4.1-1.3-9.8-5.6-12.6-1.4-2.8 4.2 9.1 10.9 13.7 8.4 4.5-2.3 11.4-9.3 11.4-9.3z"/><path class="st11" d="M136 284.9l9.5 23.3s16-4.8 24-10.6c6-4.3 19.2-13.4 19.2-13.4l1.4 17.2s-36 46-48.9 42.7c-13.3-3.4-30.4-46.5-30.7-54.2-.2-7.8 25.5-5 25.5-5z"/><path class="st9" d="M138 332.1s-1.1-11.6 7.5-24l-9.5-23.3-18.2 1.5 20.2 45.8z"/><path class="st7" d="M109.7 236.2c-8.2 2.6-13.5 6.6-10.5 26.4s8.5 34.5 8.5 34.5 9.4-5 16.5-7.4c7.1-2.4 18.3-1.2 18.3-1.2s-9.9-30.1-13.4-38.7c-3.3-8.5-9.6-16.7-19.4-13.6z"/><path class="st9" d="M288.8 135.2c1.1 5 18.9 1.8 26.3 0 7.4-1.8 13.8-2.2 13.8-2.2s-6.2-15.1-15.3-15.5c-9.1-.4-28.7 0-24.8 17.7z"/><path class="st11" d="M192.2 269.3s-4.4 2.4-7.9 10.7c-3.5 8.3 5.7 21.5 5.7 21.5s5.7 0 8.5-5.6c2.8-5.7 2.5-18.5 6.3-26.1 3.9-7.7-7.4-6-12.6-.5z"/><path class="st9" d="M170.5 196.2c-2.2-.8-8.6.4-15.8 2.3-2-3.8-3.9-8.4-3.1-10.8 1.5-4.7-36.5 4.1-36.5 4.1s4.8 8 11.2 16c-1.5 1.5-3.7 5.6-3.8 11.6-.2 14 19.8 20.1 37.3 9.1s16.8-30 10.7-32.3z"/><path class="st10" d="M151.5 190.4l-30 9.7s21.5 25.5 31.8 19c6.4-3.3 5-12 5-12l-3.3-8.6c-.1 0-.2.1-.3.1-1.4-2.7-2.8-5.8-3.2-8.2z"/><path class="st11" d="M153.9 153.9c-4.9-21.1-15.1-27.5-35.3-23.6-9.4 1.8-24.4 11.7-21.1 33.3-3.2-.9-6.9-.9-7.8 3.3-1.4 6.7 9.9 19.7 15.2 17.4 9.9 17.5 24.9 23.4 37.6 18.5 15.5-5.8 16.2-27.8 11.4-48.9z"/><path d="M134.5 153.9s11.4 19.3 11.2 23.4c-.2 4-8.5 6.7-9.3 2.1-.7-4.6.5-19.7-1.9-25.5z" fill="#ffd2a5"/><path class="st9" d="M120.4 130c-4.8 2.2-9.3 5.7-13.5 9-2.2 1.7-4.4 3.3-6.5 5-2.7 5-4.1 11.5-2.8 19.7-3.2-.9-6.9-.9-7.8 3.3-.8 3.6 2.2 9.1 5.9 12.9 1.3-2.7 2.1-6.8 3.5-8.5 3.2-3.8 8.7-4.1 13.5-5.6 4.6-1.4 8.9-4 12.2-7.6 3.1-3.4 5.6-7.7 9.9-9.5 1.7-.7 3.5-1 5.3-1 4.7-.1 9.4 1.3 13.3 3.9-5-18.7-14.7-24.7-33-21.6z"/><path class="st4" d="M119.4 128.9s10.6 8.2 20.5 8.8c9.8.6 20.3 5.5 25 13.8s-12.3-20.9-12.3-20.9l-8.8-4.5h-7.3l-9.2.8-7.9 2z"/><path class="st4" d="M123.1 127.9c3.5 1.5 4.6 21.4-11.2 26.9-10.9 3.8-15.3 4.7-19.4 13s-11.9 25.5-11.9 25.5-2.2-14.6 6.6-32.5 18.2-34.3 35.9-32.9z"/><path class="st4" d="M94 157.7s.9 10.3 7.5 15.6c0 0 .6-17.4 3.4-21.8 2.9-4.5-10.9 6.2-10.9 6.2z"/><path class="st5" d="M113.3 144.2c-2.5 3.7-6.7 5.8-10.9 7.4-4.2 1.6-8.6 2.8-12.2 5.4s-6.4 7.1-5.4 11.5c1.6-4.6 5.1-8.5 9.5-10.5 3.4-1.5 7.1-2 10.4-3.6 6.9-3.3 11.9-11.7 13-19-2.3 1.1-2.9 6.6-4.4 8.8zM78.5 187.9c-3.4 2.7-7.5 4.6-10.2 8-4 5.1-3.5 13.4 1.6 17.3-3.3-.6-6.1-3.3-7.2-6.5s-.5-6.9 1.2-9.8c2.5-4.2 7-6.7 11-9.4 3.6-2.4 7.1-5.3 8.7-9.5 1 3.7-2.5 7.8-5.1 9.9zM136.1 131.6c5.6 1 11.8-.6 16.7 2.3 3.3 2 5.3 5.7 6.8 9.2.3-5-2.6-10.2-7.1-12.4-7.1-3.5-15.7-.7-23.1-2.9-.1 2.4 4.8 3.4 6.7 3.8z"/><path class="st9" d="M190.1 301.4c-4.4-3.6-5.9-9.5-5.9-9.5s-6.4 11.4-15.5 21.6c-9.1 10.1-27.5 30.6-27.5 30.6l6.1-1.1c15.6-7 42.8-41.6 42.8-41.6z"/><path class="st5" d="M153.5 196.2l2.1 3.9s9.9 12-4.1 20.1-23.6-3.2-24.8-6.1c-1.1-2.9-.5-6.3-.5-6.3l-1-1.3s-3.2 9.1 6.5 15.6c9.6 6.5 18.7 1.9 20.6 1s9.8-6.9 7.6-15.8c-2-8.9-6.4-11.1-6.4-11.1z"/><circle class="st5" cx="153" cy="225.6" r="2.9"/><circle class="st5" cx="153" cy="225.6" r="1.6"/><path class="st2" d="M425 312.5c3.2 0 3.2-5 0-5s-3.2 5 0 5z"/></svg>