<svg id="Layer_1" xmlns="http://www.w3.org/2000/svg" viewBox="0 0 904 478"><style>.st0{fill:#d4ecff}.st1{fill:#bfddf5}.st2{fill:#fff}.st3{fill:#0064d9}.st4{fill:#edf7ff}.st5{fill:#a2d0f5}.st6{fill:#ffd8b5}.st7{fill:#00adef}.st8{fill:#9ec9ff}.st9{fill:#8cbfff}.st10{fill:#00c4ff}.st11{fill:#0076ff}.st12{fill:#ffe4cc}.st13{fill:#f5c59d}</style><path class="st0" d="M128.6 57L109 269.4l585.9 158.7z"/><path class="st1" d="M112.4 232.8L459 364.2l156.1 42.2-499.6-211.9z"/><path class="st0" d="M171 38.5l-10 80 533.9 308.6z"/><path class="st2" d="M128.6 56l636.6 417.2L.4 158.3S72.3 78 128.6 56zM171 38.5l393.1 302.9 201.1 131.8-398-413S216.4 17.6 171 38.5z"/><path class="st3" d="M885.4 160.2s12.1 3.5 17.1-18.9c4.9-21.9-8.7-25.4-8.7-25.4s-10.9 9.8-15.1 18c-7.7 14.6 6.7 26.3 6.7 26.3z"/><path class="st4" d="M499.9 256.5l-34.6-42.8.2 18.3zM352.2 74c-41.3-15.5-147.7-27.1-147.7-27.1L419 199.1c.5-11.8 4.7-21.6 10.4-29.7L352.2 74zM468.9 321.2l226 105.9-226.7-136 .7 9.4zM442.9 304.9c-.3-10.8-3.3-21.8-7-33.1L126 85.9c-40.8 4.9-61.3 46-61.3 46L442.9 309v-4.1z"/><path class="st1" d="M564.1 341.3l-98.3-82.2 1.4 18.7zM166.8 81l262.6 172.1c-2.2-6.3-4.3-12.7-6-19.2L166.8 81zM464.5 141.6s-21.6 8.8-35.1 27.7l35.9 44.3-.8-72zM442.9 309c-.4 29-12.7 37.6-12.7 37.6l38.7-17.3v-8.1l-26-12.2zM467.2 277.8L429.4 253c2.2 6.3 4.4 12.5 6.5 18.6l32.3 19.4-1-13.2zM465.5 232L419 199c-.5 12.1 1.4 23.7 4.4 34.8l42.4 25.2-.3-27z"/><path class="st5" d="M465.3 213.7l-35.9-44.3c-5.7 8-9.9 17.9-10.4 29.7l46.5 33-.2-18.4zM468.9 300.5l-.7-9.3-32.3-19.4c3.7 11.3 6.7 22.3 7 33.1v4.2l26 12.2v-20.8zM465.8 259.1l-42.4-25.2c1.7 6.5 3.8 12.9 6 19.2l37.8 24.8-1.4-18.8z"/><path class="st3" d="M464.6 427.5s-1.8 6.6 17.4 11.2 29.7 0 29.7 0 1.8-17.7-12.3-19.4-34.8 8.2-34.8 8.2zM712.5 79.1s-2.2.7-3.3 3.6c-1.1 2.9 0 6.2 0 6.2l175.3 68.7s11.4 3.3 16.4-13.1c6-19.6-6.8-25.8-6.8-25.8L712.5 79.1zM624.3 63.3c-.2 4.3-3.3 8.2-2.7 12.5.3 2.2 1.7 4.2 3.6 5.3.6.3 1.3.6 2 .5.9-.1 1.6-.7 2.1-1.5.4-.8.6-1.7.8-2.5.7-3.3 1.4-6.5 2.1-9.8 0-.2.1-.4 0-.6-.1-.3-.4-.5-.7-.7-1.4-1-2.9-2-4.3-3-1.7-1.2-3.6-2.8-3.3-4.9"/><path class="st6" d="M788.6 119s9.3-19.7-2.7-16.3c-12.1 3.4-9.4 26.6-9.4 26.6-6.3 12.2-47.1 41.7-47.1 41.7s-5 40.8 11.3 33.7c16.3-7.1 48.1-60.8 48.1-60.8 12.7-.1 25.7-13.7 25.7-13.7L788.6 119z"/><path class="st7" d="M731.7 191c-2.5-11.2-2.3-20.1-2.3-20.1s-2.8 2.5-6.4 4c-.2-1.3-.6-2.6-1.5-3.6-1.1-1.1-3.1-1.4-4.1-.3-.9 1.1-1 3.1-2.4 3.2-.8 0-1.4-.7-1.6-1.5s0-1.5 0-2.3c0-1.2-.3-2.4-1.2-3.2-.9-.8-2.4-.8-3.2.1-.3.3-.5.8-.7 1.1-12.6-16.6-38.7-56.9-59.6-56.4-18.8.5-6 40.3-6 40.3s33.9 45.5 58.8 61c24.9 15.6 46.9-14.4 46.9-14.4s-12.6 10.6-16.7-7.9z"/><path class="st6" d="M788.6 94.6s2.9 8.4 17.2 15.7c14.3 7.4 22.8-6.4 22.8-6.4s-19.9-14-40-9.3z"/><path class="st8" d="M475 426.4l-16 24s5.5 9.1 13.8 11.1 12.9-7.5 12.9-7.5l19-32.1-29.7 4.5z"/><path class="st9" d="M488.1 426.4l-7.3-.9-5.8.9-16 24s.6 1 1.8 2.5l11.2 3.7c4.4-10.9 16.1-30.2 16.1-30.2z"/><path class="st3" d="M459 450.4s-15.1 8.5-16.1 17.4c0 0 7.8 9.4 48.8 9.3 41.1-.1 49.5-9.3 45.1-18-4.4-8.7-28.8-6.8-51.2-5.1s-26.6-3.6-26.6-3.6z"/><path class="st10" d="M502.1 459.9c-18.5-.4-59.2 8-59.2 8s7.8 9.4 48.8 9.3c32-.1 44.2-5.7 45.9-12.3-.5-.1-17.2-4.6-35.5-5z"/><path class="st11" d="M511 378.2l-46.4 49.3s30.4-8.3 47 11.2l61.7-43.6-62.3-16.9zM333 388.1s-5-10.9-20-6.5-14.1 19.2-10.3 30.3 4.6 30.8 5.6 41.9c2.3 24.6 24.1 28.7 28.5 17.9 4.3-10.8 1-61.3 1-61.3l-4.8-22.3z"/><path class="st3" d="M333 388.1s-5-10.9-20-6.5c-15.1 4.4-14.1 19.2-10.3 30.3 3.8 11.1 4.6 30.8 5.6 41.9.7 7.9 3.5 13.7 7 17.5l10 5.8s-14.1-12.1-13.4-35.2c.7-23.1-3-26.2 0-43 3-16.7 21.1-10.8 21.1-10.8z"/><path class="st8" d="M353.1 382l-31.1 5.5s-4.8 10.5-.4 20 10.7 8.3 10.7 8.3l34.9-10.2-14.1-23.6z"/><path class="st9" d="M319.8 399s16.5 2.1 32.3-4.8c2.7-1.2 4.6-2.5 5.9-3.9l-4.9-8.2-31.1 5.5s-2.4.7-2.2 11.4z"/><path class="st11" d="M513 238.2c4.2-3.8 36.1 13.9 63 38.7 22.5 20.8 44 45.6 44 45.6s-7.2-65.5-25.2-92.1l-18-26.6s-97.1-14.6-129.7-51.3c0 0-29.3 25.6-16 73.4 8.6 30.9 17.9 60.7 20.8 82.5-1.8 2.3-2.8 5.3-2.6 8.2.2 3.4 1.7 7.3-.4 10.1-.8 1.1-2.1 1.7-2.8 2.9-1.5 2.4-.3 6-2.4 7.8-2.4 2-6.4-.4-8.9 1.4-2.6 1.9-1.7 6.8-4.6 8-1.1.4-2.3.1-3.5.2-2.4.1-4.5 2.1-5.2 4.4-31.4 11.3-69.7 19-69.7 19s-7.5 9.2-1.6 28.8c5.9 19.7 15.2 19.5 15.2 19.5s105.5 6.9 138.9-68.9.9-104.6 8.7-111.6z"/><path class="st3" d="M447.2 152.4s-29.3 25.6-16 73.4c8.6 30.9 17.9 60.7 20.8 82.5-1.8 2.3-2.8 5.3-2.6 8.2.2 3.4 1.7 7.3-.4 10.1-.8 1.1-2.1 1.7-2.8 2.9-1.5 2.4-.3 6-2.4 7.8-2.4 2-6.4-.4-8.9 1.4-2.6 1.9-1.7 6.8-4.6 8-1.1.4-2.3.1-3.5.2-2.4.1-4.5 2.1-5.2 4.4-31.4 11.3-69.7 19-69.7 19s-4.7 5.8-3.7 18c24 4.9 50-.4 70.1-14.5 1.8-1.3 3.7-2.7 5.8-3.3 5-1.4 11.7 1 14.5-3.4 1.4-2.2 1-5.2 2.7-7.1 2.1-2.3 6.2-1.7 8.2-4.1 2.3-2.8.2-8.3 3.5-10 1-.5 2.2-.5 3.3-.6 7.2-.7 11-8.9 12.6-16 3.5-15 3.9-30.6 1.2-45.7-3.9-22.3-14.4-43.2-17.3-65.7-1.5-11.7.2-25.6 10.3-31.6 2.2-1.3 5-2.5 5.5-4.9.2-1.1-.1-2.3-.5-3.4-1.3-4.2-3-8.2-5-12.1-6.2-4.2-11.6-8.6-15.9-13.5z"/><path class="st10" d="M611.6 92.5s-55.5-11.7-96.7 7.9c-41.3 19.6-67.7 52-67.7 52s3.2 31.5 54.5 56.9c9.9 4.9 75.2-5.7 75.2-5.7s47.8-34.8 59.8-39.7c38.2-15.6 28.7-44.2 28.7-44.2s-25.8-24-53.8-27.2z"/><path class="st7" d="M611.6 92.5s-55.5-11.7-96.7 7.9-67.7 52-67.7 52 1.6 15.9 21 34.3c11.9-19.7 30.3-34.6 48.3-49.1 9.9-7.9 20-16 31.8-20.3 9.4-3.4 19.5-4.3 29.5-5.1 12.2-1.1 24.5-2.1 36.7-3.2-1.2-5.1.4-10.8.6-16-1.2-.2-2.3-.4-3.5-.5z"/><path class="st6" d="M628.4 74s-1.5 10.7-6.2 14.7-10.6 3.8-10.6 3.8-9.8 38.3 16.8 39.4 20.3-19.7 20.3-19.7-22.6-31.8-20.3-38.2z"/><path class="st12" d="M677.6 23.9c-13.7-1.2-26.7 8.3-36.9 18.9-.5-4.2-2.5-8.8-9.6-5.3-11 5.5-12.3 25.9-2.4 29.5-3.2 13.8-4 32.6 10.3 43.3 24.6 18.3 58.5-12.1 64.4-45 5.8-33-9.2-39.9-25.8-41.4z"/><path class="st13" d="M632.6 131.8c15.5-.8 17.1-10.5 16.7-16l-27.1-27.1s-5.5 35.2 10.4 43.1z"/><path class="st6" d="M693.3 35.3c-6.4-3.3-12.8-6.6-19.8-8.3-3-.7-6.1-1.1-9.2-1.1-8.7 3.2-16.7 9.8-23.6 16.9 0-.4-.1-.8-.2-1.2-.3 1-.5 2-.6 3.1l5.7 8.7c6.2-6 16.4-5 24.5-1.8 8.1 3.2 15.7 8 24.4 8.6 3.5.2 7.3-.5 9.9-2.7.5-5.9.2-10.8-.7-14.8-2.8-3.1-6.7-5.4-10.4-7.4z"/><path class="st11" d="M627.4 68.4c-1.2 1.9-1.7 4-2.3 6.2-2.3 8.4-4.5 17.4-1.7 25.6 3.9 11.5 16.8 17.7 28.9 18.6 6.3.5 12.8-.3 18.5-3s21.8-19.4 23.4-25.5c.5-1.7-10.6 8.1-11.5 6.4-1.6-3.2-6-3.4-9.4-4.6-3.2-1.2-5.8-3.8-7.1-6.9-.6-1.6-.9-3.4-1.8-4.9-4.1-7-17.3-4.1-20.4-11.6-2.2-5.4 2.6-9.1 3.8-13.8 2.3-8.4 1.1-8.9-2.5-7.8-3.4 1 0 0-8.5 11.8-2.4 3.5-7.1 5.7-9.4 9.5z"/><path class="st3" d="M578 249.4c-6.6-11.2-17.1-20.6-29.7-23.9-5.5-1.4-11.2-1.7-16.9-1.9-5.5-.1-11.8.2-15.1 4.6-2 2.7-2.3 6.2-1.6 9.6 8.9.6 45.8 29.3 74.3 51.5 0-13.1-4.3-28.6-11-39.9z"/><path d="M689.7 61.6s-3 31.9-8 37c-5.1 5.1-12.6-2.1-10.8-7.2 1.7-5.1 18.8-29.8 18.8-29.8z" fill="#ffd2a5"/><path class="st12" d="M582.9 322.5l-12-80.3s-22.2-7.1-29.2 13.6c0 0 5.4 51.2 20 67.7 0 0-1.9 21.1-1.2 29.6.4 4.5 3.8 10.6 8.9 14.6 6.5 6.2 17.3 12.8 32 8.7 5.9-2.9-2.1-15-7.7-22.3-3.6-5.5-2.7-11.9-2.7-11.9s12.9 11.8 14.6 9.1-22.7-28.8-22.7-28.8z"/><path class="st6" d="M595.2 377.6c-18-6.8-26.5-23.7-27.6-31.1-1.2-7.9 4-15.7 2.4-23.5-.5-2.6-1.7-5-2.8-7.4-3.2-7-5.4-14.3-6.8-21.8-1.3-6.7-1.4-13.5-2.4-20.2-1.3-9 .3-21.4-4.2-24.1-5.1-3.1-8.2 10.1-11 15.1 2.3 15.3 8 46.8 18.8 59 0 0-1.9 21.1-1.2 29.6.4 4.5 3.8 10.6 8.9 14.6 5.5 5.3 14.3 10.9 25.9 9.8z"/><path class="st11" d="M730.2 27.1c-4.2-9.6-15.4-14.9-25.9-14-3.3.3-6.6 1.1-9.9 1.9-1-.3-2.1-.7-3-1.2-3.2-1.6-6-3.9-8.9-5.9-7.6-5-16.7-7.6-25.7-7.4-5.4.2-11.3 1.7-14.2 6.2-1.1 1.7-1.7 3.8-3.3 5.1-1.9 1.6-4.6 1.9-6.9 2.8-7.1 2.5-9.2 6.2-8.9 9.5-.5 2.5-.2 5.2.1 7.8.5 4 1 8.1 1.4 12.1-.3-2.3 8.8-6.2 10.7-5.5 4.6 1.5 4.7 8.5 5.7 12.6.2.8.4 1.7 1 2.3 1.8 2 5.3.3 6.4-2.2 1-2.5.7-5.3 1.5-7.9 1.6-5.1 7.6-7.8 13-7.5 5.4.3 10.3 2.9 15.2 5.2 7.9 3.8 16 7 24.4 9.7 5.4 1.7 11.1 3.3 16.5 1.8 10-2.7 15-15.8 10.8-25.4z"/><path class="st3" d="M511 378.2l-46.4 49.3s11.1-3 23.5-1.1c4-3.6 7.7-9.4 11.7-12.7 10.9-9.1 24.9-19.1 35.4-28.9l-24.2-6.6z"/><path class="st7" d="M573.1 207.5c-1.7-2.3 1.3-5 2.3-7.7 1-2.7-.3-5.5-.9-8.3-.2-.9-.3-1.9-.4-2.8 10.1-27.3 50.1-97.2 8.8-92.4-21.1 2.5-45.2 37-47.7 83.7-2.4 45.9-4.1 74.5 7.8 85.6 0 0 9.8-8.1 17.7-9.2 7.9-1.1 13 2.3 13 2.3s-2.1-10.7-3.4-24.3c1-3.7 1.7-7.4 1.4-11.2-.1-2-.6-4 .2-5.8.6-1.4 1.8-2.5 2.7-3.7.9-1.2 1.4-3 .5-4.3-.4-.7-1.5-1.1-2-1.9z"/><path class="st7" d="M506.3 202.8c4.1.9 8.4.9 12.6.9l23.6-.3c-.6-2.9-3.3-5-6.1-5.8-2.8-.8-5.9-.6-8.8-.3-9.5.7-19.4 1.2-28.1-2.7-10.2-4.6-17.7-17-28.8-19.3 1.8 5.1 11.7 11.7 16 15.6 5.8 5.2 11.9 10.1 19.6 11.9z"/><path class="st7" d="M507.8 192.2c3.6 4.1 8.9 6.6 14.3 6.8-4.2-2.7-8.5-5.6-11.2-9.8-1.5-2.4-2.4-5.1-3.8-7.5-2.2-3.8-6.3-7.9-10.7-8.7.1 4.9 8.1 15.5 11.4 19.2zM617.6 135.8c6.2 2.4 13.1 1.9 19.8 1.4-1.9 2.5-5.3 3.4-8.4 3.9-3.2.5-6.4.8-9.5.2-5.7-1-13.8-7.2-14-13.6-.1-5.6 1.5-1 3.3.8 2.9 2.9 4.7 5.7 8.8 7.3z"/><path class="st3" d="M685.8 17.7c-3.4-1.7-6.4-4.1-9.6-6-2.1-1.3-4.3-2.4-6.7-3.3-4.8-1.8-10.2-2.7-15.2-1.2-4.9 1.5-9.2 5.9-9.4 11.1 1.1-1.9 2.9-3.4 4.9-4.1 2.1-.7 4.4-.5 6.4.4 2.5 1.2 4.3 3.4 6.5 5 1.7 1.2 3.6 2 5.6 2.7 4 1.5 8.2 2.7 12.5 3.1 4.3.4 8.7-.2 12.6-2.2.8-.4 1.6-1 2.2-1.7.5-.6 1.1-1.8.8-2.6-3.7.8-7.1.5-10.6-1.2zM629.2 22.3c-2 1.5-2.4 4.3-2.1 6.7.4 2.4 1.5 4.7 2 7.1.9-2.6-.7-6 1.3-7.9 1-1 2.6-1.1 3.9-1.6 2.6-1 4.8-4 3.7-6.6-2.6.6-6.5.6-8.8 2.3zM666.5 116.6c.1-2.5-3-3.6-5.4-4-5.7-.8-11.6-1.2-16.9-3.6-5.3-2.4-9.9-7.4-9.7-13.2 0-2 .6-4 .2-6-.7-2.8-3.4-4.7-4.7-7.4-2.5-5 .7-10.9 4.1-15.4 3.3-4.3 7.2-8.9 6.9-14.2-.9 1.5-2.2 3.4-3.9 5.9-2.6 3.6-7.3 5.8-9.6 9.6-1.2 1.9-1.7 4-2.3 6.2-2.3 8.4-4.5 17.4-1.7 25.6 3.9 11.5 16.8 17.7 28.9 18.6 4.7.3 9.5 0 14.1-1.3-.1-.2 0-.5 0-.8zM655 22.7c2 .7 3.7 2.2 5.4 3.5 1.7 1.3 3.7 2.5 5.8 2.5 1.1 0 2.3-.2 3.4 0-3.7 2.8-9.3 2.5-12.7-.6-1.1-1-2-2.3-3.2-3.3-1.1-.9-2.6-1.2-3.8-1.6 1.2-1.2 3.5-1.1 5.1-.5zM483.8 345.2c-.5 3.9-4.3 7.2-8.3 7.1-1.5 0-3.3-.4-4.3.7-1.6 1.8.9 4.3 3 5.3s4.7 3.1 3.5 5.1c-1.3 2.2-5.1.6-7 2.3-1.7 1.5-.4 4.5 1.6 5.6 3.3 1.7 7.7.1 10-2.8s3-6.9 3-10.6-.6-7.5-.4-11.2"/><path class="st10" d="M551.7 200.4c4.9-2.1 10.4-4.2 15.5-2.6.9.3 1.7.7 2.6.7s1.9-.3 2.3-1.1c.2-.3.2-.7.2-1.1.1-.9.1-1.8-.4-2.5-.6-.9-1.8-1.3-2.9-1.5-5.9-1.1-12.2.2-17.2 3.4-2 1.3-4.5 3.5-3.8 6.1 1.4-.4 2.5-.9 3.7-1.4z"/><ellipse transform="rotate(-76.874 887.847 137.638)" class="st10" cx="887.9" cy="137.6" rx="19" ry="9.3"/><path class="st10" d="M551.5 205.3c4.1-.2 7.8 2.8 11.9 2.6 1 0 2.1-.3 3.1 0s1.9 1.3 1.6 2.3c-.3.8-1.2 1.1-2 1.2-3.5.6-7-.8-10.4-2-2.2-.8-4.7-1.6-7.1-1.4-1.8.1-3.6 1.2-5.3 1 1.7-2 5.5-3.6 8.2-3.7z"/><path class="st11" d="M850.7 107.4s-5.8 4.7-8.8 15.6c-2.8 10.3 0 19.2 0 19.2l43.5 18.1s-6.7-8.7-1.7-27.2c3.1-11.6 10.1-17.1 10.1-17.1l-43.1-8.6z"/><path class="st4" d="M890 123.8s2.2 4.1 1.8 11.1c-.4 7.1-2.8 12.4-2.8 12.4s6.4-6 6.5-15.2c.1-6.4-5.5-8.3-5.5-8.3z"/><path class="st13" d="M788.6 119s-2.6 10 3.7 14.4c6.3 4.3 22.1-3.1 22.1-3.1L788.6 119z"/></svg>