<?xml version="1.0" encoding="UTF-8"?>
<svg width="24px" height="24px" viewBox="0 0 24 24" version="1.1" xmlns="http://www.w3.org/2000/svg" xmlns:xlink="http://www.w3.org/1999/xlink">
    <!-- Generator: sketchtool 53 (72520) - https://sketchapp.com -->
    <title>86CB89EC-AB2B-4AFF-948F-9B91BD1BA10D</title>
    <desc>Created with sketchtool.</desc>
    <g id="Page-1" stroke="none" stroke-width="1" fill="none" fill-rule="evenodd">
        <g id="project-view-copy-2" transform="translate(-57.000000, -919.000000)">
            <rect fill="#FFFFFF" x="0" y="0" width="1440" height="3700"></rect>
            <g id="Goals" transform="translate(57.000000, 837.000000)" fill="#02ADEF" fill-rule="nonzero">
                <g id="check-mark" transform="translate(0.000000, 82.000000)">
                    <path d="M12,0 C5.3833125,0 0,5.3833125 0,12 C0,18.6166875 5.3833125,24 12,24 C18.6166875,24 24,18.6166875 24,12 C24,5.3833125 18.6166875,0 12,0 Z M18.8534531,8.56054688 L10.2070313,17.2070156 C10.0117031,17.4023438 9.75585938,17.4999844 9.50001563,17.4999844 C9.24417188,17.4999844 8.98828125,17.4023438 8.793,17.2070156 L4.1465625,12.5605313 C3.95123438,12.3652969 3.95123438,12.0487031 4.1465625,11.8534219 L4.85348438,11.1464531 C5.0488125,10.9512188 5.3653125,10.9512188 5.56064063,11.1464531 L9.50001563,15.0859219 L17.439375,7.14646875 C17.6347031,6.95123438 17.9512031,6.95123438 18.1465313,7.14646875 L18.8534531,7.8534375 C19.0487813,8.04871875 19.0487813,8.3653125 18.8534531,8.56054688 Z" id="Shape"></path>
                </g>
            </g>
        </g>
    </g>
</svg>