<?xml version="1.0" encoding="utf-8"?>
<!-- Generator: Adobe Illustrator 22.0.1, SVG Export Plug-In . SVG Version: 6.00 Build 0)  -->
<svg version="1.1" id="Layer_1" xmlns="http://www.w3.org/2000/svg" xmlns:xlink="http://www.w3.org/1999/xlink" x="0px" y="0px"
	 viewBox="0 0 533.7 548" style="enable-background:new 0 0 533.7 548;" xml:space="preserve">
<style type="text/css">
	.st0{fill:#147AFB;}
	.st1{fill:#21C5FC;}
	.st2{fill:#5CABE9;}
	.st3{fill:#1068D6;}
	.st4{fill:#7EC2F8;}
	.st5{fill:#FED8B5;}
	.st6{fill:#EDBF98;}
	.st7{fill:#FEE4CD;}
	.st8{fill:#FFFFFF;}
	.st9{fill:#C6DCEC;}
	.st10{opacity:0.56;fill:#71E2D7;}
	.st11{opacity:0.74;fill:#21C5FC;}
</style>
<path class="st0" d="M338.8,335.3l-138.9-8.2v141.8c55.7,1.1,91.6,19.2,136.2,30.4l17.6,3.9L338.8,335.3z"/>
<path class="st1" d="M368.3,359.1c0,0-3.3,26-6.1,60.2s11,86.6,11,86.6l34.7,1.8c0,0-10.4-56.5,3.3-95c13.6-38.5,4.2-54.7,1.9-53.7
	C410.7,360.1,368.3,359.1,368.3,359.1L368.3,359.1z"/>
<path class="st1" d="M474.8,335.3c0,0,16.3,39.9-1.1,74.3c-9.3,18.3-7.2,94.3-7.2,94.3l-37.3,2.9c0,0-16.3-100.4-16.2-115.6
	s-4-29.4-4-29.4L474.8,335.3z"/>
<path class="st2" d="M398.3,180.2c0,0-13.2,4.1-16.7,10.8c-7.3,14.2-1.2,64.2-1.2,64.2l17.8-53.5v-21.5H398.3z"/>
<path class="st3" d="M52,390.7v103.9l53.7-13c0,0,1.2-55.1,6.2-55.7s10.8,52,10.8,52l52-8.3l-20.5-110.4L52,390.7z"/>
<path class="st4" d="M269.4,60.3c-6.9,2.3-20.3-5.2-30.6,1.7c-10.2,6.9-21.1,20-17.2,35.6s2.2,23-10,32.6s-19.1,22.6-7.8,33
	s16.6,21.1,36.4,23.9c19.7,2.8,60.2,3,68.1-8.2c7.9-11.3,11.4-13.5,23.1-13.5s22.1-11.7,13.5-33c-8.7-21.3-20-18.7-23-34.7
	c-3-16.1-9.1-32-22.9-38.6C287.2,53.4,275.9,58.2,269.4,60.3z"/>
<path class="st2" d="M242.1,78.7c0,0-3.9,14.8-9.1,21.6c-4.4,5.8-2.9,8.3-3.3,18.3c-0.4,8.9-2.5,12.2-11.1,16.6
	c-9.3,4.8-11.5,13.9-9.3,19.4c3.1,7.6,9.7,9.4,15.6,10.2c5.8,0.8,8.9,13.1,14.2,15.3c5.4,2.2,60.8,3.3,69.8-8.1
	c8.9-11.5,16.3-9.4,21.9-12.7c5.6-3.2,9.6-6.4,7.4-15s-5.6-6-13.3-14.1c-7.8-8.1-3.3-11.4-7.4-20.9s-20.1-15.8-20.6-17.6
	C296.3,89.8,242.1,78.7,242.1,78.7L242.1,78.7z"/>
<path class="st5" d="M256.5,133c0,0,4.8,18.7,2.2,24.7c-2.6,6.1-6.9,6.5-15.6,7.4s-5.6,22.6,33,21.7s30.3-20.8,30.3-20.8
	s-22.1-0.4-23-10c-0.9-9.5,0.4-23,0.4-23L256.5,133z"/>
<path class="st6" d="M257.7,138c0,0,2.7,14.4,12.7,13.5s13.3-14.4,13.3-14.4L257.7,138z"/>
<path class="st7" d="M245.3,105.8c0,0-2.7-7-6.3-3.4s0.4,16.6,8.9,16.2C256.3,118.2,245.3,105.8,245.3,105.8L245.3,105.8z"/>
<path class="st7" d="M295.9,105.8c0,0,2.7-7,6.3-3.4s-0.4,16.6-8.9,16.2S295.9,105.8,295.9,105.8L295.9,105.8z"/>
<path class="st7" d="M270.8,71.1c-21.2,0-27.8,4.7-27.8,29.5s15.3,43.7,27,43.7s27.7-20,27.7-44.4S294.9,71.1,270.8,71.1z"/>
<path class="st5" d="M243.9,88.4c3.8,5.8,12,16,28.9,17.4c15.5,1.3,22.3-2.9,25.2-6.4c0.1-1,0.1-2,0.1-3c0-3.3-0.1-6.2-0.2-8.9
	l-51.5-10.3C244.8,80.4,243.9,88.4,243.9,88.4L243.9,88.4z"/>
<path class="st0" d="M243.1,165.1c0,0,1.8,17.8,27.4,17.8s29.5-17.8,29.5-17.8s12.4-2,19.1,4.8s10.9,32.6,15.6,52.5
	c4.8,20,9.1,47.3,9.1,47.3l-145.9,2.6c0,0,5.2-21.2,7.8-49c2.6-27.9,11.3-48.2,16.5-53.8S243.1,165.1,243.1,165.1L243.1,165.1z"/>
<path class="st4" d="M242.1,78.7c0,0,0.4,22.1,36.4,22.1s29.9-16.9,29.9-16.9s-14.8-16.5-30.8-16.5S242.1,78.7,242.1,78.7
	L242.1,78.7z"/>
<path class="st0" d="M390.6,84.1c5-2.3,4.8-8.4,15.6-11.7c10.9-3.3,31-2,43.9,20.2c12.9,22.1,12.5,50.3,24.6,56.9
	c12.2,6.5,32.6,13,37.8,28.6c5.2,15.6,2.2,25.6,11.3,36.3c9.1,10.6-10,33.2-10,33.2s1.3-20.8-7.4-21.3c-8.7-0.4-6.5,12-19.1,12.3
	s-68.1-63.5-68.1-63.5s-17.4,8.2-30.4-14.1s-9.5-20-15.6-35C367.2,110.8,369.8,93.9,390.6,84.1L390.6,84.1z"/>
<path class="st3" d="M487.4,180.2c-11.7-6.4-17.9-5.3-27.7-28.6s-19.8-26.4-19.8-26.4l-57.5-2.6c0,0-1.5,15.2,2,24.7
	s9.1,20.2,26.8,24.2c2.6,0.6,5.2,1.9,7.9,3.7c0.1,0,0.1-0.1,0.1-0.1s0.1,0.1,0.3,0.4c9.5,6.5,19.2,18.9,25.5,27.9
	c16.3,17,35.5,35.4,42.3,35.3c11.4-0.2,10.7-10.6,17-12.1c0.3-5.8,0.6-15.4-0.4-23.3C502.5,191.1,499.1,186.6,487.4,180.2
	L487.4,180.2z"/>
<path class="st4" d="M419.3,175.1c0,0-3.2,5-11.4,5.1s-11.2-1.7-16,4.4s-12.6,49.5-14.8,60.8c-2.2,11.3-23.6,110.1-23.6,110.1
	s35.8,19.6,89.8,19.7c35.2,0.1,44-15.6,44-15.6s-19.5-89.8-18.2-112c1.3-22.1,3.5-57.4-3-63s-20.8-11.7-23-16
	c0,0-14.5,40.5-21.3,31.3C417.6,194,419.3,175.1,419.3,175.1L419.3,175.1z"/>
<path class="st5" d="M409.7,159.9c0,0,6.9,19.2,6.9,27s-0.4,17.4,6.1,16.3c6.5-1.1,12.8-8.1,20.4-23c4-7.8,0-11.6,0-11.6
	s-10.1-18.2-9.5-30.8S409.7,159.9,409.7,159.9L409.7,159.9z"/>
<path class="st7" d="M432.3,122.5c0,0,0.9-8.6,5.6-6c4.8,2.6,0,20-4.3,21.3S432.3,122.5,432.3,122.5L432.3,122.5z"/>
<path class="st6" d="M411.9,166.2l3,10.1c0,0,9.4-1,14.8-14.3s4-24.2,4-24.2L411.9,166.2z"/>
<path class="st7" d="M394.1,89.1c-10,5.3-14.3,18.2-11.7,33.4s15.2,44.8,27.8,43.5s22.1-16.5,23.4-28.2s0.4-28.6-3-38.6
	C427.1,89.1,409.7,80.9,394.1,89.1L394.1,89.1z"/>
<path class="st7" d="M444.9,264.9l-5,18.7c0,0-41-24.1-51.1-35.2c0,0-8-33.3-10.3-39.6c-2.2-6.4-3.2-11.2-5.1-10.8
	c-2,0.4,1.2,7.1,1.8,10.8s1.7,9.9,1.7,9.9s-3.6-11.3-6.3-16.6c-2.7-5.4-4.4-7.6-6-7.2s4,9.4,4.9,12.7s2.9,11.1,2.9,11.1
	s-7.6-17.1-9.4-20.9s-3.1-4.2-4.2-3.7c-1.1,0.6,4.2,10.4,5.4,13.5c1.1,3.1,2.9,11.1,2.9,11.1s-5.4-10.6-6.9-14.2
	c-1.6-3.6-4.9-10.9-6.5-10.4c-1.6,0.6,5.7,16.9,6.5,20.1c2.6,11.3,3.7,15.4,4,17c-2.1-0.2-4.9-7.6-5.7-10.1s-4.2-7.5-4-4.5
	s2.8,12,6,17.5s10.8,13.3,12.8,16.5s17.2,19.6,24.1,29.5s42.5,40.4,56,37.3s15.2-39.1,15.2-39.1L444.9,264.9z"/>
<path class="st2" d="M461.5,181.2c0,0-5.5,2.2-11.3,13c-5.7,10.9-5.7,38.6-7.9,50.3c-2.2,11.7-6.7,23.5-6.7,23.5s16.7,4.7,23.6,9.5
	s20.8,16.4,28.2,15.8c0-15.3-6.5-29.8-5.2-54.7S478.8,184.5,461.5,181.2L461.5,181.2z"/>
<g>
	<path class="st5" d="M264.2,124.3c0,0,1.5,2.6,6,2.6s6.3-2.6,6.3-2.6S268.9,122,264.2,124.3z"/>
	<path class="st5" d="M264.2,124.3c0,0,2.1-9.4,6.3-10.2c4.1-0.7,6,10.2,6,10.2H264.2z"/>
	<path class="st5" d="M393.6,126.9c0,0,0.7,13.5,0,18.9s6,3.4,7.1,0S397,127.8,393.6,126.9L393.6,126.9z"/>
</g>
<path class="st4" d="M58.1,186.9c0,0-11.8,6.6-17.1,17.2s11.2,49.3,8.6,57.3c-2.6,8-5.6,133.8-5.6,133.8s17.2,5.6,58.9-9.9
	c41.6-15.5,57.3,5.4,57.3,5.4l-18.1-189L58.1,186.9z"/>
<path class="st5" d="M101.7,137.1c0,0-4,19.7-8.1,28.3c-4,8.5-4,10.7-9.4,13.6c-5.4,3-10.8,3.9-10.8,3.9s10.8,18,32.3,18.9
	s22.4-15.7,22.4-15.7s-10.3-1.3-11.7-3.6s6.7-13,6.7-13L101.7,137.1z"/>
<path class="st5" d="M151,221c0,0,7.2,28.3,6.3,44.4S151,308,151,308l-14.4-43.5l11.9-13.6L151,221z"/>
<path class="st7" d="M35.7,234.5c0,0-4.5,38.5-3.1,52.4c1.3,13.9,1.8,44.9,12.1,48.9s55.2-5.8,70-10.5s28.3-10.6,28.3-10.6
	s13.9,4.9,17.9,0.9s16.4-4.5,13.3-13.5s-26.8-5-26.8-5s18.4-4,15.3-7.1s-21.9,4.9-26.1,8.2c-8.5,6.6-30.9,5.3-43,7.1
	s-25.1,5.8-29.6,0s2.2-56.5,2.2-56.5L35.7,234.5z"/>
<path class="st6" d="M101.7,137.1L98,152.5c0,0,0.3,29.3,15.2,31.4c3.3-1.5,13.2-15.3,13.2-15.3L101.7,137.1z"/>
<path class="st4" d="M81.7,180.2c0,0,9,14.5,23,14.6s16.7-10.1,16.7-10.1s16.8-1.2,23.9,10.1s-32.2,28.4-49.8,22.6
	s-37.3-30.5-37.3-30.5s6.6-5.5,21.7-5.9"/>
<path class="st7" d="M112.4,211.1c0,0,6.2,41.2,8.3,61.4c2.9,26.6,16.3,41.7,27.1,39s6.5-33.4-2.7-56.4
	c-10-25.1-24.2-52.5-23.3-57.6c0.9-5.2,2.2-22.5,2.2-22.5s-13.4-8.7-18.4-8.7c-4.9,0-5.8,3.9-6.7,12.7s0,11.9,2.7,11.9
	s2.3-14,5.9-11.9s4,8.3,0.4,10.1s-4,7.2-2.2,12.6S112.2,204.8,112.4,211.1z"/>
<path class="st2" d="M30.3,249.2c0,0,2.7-29.6,6.7-38.6s14.8-20.8,25.1-11.3s12.6,20.3,11.2,32.4c-1.3,12.1-4,32.7-4,32.7
	S44.2,265.4,30.3,249.2L30.3,249.2z"/>
<path class="st2" d="M145.2,255.1c9.4,1.3,15.2-5.8,15.2-5.8s-7-51.4-15.2-54.4c0,0-7.5,1.4-8.7,19.4
	C135.4,232.3,145.2,255.1,145.2,255.1z"/>
<path class="st7" d="M104.7,122.2c0,0,0.1-8.1-5.7-5.8c-5.8,2.2-4,20.2,2.7,20.6C108.4,137.5,104.7,122.2,104.7,122.2L104.7,122.2z"
	/>
<path class="st7" d="M120.1,173.9c14.4,6.2,28.3-15.7,34.5-30.5c6.3-14.8,15.3-28.7,6.3-38.1s-21.5-12.6-35.9-6.7
	c-14.4,5.8-22.9,24.7-23.3,38.6C101.2,151,107.5,168.5,120.1,173.9z"/>
<path class="st5" d="M122.7,113.1c0,0,4-0.6,8.2,5.5s10.3,10.6,17.6,12.3s12-0.7,12-0.7l2.9-7.6c0,0-26.5-15.8-32.9-16.5
	c-6.5-0.7-7.7,3.9-7.7,3.9L122.7,113.1L122.7,113.1z"/>
<path class="st2" d="M98,116.3c0,0,6.6-3.3,7,4.4c0.6,9.5,10.6,7.3,13.3,1.5s5.4-14.8,12.1-12.1s17.5,20.3,31.9,15.8
	c14.3-4.5,14.8-22.9,6.7-28.3s-24.2-4.9-24.2-4.9s4-3.1,1.3-4.5s-20.6,7.4-20.6,7.4s-2.2-5.1-7.6-4.2S101.1,103.6,98,116.3L98,116.3
	z"/>
<path class="st5" d="M136.6,144.3c0,0-10.1,10-8.5,13.5c1.7,3.5,5.4,5.4,8,3.5C138.7,159.3,140.3,145,136.6,144.3z"/>
<path class="st5" d="M382.4,122.5c0,0,9.6-3.7,10.5-13.2c2.7,0.8,9.1,12.8,22.1,13.2c13,0.5,19.8-9.8,19.8-9.8l-21.7-17.2l-15.8-6.3
	l-5.9,3.5l-8.9,2.8l-0.4,12.2l-0.5,7.9L382.4,122.5z"/>
<path class="st0" d="M391.4,90.9c-0.6,9.5,9,17.7,17.7,21.7c2.3,1,4.7,1.7,7.1,2.2c6.2,1.3,13.1,1.3,18.6-2.1
	c-2-4.8-4.1-9.5-6.1-14.3c-0.9-2.2-1.9-4.4-3.3-6.3c-2.8-3.7-7.2-5.8-11.6-7.2"/>
<path class="st0" d="M379.6,126.4c-1.5-2-2-4.5-2.5-7c-1-5.5-2-11.3,0.1-16.4c1.8-4.7,5.9-8.1,9.8-11.2c1.7-1.3,3.7-2.7,5.8-2.5
	c-2.3,2.7-3.8,6.1-4.2,9.6c-0.2,1.7-0.2,3.3-0.3,5c-0.3,7.9-2.1,16.1-6.9,22.3c-0.3,0.3-0.6,0.7-1,0.7
	C380.1,126.9,379.8,126.6,379.6,126.4L379.6,126.4z"/>
<path class="st2" d="M254.8,73c0,0,0.7,15.6,15.5,18.6c19.2,3.9,33.2-3.6,33.2-3.6s-17.1,1.2-32.5-2.3C261.7,83.7,254.8,73,254.8,73
	z"/>
<path class="st2" d="M58.8,374.9c0,0,5.6,6.8,12.5,6.4c12.7-0.6,28.5-15.5,41.9-15.5c-4.9-6-30.3,6.8-37.2,7.9s-21.4-9.6-21.4-9.6
	L58.8,374.9z"/>
<path class="st4" d="M126.4,106c0,0,6.8-5,12.3,0s6.9,13.3,15.5,13.2s16.1-5.9,11.4-9.9c-4.7-4.1-17.7,2-22.5-5.5
	C138.2,96.2,126.4,106,126.4,106L126.4,106z"/>
<path class="st3" d="M391.4,90.9c0,0,23.5-6.9,27.5,7c6.5,22.6,33.8,40.1,33.8,40.1s-2.5-21.3-10.3-36.6
	c-7.8-15.2-21.2-19.5-30.6-20.4C395.7,79.2,391.4,90.9,391.4,90.9z"/>
<path class="st5" d="M377.2,245.4c0,0-3.8-12-8.8-15.2s4.1-4,7.7-3.6C379.6,227,381.5,244.6,377.2,245.4z"/>
<circle class="st8" cx="266.3" cy="339" r="117.8"/>
<circle class="st9" cx="266.3" cy="339" r="111.9"/>
<path class="st4" d="M262.3,232.7c0,0,67,11.6,85.4,73.1s-11.5,112.4-11.5,112.4s56.2-47.5,25.9-123.6S262.3,232.7,262.3,232.7
	L262.3,232.7z"/>
<path class="st10" d="M293.1,403.7c-1.6-3.9-5-7.1-9.1-7.7c-2.2-0.3-4.7,0.2-6,2c-1.5,2-1.2,4.8-1.4,7.3
	c-0.7,6.9-7.6,12.5-14.5,11.9s-12.6-7.4-12.1-14.3c0.5-6.8,6-12,11.6-16c5.6-3.9,11.8-7.4,15.2-13.3c1.6-2.6,2.4-6,1.1-8.8
	c-1.4-3-5-4.3-8.3-4.2c-3.3,0.2-6.3,1.6-9.3,3.1c-3.7,1.8-7.5,3.6-11.2,5.4c-3.8,1.8-7.8,3.7-12,3.6s-8.7-2.8-9.4-7
	c-0.6-4.1,2.6-7.8,6.3-9.6s7.9-2.2,11.8-3.3c8.4-2.4,15.8-8.4,19.9-16.1c0.9-1.7,1.7-3.6,1.6-5.5c-0.3-5.2-6.8-7.8-12-7
	s-9.9,3.7-15,4.2c-5.2,0.6-11.6-2.7-11.2-7.9c0.2-2.5,1.9-4.7,2-7.3c0.1-2.5-1.7-5-4.1-5.7s-5.2,0.5-6.5,2.7c-0.5,0.9-0.8,2-1.2,3
	c-1.8,4.2-7.1,6.6-11.5,5.1s-7.1-6.6-5.9-11.1c1.3-5,6.4-7.9,10.7-10.7c4.7-3.1,9-6.7,12.7-10.9c2.1-2.3,4.1-4.9,4.7-7.9
	s-0.7-6.6-3.5-7.8c-5.5-2.3-10.3,5.2-16.2,6.1c1.9-5.9,5.4-11.3,10.2-15.3c1.6-1.4,3.4-2.7,4.1-4.8c0.9-3-1.3-6.3-4.2-7.4
	s-6.2-0.6-9.2,0.3c-8,2.5-15.3,8-18.9,15.6c-2,4.2-2.8,8.8-3.6,13.3c-0.1,0.8-0.3,1.7-0.4,2.5c-0.4,0.9-0.9,1.8-1.4,2.6
	c-0.5,0.9-1.3,1.8-2.3,1.8c-2-0.1-1.7-3.2-2.5-5.1c-1-2.4-4.6-2.7-6.7-1.2s-3,4.2-3.5,6.8c-1.3,7.1-0.4,14.5,2.7,21
	c2.2,4.5,5.3,8.5,7.6,13c1.7,3.2,2.9,6.7,3.7,10.3c0.3,2,0.5,4,0.3,6c-0.4,2.9-2,5.8-4.7,6.9c-3,1.1-6.4-0.3-8.6-2.6s-3.5-5.2-5.1-8
	c-0.7-1.2-1.6-2.5-3-2.6c-1-0.1-2,0.6-2.7,1.3c-7,6.6-5.9,18.6-0.3,26.4c3.7,5.2,8.9,8.9,14.5,12.1c2.4,3,4.4,6.2,5.6,9.8
	c1.6,4.6,2.4,9.1,3.5,13.4l-0.2,0.2c0.3,0.9,0.6,1.7,1,2.5c1.6,5.3,4.1,10.2,9.7,14.2s12.2,6.9,16.6,12.1c2.9,3.5,4.8,7.7,7.4,11.5
	c7.2,10.5,20.5,16.5,33.1,14.9c9.1-1.1,17.6-6.2,23.3-13.4c7.9-3.4,14.5-9.9,17-18.1C294.5,412,294.7,407.6,293.1,403.7L293.1,403.7
	z"/>
<path class="st11" d="M275.7,267.5c2.8-1.3,6.1-0.2,8.7,1.5c6.5,4.4,9.9,12.2,10.6,20s-0.8,15.5-2.5,23.1
	c-1.4,6.3-3.6,13.5-9.5,16.1c3.8-8.6,4.5-18.9,0.8-27.5c-3.6-8.4-11.1-15.2-11.9-24.3C271.6,272.9,272.6,269,275.7,267.5
	L275.7,267.5z"/>
<path class="st10" d="M257.3,273.5c2.5,1.9,1.8,5.8,0.2,8.5c-5.3,9.2-17.1,13.5-21.2,23.3c0-11.4,4-23.4,13.1-30.4
	C251.7,273.2,255,271.8,257.3,273.5L257.3,273.5z"/>
<path class="st11" d="M326.4,304.9c3.1-1.7,7.2,1.1,8,4.6s-0.7,7.1-2.4,10.2c-1.6,3-3.4,5.9-5.5,8.7c-1.4,1.9-3.2,4-5.5,4.3
	c-0.6,0.1-1.2,0-1.5-0.5c0.5-1.9,1.1-3.7,1.6-5.6c1-3.7,2.1-7.5,2.2-11.3c0-1.9-0.1-3.8,0.2-5.7S324.7,305.8,326.4,304.9z"/>
<path class="st10" d="M292.9,352.5c2.3-2.3,6.5-1.9,8.9,0.3s3.3,5.7,3.2,9c-0.1,3-1,6-2.2,8.8c-1.4,3.4-3.1,6.7-5.2,9.7
	c-2.5,3.7-5.9,7.3-10.3,7.5c3.1-8.2,4.3-17,3.7-25.8C290.9,358.7,290.5,354.8,292.9,352.5L292.9,352.5z"/>
<path class="st11" d="M190.9,384.1c-7.3,0.2-14.6-2.7-19.8-7.8s-8.2-12.3-8.2-19.6c0-3.4,1.3-7.5,4.7-8c2.7-0.4,5.1,1.9,6.5,4.3
	c2.4,4.1,3.3,8.8,4.7,13.4c1.4,4.5,3.5,9.1,7.3,11.9C188.3,379.8,191.4,381.5,190.9,384.1L190.9,384.1z"/>
<path class="st11" d="M266.8,291.8c1.4,0.6,2.6,1.5,3.6,2.6c5.6,5.7,6.7,14.7,5.5,22.6c-1.3,8-4.5,15.5-6.3,23.3s-2,16.6,2.3,23.4
	c5.2,8.1,16.7,11.3,25.3,7.1c6.7-3.3,10.9-10,14.5-16.6s7-13.5,13-18s15.4-5.5,20.4,0s3.4,14.3,0.3,21.1
	c-3.6,7.8-8.8,14.9-15.2,20.8c-2.2,2-4.6,3.9-6.2,6.5c-1.5,2.6-2.1,6-0.3,8.5c1.6,2.3,4.8,3.1,7.6,2.7s5.3-1.9,7.7-3.4
	c2.3-1.4,5-3,7.6-2.3c2.5,0.7,4.1,3.4,4.2,6s-1,5.1-2.2,7.5c-5.8,10.9-15.4,19.3-24.9,27.2c-5.9,4.9-12.3,9.9-19.9,11.1
	c-3,0.5-6.2,0.3-8.7-1.4s-3.8-5.3-2.4-7.9c-6.7-5.4-16.5-2.1-24.8,0.1c-25.6,6.8-54.6-1.1-73.2-20c-3.9-3.9-7.5-8.7-7.7-14.3
	c-0.1-5.5,4.8-11.4,10.2-10.1c4.5,1,6.8,5.8,10,9.1c3.4,3.5,8.6,5.5,13.4,4.4s8.9-5.4,9-10.3c0.1-5.3-3.9-9.7-7.7-13.4
	c-7.6-7.4-15.9-14.8-19.7-24.7c-3.6-9.4-2.7-20.4,2.5-29.1c2.2-3.6,6.2-7.2,10.1-5.7s4.6,6.6,4.5,10.8s0,9.2,3.6,11.4
	c2.2,1.4,5.1,1.1,7.4-0.1c4.3-2.1,7-6.6,8.4-11.2s1.8-9.4,3-14.1c1.7-6.7,5.1-12.9,9.7-18C255.3,293.1,261.4,289.5,266.8,291.8
	L266.8,291.8z"/>
</svg>
