<svg xmlns="http://www.w3.org/2000/svg" viewBox="0 0 1366 768"><linearGradient id="a" gradientUnits="userSpaceOnUse" x1="8.662" y1="659.288" x2="136.713" y2="787.337" gradientTransform="matrix(5.4468 0 0 -5.4468 228.191 4183.149)"><stop offset="0" stop-color="#2941c1"/><stop offset=".721" stop-color="#00aeef"/></linearGradient><path fill="url(#a)" d="M1072.4 0H241.8c-7.6 0-13.6 6-13.6 13.6v525.6c0 7.6 6 13.6 13.6 13.6h678v-27.2H255.4V27.2h803.4v385.6h27.2V13.6c.1-7.6-5.9-13.6-13.6-13.6z"/><linearGradient id="b" gradientUnits="userSpaceOnUse" x1="136.4" y1="626.95" x2="157.5" y2="648.05" gradientTransform="matrix(5.4468 0 0 -5.4468 228.191 4183.149)"><stop offset="0" stop-color="#2941c1"/><stop offset=".497" stop-color="#00aeef"/></linearGradient><path fill="url(#b)" d="M1124.2 724.4H933c-7.6 0-13.6-6-13.6-13.6s6-13.6 13.6-13.6h191.2c7.6 0 13.6 6 13.6 13.6s-6 13.6-13.6 13.6z"/><linearGradient id="c" gradientUnits="userSpaceOnUse" x1="33.075" y1="649.525" x2="99.425" y2="715.875" gradientTransform="matrix(5.4468 0 0 -5.4468 228.191 4183.149)"><stop offset="0" stop-color="#2941c1"/><stop offset=".497" stop-color="#00aeef"/></linearGradient><path fill="url(#c)" d="M241.3 451h695.6v27.2H241.3z"/><linearGradient id="d" gradientUnits="userSpaceOnUse" x1="136.4" y1="672.15" x2="157.5" y2="693.25" gradientTransform="matrix(5.4468 0 0 -5.4468 228.191 4183.149)"><stop offset="0" stop-color="#2941c1"/><stop offset=".497" stop-color="#00aeef"/></linearGradient><path fill="url(#d)" d="M1124.2 478.2H933c-7.6 0-13.6-6-13.6-13.6s6-13.6 13.6-13.6h191.2c7.6 0 13.6 6 13.6 13.6s-6 13.6-13.6 13.6z"/><linearGradient id="e" gradientUnits="userSpaceOnUse" x1="59.638" y1="629.813" x2="95.563" y2="665.737" gradientTransform="matrix(5.4468 0 0 -5.4468 228.191 4183.149)"><stop offset="0" stop-color="#2941c1"/><stop offset=".497" stop-color="#00aeef"/></linearGradient><path fill="url(#e)" d="M819.2 648.2h-49.6l-25.1-95.3h-28.3l25.1 95.3H561.5l25.1-95.3h-28.3l-24.5 95.3h-52.3c-7.6 0-13.6 6-13.6 13.6s6 13.6 13.6 13.6H819.1c7.6 0 13.6-6 13.6-13.6s-5.9-13.6-13.5-13.6z"/><linearGradient id="f" gradientUnits="userSpaceOnUse" x1="122.6" y1="635.4" x2="171.3" y2="684.1" gradientTransform="matrix(5.4468 0 0 -5.4468 228.191 4183.149)"><stop offset="0" stop-color="#2941c1"/><stop offset=".497" stop-color="#00aeef"/></linearGradient><path fill="url(#f)" d="M1102.4 412.9H954.9c-19.6 0-35.4 15.8-35.4 35.4V731c0 19.6 15.8 35.4 35.4 35.4h147.6c19.6 0 35.4-15.8 35.4-35.4V448.3c-.1-19.6-15.9-35.4-35.5-35.4zm8.2 318.1c0 4.4-3.8 8.2-8.2 8.2H954.8c-4.4 0-8.2-3.8-8.2-8.2V448.4c0-4.4 3.8-8.2 8.2-8.2h147.5c4.4 0 8.2 3.8 8.2 8.2V731z"/></svg>