<svg xmlns="http://www.w3.org/2000/svg" viewBox="0 0 1366 768"><linearGradient id="a" gradientUnits="userSpaceOnUse" x1="556.679" y1="653.675" x2="775.408" y2="653.675"><stop offset="0" stop-color="#2941c1"/><stop offset=".497" stop-color="#00aeef"/></linearGradient><path fill="url(#a)" d="M762.4 666.7H569.7c-7.2 0-13-5.8-13-13s5.8-13 13-13h192.6c7.2 0 13 5.8 13 13s-5.7 13-12.9 13z"/><linearGradient id="b" gradientUnits="userSpaceOnUse" x1="565.503" y1="705.466" x2="766.584" y2="705.466"><stop offset="0" stop-color="#2941c1"/><stop offset=".497" stop-color="#00aeef"/></linearGradient><path fill="url(#b)" d="M753.5 718.5h-175c-7.2 0-13-5.8-13-13.1 0-7.2 5.8-13 13-13h175c7.2 0 13 5.8 13 13 .1 7.3-5.8 13.1-13 13.1z"/><linearGradient id="c" gradientUnits="userSpaceOnUse" x1="590.18" y1="754.073" x2="741.906" y2="754.073"><stop offset="0" stop-color="#2941c1"/><stop offset=".497" stop-color="#00aeef"/></linearGradient><path fill="url(#c)" d="M728.9 767.1H603.2c-7.2 0-13-5.8-13-13s5.8-13 13-13h125.6c7.2 0 13 5.8 13 13s-5.7 13-12.9 13z"/><linearGradient id="d" gradientUnits="userSpaceOnUse" x1="411.832" y1="305.636" x2="934.76" y2="305.636"><stop offset="0" stop-color="#2941c1"/><stop offset=".497" stop-color="#00aeef"/></linearGradient><path fill="url(#d)" d="M769.6 611.5H563.2c-6.9 0-12.6-5.3-13-12.2-1-14.4-5.5-56-15-74.8-12.1-24.2-69.6-104.5-70.2-105.3-.1-.1-.2-.3-.3-.4-34.6-45.7-52.9-100.2-52.9-157.6C411.8 117 529.1-.2 673.3-.2s261.5 117.3 261.5 261.5c0 69.9-27.2 135.5-76.6 184.9-16.9 21.6-31.2 38-42.8 51.3-13.4 15.4-23.1 26.5-26.3 33.9-4.2 9.5-6.3 45.1-6.4 67.3-.1 7-5.9 12.8-13.1 12.8zm-194.5-26.1h181.7c.5-19 2.4-51.2 8.4-64.8 4.9-10.9 15.1-22.6 30.5-40.4 11.4-13.1 25.5-29.3 42.1-50.5.2-.3.4-.5.6-.8.2-.3.5-.5.7-.7 44.8-44.5 69.5-103.8 69.5-167 0-129.8-105.6-235.4-235.4-235.4S437.8 131.4 437.8 261.2c0 51.9 16.6 101.2 48.1 142.5.2.3.5.7.7 1 6.1 8.6 59.3 83.1 71.8 108.2 10.1 19.8 14.8 54.2 16.7 72.5z"/><linearGradient id="e" gradientUnits="userSpaceOnUse" x1="518.509" y1="445.231" x2="828.552" y2="445.231"><stop offset="0" stop-color="#2941c1"/><stop offset=".497" stop-color="#00aeef"/></linearGradient><path fill="url(#e)" d="M658.4 611.5c-5.8 0-11-3.9-12.6-9.7-.1-.5-13.6-50.9-22.9-75.2-8.4-21.7-28.2-50.1-53.8-64.4-32.3-18.1-50.7-55.2-50.5-102 .2-46.6 30.6-66.2 59-69.1 11.8-1.2 24.6.5 36.3 4.8 10.8-9.7 27.2-17.6 51.6-17 22.5.5 42.9 8.7 59.2 23.3 9.7-10.3 20.9-16 32.5-16.5 36.6-1.5 54.1 13.9 62.2 27 16.4 26.6 8.8 66-5.1 91.4-13.7 24.8-32.3 39.8-48.8 53.1-3.9 3.1-7.6 6.2-11.2 9.2-13.8 11.9-23.8 45.9-29.2 64.2l-1.4 4.7c-5.5 18.5-13.2 64.7-13.3 65.2-1.2 7.1-7.9 11.9-15 10.8-7.1-1.2-11.9-7.9-10.8-15 .3-2 8-48.4 14-68.5l1.4-4.6c6.6-22.3 17.6-59.6 37.2-76.5 3.8-3.2 7.7-6.5 11.8-9.8 15.3-12.4 31.1-25.1 42.3-45.4 10.7-19.3 15.7-48.9 5.8-65-6.5-10.5-19.5-15.4-39-14.6-5.2.2-11 4.1-16.4 10.5 1.5 2.4 3 4.8 4.4 7.4 14.5 26.5 17.3 57.2 6.7 74.6-5.9 9.7-15.5 15-26.7 14.7-14.5-.4-30.1-11.2-30.4-40.4-.1-17 5.1-37.6 13.8-54.6-9.9-9.8-24.4-18.5-44.8-18.9-10.7-.2-19.6 1.6-26.8 5.5 8.1 7.5 14.1 17.1 16.4 28.5 6.4 31.2 4.1 53.7-6.7 67-6.5 8-15.7 12.2-26.6 12.2-5.7 0-14-2.6-21-14.8-10.2-17.9-15.8-55.7-2.5-85.1-5.8-1.3-11.9-1.8-17.5-1.2-13.2 1.3-35.3 8.7-35.4 43.2-.1 37.6 13.1 65.7 37.2 79.2 33.4 18.7 56.1 53.6 65.4 77.8 9.9 25.7 23.2 75.8 23.8 77.9 1.9 7-2.3 14.1-9.3 16-1.1 0-2.2.1-3.3.1zm68.3-262c-3.1 9.1-5 19-4.9 28.8 0 5 1.1 14.5 4.9 14.6 1.6 0 2.6-.3 3.7-2.2 4.3-7 3.8-23.9-3.7-41.2zm-105.9-19.2c-.3.6-.5 1.2-.8 1.9-9.1 24-1.8 52.5 3.5 59.8 2.1-.4 3.2-1.4 3.9-2.4 2-2.4 8-12.9 1.4-45.2-1.1-5.5-3.9-10.2-8-14.1z"/></svg>