<svg xmlns="http://www.w3.org/2000/svg" viewBox="0 0 1366 768"><linearGradient id="a" gradientUnits="userSpaceOnUse" x1="219.131" y1="442.443" x2="866.989" y2="442.443"><stop offset="0" stop-color="#2941c1"/><stop offset=".497" stop-color="#00aeef"/></linearGradient><path fill="url(#a)" d="M543.1 766.4c-178.6 0-323.9-145.3-323.9-323.9s145.3-323.9 323.9-323.9S867 263.8 867 442.4s-145.3 324-323.9 324zm0-619.5c-163 0-295.6 132.6-295.6 295.6 0 163 132.6 295.6 295.6 295.6s295.6-132.6 295.6-295.6c-.1-163-132.7-295.6-295.6-295.6z"/><linearGradient id="b" gradientUnits="userSpaceOnUse" x1="605.212" y1="274.07" x2="1146.869" y2="274.07"><stop offset="0" stop-color="#2941c1"/><stop offset=".497" stop-color="#00aeef"/></linearGradient><path fill="url(#b)" d="M1132.7 544.9H619.4c-7.8 0-14.2-6.3-14.2-14.2V17.4c0-7.8 6.3-14.2 14.2-14.2h513.3c7.8 0 14.2 6.3 14.2 14.2v513.3c0 7.8-6.4 14.2-14.2 14.2zm-499.1-28.4h484.9V31.6H633.6v484.9z"/><linearGradient id="c" gradientUnits="userSpaceOnUse" x1="605.212" y1="628.065" x2="1146.869" y2="628.065"><stop offset="0" stop-color="#2941c1"/><stop offset=".497" stop-color="#00aeef"/></linearGradient><path fill="url(#c)" d="M1132.7 642.2H619.4c-7.8 0-14.2-6.3-14.2-14.2s6.3-14.2 14.2-14.2h513.3c7.8 0 14.2 6.3 14.2 14.2s-6.4 14.2-14.2 14.2z"/></svg>