<svg xmlns="http://www.w3.org/2000/svg" viewBox="0 0 459 272"><path fill="#0076FF" d="M291.1 234.6s5.1 9 8.5 21.9c3.4 12.9-16.5 15.5-16.5 15.5H164.5s22.7-17 34.9-22.3c14.1-6 22.5-11.9 22.5-11.9l69.2-3.2zM26.9 240.9L7 272h20.8l18.5-31.1zM353.2 240.9L373 272h-20.7l-18.6-31.1zM237 39.3c-7.7 3.9-17.5-.2-21.8 5.1s1.6 12.4-5.1 20.8c-6.6 8.3-19.9 13.4-15.2 30.9s14 16 22.6 15.6c8.6-.4 19.5 0 26.1 2.3 6.6 2.3 15.6 12.1 26.5 5.1s10.1-16.6 17.5-21.1c7.4-4.6 13.2-14.3 3.5-23.3S274 59.5 271.6 51.3c-2.3-8.1-17.9-20.6-34.6-12z"/><path fill="#FFD8B5" d="M188.3 184.4s-4.7 16.7-16.4 23.2c-6.5 3.6-37 12.3-46.3 12.7s-19.5-3.1-24.9 0c-5.5 3.1-5.8 11.3-5.8 11.3s81-2.9 85.7-3.5c4.1-.5 25.6-33.9 25.6-33.9l-17.9-9.8z"/><path fill="#00B8F0" d="M219.5 121.6s-6.6 1.7-9.9 7.5c-3.4 5.8-8.8 28.4-12.3 35.8-3.5 7.4-9 19.5-9 19.5s11.9 11.7 17.8 11.7c3.5-4.7 14.5-22.8 14.5-22.8l-1.1-51.7z"/><path fill="#00C4FF" d="M255.1 115.1s20 .2 25.5 6.5 8.2 107.8 8.2 107.8l-66.8.2s-1.9-45.2-4.9-49.1c-3.1-3.9-11.6-14.4-5.1-28 4.3-9 7.2-23.4 7.5-30.9 5.5-3.5 9.7-3.8 9.7-3.8"/><path fill="#FFE4CC" d="M263.2 192.6l-.3 14.8s-11.4 4.7-21 6.2c-9.6 1.6-41.6 1.9-50.5 3.1-9 1.2-12.9-2.3-23.4 0-10.5 2.3-12.9 11.3-12.9 11.3s118.2 3.1 127.8 0c9.7-3.1 4.2-40.9 4.2-40.9l-23.9 5.5z"/><path fill="#0064D9" d="M261.9 86.8l11.3-1s7.2.4 1.5 9.3-1 11.8-6.4 17.6c-5.3 5.8-19.9 5.8-29.4 0-9.4-5.8-9.8-6-24.5-5.2-13.3.7-16.4-8.2-14.5-19.9s8.2-15.3 12-20.3c5.1-6.6 2.3-12.2 8.7-17.6s17.5 2.4 17.5 2.4l23.8 34.7z"/><path fill="#FFD8B5" d="M220.7 89.4s7.4 8.2 8.5 14.8c1.2 6.6 0 13.6 0 13.6s-9 10 2.7 15.3c11.7 5.3 29.1-4.2 31-11.6 1.9-7.4-7.8-6.5-7.8-6.5s-13.2-13-5.9-27.5c4-7.7-28.5 1.9-28.5 1.9z"/><path fill="#EDBF98" d="M247.2 93.9c.1-.8.3-1.6.5-2.3.7-9.2-18 2-22.1 4.5 1.6 2.5 3.1 5.5 3.6 8.1.3 1.8.5 3.7.5 5.4 0 .1 14.6-6.5 17.5-15.7z"/><path fill="#FFE4CC" d="M257 81.4c6.3-10.6 7.8-26.1-3.2-33.2-10.6-6.8-21.8-4.3-29.6 5.5-7.8 9.7-18.5 31.8-7.4 40.1 9.9 7.4 22.3 4.2 32.5-3.7 0 0 8.8 1.8 12.7-3.3 3.8-5-4.6-6.1-5-5.4z"/><path fill="#00C4FF" d="M280.6 121.6s-18.7 4.4-21.8 26.6c0 1.9 4.2 47.9 4.2 47.9s12.2-6.6 17.7-7c5.5-.4 9.3.8 9.3.8s1.6-32.3 0-47.9-9.4-20.4-9.4-20.4z"/><path fill="#FFD8B5" d="M257 81.4c.8-1.3 1.5-2.7 2.1-4.2-3-4.5-5.8-10.2-5.6-16.1.1-7.3-.8-11.8-2.7-14.5-6.4-3.1-13-2.8-18.7.3 0 0 8 4.9 9.8 15.8 1.9 11 2.4 22.1 11.2 23.1 3.9.4 7 .5 9.2.4 2.9-4.5-4.9-5.4-5.3-4.8z"/><path fill="#0076FF" d="M237 45s8.6 2.9 10.6 13.4 1.4 23.3 12 27.4c10.6 4.1 13.7 0 13.7 0s.8-31.5-8.2-37.2C248.3 38.1 237 45 237 45z"/><path fill="#FFD8B5" d="M226.9 67.3s-10.9 6.2-9.7 8.2c1.2 1.9 3.5 3.5 3.5 3.5l6.2-11.7z"/><path fill="#00B8F0" d="M268.3 132.1s-6 6.7-6.5 20.2 0 23.9 0 23.9-7.2-12.9-6.3-27.7 12.8-16.4 12.8-16.4z"/><path fill="#0064D9" d="M250.9 49.7s4.2 3.9 5.2 12c.9 8.1.1 17.1 7.1 19.5 7 2.4 11.5-2.2 11.5-2.2s-11.3.2-11.5-9.2c-.4-17.7-12.3-20.1-12.3-20.1z"/><g><path fill="#C5DCED" d="M173.6 201.8H32.4c-5.5 0-10-4.5-10-10v-86.7c0-5.5 4.5-10 10-10h141.2c5.5 0 10 4.5 10 10v86.7c0 5.5-4.5 10-10 10z"/><path fill="#FFF" d="M119.7 217.9V176c0-4-3.3-7.3-7.3-7.3h-15c-4 0-7.3 3.3-7.3 7.3v41.9c-3.5 8.3-12.9 10.8-12.9 10.8h58.4c.1 0-12.7-3.1-15.9-10.8zm-15.1-41.6c4.2 0 7.7 3.4 7.7 7.7s-3.4 7.7-7.7 7.7c-4.2 0-7.7-3.4-7.7-7.7s3.5-7.7 7.7-7.7z"/></g><g><path fill="#FFD8B5" d="M346.9 164.9l-35.6-17.1c-.1-1.5-.9-8.1-8.1-10.2-4.1-1.2-8.1-2.3-8.1-2.3s-2.5 2.4 2.8 4.4c-2.1.1-4.5.3-7.7.8-5.4.7-16.2 1-16.1 3 0 2.2 7.9 1.8 13.6 2-.7.8-2.5 3.3-.9 4.3 2 1.2 3.8 1 3.8 1s-2.8.5-2.3 2.2c.4 1.4 6.4 3.7 8.5 4.5.1 0 .2.1.3.1.3.1.4.2.4.2 4.4 1.5 7.4 1.1 9.6-.4 0 0 0 .1.1.1 3.6 6.2 37.2 23.2 37.2 23.2l4.4-6.8-1.9-9z"/><path fill="#00B8F0" d="M379.6 203.6L412 272h38.2s-8.8-31.3-8.7-48.1"/><path fill="#00C4FF" d="M439.5 180.5s8.2 14.6 9.1 16.7c2.1 4.9 5.3 16.5-3.6 35.2-5 10.4-32.2 39.6-32.2 39.6H364s19.3-52.3 18.9-67l37-24.5"/><path fill="#0064D9" d="M344.3 163.7c.2.1 2.2 5.4 1.5 9.4-.7 4-2.4 7.3-2.4 7.3s9.3 4.5 20.5 2 19-29.4 19-29.4l-14.5-16.6s-5.7 22.3-11.7 24.8c-6.1 2.4-12.4 2.5-12.4 2.5z"/><path fill="#7BC1FA" d="M360.3 6.3s16.8-5.3 28.8-2.1c12 3.2 18.8 19.8 21.1 31.1 2.3 11.3-6.1 26.2 3.3 34.7 9.4 8.5 19.2 9.2 26.9 25.6 7.7 16.4-3.1 45.1 5.3 48.8 8.5 3.7 13.3-.8 13.3-.8s-8.6 17.7-19.5 12c-11-5.7-28-7-36.4-6.7-8.4.3-4.9-69.7-33.9-74.1-35.1-5.2-56.3-44.6-8.9-68.5z"/><path fill="#58AAED" d="M437.5 138.5c-1-8.8-1.7-21.9-2.8-31.6-1.1-9.7-7.4-20.5-17.8-26.8-10.4-6.3-16-14.4-19.5-22.6-2.2-5.3-5.2-8-7-9.3-1-.7-1.7-1-1.7-1l-16 11.9 4.1 18.8c7.1 4.8 11.5 14.6 14.6 25.3l26.8 46.5c7.3.9 15.3 2.7 21.4 5.9 5.8 3 11-.6 14.5-4.6-.1.1-14.6 4.7-16.6-12.5z"/><path fill="#FFD8B5" d="M359.3 71.7c7.1 20 10.7 31.6 10.7 31.6l29.9-20.6s-8.9-4-15.7-11-4.4-19.4-4.4-19.4l-20.5 19.4z"/><path fill="#EDBF98" d="M365.1 88.4s15.5-13.9 14.5-26.9c-.1-.4-.1-.8-.1-1.1-.5-3.3-2-4.3-3.9-3.9l-16.2 15.3c2.2 6.4 4.1 12 5.7 16.6z"/><path fill="#00B8F0" d="M432.1 215.6c-8.4 18.5-36.7 56.4-36.7 56.4h18.4c5.9-7 26.8-30.4 31.2-39.6 8.9-18.7 5.7-30.2 3.6-35.2-.9-2.1-9.1-16.7-9.1-16.7l-12.4 6.4c.1 0 13.4 10.2 5 28.7z"/><path fill="#FFE4CC" d="M354 14.6C341.4 20 339.6 34.9 341.5 48c1.9 13.1 5.1 25.1 16.7 25.7 11.6.6 27.5-17.3 28.7-30.8C388 29.3 375 5.7 354 14.6z"/><path fill="#FFE4CC" d="M386.6 37.3s3.3-8.5 6.2-4.2-1.7 18.5-7.1 18.4c-5.4-.1.9-14.2.9-14.2z"/><path fill="#FFD8B5" d="M368.8 36.9c8.5 1.4 18.7 7.1 22.6 9.4.3-.5.5-1.1.7-1.6l-2.5-7.8-2.1-1.5c-.5 1-.9 1.9-.9 1.9-.1-.9-.3-1.9-.6-2.9l-10.3-7.1L350.9 17s-.7.1-1.7.5c-2 1.6-3.6 3.6-4.8 5.8 3.5 2.9 15.5 12.2 24.4 13.6z"/><path fill="none" stroke="#0076FF" stroke-width="3" stroke-miterlimit="10" d="M363.8 42.3h4.5s13.4-5.4 19.2-6"/><path fill="#0076FF" d="M389.9 76.8s18.7-9.4 27.7 13.6c5.4 13.8 11.8 36.7 15.1 62.5s8.8 31 8.8 31c-17.1 20-35.6 12.9-61.9 26.2 0-10.4-3.9-41.2-3.9-41.2s-6.8-21.8-11.8-34.6c-5-12.8 3.9-37.8 3.9-37.8s3.3 11.9 22.1-19.7z"/><path fill="#FFE4CC" d="M406.4 79.4c-11.5-8-14 3.9-19.4 17.8s-15.7 47.9-21.8 65c-6.1 17-40.8 59-46.3 61.8-5.4 2.8-6.9-3.6-15.7-1.9-8.8 1.7-7.2 6.8-7.2 6.8h33.5s46.7-41.9 54.3-57.3c7.6-15.3 42.2-78.5 22.6-92.2z"/><path fill="#7BC1FA" d="M347.1 17.4s9.8 7.8 20.5 13.7C378.4 37 385 36.9 391.3 45c6.2 8.1 10.9 15.3 10.9 15.3s4.9-12.4-.5-24.7-16.5-26.5-27.6-27.4c-11-1-27 9.2-27 9.2z"/><path fill="#0064D9" d="M365.2 162.2c-1.9 5.2-6.3 12.6-11.8 20.5l12.4 11.2c8.3-8.7 15.4-17 18-22.2 7.6-15.4 42.2-78.6 22.6-92.3-11.5-8-14 3.9-19.4 17.8-5.4 13.9-15.7 47.9-21.8 65z"/><path fill="#58AAED" d="M362.3 16.3s4.5 6.6 15 11.3c10.5 4.7 20.7 6.9 22.5 14s.4 15.8.4 15.8 7.6-8.2 2.6-18.7-16.4-14.6-23.3-15.9c-7.5-1.3-17.2-6.5-17.2-6.5z"/><circle fill="none" stroke="#0076FF" stroke-width="3" stroke-miterlimit="10" cx="356.3" cy="43.4" r="7.6"/><ellipse fill="none" stroke="#0076FF" stroke-width="3" stroke-miterlimit="10" cx="338.8" cy="44.4" rx="5.8" ry="6.6"/><path fill="#FFD8B5" d="M345.9 41.3s-4 12.6-2 14.8c2.1 2.2 6.9.9 6.9.9l-4.9-15.7z"/><path fill="none" stroke="#0076FF" stroke-width="3" stroke-miterlimit="10" d="M344.3 42.4s1.7-1.6 4.5.3"/></g><g><path fill="#0064D9" d="M40.7 191.7s3.1-7.9 0-11.8-14.2-5.7-10.4-11.1c3.7-5.4 10.4 7.6 14.9 4.6s-16-9.9-10.6-14.9 13.4 12.7 16.2 8.2c2.8-4.5-15-14.2-6.7-16.7s10.3 14.8 12.8 8.5-9.2-17.1-4.2-18.2c5-1.1 9.7 15.3 11.4 10.3 1.7-5-7-15.7 0-15.8 7-.1 7.3 14.4 9.2 8.5 2-5.9 2.5-12.3 6.7-11.7s-5.3 12.5-2.2 13.4c3.1.8 4.9-1.4 8.9-.6 3.9.8 1.7 6.7-5.3 6.4s-13.1 1.1-10.3 3.3c2.8 2.2 13-1.7 15.6 1.1 2.5 2.8-1.6 7.3-12.8 6.3s-17 2.3-11.2 4.8 17.6-2.3 20.6 2.3c3.1 4.6-5.6 8.3-15.1 5.8-9.5-2.5-14.5-3.9-13.1 0 1.4 3.9 13.9 2.8 18.4 5.6 4.5 2.8-3.8 7.3-13 4.4-9.3-3-8.7-2.6-11.5 0-2.8 2.6-5.9 7.2-5.9 7.2h-2.4z"/><path fill="#0076FF" d="M41.6 194.9s0-13.5-10-16.6c-10-3.1-16.4 1.9-15.3-6.3 1.1-8.2 20.6 5.5 19.8 2.1s-17.8-9.8-16.2-15.6c1.7-5.9 12.5 8.6 14.5 4.7 2-3.9-18.1-13.9-15.1-17.8 3.1-3.9 14.2 12.3 15.3 7.5 1.1-4.7-10.4-12.3-7-16.4s6.8 7 7.9 4.2c1.1-2.8-1.7-13.4 4.2-12 5.9 1.4.6 9.8 2 12.3s3.9-7.8 7.8-4.7c3.9 3.1-10.6 13.1-7 15.5 3.6 2.4 7.5-6.6 10-2.7s-12.5 10.3-8.6 12.7 9.5-6.3 11.4-1.5c2 4.7-13.4 8.3-10.6 11.8 2.8 3.5 9.8-6.2 12.8-2s-11 8.3-12.8 11.4c-3.1 5.3-1.1 13.5-1.1 13.5h-2z"/><path fill="#7BC1FA" d="M20.8 196.3l6.3 31.9h28l5.4-31.9z"/><path fill="#74B7ED" d="M16.1 190H64v11.9H16.1z"/><path fill="#4793D1" d="M22 202.3l2.3 11.9 35.3-12.3z"/></g><path fill="#0076FF" d="M231.8 144.6l2.1 13.5-7-4.7 8.1 28-1.7-18.4 4.9 4.3.6-20.1z"/><path fill="#D9EEFF" d="M.2 228.2H372v12.7H.2z"/></svg>