<svg xmlns="http://www.w3.org/2000/svg" viewBox="0 0 206 163"><g fill="#C5DCED"><path d="M203 47.7h-8.4c-1.6 0-3 1.3-3 3v12c0 1.6 1.4 3 3 3h8.4c1.7 0 3-1.4 3-3v-12c0-1.6-1.4-3-3-3zM14.7 47.7H6.3c-.6 0-1.1.2-1.6.5V22.7h8.8v-15H0v50.6h3.3v4.4c0 1.6 1.4 3 3 3h8.4c1.6 0 3-1.4 3-3v-12c0-1.6-1.4-3-3-3z"/></g><path fill="#0076FF" d="M189.5 75.4h-169c-5.5 0-10-4.5-10-10V51.2c0-5.5 4.5-10 10-10h169c5.5 0 10 4.5 10 10v14.2c0 5.5-4.5 10-10 10z"/><path fill="#EDF7FF" d="M40.2.3h127.4v112.2H40.2z"/><path fill="#00C4FF" d="M174 61.5h-52.2c.1.6.2 1.2.2 1.8v4.9c0 4.3-3.5 7.9-7.9 7.9H95.8c-4.3 0-7.9-3.5-7.9-7.9v-4.9c0-.6.1-1.2.2-1.8H36c-5.5 0-10 4.5-10 10v81c0 5.5 4.5 10 10 10h138c5.5 0 10-4.5 10-10v-81c0-5.5-4.5-10-10-10z"/><path fill="#DBEFFF" d="M167.6.3L39 96.8h128.6z"/><path fill="#00C4FF" d="M174 61.5h-52.2c.1.6.2 1.2.2 1.8v4.9c0 4.3-3.5 7.9-7.9 7.9H95.8c-4.3 0-7.9-3.5-7.9-7.9v-4.9c0-.6.1-1.2.2-1.8H36c-5.5 0-10 4.5-10 10v81c0 5.5 4.5 10 10 10h138c5.5 0 10-4.5 10-10v-81c0-5.5-4.5-10-10-10z"/><path fill="#00B8F0" d="M26 102v50.5c0 5.5 4.5 10 10 10h138c5.5 0 10-4.5 10-10V102H26z"/><path fill="#0064D9" d="M36.3 107.9h137.3v44.4H36.3z"/><g fill="#EDF7FF"><path d="M128.4 147.9H82.7c-.5 0-1-.4-1-1v-4.8c0-.6.5-1 1-1h45.7c.6 0 1 .4 1 1v4.8c0 .5-.5 1-1 1zM76.6 147.9H69c-.6 0-1-.4-1-1v-4.8c0-.6.4-1 1-1h7.6c.5 0 1 .4 1 1v4.8c0 .5-.5 1-1 1zM63.5 147.9h-7.6c-.5 0-1-.4-1-1v-4.8c0-.6.5-1 1-1h7.6c.5 0 1 .4 1 1v4.8c0 .5-.5 1-1 1zM50.4 147.9h-7.6c-.5 0-1-.4-1-1v-4.8c0-.6.5-1 1-1h7.6c.6 0 1 .4 1 1v4.8c0 .5-.5 1-1 1zM76.6 138H69c-.6 0-1-.4-1-1v-4.8c0-.6.4-1 1-1h7.6c.5 0 1 .4 1 1v4.8c0 .6-.5 1-1 1zM63.5 138h-7.6c-.5 0-1-.4-1-1v-4.8c0-.6.5-1 1-1h7.6c.5 0 1 .4 1 1v4.8c0 .6-.5 1-1 1zM50.4 138h-7.6c-.5 0-1-.4-1-1v-4.8c0-.6.5-1 1-1h7.6c.5 0 1 .4 1 1v4.8c0 .6-.5 1-1 1zM115.7 138h-7.6c-.6 0-1-.4-1-1v-4.8c0-.6.4-1 1-1h7.6c.5 0 1 .4 1 1v4.8c0 .6-.5 1-1 1zM102.6 138H95c-.6 0-1-.4-1-1v-4.8c0-.6.4-1 1-1h7.6c.6 0 1 .4 1 1v4.8c0 .6-.5 1-1 1zM89.5 138h-7.6c-.5 0-1-.4-1-1v-4.8c0-.6.5-1 1-1h7.6c.6 0 1 .4 1 1v4.8c0 .6-.5 1-1 1zM154.8 138h-7.6c-.6 0-1-.4-1-1v-4.8c0-.6.4-1 1-1h7.6c.6 0 1 .4 1 1v4.8c0 .6-.5 1-1 1zM141.7 138H134c-.6 0-1-.4-1-1v-4.8c0-.6.4-1 1-1h7.6c.5 0 1 .4 1 1v4.8c.1.6-.4 1-.9 1zM128.6 138H121c-.5 0-1-.4-1-1v-4.8c0-.6.5-1 1-1h7.6c.5 0 1 .4 1 1v4.8c0 .6-.5 1-1 1zM167.7 138H160c-.6 0-1-.4-1-1v-4.8c0-.6.4-1 1-1h7.6c.6 0 1 .4 1 1v4.8c.1.6-.4 1-.9 1zM76.6 128.1H69c-.6 0-1-.4-1-1v-4.8c0-.5.4-1 1-1h7.6c.5 0 1 .5 1 1v4.8c0 .6-.5 1-1 1zM63.5 128.1h-7.6c-.5 0-1-.4-1-1v-4.8c0-.5.5-1 1-1h7.6c.5 0 1 .5 1 1v4.8c0 .6-.5 1-1 1zM50.4 128.1h-7.6c-.5 0-1-.4-1-1v-4.8c0-.5.5-1 1-1h7.6c.5 0 1 .5 1 1v4.8c0 .6-.5 1-1 1zM115.7 128.1h-7.6c-.6 0-1-.4-1-1v-4.8c0-.5.4-1 1-1h7.6c.5 0 1 .5 1 1v4.8c0 .6-.5 1-1 1zM102.6 128.1H95c-.6 0-1-.4-1-1v-4.8c0-.5.4-1 1-1h7.6c.6 0 1 .5 1 1v4.8c0 .6-.5 1-1 1zM89.5 128.1h-7.6c-.5 0-1-.4-1-1v-4.8c0-.5.5-1 1-1h7.6c.6 0 1 .5 1 1v4.8c0 .6-.5 1-1 1zM154.8 128.1h-7.6c-.6 0-1-.4-1-1v-4.8c0-.5.4-1 1-1h7.6c.6 0 1 .5 1 1v4.8c0 .6-.5 1-1 1zM141.7 128.1H134c-.6 0-1-.4-1-1v-4.8c0-.5.4-1 1-1h7.6c.5 0 1 .5 1 1v4.8c.1.6-.4 1-.9 1zM128.6 128.1H121c-.5 0-1-.4-1-1v-4.8c0-.5.5-1 1-1h7.6c.5 0 1 .5 1 1v4.8c0 .6-.5 1-1 1zM167.7 128.1H160c-.6 0-1-.4-1-1v-4.8c0-.5.4-1 1-1h7.6c.6 0 1 .5 1 1v4.8c.1.6-.4 1-.9 1zM76.6 118.2H69c-.6 0-1-.4-1-1v-4.8c0-.5.4-1 1-1h7.6c.5 0 1 .5 1 1v4.8c0 .6-.5 1-1 1zM63.5 118.2h-7.6c-.5 0-1-.4-1-1v-4.8c0-.5.5-1 1-1h7.6c.5 0 1 .5 1 1v4.8c0 .6-.5 1-1 1zM50.4 118.2h-7.6c-.5 0-1-.4-1-1v-4.8c0-.5.5-1 1-1h7.6c.5 0 1 .5 1 1v4.8c0 .6-.5 1-1 1zM115.7 118.2h-7.6c-.6 0-1-.4-1-1v-4.8c0-.5.4-1 1-1h7.6c.5 0 1 .5 1 1v4.8c0 .6-.5 1-1 1zM102.6 118.2H95c-.6 0-1-.4-1-1v-4.8c0-.5.4-1 1-1h7.6c.6 0 1 .5 1 1v4.8c0 .6-.5 1-1 1zM89.5 118.2h-7.6c-.5 0-1-.4-1-1v-4.8c0-.5.5-1 1-1h7.6c.6 0 1 .5 1 1v4.8c0 .6-.5 1-1 1zM154.8 118.2h-7.6c-.6 0-1-.4-1-1v-4.8c0-.5.4-1 1-1h7.6c.6 0 1 .5 1 1v4.8c0 .6-.5 1-1 1zM141.7 118.2H134c-.6 0-1-.4-1-1v-4.8c0-.5.4-1 1-1h7.6c.5 0 1 .5 1 1v4.8c.1.6-.4 1-.9 1zM128.6 118.2H121c-.5 0-1-.4-1-1v-4.8c0-.5.5-1 1-1h7.6c.5 0 1 .5 1 1v4.8c0 .6-.5 1-1 1zM167.7 118.2H160c-.6 0-1-.4-1-1v-4.8c0-.5.4-1 1-1h7.6c.6 0 1 .5 1 1v4.8c.1.6-.4 1-.9 1zM154.8 147.9h-7.6c-.6 0-1-.4-1-1v-4.8c0-.6.4-1 1-1h7.6c.6 0 1 .4 1 1v4.8c0 .5-.5 1-1 1zM141.7 147.9H134c-.6 0-1-.4-1-1v-4.8c0-.6.4-1 1-1h7.6c.5 0 1 .4 1 1v4.8c.1.5-.4 1-.9 1zM167.7 147.9H160c-.6 0-1-.4-1-1v-4.8c0-.6.4-1 1-1h7.6c.6 0 1 .4 1 1v4.8c.1.5-.4 1-.9 1z"/></g><path fill="#0064D9" d="M88.2 61.5L62 74.1S71.5 94 103.6 94s42.6-19.9 42.6-19.9l-24.3-12.6c.1.6.2 1.2.2 1.8v4.9c0 4.3-3.5 7.9-7.9 7.9H95.8c-4.3 0-7.9-3.5-7.9-7.9v-4.9c0-.6.1-1.2.3-1.8z"/><path fill="#C5DCED" d="M6.5 54.4h194.9v3.9H6.5z"/><g fill="#0042D9"><path d="M84.2 27.2h2.3v3.9H91v-3.9h2.3v10.4H91v-4.5h-4.5v4.5h-2.3V27.2zM101.8 36.4c-.4.5-.8.8-1.3 1-.5.2-1.1.4-1.7.4-.6 0-1.1-.1-1.6-.3-.5-.2-.9-.4-1.3-.8-.4-.3-.6-.7-.8-1.2-.2-.5-.3-1-.3-1.5 0-.6.1-1.1.3-1.5.2-.5.5-.9.8-1.2.4-.3.8-.6 1.3-.8s1-.3 1.6-.3c.5 0 1 .1 1.4.3.4.2.8.4 1.1.8.3.3.5.7.7 1.2s.2 1 .2 1.5v.7H97c.1.4.3.8.6 1 .3.3.7.4 1.1.4.4 0 .7-.1.9-.2s.5-.4.7-.6l1.5 1.1zm-1.8-3.1c0-.4-.1-.7-.4-1-.3-.3-.6-.4-1-.4-.2 0-.5 0-.6.1-.2.1-.3.2-.5.3-.1.1-.2.3-.3.4s-.1.3-.1.5h2.9zM103.5 26.5h2.2v11.1h-2.2V26.5zM107.4 26.5h2.2v11.1h-2.2V26.5zM110.9 34.1c0-.6.1-1.1.3-1.5.2-.5.5-.9.8-1.2.4-.3.8-.6 1.3-.8s1-.3 1.6-.3c.5 0 1.1.1 1.6.3s.9.4 1.3.8c.4.3.6.7.8 1.2s.3 1 .3 1.5c0 .6-.1 1.1-.3 1.5s-.5.9-.8 1.2c-.4.3-.8.6-1.3.8-.5.2-1 .3-1.6.3-.6 0-1.1-.1-1.6-.3-.5-.2-.9-.4-1.3-.8-.4-.3-.6-.7-.8-1.2-.2-.4-.3-.9-.3-1.5zm2.2 0c0 .5.2 1 .5 1.3.3.3.7.5 1.3.5.6 0 1-.2 1.3-.5s.5-.8.5-1.3-.2-1-.5-1.3c-.3-.3-.7-.5-1.3-.5-.6 0-1 .2-1.3.5-.3.3-.5.7-.5 1.3zM121.3 36.4c0-.2 0-.4.1-.5.1-.2.2-.3.3-.4.1-.1.3-.2.4-.3s.3-.1.5-.1.4 0 .5.1.3.2.4.3.2.3.3.4c.1.2.1.3.1.5s0 .4-.1.5c-.1.2-.2.3-.3.4s-.3.2-.4.3-.3.1-.5.1-.4 0-.5-.1-.3-.2-.4-.3c-.1-.1-.2-.3-.3-.4-.1-.1-.1-.3-.1-.5zm2.5-2.2h-2.2v-7h2.2v7z"/></g><path fill="#0076FF" d="M75.3 67.7S83.9 82 103.9 82s29.9-14.3 29.9-14.3l3.9 2s-12.1 15.8-33.8 15.8-32.5-15.9-32.5-15.9l3.9-1.9z"/></svg>