<svg xmlns="http://www.w3.org/2000/svg" viewBox="0 0 186 325"><path fill="#FFD8B5" d="M93 196.8l61.9-12.2-4.2 12.2L91 213.3s-3.9-5.4 1.4-15.2"/><path fill="#58AAED" d="M92.5 113.3s8 6.9 9 20.5-8.5 63-8.5 63-3.1 11.9 0 16.6c-5.2 5.2-10.4 1.1-10.4 1.1L93 115.2"/><path fill="#00C4FF" d="M100.6 30.4s1.6 6.8.1 12.4-5.5 8.4-5.5 8.4L93 30.4h7.6z"/><path fill="#58AAED" d="M95.7 36.2c-.1-.7-.2-1.5-.7-2.1-.4-.4-.9-.6-1.4-.8-1.5-.6-3-1.1-4.5-1.7C91 34 92 37 93 39.8c.4 1.2.9 2.5 1.1 3.7.4 2 .3 4 1.1 5.9.8-4.3.9-8.8.5-13.2z"/><path fill="#0064D9" d="M6.6 249.7s-2.8 8.4-4.3 40.2c-.3 5.9 0 35.1 0 35.1l45-.2s-.3-39.7 6.9-40.9c7.2-1.3 9.3 41.1 9.3 41.1h38.2s-8-67.9-11.8-76.8c-3.9-8.9-83.3 1.5-83.3 1.5z"/><path fill="#FFD8B5" d="M50.1 63.7c.3 1.1 3.1 18.4-1.7 24.2s-11.8 9.5-11.8 9.5 5.1 17.8 24.3 17.8 13.7-14.1 13.7-14.1 1.2-20.5 3.9-25.7c2.7-5.1-28.4-11.7-28.4-11.7z"/><path fill="#EDBF98" d="M50.6 66.8S54.7 92.2 65.7 93c6.5.5 9.1-3.6 10.2-7.1.2-1.5.5-3 .7-4.4l-26-14.7z"/><path fill="#FFE4CC" d="M75.3 13.4C59.4 13.5 47.6 22 42.1 36c-1.1 2.8-1.7 5-2 7-1.1-.3-2.2 0-3 1.8-2.9 6.2 1 18.3 8.8 17.2 2.5 10.9 13.9 22.9 25.9 23.8 12 .9 24.9-23.6 24.2-47.2-.7-23.6-20.7-25.2-20.7-25.2z"/><path fill="#7BC1FA" d="M42.9 92.9s1.5 12.3 16.7 13.7 14.9-5.5 14.9-5.5 12.9 6.6 18 12.1-4.1 70.3-5.3 86.7 2.6 48.2 2.6 48.2-20.2 8.6-32.2 10.2c-12 1.6-46.7-4.1-51-6.8s0-70.5-4.5-97.2c-4.7-28.1-1.4-52.6 16.1-54.4 13-1.3 24.7-7 24.7-7z"/><path fill="#FFD8B5" d="M80.6 45.9s2.6 14.9 1.9 18.1c-.7 3.2-9.7 1-9.7 1l7.8-19.1zM93.3 26.4l-6.2-5.5L76.7 22l-20.4-1.2-2.5 7.6s16.1 12.5 29.5 9.1c7.5-1.9 10.5-4.4 11.7-6.3-.4-1.8-1-3.4-1.7-4.8z"/><path fill="#00C4FF" d="M56 26.2c5.2-1 11.5 5.7 24.9 5.7s29 3.4 27.5-11.2S96.8 2.1 86 5.1 61.4 9.2 61.7 7.3c.3-2 7.2-6.4 3.9-7s-9.1 6.5-11.4 8.6c-2.3 2.1-7 1.7-9.9 8.9-2.9 7.2-5.5 16.5-4.2 25.2 2.4 5.2 6.4 3.3 9.1 8.8 4.9-2.4.6-9.6.8-15.2s6-10.4 6-10.4z"/><path fill="#FFE4CC" d="M92.4 186.8s7-13.5 15.3-14.3c11.1-1.1 1.9 8.8 1.9 8.8l-17.2 5.5z"/><path fill="#C5DCED" d="M112.5 165.7l-19.6 43.6c-1.7 3.9 2 7.9 6 6.6l60.7-20.6c2.3-.8 4.2-2.5 5.2-4.7l20.5-46.2c1-2.3-1.1-4.7-3.5-4L119 159.9c-2.9.9-5.3 3-6.5 5.8z"/><path fill="#FFE4CC" d="M23.4 222.2s20.6 3.2 46.1-10.9C82.6 204 96.3 198 96.3 198s20.1 3.3 30.9-7.4c10.7-10.7 5.7-11.4 0-12s-18.1-.6-23.2 0-11.5 8.2-11.5 8.2-47.5 9.6-59.5 15-19.2 16.3-9.6 20.4z"/><path fill="#58AAED" d="M5.9 107.6c5.5-3.9 23.5-7.3 26 22.7 1.6 18.5 2.7 43 3.1 52.8.4 9.8 3.2 16.8 3.2 16.8s-7.3 2-13.3 8.3c-6 6.3-1.5 14.1-1.5 14.1s-8.6-3.3-12.2-10.5C5.3 200.1-7.4 117 5.9 107.6z"/><path fill="#FFE4CC" d="M175.7 165.5s-20.9.4-22.4 10.3c-1 6.5 12.9 11 12.9 11s6.8 1.9 10.7-7.2c4.1-9.1-1.2-14.1-1.2-14.1z"/></svg>