<svg xmlns="http://www.w3.org/2000/svg" width="168" height="35" viewBox="0 0 373 79"><path fill="#FFF" d="M3.5 23.1v37.2h22.6v2.9H.4V23.1h3.1zM60.3 23.1V48c0 21-30.8 21.1-30.8 0V23.1h3V48c0 17.3 24.7 17.2 24.7 0V23.1h3.1zM70.2 23.1l27 33.2V23.1h3v40.2H99L71.9 30.1v33.2h-3.1V23.1h1.4z"/><path fill="none" d="M135.5 50.5l-10.8-24.4-10.8 24.4h21.6z"/><path fill="#FFF" d="M181.7 63.2h-4.1L163.7 48h-11v15.2h-3.1V23.1h17.7c8.7 0 13.1 6.3 13.2 12.5.1 6.5-4.2 12.3-13 12.3l14.2 15.3zm-29-18.1h14.2c7 0 10.1-4 10.2-9.6.1-4.7-3.2-9.6-9.8-9.6h-14.6v19.2z"/><path fill="#00AEEF" d="M124.896 22.674l2.597 1.048-14.557 36.072-2.596-1.048z"/><path fill="#00AEEF" d="M122.265 10.622L146.6 68.517l-2.581 1.085-24.335-57.895z"/><path fill="#00AEEF" d="M119 12.7c-3.4 0-6.2-2.8-6.2-6.2s2.8-6.2 6.3-6.2 6.3 2.8 6.3 6.3-2.9 6.1-6.4 6.1zm0-9.5c-1.8 0-3.2 1.5-3.2 3.3s1.5 3.3 3.3 3.3 3.3-1.5 3.3-3.2-1.6-3.4-3.4-3.4zM147 78.7c-3.4 0-6.2-2.8-6.2-6.2s2.8-6.2 6.3-6.2 6.3 2.8 6.3 6.3-2.9 6.1-6.4 6.1zm0-9.5c-1.8 0-3.2 1.5-3.2 3.3s1.5 3.3 3.3 3.3 3.3-1.5 3.3-3.2-1.6-3.4-3.4-3.4zM110 69.7c-3.4 0-6.2-2.8-6.2-6.2s2.8-6.2 6.3-6.2 6.3 2.8 6.3 6.3-2.9 6.1-6.4 6.1zm0-9.5c-1.8 0-3.2 1.5-3.2 3.3s1.5 3.3 3.3 3.3 3.3-1.5 3.3-3.2-1.6-3.4-3.4-3.4z"/><path fill="#FFF" d="M211.9 22.9v37.2h22.6V63h-25.7V22.9h3.1zM277.9 43c-.1 10.6-6.8 20.7-20.3 20.7s-20.3-10.2-20.3-20.8c0-10.8 6.7-20.7 20.3-20.7 13.6.1 20.4 10 20.3 20.8zm-37.4 0c.1 9.1 5.8 17.9 17.2 17.9 11.5 0 17.3-8.8 17.3-17.9 0-9.3-5.7-17.8-17.3-17.8s-17.3 8.3-17.2 17.8zM316.9 30.3c-3.5-3.4-8.4-5.2-12.9-5.2-11.8 0-17.8 8.6-17.7 17.9 0 9.5 6 17.6 17.7 17.6 4.3 0 8.8-1.5 12.2-4.6V44.8h-14v-2.7h16.9v15c-4.2 4.2-9.2 6.5-15.1 6.5-13.7 0-20.7-9.5-20.7-20.5-.1-12.6 8.5-20.8 20.7-20.8 5.3 0 10.6 2 14.7 6l-1.8 2zM327.6 63.1V22.9h3v40.2h-3zM372.6 57.5c-4 4-9.4 6-14.6 6-13.5 0-20.6-9.5-20.7-20.3-.1-10.7 6.9-20.8 20.7-20.8 5.3 0 10.6 2 14.6 6l-2.1 1.8c-3.4-3.4-8-5.1-12.5-5.1-11.7 0-17.7 8.3-17.7 17.9.1 9.4 6.1 17.6 17.7 17.6 4.5 0 9.1-1.7 12.6-5.1l2 2z"/></svg>