<svg id="Layer_1" xmlns="http://www.w3.org/2000/svg" viewBox="0 0 280 64"><style>.st0{fill:#0669ac}.st1{fill:#343433}</style><path class="st0" d="M4.1 13.6c-4.6 6.5-4 15.1-.5 22 .1.2.2.3.3.5 0 .1.1.2.2.3 0 .1.1.1.1.2.1.1.1.2.2.3l.3.6c.1.1.1.2.2.3.1.2.3.4.4.6.1.1.1.2.2.3.2.3.4.5.6.8l.1.1c.2.2.3.5.5.7.1.1.1.2.2.2.2.2.3.4.5.6l.2.2c.2.3.4.5.7.7.2.2.4.5.7.7l.2.2.5.5.2.2c.2.2.5.4.7.7l.1.1c.2.2.4.4.7.6.1.1.2.1.3.2.2.1.4.3.6.4.1.1.2.1.3.2.2.2.4.3.6.4l.2.2h.1c.2.1.4.3.6.4.1.1.2.1.3.2l.9.6c.1 0 .2.1.3.1.2.1.5.3.7.4.1.1.3.1.4.2.2.1.3.2.5.3 0 0 .1 0 .1.1.1 0 .1.1.2.1.3.1.5.3.8.4.1 0 .1 0 .2.1.3.1.6.3.9.4.1 0 .1.1.2.1l.9.3h.1c.3.1.7.2 1 .3.1 0 .2.1.2.1.3.1.7.2 1 .3 22 4 28.4-13.2 28.4-13.2-5.4 7-14.9 8.8-24 6.8-.3-.1-.7-.2-1-.3-.1 0-.2 0-.2-.1-.3-.1-.7-.2-1-.3 0 0-.1 0-.1-.1l-.9-.3c-.1 0-.2-.1-.2-.1-.3-.1-.6-.3-.9-.4-.1 0-.1-.1-.2-.1-.3-.1-.5-.2-.8-.4-.1 0-.1-.1-.2-.1l-.6-.3c-.1-.1-.3-.1-.4-.2-.2-.1-.5-.3-.7-.4-.1-.1-.2-.1-.2-.1l-.9-.6c-.1-.1-.2-.1-.3-.2-.2-.1-.5-.3-.7-.4l-.2-.2c-.2-.1-.4-.3-.6-.5-.1-.1-.2-.1-.3-.2-.2-.1-.4-.3-.6-.4-.1-.1-.2-.1-.3-.2-.2-.2-.5-.4-.7-.6 0 0-.1 0-.1-.1l-.7-.7-.2-.2c-.2-.2-.4-.3-.5-.5l-.2-.2c-.2-.2-.4-.5-.7-.7-.2-.2-.4-.5-.7-.8l-.2-.2c-.2-.2-.3-.4-.5-.6l-.2-.2c-.2-.2-.4-.5-.6-.7-5-6.8-6.8-16.3-2.8-24"/><path class="st0" d="M18.2 8.1c-3.3 4.7-3.1 11.1-.5 16.1.4.8.9 1.7 1.5 2.4.5.7 1 1.5 1.7 2.1.2.3.5.5.7.8l.2.2c.2.2.5.5.8.7.3.3.6.5.9.7l.2.2c.3.2.6.5.9.7.1.1.3.2.4.3.1 0 .1.1.2.1.2.1.5.3.7.4 0 0 .1 0 .1.1l.6.3c.1 0 .1.1.2.1.1.1.3.1.4.2h.1c.3.1.6.3.9.4.1 0 .1.1.2.1.2.1.5.2.7.3.1 0 .2.1.3.1.2.1.4.2.7.2.1 0 .2.1.3.1.3.1.6.2 1 .3 17 2.8 20.9-10.3 20.9-10.3-3.5 5.1-10.4 7.5-17.7 5.6-.3-.1-.6-.2-1-.3-.1 0-.2-.1-.3-.1-.2-.1-.5-.1-.7-.2-.1 0-.2-.1-.3-.1-.2-.1-.5-.2-.7-.3-.1 0-.1-.1-.2-.1-.3-.1-.6-.3-.9-.4-.1-.1-.3-.2-.4-.2-.1 0-.2-.1-.3-.1l-.6-.3s-.1 0-.1-.1c-.2-.1-.5-.3-.7-.4-.1 0-.1-.1-.2-.1-.1-.1-.3-.2-.4-.3-.3-.2-.6-.4-.9-.7l-.2-.2c-3.2-2.5-5.7-6-6.9-9.9-1.3-4.1-1-8.6 1.2-12.3"/><path class="st0" d="M30.1 3.9c-1.9 2.9-2.1 6.4-.8 9.6 1.4 3.4 4.3 6 7.7 7.2.1.1.3.1.4.1.1 0 .1 0 .2.1.2.1.4.1.6.2 9.4 1.8 11.9-4.8 12.6-5.8-2.2 3.2-6 4-10.6 2.9-.4-.1-.8-.2-1.1-.3-.4-.2-.9-.3-1.3-.5-.8-.4-1.6-.9-2.3-1.4-4.1-3.1-6.7-9.1-4-13.9"/><path class="st1" d="M247.8 17.3l.4 1.6c.1.4-.2.8-.6.8M218.2 14.7c-.1.4-.2 1-.3 1.3l-3.3 15.2 3.4-16 .2-.5zM120.8 24.8l-1.8 6.4 1.8-6.4z"/><path class="st1" d="M248.2 18.9l-.9-4c-.7-2.9-2.8-4.2-7.5-4.2H220c-.5 0-.9.2-1 .7L211.4 47c-.1.5-.1.8-.1 1 .1.2.9.2 1.4.2h6.9c.5 0 1.3 0 1.5-.1.3-.1.4-.8.5-1.2l2.4-12.5 3-13.9c.1-.4.5-.8 1-.8h19.6c.4 0 .7-.4.6-.8"/><path class="st1" d="M276.1 4.4h-8.7c-.5 0-1 .5-1.3.9l-15.3 22.5c-.3.4-.6.4-.7-.1l-1.1-4.9c-.1-.4-.6-.8-1-.8h-9.8c-.5 0-.7.4-.6.8l4.4 15.4c.1.4.1 1.2 0 1.6l-2.1 7.8c-.1.4.2.6.6.6h9.7c.5 0 .9-.1 1-.6l2.1-7.9c.1-.4.4-1 .7-1.4l24.9-33c.3-.4.2-.8-.2-.8l-2.6-.1zM173.9 10.7H165c-.5 0-.9.2-1 .6L161.2 25l-2.9 13.1c-.1.4-.5.4-1 .4h-5.8c-5.8 0-5.1-3.6-3.9-9.1 0-.1 3.7-18.1 3.7-18.1.1-.4-.2-.6-.7-.6h-8.4c-.5 0-.9.2-1 .6l-3.4 18.1c-1.7 9.8-1.7 18.4 9.6 18.7h17.9c.5 0 .9-.2 1-.6l3.9-18.2 3.8-18.2s.1-.4-.1-.4zM85.8 10.7h-9.5c-.5 0-.9.1-1 .6l-1.7 7.4c-.1.4.2.8.7.8h9.1c.5 0 .9-.4 1-.9l1.6-7.5c-.1 0 .1-.4-.2-.4zM73.6 22c-.5 0-.9.4-1 .8l-1.3 5.7-2.9 13.1s-1.5 6.9-1.7 7.4c0 0-1.3 5-4.3 4.8-1.4-.1-3-.4-3-.4-.9-.3-.9.6-1 1.1l-1.9 8.1c-.1.4.2.8.6.9 0 0 4.1.6 7 .6h.5c7.1 0 10.9-4.2 13.3-15.6l2.8-13.2L83.3 23c.1-.4-.2-.9-.6-.9M196.3 10.6c-16 0-19.8 9.9-21.9 19.6-2.1 10-1.9 17.9 14.6 17.9h15.1c.4 0 .9-.4 1-.9l1.6-6.3c.1-.4-.2-.6-.7-.6h-14.9c-5.4 0-7.3-1.7-7.1-5.4 0-.4.5-1.5.9-1.5h22.9c1 0 1-.6 1-.6 2.5-10.4 2.7-22.2-12.5-22.2m4.3 15.7c0 .5-1.6.4-1.6.4l-12.4-.1c-.4 0-.6-.6-.6-1 0 0 0-.5.1-.6 1-3.3 3.8-5.2 8.4-5.2 5.1 0 6.2 2.5 6.2 5.4M127.3 37.9s4.5-10.9 5.5-17.1C134.2 12.4 130 .2 113.7.2 97.5.2 90.5 11.8 87.9 24.5c-2.7 12.7.8 23.8 16.9 23.7h24.5c.5 0 .9-.4 1-.8l2.1-7.9c.1-.4-.2-.8-.6-.8h-4c-.4 0-.6-.3-.6-.6.1-.1.1-.2.1-.2m-8.4-6.7l-1.8 6.3c-.1.4-.6.7-1.1.7h-9.5c-7.2 0-9-5.6-7.2-13.9 1.8-8.5 5.2-13.7 12.3-14.3 9.7-.7 11.7 6.1 9.3 14l-2 7.2z"/></svg>