<svg id="Layer_1" xmlns="http://www.w3.org/2000/svg" viewBox="0 0 169 115"><style>.st0{fill-rule:evenodd;clip-rule:evenodd}.st0,.st1{fill:#00758f}.st2{fill:#f29111}</style><path class="st0" d="M115.3 12c-.8 0-1.4.1-1.9.2v.1h.1c.4.7 1 1.3 1.5 1.9.4.7.7 1.5 1.1 2.2l.1-.1c.7-.5 1-1.2 1-2.3-.3-.3-.3-.7-.6-1-.3-.4-.9-.6-1.3-1"/><path class="st1" d="M40.9 104.4h-6.5c-.2-10.9-.9-21.2-1.9-30.9h-.1l-9.9 30.9h-4.9L7.8 73.5c-.8 9.3-1.2 19.6-1.4 30.9H.5c.4-13.8 1.3-26.7 2.9-38.7h8l9.4 28.5h.1l9.4-28.5H38c1.6 14.1 2.6 27 2.9 38.7M69 75.8c-2.6 14.3-6.1 24.7-10.4 31.2-3.4 5-7.1 7.5-11.1 7.5-1.1 0-2.4-.3-4-1V110c.8.1 1.7.2 2.7.2 1.9 0 3.4-.5 4.5-1.6 1.4-1.3 2.1-2.7 2.1-4.2 0-1.1-.5-3.3-1.6-6.6l-7.1-22.1h6.4l5.1 16.5c1.1 3.8 1.6 6.4 1.4 7.9 2.8-7.5 4.7-15.6 5.9-24.4H69z"/><path class="st2" d="M155.3 104.4h-18.4V65.7h6.2v33.9h12.2z"/><path d="M132.1 105.3l-7.1-3.5c.6-.5 1.2-1.1 1.8-1.7 3-3.6 4.5-8.8 4.5-15.8 0-12.8-5-19.2-15.1-19.2-4.9 0-8.8 1.6-11.5 4.9-3 3.6-4.5 8.8-4.5 15.7 0 6.8 1.3 11.8 4 15 2.4 2.9 6.1 4.3 11.1 4.3 1.8 0 3.5-.2 5.1-.7l9.3 5.4 2.4-4.4zM109 96.7c-1.6-2.5-2.4-6.6-2.4-12.2 0-9.8 3-14.6 8.9-14.6 3.1 0 5.4 1.2 6.8 3.5 1.6 2.5 2.4 6.5 2.4 12.1 0 9.8-3 14.8-8.9 14.8-3.1-.1-5.3-1.3-6.8-3.6" fill-rule="evenodd" clip-rule="evenodd" fill="#f29111"/><path class="st2" d="M97.4 93.7c0 3.3-1.2 6-3.6 8.1-2.4 2.1-5.6 3.2-9.7 3.2-3.8 0-7.5-1.2-11-3.6l1.7-3.3c3.1 1.5 5.8 2.3 8.3 2.3 2.3 0 4.2-.5 5.5-1.5 1.3-1 2.1-2.5 2.1-4.3 0-2.3-1.6-4.3-4.5-5.9-2.8-1.7-8.2-4.8-8.2-4.8-2.9-2.1-4.4-4.4-4.4-8.2 0-3.1 1.1-5.7 3.3-7.6 2.2-1.9 5-2.9 8.5-2.9 3.6 0 6.9 1 9.8 2.9l-1.5 3.3c-2.5-1.1-5-1.6-7.5-1.6-2 0-3.5.5-4.6 1.4-1.1 1-1.7 2.2-1.7 3.7 0 2.3 1.6 4.3 4.7 6 2.8 1.5 8.3 4.7 8.3 4.7 3 2 4.5 4.3 4.5 8.1"/><path class="st0" d="M163.1 52.7c-3.7-.1-6.6.3-9.1 1.3-.7.3-1.8.3-1.9 1.2.4.4.4 1 .8 1.5.6.9 1.5 2.2 2.4 2.9 1 .7 2 1.5 3 2.2 1.8 1.1 3.9 1.8 5.7 2.9 1 .7 2.1 1.5 3.1 2.2.5.4.8 1 1.5 1.2V68c-.3-.4-.4-1-.7-1.5l-1.4-1.4c-1.4-1.8-3-3.4-4.9-4.7-1.5-1-4.8-2.4-5.4-4.2l-.1-.1c1-.1 2.2-.5 3.2-.8 1.6-.4 3-.3 4.7-.7.8-.2 1.5-.4 2.3-.7v-.4c-.8-.8-1.5-2-2.3-2.8-2.4-2.1-5-4.1-7.7-5.8-1.5-.9-3.3-1.5-4.9-2.3-.6-.3-1.5-.4-1.8-.9-.8-1-1.3-2.4-1.9-3.6-1.4-2.6-2.7-5.4-3.8-8.1-.8-1.8-1.4-3.6-2.4-5.3-4.8-8-10.1-12.8-18.1-17.5-1.7-1-3.8-1.4-6-1.9-1.2 0-2.3-.1-3.5-.2-.8-.3-1.5-1.2-2.2-1.6-2.9-1.8-9.7-5.5-11.7-.7-1.3 3 1.9 6 2.9 7.6.8 1.1 1.8 2.3 2.4 3.5.3.8.4 1.6.8 2.5.7 2.1 1.4 4.4 2.4 6.3.5 1 1.1 2 1.7 2.9.4.5 1 .7 1.2 1.6-.7.9-.7 2.3-1.1 3.5-1.7 5.3-1 11.8 1.4 15.7.7 1.2 2.5 3.7 4.9 2.8 2.1-.8 1.6-3.5 2.2-5.8.1-.6 0-.9.3-1.3v.1c.7 1.3 1.3 2.6 1.9 3.9 1.5 2.3 4 4.7 6.1 6.3 1.1.8 2 2.3 3.4 2.8v-.1h-.1c-.3-.4-.7-.6-1.1-.9-.8-.8-1.8-1.9-2.4-2.8-2-2.6-3.7-5.5-5.2-8.5-.8-1.5-1.4-3-2-4.5-.3-.6-.3-1.4-.7-1.7-.7 1-1.7 1.9-2.2 3.2-.9 2-1 4.5-1.3 7.1-.2 0-.1 0-.2.1-1.5-.4-2-1.9-2.6-3.2-1.4-3.3-1.6-8.7-.4-12.5.3-1 1.7-4.1 1.2-5-.3-.9-1.2-1.4-1.7-2.1-.6-.9-1.3-2-1.7-3-1.1-2.6-1.7-5.5-2.9-8.1-.6-1.2-1.5-2.5-2.3-3.6-.9-1.3-1.9-2.2-2.6-3.6-.2-.5-.6-1.4-.2-1.9.1-.4.3-.5.7-.6.6-.5 2.3.1 2.9.4 1.7.7 3.2 1.4 4.6 2.3.7.5 1.4 1.4 2.2 1.6h1c1.5.3 3.2.1 4.6.5 2.5.8 4.7 2 6.7 3.2 6.1 3.9 11.2 9.4 14.6 16 .6 1.1.8 2.1 1.3 3.2 1 2.3 2.2 4.6 3.2 6.9 1 2.2 1.9 4.4 3.3 6.3.7 1 3.5 1.5 4.8 2 .9.4 2.4.8 3.2 1.3 1.6 1 3.2 2.1 4.7 3.2.7.2 3 1.4 3.2 2.3"/><path class="st2" d="M167.5 104.4h1v-4.7H167l-1.2 3.2-1.3-3.2h-1.4v4.7h.9v-3.6h.1l1.4 3.6h.7l1.3-3.6v3.6zm-7.8 0h1v-3.9h1.3v-.8h-3.8v.8h1.4v3.9z"/></svg>